<svg width="512" height="512" viewBox="0 0 512 512" fill="none" xmlns="http://www.w3.org/2000/svg">
<g filter="url(#filter0_d_426_4291)">
<g clip-path="url(#clip0_426_4291)">
<rect x="7" width="498" height="498" rx="140" fill="#6366F0"/>
<path d="M247 -350.435C195.402 -350.435 144.026 -343.671 94.1852 -330.316L247 239.998L247 -350.435Z" fill="#6366F0"/>
<path d="M-48.2168 -271.332C-92.9026 -245.532 -134.014 -213.987 -170.499 -177.501L246.999 239.998L-48.2168 -271.332Z" fill="#6366F0"/>
<path d="M-264.331 -55.2182C-290.13 -10.5325 -309.96 37.3424 -323.315 87.1828L246.999 239.998L-264.331 -55.2182Z" fill="#6366F0"/>
<path d="M-343.435 239.999C-343.435 291.597 -336.671 342.973 -323.316 392.814L246.998 239.999L-343.435 239.999Z" fill="#6366F0"/>
<path d="M-264.332 535.216C-238.533 579.902 -206.987 621.013 -170.501 657.499L246.998 240L-264.332 535.216Z" fill="#6366F0"/>
<path d="M-48.2167 751.331C-3.53098 777.13 44.3439 796.961 94.1843 810.315L247 240.001L-48.2167 751.331Z" fill="#6366F0"/>
<path d="M247 830.435C298.599 830.435 349.975 823.671 399.815 810.316L247 240.003L247 830.435Z" fill="#6366F0"/>
<path d="M542.22 751.332C586.906 725.533 628.017 693.987 664.502 657.502L247.004 240.003L542.22 751.332Z" fill="#6366F0"/>
<path d="M758.335 535.218C784.134 490.532 803.964 442.658 817.319 392.817L247.005 240.002L758.335 535.218Z" fill="#6366F0"/>
<path d="M837.438 240C837.438 188.402 830.674 137.026 817.319 87.1851L247.005 240L837.438 240Z" fill="#6366F0"/>
<path d="M758.335 -55.2177C732.536 -99.9034 700.99 -141.014 664.505 -177.5L247.006 239.998L758.335 -55.2177Z" fill="#6366F0"/>
<path d="M542.22 -271.333C497.534 -297.132 449.659 -316.963 399.819 -330.317L247.004 239.996L542.22 -271.333Z" fill="#6366F0"/>
<path d="M94.1856 -330.316C44.3451 -316.962 -3.52973 -297.131 -48.2155 -271.332L247.001 239.998L94.1856 -330.316Z" fill="#808BF7"/>
<path d="M-170.499 -177.501C-206.984 -141.015 -238.53 -99.904 -264.329 -55.2182L247 239.998L-170.499 -177.501Z" fill="#808BF7"/>
<path d="M-323.315 87.1832C-336.67 137.024 -343.434 188.4 -343.434 239.998L246.999 239.998L-323.315 87.1832Z" fill="#808BF7"/>
<path d="M-323.316 392.815C-309.961 442.655 -290.131 490.53 -264.331 535.216L246.998 239.999L-323.316 392.815Z" fill="#808BF7"/>
<path d="M-170.501 657.5C-134.015 693.985 -92.9039 725.531 -48.2182 751.33L246.998 240.001L-170.501 657.5Z" fill="#808BF7"/>
<path d="M94.1841 810.316C144.025 823.671 195.401 830.435 246.999 830.435L246.999 240.002L94.1841 810.316Z" fill="#808BF7"/>
<path d="M399.816 810.317C449.656 796.962 497.531 777.132 542.217 751.332L247.001 240.003L399.816 810.317Z" fill="#808BF7"/>
<path d="M664.502 657.501C700.988 621.015 732.534 579.904 758.333 535.219L247.003 240.002L664.502 657.501Z" fill="#808BF7"/>
<path d="M817.318 392.816C830.672 342.976 837.436 291.6 837.436 240.001L247.004 240.001L817.318 392.816Z" fill="#808BF7"/>
<path d="M817.319 87.1842C803.964 37.3438 784.133 -10.5311 758.334 -55.2168L247.005 239.999L817.319 87.1842Z" fill="#808BF7"/>
<path d="M664.504 -177.501C628.018 -213.987 586.907 -245.533 542.221 -271.332L247.005 239.997L664.504 -177.501Z" fill="#808BF7"/>
<path d="M399.819 -330.318C349.978 -343.673 298.602 -350.437 247.004 -350.437L247.004 239.996L399.819 -330.318Z" fill="#808BF7"/>
</g>
</g>
<g filter="url(#filter1_d_426_4291)">
<mask id="path-26-outside-1_426_4291" maskUnits="userSpaceOnUse" x="66" y="26.5017" width="378" height="420" fill="black">
<rect fill="white" x="66" y="26.5017" width="378" height="420"/>
<path d="M209.315 235.284C209.315 298.595 244.112 319.376 282.292 319.376C293.407 319.376 305.006 316.476 313.222 314.06C312.739 309.71 312.256 295.695 312.256 286.512C296.79 286.996 274.076 287.479 268.76 287.962C265.86 284.096 264.41 218.852 267.793 213.536C282.292 210.153 405.53 206.286 409.397 209.669C413.263 213.052 411.33 373.021 409.88 373.988C387.165 392.836 328.688 413.617 270.693 413.617C152.287 413.617 98.1587 331.942 98.1587 230.934C98.1587 131.86 165.819 58.8833 280.359 58.8833C339.32 58.8833 381.366 78.6982 395.865 94.1634C395.381 105.762 362.034 167.623 351.402 178.739C334.004 169.073 309.356 159.407 282.292 159.407C240.246 159.407 209.315 189.371 209.315 235.284Z"/>
</mask>
<path d="M209.315 235.284C209.315 298.595 244.112 319.376 282.292 319.376C293.407 319.376 305.006 316.476 313.222 314.06C312.739 309.71 312.256 295.695 312.256 286.512C296.79 286.996 274.076 287.479 268.76 287.962C265.86 284.096 264.41 218.852 267.793 213.536C282.292 210.153 405.53 206.286 409.397 209.669C413.263 213.052 411.33 373.021 409.88 373.988C387.165 392.836 328.688 413.617 270.693 413.617C152.287 413.617 98.1587 331.942 98.1587 230.934C98.1587 131.86 165.819 58.8833 280.359 58.8833C339.32 58.8833 381.366 78.6982 395.865 94.1634C395.381 105.762 362.034 167.623 351.402 178.739C334.004 169.073 309.356 159.407 282.292 159.407C240.246 159.407 209.315 189.371 209.315 235.284Z" fill="#FA913C"/>
<path d="M313.222 314.06L322.259 344.784L348.017 337.208L345.052 310.523L313.222 314.06ZM312.256 286.512H344.281V253.471L311.255 254.503L312.256 286.512ZM268.76 287.962L243.139 307.177L253.862 321.474L271.659 319.856L268.76 287.962ZM267.793 213.536L260.516 182.348L247.79 185.318L240.775 196.342L267.793 213.536ZM409.88 373.988L392.116 347.341L390.72 348.271L389.43 349.342L409.88 373.988ZM395.865 94.1634L427.862 95.4966L428.422 82.0664L419.228 72.2601L395.865 94.1634ZM351.402 178.739L335.849 206.734L357.458 218.739L374.545 200.876L351.402 178.739ZM209.315 235.284H177.29C177.29 272.72 187.695 303.144 209.152 324.023C230.376 344.676 257.714 351.401 282.292 351.401V319.376V287.351C268.69 287.351 259.54 283.685 253.82 278.12C248.334 272.781 241.34 261.158 241.34 235.284H209.315ZM282.292 319.376V351.401C298.186 351.401 313.414 347.385 322.259 344.784L313.222 314.06L304.186 283.336C296.598 285.568 288.629 287.351 282.292 287.351V319.376ZM313.222 314.06L345.052 310.523C345.054 310.547 345.028 310.299 344.983 309.68C344.941 309.104 344.894 308.363 344.845 307.461C344.746 305.658 344.649 303.43 344.563 300.982C344.392 296.052 344.281 290.638 344.281 286.512H312.256H280.23C280.23 295.84 280.7 311.364 281.393 317.596L313.222 314.06ZM312.256 286.512L311.255 254.503C297.237 254.941 272.437 255.471 265.86 256.069L268.76 287.962L271.659 319.856C271.631 319.859 271.742 319.848 272.043 319.829C272.328 319.81 272.706 319.788 273.186 319.763C274.152 319.713 275.382 319.658 276.864 319.601C279.826 319.486 283.524 319.369 287.636 319.249C295.67 319.014 305.537 318.763 313.256 318.522L312.256 286.512ZM268.76 287.962L294.38 268.747C297.011 272.255 298.197 275.417 298.528 276.312C299.006 277.605 299.253 278.576 299.343 278.942C299.523 279.681 299.533 279.923 299.447 279.324C299.29 278.229 299.073 276.185 298.85 273.125C298.415 267.14 298.085 259.075 297.941 250.739C297.796 242.389 297.847 234.297 298.105 228.225C298.237 225.124 298.403 223.061 298.538 221.95C298.609 221.361 298.609 221.571 298.449 222.276C298.367 222.64 298.161 223.499 297.765 224.647C297.436 225.601 296.573 227.962 294.812 230.729L267.793 213.536L240.775 196.342C237.393 201.656 236.261 206.892 235.98 208.134C235.471 210.381 235.158 212.541 234.951 214.253C234.529 217.743 234.275 221.679 234.113 225.503C233.782 233.281 233.742 242.738 233.9 251.847C234.058 260.969 234.423 270.273 234.969 277.775C235.237 281.457 235.582 285.187 236.046 288.421C236.271 289.986 236.606 292.031 237.125 294.154C237.226 294.567 238.57 301.085 243.139 307.177L268.76 287.962ZM267.793 213.536L275.07 244.723C274.343 244.893 275.643 244.609 280.713 244.159C285.018 243.777 290.673 243.384 297.331 243.001C310.611 242.237 327.184 241.554 343.517 241.077C359.876 240.599 375.7 240.338 387.522 240.395C393.501 240.425 398.05 240.535 401.003 240.7C402.562 240.788 403.067 240.859 402.886 240.834C402.852 240.829 401.903 240.704 400.501 240.334C399.796 240.147 398.436 239.758 396.757 239.055C395.398 238.486 391.939 236.948 388.308 233.771L409.397 209.669L430.485 185.568C424.213 180.079 417.333 178.533 416.882 178.413C414.786 177.859 412.924 177.564 411.771 177.403C409.353 177.064 406.8 176.875 404.591 176.751C400.007 176.493 394.181 176.377 387.836 176.346C375.01 176.283 358.393 176.565 341.647 177.054C324.875 177.543 307.678 178.25 293.652 179.056C286.657 179.459 280.276 179.896 275.051 180.36C270.591 180.756 264.868 181.333 260.516 182.348L267.793 213.536ZM409.397 209.669L388.308 233.771C383.182 229.285 380.95 224.375 380.365 223.074C379.489 221.127 379.035 219.556 378.847 218.867C378.627 218.062 378.506 217.462 378.453 217.186C378.394 216.882 378.368 216.7 378.365 216.68C378.362 216.658 378.397 216.903 378.453 217.505C378.508 218.079 378.569 218.837 378.633 219.799C378.899 223.773 379.123 229.734 379.29 237.338C379.621 252.414 379.697 272.436 379.607 292.592C379.517 312.709 379.262 332.719 378.942 347.696C378.781 355.213 378.607 361.311 378.436 365.472C378.348 367.606 378.273 368.936 378.222 369.601C378.19 370.021 378.203 369.704 378.297 369.029C378.329 368.803 378.49 367.619 378.878 366.066C379.053 365.365 379.515 363.588 380.436 361.42C380.624 360.978 383.626 353.001 392.116 347.341L409.88 373.988L427.644 400.634C436.157 394.96 439.182 386.948 439.392 386.452C440.336 384.231 440.821 382.381 441.019 381.589C441.453 379.852 441.66 378.41 441.737 377.853C441.923 376.515 442.029 375.245 442.09 374.44C442.225 372.653 442.336 370.444 442.432 368.105C442.629 363.32 442.814 356.734 442.978 349.066C443.307 333.671 443.566 313.296 443.657 292.878C443.748 272.497 443.674 251.832 443.325 235.933C443.152 228.05 442.904 220.95 442.541 215.525C442.366 212.905 442.124 210.038 441.746 207.443C441.569 206.234 441.244 204.227 440.638 202.004C440.34 200.914 439.773 199.012 438.782 196.809C438.082 195.251 435.733 190.159 430.485 185.568L409.397 209.669ZM409.88 373.988L389.43 349.342C382.731 354.9 367.003 363.261 344.156 370.244C322.027 377.007 296.076 381.592 270.693 381.592V413.617V445.643C303.305 445.643 335.589 439.837 362.877 431.497C389.446 423.377 414.314 411.923 430.33 398.633L409.88 373.988ZM270.693 413.617V381.592C219.429 381.592 185.724 364.253 164.336 339.308C142.3 313.608 130.184 276.099 130.184 230.934H98.1587H66.1335C66.1335 286.777 81.0812 340.609 115.711 380.999C150.989 422.144 203.551 445.643 270.693 445.643V413.617ZM98.1587 230.934H130.184C130.184 188.835 144.423 154.458 168.729 130.621C193.018 106.803 230.03 90.9086 280.359 90.9086V58.8833V26.8581C216.147 26.8581 162.06 47.4523 123.883 84.8906C85.7249 122.311 66.1335 173.959 66.1335 230.934H98.1587ZM280.359 58.8833V90.9086C306.295 90.9086 327.97 95.2737 344.214 100.954C361.234 106.906 370.091 113.496 372.501 116.067L395.865 94.1634L419.228 72.2601C407.14 59.366 387.724 48.3155 365.356 40.4938C342.212 32.4004 313.383 26.8581 280.359 26.8581V58.8833ZM395.865 94.1634L363.867 92.8302C364.02 89.1676 364.919 87.5123 363.993 90.1811C363.411 91.8618 362.405 94.394 360.916 97.764C357.965 104.443 353.793 112.884 349.158 121.605C344.541 130.295 339.689 138.842 335.471 145.716C330.662 153.553 328.217 156.646 328.259 156.602L351.402 178.739L374.545 200.876C379.903 195.274 385.614 186.466 390.063 179.215C395.103 171.001 400.611 161.275 405.72 151.66C410.812 142.076 415.732 132.183 419.501 123.653C421.372 119.419 423.135 115.128 424.51 111.163C425.542 108.185 427.589 102.059 427.862 95.4966L395.865 94.1634ZM351.402 178.739L366.955 150.744C346.747 139.518 316.661 127.382 282.292 127.382V159.407V191.433C302.051 191.433 321.26 198.629 335.849 206.734L351.402 178.739ZM282.292 159.407V127.382C253.459 127.382 226.723 137.789 207.183 157.693C187.637 177.602 177.29 204.958 177.29 235.284H209.315H241.34C241.34 219.698 246.458 209.115 252.889 202.564C259.326 196.007 269.078 191.433 282.292 191.433V159.407Z" fill="white" mask="url(#path-26-outside-1_426_4291)"/>
</g>
<defs>
<filter id="filter0_d_426_4291" x="7" y="0" width="498" height="512" filterUnits="userSpaceOnUse" color-interpolation-filters="sRGB">
<feFlood flood-opacity="0" result="BackgroundImageFix"/>
<feColorMatrix in="SourceAlpha" type="matrix" values="0 0 0 0 0 0 0 0 0 0 0 0 0 0 0 0 0 0 127 0" result="hardAlpha"/>
<feOffset dy="14"/>
<feComposite in2="hardAlpha" operator="out"/>
<feColorMatrix type="matrix" values="0 0 0 0 0.309804 0 0 0 0 0.27451 0 0 0 0 0.894118 0 0 0 1 0"/>
<feBlend mode="normal" in2="BackgroundImageFix" result="effect1_dropShadow_426_4291"/>
<feBlend mode="normal" in="SourceGraphic" in2="effect1_dropShadow_426_4291" result="shape"/>
</filter>
<filter id="filter1_d_426_4291" x="66.1333" y="26.8582" width="377.559" height="445.472" filterUnits="userSpaceOnUse" color-interpolation-filters="sRGB">
<feFlood flood-opacity="0" result="BackgroundImageFix"/>
<feColorMatrix in="SourceAlpha" type="matrix" values="0 0 0 0 0 0 0 0 0 0 0 0 0 0 0 0 0 0 127 0" result="hardAlpha"/>
<feOffset dy="26.6877"/>
<feComposite in2="hardAlpha" operator="out"/>
<feColorMatrix type="matrix" values="0 0 0 0 0.988235 0 0 0 0 0.72549 0 0 0 0 0.454902 0 0 0 1 0"/>
<feBlend mode="normal" in2="BackgroundImageFix" result="effect1_dropShadow_426_4291"/>
<feBlend mode="normal" in="SourceGraphic" in2="effect1_dropShadow_426_4291" result="shape"/>
</filter>
<clipPath id="clip0_426_4291">
<rect x="7" width="498" height="498" rx="140" fill="white"/>
</clipPath>
</defs>
</svg>
