<svg width="196" height="180" viewBox="0 0 196 180" fill="none" xmlns="http://www.w3.org/2000/svg">
<path opacity="0.1" d="M25.8838 77.3496C23.7706 78.3883 23.397 81.2466 25.1745 82.7919C36.1435 92.336 68.2463 120.219 80.6509 130.445C88.8629 137.213 107.786 151.971 120.297 161.678C127.698 167.422 137.662 168.613 146.214 164.781C153.603 161.471 161.969 157.637 166.035 155.484C171.167 152.765 181.709 145.756 189.077 140.755C192.999 138.093 193.107 132.349 189.288 129.539L81.2842 50.1064L25.8838 77.3496Z" fill="black"/>
<path d="M17.8335 72.2534C17.8335 72.2534 61.8258 108.973 76.4892 120.932C87.0001 129.503 118.531 154.373 118.531 154.373L178.485 97.1638C178.485 97.1638 151.674 74.5755 135.841 63.1758C117.235 49.7812 68.921 13.7771 68.921 13.7771C59.225 8.50584 42.0051 15.3604 28.3888 28.9767C14.7725 42.593 10.4955 64.0456 17.8335 72.2534Z" fill="#76BA2C"/>
<path d="M83.6985 112.364C51.83 87.2147 24.4622 60.2396 15.467 51.1621C13.1575 59.8407 13.9091 67.8648 17.8314 72.2537C17.8314 72.2537 61.8237 108.973 76.4871 120.932C86.998 129.503 118.529 154.374 118.529 154.374L130.655 142.803C117.691 136.048 101.148 126.134 83.6963 112.364H83.6985Z" fill="#3E9219"/>
<path d="M178.485 97.1639C186.084 104.553 184.396 127.352 163.285 142.552C144.722 155.917 126.13 159.018 118.531 154.374C106.842 147.23 112.62 119.752 130.141 104.975C147.627 90.227 165.253 84.2991 178.485 97.1639Z" fill="#25730F"/>
<path d="M168.035 110.147C169.888 111.937 170.287 115.082 169.027 118.38C167.214 123.126 164.186 128.304 158.417 133.567C148.64 142.486 134.467 144.979 130.804 140.335C128.026 136.809 132.195 127.101 141.972 118.182C151.748 109.262 161.911 104.236 168.033 110.147H168.035Z" fill="#3E9219"/>
<path d="M167.612 109.725C161.068 104.237 150.967 109.977 141.974 118.182C132.197 127.102 128.028 136.81 130.806 140.336C131.433 141.132 132.991 142.447 136.58 142.658C136.58 142.658 131.091 141.391 133.624 134.636C134.821 131.442 137.635 129.992 138.902 128.303C140.346 126.377 140.23 124.326 141.435 122.603C142.913 120.492 145.527 120.338 147.768 117.114C151.146 112.259 153.468 116.27 157.902 111.625C160.067 109.356 164.38 108.727 167.612 109.725Z" fill="#25730F"/>
<path d="M161.713 90.0928V97.2704C166.144 97.2704 169.992 98.9191 173.482 102.312C174.25 103.059 175.502 105.601 175.314 110.382C175.09 116.044 173.043 121.178 171.364 124.488C168.517 130.104 164.436 135.141 159.232 139.456C150.319 146.846 140.378 151.085 131.953 151.085C128.172 151.085 125.001 150.224 122.785 148.594C120.494 146.91 119.268 144.106 119.139 140.266C118.993 135.875 120.353 130.593 122.966 125.394C125.81 119.74 129.891 114.579 134.769 110.464C145.002 101.834 154.318 97.2725 161.711 97.2725V90.0949M161.711 90.0928C151.852 90.0928 140.969 95.8433 130.142 104.976C112.62 119.753 105.759 144.98 118.531 154.374C121.983 156.914 126.618 158.261 131.953 158.261C141.301 158.261 152.793 154.119 163.813 144.98C183.837 128.375 186.085 104.554 178.485 97.1648C173.446 92.2672 167.774 90.0928 161.711 90.0928Z" fill="url(#paint0_linear_595_7380)"/>
<path d="M129.557 145.4C128.993 145.4 128.423 145.24 127.921 144.904C126.203 143.76 125.069 141.666 124.729 139.012C124.29 135.59 124.879 128.358 133.764 118.381C138.962 112.544 144.577 107.948 149.998 105.094C155.236 102.337 159.939 101.345 163.6 102.223C165.187 102.603 166.165 104.199 165.785 105.786C165.405 107.374 163.807 108.351 162.221 107.971C158.489 107.076 149.006 110.154 138.181 122.314C130.87 130.524 130.414 135.943 130.558 137.891C130.655 139.227 131.071 139.869 131.216 139.996C132.563 140.904 132.926 142.732 132.023 144.085C131.453 144.94 130.515 145.402 129.561 145.402L129.557 145.4Z" fill="#529620"/>
<path d="M144.392 132.736C144.392 133.785 143.541 134.636 142.492 134.636C141.443 134.636 140.592 133.785 140.592 132.736C140.592 131.687 141.443 131.681 142.492 131.681C143.541 131.681 144.392 131.687 144.392 132.736Z" fill="#25730F"/>
<path d="M153.469 131.258C153.469 132.307 152.618 133.158 151.569 133.158C150.52 133.158 149.669 132.307 149.669 131.258C149.669 130.208 150.52 130.202 151.569 130.202C152.618 130.202 153.469 130.208 153.469 131.258Z" fill="#25730F"/>
<path d="M161.068 124.714C161.068 125.763 160.218 126.614 159.169 126.614C158.119 126.614 157.269 125.763 157.269 124.714C157.269 123.665 158.119 123.658 159.169 123.658C160.218 123.658 161.068 123.665 161.068 124.714Z" fill="#25730F"/>
<path d="M149.035 126.825C149.035 127.874 148.184 128.725 147.135 128.725C146.086 128.725 145.235 127.874 145.235 126.825C145.235 125.776 146.086 125.77 147.135 125.77C148.184 125.77 149.035 125.776 149.035 126.825Z" fill="#25730F"/>
<path d="M166.346 116.903C166.346 117.952 165.495 118.803 164.446 118.803C163.397 118.803 162.546 117.952 162.546 116.903C162.546 115.854 163.397 115.848 164.446 115.848C165.495 115.848 166.346 115.854 166.346 116.903Z" fill="#25730F"/>
<path d="M46.4993 53.1551C47.6962 51.1939 49.3154 49.6444 51.0591 48.2004C62.157 39.4437 78.8491 37.7739 91.6653 43.4885C92.6955 43.9677 93.7109 44.5103 94.6904 45.1394C94.8044 45.2112 94.8382 45.3632 94.7643 45.4771C94.7137 45.5574 94.6208 45.5975 94.5321 45.589C91.4795 45.2112 88.372 44.9367 85.2983 44.8333C74.0422 44.4322 62.5559 46.0851 52.2202 50.6915C51.2808 51.1031 50.354 51.5464 49.4463 52.0235C48.5407 52.4985 47.6371 53.0052 46.799 53.5667C46.6871 53.6427 46.5351 53.611 46.4592 53.4992C46.4043 53.4189 46.4064 53.3176 46.4528 53.2374L46.5014 53.1572L46.4993 53.1551Z" fill="#3E9219"/>
<path d="M82.8688 80.3566C94.5513 69.7697 117.665 65.9698 131.923 72.9616C132.466 73.2424 133.006 73.5232 133.532 73.8504C133.646 73.9222 133.682 74.072 133.612 74.186C133.562 74.2684 133.471 74.3085 133.38 74.3C132.434 74.2071 131.127 74.0573 130.199 74.0045C118.499 73.1727 106.743 74.6885 95.3556 77.3547C91.2138 78.3406 87.0803 79.4552 83.0524 80.8274C82.9258 80.8717 82.7864 80.8042 82.7421 80.6775C82.7104 80.5846 82.7358 80.4875 82.8012 80.4242L82.8709 80.3545L82.8688 80.3566Z" fill="#3E9219"/>
<defs>
<linearGradient id="paint0_linear_595_7380" x1="111.949" y1="124.178" x2="182.509" y2="124.178" gradientUnits="userSpaceOnUse">
<stop stop-color="#3E9219"/>
<stop offset="1" stop-color="#619925"/>
</linearGradient>
</defs>
</svg>
