<svg width="512" height="512" viewBox="0 0 512 512" fill="none" xmlns="http://www.w3.org/2000/svg">
<g clip-path="url(#clip0_978_9993)">
<path opacity="0.1" d="M254.787 511.088C329.346 511.088 389.788 494.592 389.788 474.244C389.788 453.896 329.346 437.4 254.787 437.4C180.229 437.4 119.787 453.896 119.787 474.244C119.787 494.592 180.229 511.088 254.787 511.088Z" fill="black"/>
<path d="M303.652 171.195C350.101 185.316 371.777 227.048 378.665 272.559C385.673 318.883 385.387 397.074 362.629 438.85C336.809 486.241 267.498 492.724 219.792 484.113C147.754 471.113 132.657 413.868 129.633 350.09C127.778 310.964 130.297 254.522 149.17 220.098C160.595 199.262 183.54 177.958 206.512 171.189C236.865 162.248 273.255 161.945 303.652 171.189V171.195Z" fill="#FEBE0E"/>
<mask id="mask0_978_9993" style="mask-type:luminance" maskUnits="userSpaceOnUse" x="129" y="164" width="254" height="324">
<path d="M303.658 171.193C350.106 185.314 371.783 227.047 378.671 272.557C385.678 318.881 385.393 397.072 362.635 438.848C336.815 486.239 267.504 492.722 219.798 484.111C147.76 471.111 132.663 413.866 129.639 350.088C127.784 310.962 130.303 254.52 149.175 220.096C160.601 199.26 183.546 177.956 206.518 171.187C236.871 162.246 273.261 161.943 303.658 171.187V171.193Z" fill="white"/>
</mask>
<g mask="url(#mask0_978_9993)">
<path d="M89.381 307.083L84.8975 296.613C85.2322 296.47 119.202 281.738 171.204 250.025C219.179 220.764 292.754 170.652 370.84 98.0586L378.573 106.412C299.702 179.741 225.353 230.355 176.873 259.907C124.245 291.983 90.7804 306.484 89.3865 307.083H89.381Z" fill="#F39800"/>
<path d="M89.1255 370.971L85.1578 360.292C85.5694 360.138 119.484 347.33 171.377 317.559C219.308 290.063 292.817 242.068 370.837 169.535L378.569 177.888C299.649 251.262 225.251 299.808 176.739 327.611C124.05 357.806 90.5249 370.443 89.1255 370.965V370.971Z" fill="#F39800"/>
<path d="M115.153 414.662L112.903 403.493L114.028 409.08L112.897 403.499C123.824 401.272 155.099 391.544 195.231 370.681C224.695 355.36 254.62 336.449 284.172 314.464C321.122 286.974 357.583 254.574 392.551 218.17L400.744 226.072C365.227 263.053 328.163 295.959 290.588 323.884C260.481 346.254 229.975 365.5 199.918 381.085C148.491 407.744 116.486 414.404 115.153 414.673V414.662Z" fill="#F39800"/>
<path d="M136.007 464.701L133.757 453.532L134.882 459.119L133.752 453.538C144.678 451.311 175.953 441.583 216.086 420.72C245.55 405.399 275.475 386.488 305.027 364.503C341.976 337.013 378.437 304.613 413.406 268.209L421.599 276.111C386.082 313.092 349.017 345.999 311.442 373.923C281.336 396.293 250.829 415.54 220.772 431.124C169.346 457.783 137.341 464.443 136.007 464.712V464.701Z" fill="#F39800"/>
<path d="M159.601 511.994L157.351 500.825L158.476 506.412L157.346 500.831C168.272 498.604 199.547 488.876 239.679 468.013C269.144 452.692 299.069 433.781 328.621 411.796C365.57 384.306 402.031 351.906 436.999 315.502L445.193 323.404C409.676 360.385 372.611 393.291 335.036 421.216C304.93 443.586 274.423 462.832 244.366 478.417C192.94 505.076 160.935 511.736 159.601 512.005V511.994Z" fill="#F39800"/>
<path d="M421.847 307.083C420.448 306.484 386.983 291.983 334.36 259.907C285.881 230.355 211.538 179.741 132.661 106.412L140.393 98.0586C218.474 170.652 292.055 220.764 340.029 250.025C392.032 281.738 425.996 296.47 426.336 296.613L421.853 307.083H421.847Z" fill="#F39800"/>
<path d="M422.105 370.969C420.706 370.447 387.175 357.81 334.492 327.615C285.98 299.812 211.581 251.26 132.661 177.892L140.393 169.539C218.414 242.072 291.923 290.067 339.854 317.562C391.807 347.362 425.738 360.169 426.078 360.296L422.105 370.975V370.969Z" fill="#F39800"/>
<path d="M396.078 414.661C394.739 414.392 362.739 407.738 311.313 381.073C281.251 365.489 250.744 346.242 220.643 323.872C183.068 295.948 146.003 263.036 110.486 226.06L118.68 218.158C153.648 254.567 190.115 286.962 227.059 314.452C256.605 336.437 286.53 355.354 316 370.669C356.138 391.532 387.407 401.26 398.333 403.487L396.078 414.656V414.661Z" fill="#F39800"/>
<path d="M375.224 464.702C373.885 464.433 341.886 457.779 290.46 431.114C260.397 415.53 229.89 396.283 199.79 373.913C162.215 345.989 125.15 313.077 89.6328 276.101L97.8261 268.199C132.795 304.608 169.261 337.003 206.205 364.493C235.751 386.478 265.677 405.395 295.146 420.71C335.284 441.573 366.554 451.301 377.48 453.528L375.224 464.697V464.702Z" fill="#F39800"/>
<path d="M351.625 511.993C350.286 511.724 318.286 505.07 266.86 478.405C236.798 462.821 206.291 443.574 176.19 421.204C138.615 393.28 101.55 360.368 66.0332 323.392L74.2265 315.49C109.195 351.899 145.661 384.294 182.605 411.784C212.152 433.769 242.077 452.686 271.546 468.001C311.684 488.864 342.954 498.592 353.88 500.819L351.625 511.988V511.993Z" fill="#F39800"/>
</g>
<path d="M206.506 171.194C194.998 152.486 178.156 137.765 159.624 126.288C154.712 123.248 132.602 112.458 130.835 109.34C129.825 107.564 129.666 105.255 132.476 103.028C135.955 100.272 147.326 97.7924 151.837 97.5065C167.521 96.5166 183.825 99.8216 197.83 106.816C194.428 95.9062 191.684 87.1078 176.104 66.8493C172.592 62.2796 161.901 52.7497 162.061 47.3496C162.176 43.5663 166.917 40.8993 170.347 40.6793C187.634 39.5575 217.098 58.3752 226.614 72.4253C228.48 75.1748 227.728 70.2807 227.914 68.8399C228.518 64.1657 228.814 59.475 229.44 54.7898C231.075 42.5325 237.847 21.3941 245.81 9.07625C251.786 -0.167652 255.249 -4.36343 263.064 6.29923C268.414 13.5965 279.483 39.2715 282.787 66.5853C283.21 70.0827 282.606 72.6948 285.41 70.2587C287.743 68.235 291.776 64.1382 294.301 61.8506C304.952 52.2163 323.468 41.0862 338.022 40.6738C342.429 40.5473 348.723 42.3675 348.767 47.938C348.811 52.9807 338.203 62.318 334.883 66.5193C325.581 78.2873 318.233 92.1229 313.179 106.222C319.44 102.637 327.096 100.267 334.169 98.8647C344.668 96.7861 363.463 96.2857 373.429 100.322C377.726 102.06 383.538 106.514 378.434 110.781C371.75 116.368 357.103 122.252 348.795 127.449C330.877 138.661 314.748 152.997 303.646 171.188C273.244 161.944 236.854 162.247 206.506 171.188V171.194Z" fill="#5D911A"/>
<mask id="mask1_978_9993" style="mask-type:luminance" maskUnits="userSpaceOnUse" x="130" y="-1" width="251" height="173">
<path d="M206.506 171.192C194.998 152.484 178.156 137.763 159.624 126.287C154.712 123.246 132.602 112.456 130.835 109.338C129.825 107.562 129.666 105.253 132.476 103.026C135.955 100.271 147.326 97.7905 151.837 97.5045C167.521 96.5147 183.825 99.8196 197.83 106.814C194.428 95.9043 191.684 87.1058 176.104 66.8473C172.592 62.2776 161.901 52.7477 162.061 47.3477C162.176 43.5643 166.917 40.8973 170.347 40.6773C187.634 39.5555 217.098 58.3733 226.614 72.4234C228.48 75.1729 227.728 70.2787 227.914 68.838C228.518 64.1638 228.814 59.4731 229.44 54.7879C231.075 42.5305 237.847 21.3922 245.81 9.0743C251.786 -0.169605 255.249 -4.36538 263.064 6.29728C268.414 13.5945 279.483 39.2696 282.787 66.5834C283.21 70.0807 282.606 72.6928 285.41 70.2567C287.743 68.2331 291.776 64.1363 294.301 61.8487C304.952 52.2143 323.468 41.0843 338.022 40.6718C342.429 40.5454 348.723 42.3655 348.767 47.9361C348.811 52.9787 338.203 62.3161 334.883 66.5174C325.581 78.2853 318.233 92.1209 313.179 106.221C319.44 102.635 327.096 100.265 334.17 98.8628C344.668 96.7841 363.464 96.2837 373.429 100.32C377.726 102.058 383.538 106.512 378.434 110.779C371.75 116.366 357.103 122.25 348.795 127.447C330.877 138.659 314.748 152.995 303.646 171.186C273.244 161.942 236.854 162.245 206.506 171.186V171.192Z" fill="white"/>
</mask>
<g mask="url(#mask1_978_9993)">
<path d="M254.683 227.849C251.127 213.04 251.857 197.637 254.36 182.718C260.929 145.319 283.862 107.717 320.093 92.8858C325.41 90.7247 330.997 89.1024 336.666 88.2061C338.515 87.9091 340.491 87.7057 342.357 87.5957L342.845 88.822C336.249 91.621 329.867 94.9314 323.912 98.8963C287.363 122.685 267.865 165.028 259.288 206.628C257.839 213.661 256.637 220.794 256.001 227.926L254.683 227.849Z" fill="#3A6A0A"/>
<path d="M254.687 227.92C248.611 172.248 222.517 111.401 167.842 88.822L168.33 87.5957C170.196 87.7002 172.172 87.8981 174.027 88.1951C179.701 89.0859 185.288 90.7027 190.611 92.8583C234.058 110.901 257.941 159.958 258.385 205.27C258.352 212.87 257.897 220.42 256.004 227.849L254.687 227.926V227.92Z" fill="#3A6A0A"/>
<path d="M254.141 147.16C243.912 102.084 220.506 37.685 173.552 20.6214C170.304 19.4831 166.967 18.5813 163.576 17.9214C163.224 17.8554 162.999 17.5145 163.065 17.168C163.12 16.8931 163.334 16.6951 163.592 16.6566L163.795 16.6236C171.143 15.4468 178.87 16.2552 186.218 18.4603C231.674 32.8458 256.594 91.3227 256.232 135.925C256.193 139.643 256.001 143.377 255.392 147.133C255.337 147.484 255.008 147.726 254.657 147.666C254.382 147.622 254.179 147.413 254.124 147.16H254.141Z" fill="#3A6A0A"/>
<path d="M254.143 146.931C250.131 112.325 263.62 70.6864 286.373 44.2579C298.743 29.8614 315.821 18.022 335.099 16.2733C338.946 15.9433 342.782 16.0148 346.53 16.6527C346.882 16.7077 347.118 17.0431 347.057 17.3951C347.013 17.67 346.799 17.8735 346.547 17.923C343.155 18.5829 339.813 19.4902 336.559 20.6285C294.561 36.1138 272.878 86.8701 260.685 126.931C258.698 133.606 256.876 140.365 255.438 147.167C255.367 147.514 255.021 147.739 254.675 147.662C254.406 147.607 254.214 147.387 254.17 147.129L254.138 146.925L254.143 146.931Z" fill="#3A6A0A"/>
</g>
</g>
<defs>
<clipPath id="clip0_978_9993">
<rect width="379.946" height="512" fill="white" transform="translate(66.0273)"/>
</clipPath>
</defs>
</svg>
