<svg width="512" height="512" viewBox="0 0 512 512" fill="none" xmlns="http://www.w3.org/2000/svg">
<path opacity="0.1" d="M249.627 186.557C371.296 186.557 347.672 235.767 332.545 256.275C330.966 258.412 334.177 261.313 336.948 260.256C369.187 247.967 451.676 214.161 498.845 272.73C538.836 322.383 446.867 330.16 404.005 330.5C400.526 330.53 400.186 334.779 403.821 335.579C471.188 350.423 495.08 403.889 438.258 437.235C346.641 491.006 274.055 412.257 260.423 397.67C257.104 394.118 254.846 395.79 255.138 397.658C262.848 447.018 198.221 473.995 107.879 436.089C40.726 407.918 17.0308 345.917 138.146 329.151C141.041 328.751 139.183 324.322 135.828 324.185C33.8385 319.947 -31.6761 282.614 24.6512 258.43C60.8105 242.906 146.904 247.895 182.301 260.161C185.405 261.235 187.675 258.376 185.423 256.221C163.95 235.684 125.556 186.557 249.627 186.557Z" fill="black"/>
<path d="M1.73926 190.395C1.73926 190.395 7.19682 259.379 8.53142 269.334L244.654 268.845V205.519L1.73926 190.395Z" fill="#803213"/>
<path d="M487.71 185.412C487.71 185.412 481.955 255.017 480.62 264.967L244.646 268.84V205.514L487.705 185.412H487.71Z" fill="#803213"/>
<path d="M152.126 104.482C152.126 104.482 157.542 169.241 158.87 179.197H246.513V115.87L152.126 104.488V104.482Z" fill="#803213"/>
<path d="M334.837 105.1C334.837 105.1 329.153 169.238 327.818 179.187H240.176V115.861L334.837 105.1Z" fill="#803213"/>
<path d="M50.8311 294.359C50.8311 294.359 56.7712 363.439 58.0999 373.395L216.756 372.189L244.652 308.863L50.8311 294.365V294.359Z" fill="#803213"/>
<path d="M439.859 289.377C439.859 289.377 433.895 360.832 432.56 370.782L274.279 372.184L246.384 308.858L439.859 289.383V289.377Z" fill="#803213"/>
<path d="M245.282 139.969C395.948 139.969 306.423 232.075 306.423 232.075C306.423 232.075 438.197 164.995 475.423 241.046C479.832 250.058 481.184 258.313 480.624 264.968C480.475 266.741 480.535 267.695 480.076 269.361C467.391 315.044 345.138 308.425 345.138 308.425C345.138 308.425 436.761 333.314 432.567 370.784C431.202 382.948 420.132 395.177 392.058 409.962C289.884 463.75 245.288 367.812 245.288 367.812C245.288 367.812 203.129 457.441 103.052 414.504C71.9267 401.152 59.6174 386.278 58.1101 373.392C53.8858 337.259 135.845 308.425 135.845 308.425C135.845 308.425 14.533 320.141 8.53324 269.331C7.59187 261.381 9.52823 252.374 15.1407 241.046C52.6108 165.46 179.392 232.075 179.392 232.075C179.392 232.075 91.5048 139.969 245.282 139.969Z" fill="#803213"/>
<path d="M331.118 191.688C333.454 183.302 333.71 174.666 329.861 166.906C329.462 166.101 329.307 165.193 329.39 164.298C331.017 147.616 333.281 122.483 334.3 111.095C334.574 107.997 331.946 105.431 328.866 105.783L244.012 115.428C243.63 115.47 243.249 115.47 242.874 115.428L158.109 105.204C155.022 104.834 152.377 107.388 152.639 110.492C153.646 122.411 155.94 149.335 157.525 166.095C157.602 166.936 157.471 167.79 157.12 168.56C153.479 176.42 153.837 185.081 156.178 193.407C157.102 196.683 154.57 199.906 151.174 199.698L7.38225 190.751C4.40324 190.566 1.95448 193.061 2.1928 196.039C3.5274 212.715 7.43588 261.126 8.53811 269.338C10.683 287.495 27.5502 297.665 48.3438 303.24C50.3457 303.777 51.7994 305.49 51.9841 307.555C53.7775 328.117 57.1497 366.202 58.109 373.394C59.6164 386.28 71.9257 401.154 103.05 414.505C185.128 449.72 228.253 395.758 241.104 375.214C243.035 372.135 247.521 372.164 249.422 375.262C262.589 396.719 307.697 454.375 392.057 409.963C420.137 395.179 431.207 382.95 432.566 370.786C433.525 363.617 436.885 324.565 438.696 303.264C438.863 301.27 440.234 299.587 442.14 298.99C460.902 293.147 476.041 283.908 480.081 269.362C480.54 267.697 480.48 266.742 480.629 264.969C481.725 256.769 485.825 208.095 487.237 191.192C487.487 188.166 484.967 185.642 481.946 185.892L336.206 197.943C332.792 198.223 330.195 195 331.118 191.694V191.688Z" fill="#803213"/>
<path d="M171.063 400.489C173.202 406.876 169.77 413.787 163.395 415.93C157.02 418.073 150.121 414.635 147.982 408.248C145.843 401.862 150.997 400.089 157.372 397.947C163.747 395.804 168.924 394.103 171.063 400.489Z" fill="#8B3916"/>
<path d="M185.653 386.211C185.653 389.84 182.715 392.783 179.093 392.783C175.471 392.783 172.533 389.84 172.533 386.211C172.533 382.582 175.471 382.559 179.093 382.559C182.715 382.559 185.653 382.582 185.653 386.211Z" fill="#8B3916"/>
<path d="M27.7508 272.476C27.7508 275.443 25.3497 277.848 22.3886 277.848C19.4275 277.848 17.0264 275.443 17.0264 272.476C17.0264 269.51 19.4275 269.492 22.3886 269.492C25.3497 269.492 27.7508 269.51 27.7508 272.476Z" fill="#8B3916"/>
<path d="M33.4203 264.857C33.4203 266.755 31.8831 268.295 29.9885 268.295C28.0938 268.295 26.5566 266.755 26.5566 264.857C26.5566 262.959 28.0938 262.947 29.9885 262.947C31.8831 262.947 33.4203 262.959 33.4203 264.857Z" fill="#8B3916"/>
<path d="M189.54 392.436C190.862 393.904 190.749 396.166 189.284 397.491C187.818 398.816 185.56 398.703 184.237 397.234C182.914 395.766 184.094 394.686 185.554 393.355C187.014 392.024 188.211 390.961 189.54 392.43V392.436Z" fill="#8B3916"/>
<path d="M224.917 346.987C225.918 348.694 224.571 351.344 221.908 352.908C219.245 354.471 216.278 354.358 215.277 352.657C214.276 350.956 216.426 349.673 219.09 348.109C221.753 346.545 223.916 345.286 224.917 346.993V346.987Z" fill="#8B3916"/>
<path d="M232.337 349.02C233.66 350.488 233.44 352.852 231.837 354.302C230.234 355.752 227.869 355.734 226.54 354.272C225.212 352.81 226.504 351.622 228.107 350.172C229.71 348.721 231.009 347.557 232.337 349.026V349.02Z" fill="#8B3916"/>
<path d="M368.628 378.582C368.628 382.396 365.541 385.487 361.734 385.487C357.927 385.487 354.841 382.396 354.841 378.582C354.841 374.768 357.927 374.744 361.734 374.744C365.541 374.744 368.628 374.768 368.628 378.582Z" fill="#8B3916"/>
<path d="M378.723 371.765C379.331 373.771 378.199 375.89 376.197 376.498C374.195 377.107 372.08 375.973 371.472 373.968C370.864 371.962 372.485 371.455 374.487 370.852C376.489 370.249 378.115 369.766 378.723 371.765Z" fill="#8B3916"/>
<path d="M466.468 242.627C466.468 246.149 463.62 249.002 460.104 249.002C456.589 249.002 453.741 246.149 453.741 242.627C453.741 239.106 456.589 239.088 460.104 239.088C463.62 239.088 466.468 239.106 466.468 242.627Z" fill="#8B3916"/>
<path d="M478.167 230.372C478.728 232.222 477.685 234.179 475.838 234.741C473.991 235.302 472.037 234.257 471.477 232.407C470.917 230.557 472.412 230.091 474.259 229.53C476.106 228.969 477.607 228.527 478.167 230.378V230.372Z" fill="#8B3916"/>
<path d="M320.33 399.734C320.33 404.204 316.713 409.737 312.257 409.737C307.8 409.737 304.184 406.114 304.184 401.65C304.184 397.185 307.991 398.45 312.257 397.155C316.987 395.723 320.33 395.269 320.33 399.734Z" fill="#8B3916"/>
<path d="M427.566 369.509C430.11 372.278 424.515 382.09 418.783 386.978C412.361 392.458 404.139 393.245 403.221 388.298C402.452 384.143 408.059 382.908 415.155 378.294C422.251 373.681 425.486 367.247 427.566 369.503V369.509Z" fill="#8B3916"/>
<path d="M77.3865 352.305C75.0569 356.089 83.7556 366.236 91.5071 370.629C100.194 375.547 109.929 374.61 109.882 368.659C109.846 363.664 103.054 363.484 93.7711 359.724C84.4944 355.964 79.2931 349.214 77.3865 352.305Z" fill="#8B3916"/>
<path d="M42.0018 250.11C40.7566 254.431 56.1164 261.48 67.7465 263.324C80.7827 265.389 92.5379 261.551 89.8508 255.887C87.5987 251.13 79.025 253.016 65.7625 252.234C52.4999 251.452 43.0147 246.582 41.9959 250.11H42.0018Z" fill="#8B3916"/>
<path d="M414.088 285.734C414.207 290.228 430.973 292.293 442.615 290.526C455.663 288.545 465.708 281.323 461.436 276.733C457.849 272.883 450.253 277.276 437.378 280.553C424.502 283.83 413.986 282.063 414.088 285.734Z" fill="#8B3916"/>
<mask id="mask0_978_9992" style="mask-type:luminance" maskUnits="userSpaceOnUse" x="2" y="105" width="486" height="322">
<path d="M331.068 191.853C333.446 183.407 333.732 174.693 329.841 166.875C329.454 166.093 329.299 165.209 329.388 164.338C331.027 147.572 333.303 122.254 334.316 110.932C334.584 107.923 332.028 105.423 329.031 105.763L243.992 115.432C243.622 115.474 243.253 115.474 242.884 115.432L157.934 105.19C154.937 104.826 152.357 107.315 152.613 110.329C153.614 122.17 155.926 149.297 157.517 166.135C157.594 166.952 157.469 167.782 157.124 168.528C153.441 176.46 153.829 185.198 156.224 193.596C157.13 196.783 154.657 199.916 151.356 199.708L7.21935 190.737C4.32375 190.558 1.94053 192.981 2.1729 195.882C3.49558 212.409 7.42789 261.1 8.53012 269.336C10.675 287.517 27.5899 297.693 48.4311 303.262C50.3734 303.781 51.7974 305.452 51.9702 307.464C53.7635 328.001 57.1417 366.194 58.1069 373.398C59.6143 386.284 71.9236 401.158 103.048 414.509C185.335 449.813 228.465 395.488 241.197 375.063C243.074 372.049 247.453 372.049 249.306 375.081C262.325 396.389 307.457 454.504 392.055 409.967C420.135 395.183 431.205 382.954 432.564 370.79C433.523 363.61 436.895 324.456 438.7 303.172C438.867 301.232 440.19 299.597 442.049 299.018C460.852 293.175 476.033 283.93 480.079 269.366C480.538 267.701 480.478 266.746 480.627 264.973C481.723 256.749 485.846 207.783 487.246 191.035C487.491 188.093 485.042 185.64 482.105 185.884L336.037 197.965C332.701 198.239 330.163 195.088 331.074 191.865L331.068 191.853Z" fill="white"/>
</mask>
<g mask="url(#mask0_978_9992)">
<path d="M245.298 68.5332C400.088 68.5332 308.114 163.158 308.114 163.158C308.114 163.158 443.492 94.2457 481.737 172.374C520.559 251.69 355.343 241.597 355.343 241.597C355.343 241.597 514.411 290.497 396.68 352.474C291.711 407.737 245.298 310.074 245.298 310.074C245.298 310.074 201.989 394.684 99.1713 350.576C-22.468 298.393 123.54 241.597 123.54 241.597C123.54 241.597 -33.7644 258.368 8.85938 172.374C47.3542 94.7172 177.603 163.158 177.603 163.158C177.603 163.158 87.3088 68.5332 245.292 68.5332H245.298Z" fill="#8B3916"/>
<path opacity="0.6" d="M246.388 267.328C248.163 283.085 248.431 299.051 248.681 314.885C248.836 341.314 248.479 367.546 246.388 393.963C241.437 373.258 240.43 351.831 240.376 330.63C240.596 309.448 242.026 288.087 246.388 267.328Z" fill="#68230C"/>
</g>
<path d="M245.293 57.7891C367.832 57.7891 335.724 117.092 317.022 141.802C315.074 144.381 317.815 147.872 320.782 146.601C355.332 131.787 450.631 98.1065 481.726 161.636C511.761 222.998 419.673 230.847 376.448 231.259C372.938 231.294 372.11 236.171 375.405 237.376C413.882 251.498 486.564 287.53 396.079 335.171C305.553 382.83 259.021 321.634 247.933 303.896C246.705 301.932 243.857 301.926 242.612 303.878C231.745 320.84 187.334 377.661 99.1725 339.838C3.35538 298.733 73.6125 254.763 107.758 237.949C110.809 236.445 109.659 231.844 106.263 231.963C66.6357 233.383 -24.8797 229.701 8.86061 161.636C40.0509 98.7153 131.483 131.703 165.056 146.493C168 147.789 170.77 144.339 168.864 141.743C150.704 116.991 120.335 57.7891 245.293 57.7891Z" fill="#FFDC65"/>
<path d="M225.871 177.05C225.252 179.677 221.695 181.085 217.923 180.19C214.152 179.295 211.268 175.767 211.888 173.141C212.507 170.515 216.404 171.47 220.169 172.365C223.935 173.26 226.491 174.424 225.871 177.05Z" fill="#FFC052"/>
<path d="M274.426 186.379C275.045 189.005 278.602 190.413 282.374 189.518C286.145 188.623 289.029 185.095 288.409 182.469C287.789 179.843 283.893 180.798 280.127 181.693C276.362 182.588 273.806 183.752 274.426 186.379Z" fill="#FFC052"/>
<path d="M236.533 194.969C235.949 197.434 232.999 198.848 229.943 198.126C226.887 197.404 224.622 194.193 225.206 191.728C225.79 189.263 228.948 190.039 232.005 190.767C235.061 191.489 237.116 192.504 236.533 194.975V194.969Z" fill="#FFC052"/>
<path d="M259.848 169.743C259.758 171.599 257.149 172.984 254.009 172.834C250.869 172.685 248.027 170.65 248.11 168.794C248.194 166.937 251.447 167.111 254.581 167.26C257.715 167.409 259.931 167.886 259.842 169.743H259.848Z" fill="#FFC052"/>
<path d="M287.652 199.39C288.515 203.036 293.455 204.994 298.686 203.753C303.917 202.511 307.933 197.611 307.069 193.964C306.205 190.317 300.795 191.642 295.564 192.884C290.333 194.125 286.788 195.743 287.646 199.396L287.652 199.39Z" fill="#FFC052"/>
<path d="M252.46 210.955C253.043 213.42 255.993 214.835 259.049 214.112C262.106 213.39 264.37 210.179 263.786 207.714C263.202 205.249 260.044 206.025 256.988 206.753C253.931 207.481 251.876 208.49 252.46 210.961V210.955Z" fill="#FFC052"/>
<path d="M204.835 191.495C203.388 194.432 198.8 195.112 194.588 193.029C190.381 190.94 187.932 185.98 189.38 183.05C190.828 180.119 195.171 182.31 199.378 184.399C203.584 186.488 206.283 188.565 204.829 191.495H204.835Z" fill="#FFC052"/>
<path d="M265.594 219.286C266.434 222.837 270.504 224.92 274.68 223.93C278.857 222.939 281.907 218.373 281.067 214.816C280.227 211.264 275.914 212.327 271.731 213.318C267.555 214.308 264.754 215.729 265.594 219.286Z" fill="#FFC052"/>
<path d="M229.911 211.277C228.684 216.469 222.744 219.501 216.643 218.057C210.542 216.613 206.085 209.94 207.313 204.747C208.54 199.555 214.844 201.112 220.945 202.563C227.046 204.007 231.139 206.09 229.911 211.277Z" fill="#FFC052"/>
<path d="M428.135 281.453C431.114 285.631 428.135 293.987 418.555 302.737C410.184 310.377 395.015 314.913 393.579 308.312C391.922 300.684 402.665 302.003 411.709 295.121C425.752 284.438 425.74 278.099 428.135 281.453Z" fill="#FFC052"/>
<path d="M50.1446 205.755C47.404 209.993 35.4402 206.119 27.1764 200.294C17.9117 193.77 11.9656 180.502 18.0785 177.655C23.2084 175.262 25.6392 184.967 34.0043 192.66C42.3694 200.354 52.3849 202.293 50.1506 205.755H50.1446Z" fill="#FFC052"/>
<path d="M107.523 237.469C109.585 236.52 109.305 233.238 107.106 232.701C106.54 232.527 105.402 232.677 104.782 232.683C87.9213 233.417 70.9647 232.844 54.2703 230.224C21.5428 225.204 -10.1242 209.089 4.25257 170.705C5.45609 167.524 6.86219 164.432 8.38148 161.4L9.34073 161.878C7.32095 173.242 5.02711 187.668 10.9792 197.653C18.9987 211.578 41.0613 216.812 55.9266 220.179C72.049 223.67 88.3621 225.908 104.663 228.934L105.92 229.167L106.075 229.197L106.153 229.209C109.71 229.424 112.29 233.244 110.556 236.479C110.037 237.511 109.072 238.192 107.988 238.43L107.517 237.463L107.523 237.469Z" fill="#FFC052"/>
<path d="M482.268 161.375C496.293 183.31 492.111 204.552 469.72 218.196C442.158 234.191 408.793 236 377.758 234.532C377.514 234.502 376.692 234.49 376.465 234.472C376.453 234.472 376.429 234.454 376.418 234.436C376.4 234.412 376.453 234.341 376.423 234.305C376.352 234.209 376.185 234.514 376.191 234.585C376.102 234.812 376.65 234.961 376.799 235.039C377.299 235.248 380.66 236.716 381.244 236.973C400.25 245.687 427.889 257.857 438.983 276.216C447.705 290.934 441.563 305.808 430.713 317.19C422.884 325.432 413.274 331.884 403.562 337.614C399.1 340.246 394.268 342.759 389.632 345.087C387.839 345.91 384.205 347.588 382.411 348.405C368.017 354.559 352.413 358.635 336.6 359.125C334.729 359.089 331.339 359.119 329.474 359.035C327.991 358.94 324.845 358.689 323.373 358.588C321.395 358.379 319.292 357.979 317.314 357.728C315.693 357.442 312.905 356.803 311.32 356.493C291.712 351.784 273.892 340.336 260.885 325.122C255.32 318.73 250.626 311.699 246.729 304.214C245.948 303.009 244.084 303.021 243.118 304.196C242.91 304.465 242.517 304.507 242.26 304.292C242.04 304.107 241.986 303.796 242.117 303.552C242.862 302.119 244.525 301.284 246.157 301.534C247.402 301.666 248.493 302.519 249.202 303.546L249.78 304.298C266.742 326.131 291.289 342.956 319.024 346.143C320.072 346.209 323.29 346.543 324.404 346.627C325.691 346.686 328.58 346.746 329.802 346.8C331.44 346.776 334.449 346.674 336.111 346.627C337.666 346.507 340.812 346.221 342.415 346.09C369.578 342.473 397.563 330.506 419.774 313.734C423.426 310.798 427.079 307.539 429.927 303.844C442.748 288.26 433.621 273.202 419.828 262.238C407.876 252.825 393.839 246.385 379.498 241.521L375.875 240.339L374.97 240.052C373.391 239.617 371.955 238.638 371.139 237.098C368.964 232.938 372.044 227.99 376.739 228.008C397.134 226.379 417.576 223.776 437.487 219.586C444.709 217.939 451.781 215.958 458.585 213.158C482.167 203.489 490.258 188.389 481.809 163.715L481.207 161.894V161.871C481.094 161.554 481.267 161.22 481.577 161.113C481.845 161.023 482.137 161.136 482.274 161.369L482.268 161.375Z" fill="#FFC052"/>
</svg>
