<svg width="512" height="512" viewBox="0 0 512 512" fill="none" xmlns="http://www.w3.org/2000/svg">
<g clip-path="url(#clip0_978_9995)">
<path opacity="0.1" d="M32.6811 280.999C-15.1087 333.234 6.13601 365.101 29.5969 384.431C29.5969 384.431 52.867 452.975 144.291 452.92C144.291 452.92 197.135 506.881 288.523 479.59C288.523 479.59 378.974 508.638 407.188 458.761C407.188 458.761 445.552 456.083 466.957 438.331C495.928 414.308 487.124 384.511 487.211 384.431C508.443 365.334 525.089 312.381 475.803 267.442C391.44 190.514 113.665 192.468 32.6688 280.999H32.6811Z" fill="black"/>
<path d="M12.3665 239.23C8.6728 309.869 12.3665 318.468 30.2192 338.738C30.2192 338.738 36.3753 410.605 123.57 410.543C123.57 410.543 161.344 467.115 254.868 438.51C254.868 438.51 334.324 468.964 372.899 416.673C372.899 416.673 410.106 413.866 434.669 395.255C467.912 370.071 466.49 338.83 466.594 338.744C491.305 318.726 494.383 305.575 490.689 241.079L12.3603 239.237L12.3665 239.23Z" fill="#3E9219"/>
<path d="M123.145 410.606C111.522 398.72 111.793 375.49 123.145 363.297L124.001 363.383C123.791 367.314 123.558 371.239 123.428 375.17C123.047 384.98 123.04 394.808 123.588 404.611C123.681 406.57 123.804 408.536 124.001 410.477L123.151 410.606H123.145Z" fill="#25730F"/>
<path d="M29.7881 338.745C21.9698 327.793 21.0957 312.222 25.6204 299.759C27.1594 295.821 30.3729 289.31 34.8607 288.045L35.4332 288.69C34.1589 290.152 33.8019 292.443 33.3955 294.347C32.9954 296.405 32.7245 298.499 32.5029 300.6C31.6287 309.027 31.3333 317.522 31.0439 325.993L30.6561 338.732L29.7942 338.745H29.7881Z" fill="#25730F"/>
<path d="M255.299 391.239C267.248 403.001 267.611 426.951 255.299 438.578L254.449 438.425C254.665 436.465 254.966 434.531 255.083 432.565C255.262 430.888 255.434 428.407 255.52 426.693C256.038 416.883 255.742 407.037 254.966 397.246C254.831 395.286 254.665 393.315 254.449 391.368L255.299 391.232V391.239Z" fill="#25730F"/>
<path d="M373.539 369.383C385.476 381.14 385.851 405.206 373.539 416.821L372.689 416.668C372.905 414.708 373.207 412.761 373.324 410.795C373.502 409.119 373.674 406.625 373.761 404.911C374.272 395.083 373.982 385.218 373.207 375.403C373.071 373.437 372.905 371.465 372.689 369.512L373.539 369.377V369.383Z" fill="#25730F"/>
<path d="M467.111 289.52C477.94 302.056 477.232 325.969 467.117 338.751L466.256 338.727C466.219 335.655 466.206 329.507 466.237 326.436C466.286 316.774 466.502 305.33 466.44 295.748C466.434 293.721 466.44 291.633 466.268 289.673L467.117 289.52H467.111Z" fill="#25730F"/>
<path d="M41.8913 197.027C41.8913 197.027 -20.5808 230.792 35.3166 288.144C35.3166 288.144 40.6847 350.404 123.57 363.34C123.57 363.34 173.041 413.677 254.868 391.307C254.868 391.307 325.09 415.52 372.899 369.47C372.899 369.47 456.215 362.695 466.595 290.067C466.595 290.067 525.521 242.162 460.445 198.796L41.8851 197.04L41.8913 197.027Z" fill="#76BA2C"/>
<path d="M85.0083 320.925C90.8442 324.568 98.5517 371.907 166.269 361.465C173.57 360.341 180.428 356.551 184.737 363.308C193.183 376.551 205.976 381.889 230.908 384.192C264.151 387.264 283.838 374.905 288.16 374.364C293.084 373.75 328.47 386.588 362.033 368.222C381.117 357.78 382.225 345.249 386.657 345.495C408.819 346.723 437.445 336.14 446.371 314.168C455.606 291.441 451.167 289.408 456.043 284.98C468.533 273.628 477.768 257.658 470.023 211.399L35.1377 205.447C35.1377 205.447 27.9843 215.165 29.5972 231.246C31.444 249.673 38.2404 251.319 37.6001 256.43C36.9599 261.54 35.1808 278.868 46.2187 297.584C58.5309 318.468 75.1523 314.783 85.0021 320.925H85.0083Z" fill="#3E9219"/>
<path d="M36.2021 241.67C36.2021 241.67 42.7461 239.158 44.1805 268.955L72.6955 160.209L59.7677 157.629L36.2021 226.559V241.67Z" fill="#3E9219"/>
<path d="M78.6302 310.023V288.034L94.8515 222.715L107.164 224.005L92.426 317.394C92.426 317.394 90.1051 306.473 78.624 310.023H78.6302Z" fill="#3E9219"/>
<path d="M281.252 361.356C282.815 335.606 279.153 307.278 281.246 281.836C281.338 280.693 282.705 270.724 286.134 274.164C288.251 276.289 292.087 302.443 292.677 307.511L295.959 363.063C292.37 361.865 285.309 361.73 281.258 361.356H281.252Z" fill="#3E9219"/>
<path d="M173.44 352.81C175.22 331.625 177.14 290.6 187.452 272.59C190.794 266.755 195.529 263.604 194.642 273.266C192.481 296.896 184.601 329.574 188.141 352.81C183.463 350.734 178.31 351.938 173.44 352.81Z" fill="#3E9219"/>
<path d="M392.333 335.71C387.445 335.802 382.52 335.642 377.632 335.71C379.855 311.005 369.001 284.027 364.92 260.95C362.907 249.556 373.754 263.131 375.711 266.773C385.58 285.139 390.603 314.789 392.339 335.71H392.333Z" fill="#3E9219"/>
<path d="M456.042 275.87C452.201 278.579 449.455 280.477 444.61 280.999C444.081 261.251 437.26 236.878 429.707 218.807C427.392 213.26 422.073 209.391 423.378 202.364C426.358 198.721 438.374 218.248 439.501 220.521C447.775 237.16 451.339 257.861 456.036 275.876L456.042 275.87Z" fill="#3E9219"/>
<path d="M92.3953 89.9696C90.807 93.9069 426.93 116.978 426.216 108.526C429.867 108.397 434.281 114.066 436.152 116.327C454.743 138.851 462.697 165.958 470.749 193.814C471.309 195.761 479.195 259.556 456.048 275.877C451.345 257.861 447.781 237.161 439.513 220.521C438.387 218.248 426.37 198.722 423.39 202.364C422.085 209.385 427.398 213.261 429.719 218.807C437.266 236.885 444.087 261.258 444.623 281C445.552 315.581 424.4 335.09 392.351 335.71C390.621 314.783 385.592 285.14 375.724 266.774C373.766 263.125 362.919 249.556 364.932 260.951C369.014 284.034 379.867 311.012 377.644 335.71C376.056 353.382 349.85 368.222 334.336 369.881C322.726 371.121 310.986 369.905 299.868 366.594C297.301 365.833 296.211 363.142 295.965 363.063L292.684 307.51C292.093 302.443 288.258 276.282 286.14 274.163C282.711 270.723 281.351 280.692 281.252 281.835C279.159 307.277 282.822 335.606 281.258 361.355C268.047 386.828 192.075 378.621 188.147 352.805C184.614 329.568 192.493 296.89 194.648 273.26C195.528 263.592 190.801 266.743 187.458 272.584C177.146 290.594 175.226 331.619 173.447 352.805C163.098 354.66 158.912 356.251 147.308 356.226C127.811 356.177 109.245 344.697 96.7107 327.75C92.8262 322.498 91.6012 314.666 91.7674 310.059C92.4507 291.079 99.9858 258.051 102.485 234.913C103.476 225.73 99.8565 227.112 96.3414 233.641C84.7864 255.121 82.5209 286.098 78.6364 310.016C32.3241 297.664 41.3058 243.389 52.5038 206.565C54.2829 200.718 70.5965 164.723 68.8851 163.04C68.5158 162.672 65.1053 162.475 63.8802 164.103C60.5621 168.519 53.1625 183.525 50.6446 189.238C43.5097 205.435 38.8311 224.121 36.2024 241.663C36.2024 241.663 32.9704 237.443 31.4499 228.709C28.3718 210.963 30.3479 205.804 31.4499 198.679C32.8227 189.797 45.0179 159.127 48.0714 153.151C61.0053 127.856 65.5054 119.877 74.8073 107.666C79.4675 101.554 92.3953 89.9512 92.3953 89.9512V89.9696Z" fill="#76BA2C"/>
<path d="M254.916 193.164C311.695 193.164 357.723 170.063 357.723 141.567C357.723 113.071 311.695 89.9707 254.916 89.9707C198.138 89.9707 152.109 113.071 152.109 141.567C152.109 170.063 198.138 193.164 254.916 193.164Z" fill="#398916"/>
<path d="M425.372 129.195C425.372 129.195 445.14 101.02 405.741 82.5928C405.741 82.5928 407.587 54.9518 370.035 51.2663C370.035 51.2663 356.492 29.1535 329.405 40.8242C329.405 40.8242 314.63 17.4829 290.621 34.0675C290.621 34.0675 277.466 18.478 260.961 28.1155C260.961 28.1155 246.297 17.4829 230.292 30.382C230.292 30.382 211.208 21.1684 195.202 33.4532C195.202 33.4532 177.965 23.0111 163.806 39.5957C163.806 39.5957 136.103 27.925 128.1 59.2515C128.1 59.2515 93.0105 58.023 92.3949 89.9637C92.3949 89.9637 60.3832 105.32 82.7791 140.921C82.7791 140.921 69.8513 172.451 97.7446 181.265C97.7446 181.265 100.706 223.015 135.026 211.768C135.026 211.768 150.201 251.614 184.09 230.06C184.09 230.06 214.717 268.574 249.283 236.086C249.283 236.086 287.543 275.465 315.861 231.24C315.861 231.24 352.472 260.072 373.563 214.33C373.563 214.33 416.2 222.849 414.353 179.133C414.353 179.133 449.923 167.199 425.366 129.195H425.372ZM357.723 125.596C338.023 129.281 339.255 150.78 339.255 150.78C317.093 146.48 305.396 164.908 305.396 164.908C274.616 149.551 259.225 170.436 259.225 170.436C237.679 150.166 214.286 166.75 214.286 166.75C196.433 144.023 181.658 156.922 181.658 156.922C179.196 134.81 160.728 134.195 160.728 134.195C165.037 120.682 152.109 115.768 152.109 115.768C150.262 88.1271 174.887 94.8838 174.887 94.8838C178.58 73.9995 200.127 81.9847 200.127 81.9847C213.67 61.7146 224.751 92.4268 224.751 92.4268C271.537 61.1004 301.087 89.9698 301.087 89.9698C319.555 80.1419 337.408 96.1123 337.408 96.1123C362.032 99.1835 357.723 125.596 357.723 125.596Z" fill="#FCF5D6"/>
<path d="M357.723 125.596C345.497 127.881 341.336 137.033 339.938 143.643C335.204 137.918 332.483 131.124 332.483 131.124C320.171 134.195 311.553 120.068 311.553 120.068C294.931 127.439 280.581 112.083 280.581 112.083C265 128.053 249.376 112.083 249.376 112.083C240.142 126.21 221.058 113.925 221.058 113.925C211.824 134.81 192.124 126.21 192.124 126.21C188.449 136.296 181.727 140.448 175.897 142.076C169.636 134.49 160.728 134.195 160.728 134.195C165.037 120.682 152.11 115.768 152.11 115.768C150.263 88.1271 174.887 94.8838 174.887 94.8838C178.581 73.9995 200.127 81.9847 200.127 81.9847C209.977 58.6434 232.755 73.3853 232.755 73.3853C241.989 60.4862 254.301 70.3141 254.301 70.3141C267.844 54.958 280.157 69.6998 280.157 69.6998C307.243 60.4862 311.553 81.9847 311.553 81.9847C334.33 73.9995 337.408 96.1123 337.408 96.1123C362.033 99.1835 357.723 125.596 357.723 125.596Z" fill="#F3E1B5"/>
</g>
<defs>
<clipPath id="clip0_978_9995">
<rect width="504" height="464" fill="white" transform="translate(4 24)"/>
</clipPath>
</defs>
</svg>
