<svg width="512" height="512" viewBox="0 0 512 512" fill="none" xmlns="http://www.w3.org/2000/svg">
<path d="M142.371 216.3C153.163 220.903 167.747 228.627 177.676 234.899C186.646 240.565 196.721 248.119 204.927 254.738C206.144 255.72 207.426 256.825 208.642 257.836C218.271 265.836 227.741 274.942 236.511 283.877C242.854 290.337 248.515 297.485 255.092 303.716C255.145 304.956 264.562 315.29 266.244 317.353C267.784 319.246 269.818 321.204 271.199 322.932C279.064 332.79 287.276 343.629 294.736 353.928C295.764 355.344 296.811 356.838 297.833 358.266C305.134 368.482 312.676 379.504 319.512 389.885C324.985 398.197 330.775 407.52 335.736 416.143C336.213 416.972 336.395 416.972 337.476 417.783C337.694 419.03 337.447 420.429 338.258 421.651L352.977 449.732C353.077 450.449 352.572 450.972 351.931 451.172C351.108 451.431 345.441 451.836 344.001 451.913C298.903 454.34 255.545 438.357 220.74 410.33C177.217 375.284 157.278 328.563 130.479 281.208C128.504 277.722 116.706 257.095 114.138 252.927C108.224 243.34 100.817 232.565 93.1404 224.347C88.0381 218.886 67.3818 205.472 87.0152 203.973C102.869 202.762 127.669 210.028 142.371 216.294V216.3Z" fill="#5D911A"/>
<path d="M381.446 441.354L380.529 439.532C395.766 408.583 398.282 370.286 394.449 336.275C393.185 325.041 387.095 295.203 381.352 286.145C380.124 284.211 377.343 281.407 377.108 285.381C379.048 292.088 381.652 299.365 383.022 306.172C391.14 346.415 390.693 405.021 371.8 441.936C370.983 443.529 368.796 447.427 367.344 448.015C366.398 448.403 358.986 450.054 358.521 449.772C357.14 448.926 356.928 444.787 356.305 443.271C350.862 430.009 338.588 416.866 338.088 401.958C338.047 400.765 338.711 399.472 336.848 399.819C335.137 360.305 330.693 320.591 330.006 281.119C329.383 245.261 329.835 201.874 336.225 166.71C340.251 144.573 347.505 121.518 357.522 101.544C358.204 100.186 359.585 95.4185 360.05 94.7778C361.019 93.4551 362.242 93.0966 364.711 93.5551C369.467 95.8476 367.427 106.011 367.815 110.596C375.127 197.718 449.511 272.337 430.06 365.107C422.823 399.625 407.522 419.387 381.435 441.36L381.446 441.354Z" fill="#5D911A"/>
<path d="M169.005 0.548828C169.934 4.64598 175.788 14.7448 179.88 15.3973C182.625 15.8323 191.148 12.176 192.583 10.2127C194.787 7.19127 190.901 5.84515 190.678 3.03533C196.697 4.91638 199.466 6.38595 204.921 9.23691C205.397 16.5318 212.41 21.9222 217.089 26.8129C217.989 27.7476 218.606 29.3347 219.54 30.2517C225.278 35.8713 229.245 33.1027 235.888 30.9336C237.152 32.0093 238.01 33.1791 238.986 34.0314C236.881 36.9353 230.245 38.158 230.356 42.3257C230.456 46.1289 241.884 61.9179 245.34 63.3228C250.789 65.5331 258.672 60.6776 263.763 58.8318C264.868 60.0486 266.214 61.1126 267.478 62.5528C264.333 64.6396 251.777 68.1077 251.365 72.1814C250.971 76.0375 262.887 94.172 266.249 95.7062C269.611 97.2404 278.952 93.5724 282.497 92.1557C284.625 91.3093 287.428 90.7097 288.534 88.5876C289.962 90.4687 291.443 92.2204 292.872 94.1661C288.169 95.4711 272.897 100.068 271.457 104.682C270.205 108.703 277.653 120.842 280.339 124.38C285.947 131.763 289.221 131.17 297.686 128.436C300.995 127.367 306.274 125.433 309.419 124.063C310.336 123.663 311.03 122.97 311.453 122.07C312.717 124.104 313.951 126.25 315.168 128.272C310.213 129.494 304.646 131.117 299.967 133.204C299.009 133.633 298.468 134.373 297.762 134.72C293.618 136.76 289.333 136.925 290.532 143.314C291.161 146.665 300.214 164.065 302.812 165.746C305.704 167.627 311.147 166.598 314.263 165.493C316.255 164.788 327.941 159.538 329.041 158.592C329.775 157.957 330.352 156.476 330.645 155.547C331.122 156.317 331.474 157.005 332.503 156.787C331.921 158.51 335.342 164.735 336.218 166.71C329.822 201.874 329.37 245.261 329.999 281.118C330.687 320.591 335.131 360.305 336.841 399.818C336.929 401.811 336.782 413.914 337.458 417.8C336.965 417.577 336.2 416.989 335.718 416.16C330.757 407.531 324.967 398.208 319.494 389.902C320.029 385.805 322.974 387.362 324.473 385.893C326.29 384.106 323.65 371.003 323.221 367.882C322.616 363.414 320.876 364.837 317.566 360.557C311.706 352.986 304.922 356.431 297.815 358.283C296.793 356.854 295.746 355.361 294.717 353.944C299.02 349.783 312.517 348.007 314.292 341.559C315.215 338.196 309.037 321.238 306.744 318.04C304.158 314.442 300.943 312.461 296.311 313.061L271.187 322.948C269.805 321.22 267.772 319.263 266.231 317.37C267.519 317.487 268.694 317.405 269.952 317.07C273.468 316.135 294.224 308.112 295.64 306.201C295.823 305.954 297.992 302.11 298.097 301.845C300.19 296.719 293.019 280.237 289.127 276.163C285.971 272.86 283.796 273.677 279.587 274.629C274.449 275.793 258.907 282.612 254.781 285.756C250.86 288.743 251.471 293.14 252.923 297.525C253.958 300.652 254.928 300.111 255.086 303.732C248.508 297.501 242.848 290.353 236.505 283.893C237.875 280.307 238.022 278.597 237.216 274.811C236.564 271.749 230.738 256.142 228.787 254.731C223.596 250.969 213.621 255.16 208.63 257.858C207.414 256.847 206.132 255.742 204.915 254.76C204.945 253.408 205.574 253.038 206.614 252.427C212.927 248.717 224.819 248.03 223.349 238.478C222.685 234.133 217.924 222.165 215.467 218.474C213.104 214.923 209.336 214.541 205.374 215.229C201.412 215.917 182.243 223.976 179.797 226.827C179.509 227.162 177.199 230.795 177.129 231.03C176.559 232.917 178.786 233.552 177.664 234.921C167.735 228.649 153.151 220.925 142.359 216.322C140.872 209.345 138.062 202.579 136.004 195.719C122.984 152.361 115.689 101.702 124.583 56.8626C126.599 46.705 130.038 33.4319 135.934 24.9201C135.928 25.749 136.792 33.4025 137.139 33.4671C141.248 34.2901 147.402 29.1701 147.349 25.1023C147.314 22.2161 145.439 16.6729 144.839 13.5927C146.885 11.5059 147.52 10.9945 149.795 9.25454C151.464 12.2113 152.187 23.5211 154.744 25.0671C157.337 26.6425 169.463 21.5048 170.545 19.1653C172.214 15.5325 164.878 5.8569 164.044 1.81853C166.025 1.23071 166.765 0.901524 168.999 0.578219L169.005 0.548828Z" fill="#F49D0B"/>
<path opacity="0.1" d="M347.381 496.528C358.356 495.517 373.046 489.133 381.451 481.968C388.447 476.013 388.564 471.587 385.778 463.051C395.124 464.668 422.887 474.091 425.303 483.984C426.138 487.411 422.599 491.461 420.136 493.419C394.19 514.045 311.923 512.617 278.958 511.388C244.335 510.095 204.774 506.762 171.621 496.699C160.094 493.201 125.283 480.386 149.372 466.661C165.948 457.214 205.727 453.346 225.054 453.147C226.101 453.135 227.811 453.54 228.452 452.518C252.712 467.113 278.758 471.011 306.827 469.9C310.001 469.776 317.079 467.989 319.683 468.765C322.146 469.5 325.355 478.27 326.825 480.833C330.657 487.511 335.818 496.899 344.63 497.175C345.964 497.216 346.699 496.593 347.369 496.534L347.381 496.528Z" fill="black"/>
<path d="M125.03 271.479C127.717 275.899 128.51 277.721 130.479 281.213C157.278 328.568 177.217 375.289 220.74 410.335C255.545 438.362 298.903 454.346 344.002 451.918C345.442 451.841 351.108 451.43 351.931 451.177C352.572 450.977 353.078 450.454 352.978 449.737L338.259 421.656C337.441 420.44 337.694 419.041 337.477 417.789C336.795 413.909 336.942 411.117 336.859 407.249C336.848 406.82 336.883 406.15 336.859 405.391C336.801 403.528 336.948 401.806 336.859 399.813C338.729 399.466 338.059 400.759 338.1 401.953C338.599 416.86 350.873 430.004 356.317 443.265C356.94 444.776 357.151 448.92 358.533 449.766C358.997 450.048 366.41 448.397 367.356 448.009C368.808 447.415 370.995 443.518 371.812 441.931C390.704 405.015 391.157 346.415 383.033 306.166C381.658 299.359 379.06 292.088 377.12 285.375C377.355 281.401 380.135 284.205 381.364 286.139C387.107 295.197 393.191 325.035 394.461 336.269C398.293 370.28 395.777 408.583 380.541 439.526L381.458 441.349C380.923 441.795 378.766 443.618 378.666 443.823C376.838 447.415 382.392 453.023 382.081 456.85L377.443 449.414C375.327 451.189 372.3 453.017 369.825 454.187C365.869 456.05 359.896 458.496 355.776 459.965C348.234 462.651 339.775 464.985 331.91 466.149L347.399 496.522C346.723 496.587 345.988 497.204 344.66 497.163C335.848 496.881 330.687 487.499 326.855 480.821C325.385 478.258 322.176 469.494 319.713 468.753C317.114 467.977 310.037 469.764 306.857 469.888C278.788 470.993 252.741 467.101 228.482 452.506C172.544 418.841 156.926 351.305 134.8 294.88C131.714 287.003 127.728 277.662 125.048 271.479H125.03Z" fill="#4A7F13"/>
<path d="M347.382 496.528L331.893 466.155C339.764 464.991 348.217 462.658 355.758 459.971C359.879 458.502 365.845 456.056 369.807 454.193C372.288 453.023 375.31 451.189 377.426 449.42L382.064 456.856C383.227 456.721 385.32 461.653 385.779 463.057C388.565 471.593 388.442 476.019 381.452 481.974C373.04 489.139 358.357 495.523 347.382 496.534V496.528Z" fill="#5D911A"/>
<path d="M330.658 153.685C330.511 154.173 330.811 155.067 330.658 155.543C330.364 156.471 329.788 157.953 329.053 158.588C327.954 159.534 316.268 164.783 314.275 165.489C311.154 166.594 305.717 167.623 302.825 165.742C300.232 164.054 291.333 146.625 290.545 143.31C289.369 138.349 290.545 136.585 299.386 133.199C304.171 131.365 310.219 129.49 315.175 128.268C315.351 128.556 330.658 153.685 330.658 153.685Z" fill="#FABE24"/>
<path d="M292.878 94.166C299.696 103.471 305.404 112.336 311.459 122.064C311.036 122.97 310.348 123.657 309.425 124.057C306.274 125.427 301.001 127.361 297.692 128.43C289.227 131.164 285.953 131.758 280.345 124.374C277.653 120.836 270.205 108.697 271.463 104.676C272.903 100.062 288.175 95.4651 292.878 94.1602V94.166Z" fill="#FABE24"/>
<path d="M288.54 88.5876C287.435 90.7096 284.631 91.3033 282.503 92.1557C278.953 93.5723 269.565 97.2228 266.256 95.7062C262.946 94.1896 250.978 76.0375 251.372 72.1813C251.783 68.1077 264.339 64.6395 267.484 62.5527C275.279 71.3878 281.51 79.3234 288.54 88.5935V88.5876Z" fill="#FABE24"/>
<path d="M263.769 58.8258C258.678 60.6716 250.796 65.527 245.346 63.3168C241.89 61.9178 230.469 46.1229 230.363 42.3196C230.251 38.1519 236.888 36.9293 238.992 34.0254C248.768 42.6018 255.128 49.3089 263.769 58.8258Z" fill="#FABE24"/>
<path d="M164.05 1.78908C164.884 5.82745 172.221 15.509 170.551 19.1358C169.475 21.4754 157.349 26.613 154.75 25.0376C152.199 23.4916 151.476 12.1819 149.801 9.22509C155.091 5.17496 157.484 3.72891 164.044 1.7832L164.05 1.78908Z" fill="#FABE24"/>
<path d="M235.894 30.9291C229.252 33.0923 225.284 35.8668 219.547 30.2472C218.612 29.3302 216.82 27.749 215.92 26.8084C211.235 21.9177 205.398 16.5274 204.928 9.23242C216.608 15.3341 225.79 22.3468 235.894 30.9291Z" fill="#FABE24"/>
<path d="M190.684 3.02977C190.901 5.83958 194.793 7.18571 192.588 10.2071C191.154 12.1764 182.631 15.8268 179.886 15.3918C175.794 14.7452 169.934 4.64629 169.011 0.543264C178.046 -0.76759 182.26 0.384551 190.69 3.02389L190.684 3.02977Z" fill="#FABE24"/>
<path d="M144.851 13.5703C145.457 16.6505 147.326 22.1937 147.361 25.08C147.414 29.1418 141.26 34.2677 137.151 33.4447C135.946 33.1273 135.552 27.4195 135.558 26.5907C135.593 22.8345 142.188 16.2861 144.845 13.5703H144.851Z" fill="#FABE24"/>
<path d="M356.069 96.97C353.324 100.18 344.224 117.256 343.76 118.126C337.746 129.342 334.325 141.574 330.663 153.683C330.516 154.171 330.516 154.806 330.663 155.541C331.104 157.158 335.36 164.729 336.236 166.698C340.262 144.56 357.556 101.314 359.32 98.3749C361.5 94.7421 362.846 94.2601 364.727 93.5429C360.836 91.6678 358.497 94.1249 356.069 96.9641V96.97Z" fill="#4A7F13"/>
<path d="M266.243 317.359C264.561 315.295 255.15 304.961 255.091 303.721C254.933 300.106 253.963 300.647 252.928 297.514C251.476 293.128 250.865 288.732 254.786 285.745C258.912 282.601 274.455 275.782 279.592 274.618C283.801 273.666 285.976 272.848 289.133 276.152C293.024 280.226 300.195 296.708 298.103 301.834C297.997 302.099 295.828 305.943 295.646 306.19C294.223 308.1 273.467 316.124 269.958 317.059C268.7 317.394 267.524 317.476 266.237 317.359H266.243Z" fill="#FABE24"/>
<path d="M204.928 254.737C196.721 248.118 186.646 240.564 177.676 234.898C178.799 233.528 176.571 232.893 177.141 231.006C177.212 230.765 179.522 227.139 179.81 226.803C182.255 223.953 201.295 215.917 205.386 215.206C209.477 214.494 213.116 214.894 215.479 218.45C217.936 222.148 222.692 234.116 223.362 238.454C224.831 248.012 212.94 248.7 206.626 252.403C205.586 253.015 204.957 253.385 204.928 254.737Z" fill="#FABE24"/>
<path d="M294.736 353.933C287.276 343.628 279.064 332.794 271.199 322.936L296.323 313.049C300.955 312.45 304.17 314.436 306.757 318.028C309.055 321.226 315.233 338.185 314.305 341.547C312.529 348.001 298.762 352.904 294.73 353.933H294.736Z" fill="#FABE24"/>
<path d="M319.512 389.896C312.676 379.515 305.134 368.493 297.833 358.277C304.652 355.261 315.08 349.659 320.652 357.448C322.874 360.552 323.486 363.467 324.415 367.876C325.226 371.72 328.218 384.035 326.401 385.828C324.908 387.298 322.287 388.179 319.512 389.896Z" fill="#FABE24"/>
<path d="M236.517 283.876C227.741 274.941 218.271 265.836 208.648 257.835C213.639 255.137 223.614 250.946 228.805 254.708C230.757 256.119 236.582 271.732 237.234 274.788C238.04 278.58 237.893 280.29 236.523 283.87L236.517 283.876Z" fill="#FABE24"/>
<path d="M238.581 247.507C241.708 244.297 261.377 236.068 265.997 235.586C271.241 235.039 272.263 235.827 275.185 239.9C277.766 243.504 283.197 256.436 283.573 260.698C283.791 263.202 280.628 266.823 278.588 268.022C274.509 270.42 258.42 276.922 254.011 277.515C252.195 277.762 250.014 277.945 248.251 277.398C243.378 275.893 236.036 256.201 236.518 251.381C236.612 250.44 237.911 248.195 238.587 247.507H238.581Z" fill="#FABE24"/>
<path d="M294.6 179.865C301.566 179.107 305.152 187.019 307.668 192.503C309.584 196.683 312.753 203.431 310.701 207.787C308.755 211.902 295.664 217.08 291.185 218.632C286.53 220.237 278.711 223.376 274.655 219.349C271.093 215.817 264.851 200.057 264.992 196.8C265.156 193.032 266.743 191.604 269.765 189.752C274.273 186.984 289.663 180.406 294.6 179.865Z" fill="#FABE24"/>
<path d="M249.372 197.248C252.999 196.766 256.121 197.095 258.437 200.251C260.394 202.914 267.301 218.662 267.442 221.619C267.589 224.646 266.014 227.174 263.574 228.826C260.088 231.189 241.954 238.742 238.004 239.195C235.57 239.477 234.001 239.365 232.143 237.72C228.892 234.845 222.803 220.361 221.815 215.823C220.945 211.838 222.585 209.304 225.671 207.006C228.793 204.684 245.51 197.759 249.361 197.248H249.372Z" fill="#FABE24"/>
<path d="M309.437 217.692C311.83 217.31 315.504 217.251 317.602 218.515C319.701 219.779 323.78 227.015 323.774 229.566C323.763 234.333 323.639 241.658 323.21 246.36C323.057 248.041 322.828 251.128 321.194 251.786C315.016 253.543 308.379 257.3 302.301 258.91C291.209 261.849 289.128 255.848 284.995 246.813C284.155 244.973 281.598 239.153 281.227 237.566C280.44 234.151 281.28 231 283.873 228.69C286.465 226.38 305.716 218.286 309.425 217.692H309.437Z" fill="#FABE24"/>
<path d="M274.768 143.309C278.154 142.85 282.251 143.368 284.479 146.283C286.771 149.287 293.702 163.025 294.072 166.457C294.342 168.962 293.49 171.46 291.591 173.17C288.664 175.804 270.547 183.381 266.503 184.045C258.755 185.321 255.017 176.268 252.278 170.455C249.291 164.13 245.153 157.023 252.671 152.191C255.387 150.445 271.752 143.714 274.768 143.309Z" fill="#FABE24"/>
<path d="M216.267 199.369C215.209 198.405 212.987 193.543 212.247 191.927C210.865 188.905 206.78 179.059 206.75 176.273C206.727 174.263 207.891 172.705 209.237 171.329C212.141 168.373 230.71 160.625 234.954 160.466C238.652 160.325 240.838 161.301 242.943 164.293C244.853 167.015 249.862 178.189 250.585 181.446C251.754 186.695 251.084 188.717 246.241 191.633C243.378 193.355 226.09 200.491 223.209 200.815C221.152 201.05 217.831 200.803 216.261 199.369H216.267Z" fill="#FABE24"/>
<path d="M191.753 177.397C196.679 176.639 199.278 177.668 201.846 181.877C203.78 185.045 208.642 197.672 208.689 201.116C208.789 208.382 202.834 209.593 197.291 212.073C192.888 214.043 180.444 219.527 176.223 218.063C175.929 217.963 173.084 214.554 172.808 214.048C170.774 210.357 166.818 195.791 166.671 191.623C166.483 186.291 171.756 185.257 176.017 183.34C179.703 181.689 188.132 177.962 191.759 177.403L191.753 177.397Z" fill="#FABE24"/>
<path d="M273.333 135.972C270.465 138.982 254.006 146.188 249.797 146.823C246.229 147.364 244.177 147.017 241.826 144.337C239.139 141.262 231.168 122.481 234.454 118.455C237.488 114.734 250.778 109.631 255.446 108.468C260.983 107.086 263.963 108.603 267.478 113.082C269.653 115.851 276.308 128.401 276.025 131.528C275.82 133.815 274.632 134.608 273.327 135.978L273.333 135.972Z" fill="#FABE24"/>
<path d="M201.658 162.507C197.661 156.57 196.644 153.79 194.54 148.27C192.142 141.992 189.367 137.513 196.433 133.092C199.254 131.329 215.466 124.616 218.259 124.522C225.618 124.269 228.728 131.999 231.261 137.554C233.489 142.445 237.275 148.417 233.06 153.025C230.527 155.794 209.682 164.147 205.85 164.129C202.405 164.112 202.358 163.559 201.658 162.519V162.507Z" fill="#FABE24"/>
<path d="M176.906 140.205C182.543 139.446 184.313 140.375 187.228 145.054C189.186 148.193 194.2 160.673 194.165 164.024C194.141 166.363 192.366 169.202 190.638 170.689C188.063 172.917 168.794 180.559 165.878 180.089C161.634 179.407 158.043 165.634 156.908 161.76C156.373 159.932 154.551 152.343 154.857 151.015C155.697 147.341 173.091 140.716 176.906 140.205Z" fill="#FABE24"/>
<path d="M200.43 89.9748C202.958 88.9696 204.722 88.9696 206.82 90.1041C210.9 92.2967 219.212 110.22 218.318 114.652C217.624 118.079 212.193 120.371 209.254 121.747C203.328 124.521 188.85 131.299 185.476 123.875C184.065 120.771 180.056 110.743 179.222 107.198C178.387 103.636 178.269 100.738 180.444 99.1096C182.578 97.5166 197.779 91.0329 200.43 89.9807V89.9748Z" fill="#FABE24"/>
<path d="M237.593 75.0963C244.8 73.8501 247.092 78.0354 250.643 83.4375C253.841 88.293 259.454 96.7636 255.104 101.925C253.347 104.011 239.633 109.537 236.382 110.46C231.797 111.759 228.147 112.776 224.749 108.738C222.645 106.233 216.661 94.7297 215.885 91.5789C215.003 87.9932 215.285 85.9887 218.248 83.6315C220.499 81.8445 234.795 75.5842 237.593 75.1022V75.0963Z" fill="#FABE24"/>
<path d="M144.363 114.136C144.757 113.078 145.345 111.902 147.967 110.715C152.058 108.863 165.584 102.944 169.44 104.537C172.797 105.924 176.247 115.482 177.341 118.991C180.744 129.907 181.984 132.135 171.01 136.791C168.212 137.978 156.637 142.434 154.368 142.493C150.277 142.599 148.478 136.226 147.361 132.882C146.286 129.66 143.376 116.787 144.363 114.142V114.136Z" fill="#FABE24"/>
<path d="M216.531 44.095C221.727 43.1897 222.979 44.2361 226.306 47.6572C229.992 51.4546 239.462 64.1575 235.288 69.0659C233.678 70.9646 220.175 76.784 217.483 77.2837C208.76 78.8943 207.149 74.4386 203.587 67.9255C200.771 62.782 195.551 54.6759 201.617 50.2437C202.881 49.3208 214.902 44.383 216.536 44.1009L216.531 44.095Z" fill="#FABE24"/>
<path d="M186.199 57.7219C189.379 57.2576 192.348 58.5978 194.311 61.0843C195.822 62.9947 201.471 75.4978 201.794 77.7786C202.112 80.0241 201.935 81.9874 200.283 83.6275C198.032 85.8553 181.032 92.5683 178.122 92.1803C177.182 92.0569 175.307 90.846 174.548 90.17C172.415 88.2595 167.747 76.6676 166.672 73.8754C165.925 71.9297 165.925 69.5784 166.654 67.9442C168.341 64.1939 182.237 58.298 186.199 57.7219Z" fill="#FABE24"/>
<path d="M322.604 257.842C322.504 263.914 322.727 294.005 321.887 296.486C321.458 297.761 313.487 300.06 311.935 299.883C307.855 299.425 305.457 295.798 303.776 292.5C302.23 289.473 298.086 278.968 297.498 275.853C297.198 274.277 296.892 272.208 297.345 270.674C298.862 265.595 317.431 259.341 322.604 257.842Z" fill="#FABE24"/>
<path d="M152.117 70.1423C156.273 69.4957 158.877 70.154 161.082 73.8926C162.305 75.9677 165.943 86.0724 166.384 88.4237C167.859 96.2712 165.02 98.3051 158.466 101.285C155.492 102.637 144.011 107.416 142.095 104.06C141.237 102.496 137.71 78.3954 139.409 76.626C140.061 74.4393 149.807 70.5009 152.123 70.1423H152.117Z" fill="#FABE24"/>
<path d="M170.704 26.1138C179.045 24.7736 180.209 32.4153 183.101 38.2054C185.082 42.1674 188.574 47.7399 184.524 51.7372C181.902 54.3236 169.181 59.52 165.607 58.8146C161.046 57.9152 157.672 44.5069 156.796 40.3568C156.273 37.8821 155.144 34.9136 156.872 32.7445C158.172 31.1103 168.5 26.4724 170.698 26.1197L170.704 26.1138Z" fill="#FABE24"/>
<path d="M196.104 15.561C200.547 14.8909 202.993 18.6413 205.867 21.6157C208.889 24.7429 216.272 32.655 216.019 36.8639C215.849 39.7971 201.347 45.599 198.414 45.8224C192.2 46.2985 188.738 37.9984 186.422 33.0195C185.723 31.5088 183.295 26.2536 183.213 25.0251C183.142 24.014 183.171 23.2087 183.577 22.2564C184.371 20.3989 193.923 15.8902 196.104 15.561Z" fill="#FABE24"/>
<path d="M329.418 165.465L325.708 204.52C319.472 205.778 316.403 198.236 314.028 193.581C312.77 191.112 309.59 184.734 309.132 182.365C307.039 171.514 321.4 167.734 329.418 165.465Z" fill="#FABE24"/>
<path d="M143.47 37.3054C146.968 37.3054 148.984 36.747 150.665 40.2975C152.2 43.5364 155.85 57.7324 155.339 60.9654C154.821 64.2455 148.585 66.9378 145.593 67.9488C144.917 68.1781 141.819 68.9893 139.603 68.8247C137.745 68.6836 137.551 64.61 137.416 62.8582C137.069 58.2379 136.458 53.0004 136.264 48.6328C135.958 41.7905 134.765 37.3113 143.465 37.3113L143.47 37.3054Z" fill="#FABE24"/>
<path d="M321.964 304.363C322.681 305.05 324.562 337.199 322.293 337.822C321.012 338.174 319.436 332.543 318.59 331.608C316.879 324.978 311.377 317.242 312.711 310.241C313.135 308.031 320.494 302.946 321.964 304.363Z" fill="#FABE24"/>
</svg>
