<svg width="512" height="512" viewBox="0 0 512 512" fill="none" xmlns="http://www.w3.org/2000/svg">
<path opacity="0.1" d="M242.225 511.269C322.025 511.269 386.716 491.581 386.716 467.294C386.716 443.007 322.025 423.318 242.225 423.318C162.425 423.318 97.7344 443.007 97.7344 467.294C97.7344 491.581 162.425 511.269 242.225 511.269Z" fill="black"/>
<g clip-path="url(#clip0_978_9991)">
<path d="M353.132 227.081V459.605H130.358V227.081C130.358 211.247 136.499 196.332 147.649 185.091L180.774 151.698C186.943 145.483 190.336 137.24 190.336 128.483V84.3457L190.576 84.4028C224.049 92.0514 259.441 92.0514 292.915 84.4028L293.155 84.3457V128.483C293.155 137.24 296.548 145.483 302.717 151.698L335.841 185.091C346.991 196.332 353.132 211.247 353.132 227.081Z" fill="#FCD997"/>
<path d="M241.744 18.627H181.767L189.712 104.412C190.415 112.009 196.133 118.184 203.65 119.475H203.667C228.869 123.805 254.625 123.805 279.821 119.475H279.838C287.356 118.184 293.068 112.003 293.776 104.412L301.722 18.627H241.744Z" fill="#AB4F33"/>
<path d="M297.135 68.1562L295.73 83.2934L293.776 104.411C293.074 112.008 287.356 118.183 279.838 119.474H279.821C254.619 123.804 228.869 123.804 203.667 119.474H203.65C196.133 118.183 190.415 112.008 189.712 104.411L187.759 83.2934L186.354 68.1562C189.164 69.4129 193.265 70.8295 199.086 72.1548C210.853 74.8395 226.002 76.3189 241.744 76.3189C257.487 76.3189 272.635 74.8395 284.402 72.1548C290.223 70.8295 294.324 69.4129 297.135 68.1562Z" fill="#EF9D78"/>
<path d="M241.744 32.9064C274.869 32.9064 301.722 26.5129 301.722 18.6261C301.722 10.7392 274.869 4.3457 241.744 4.3457C208.619 4.3457 181.767 10.7392 181.767 18.6261C181.767 26.5129 208.619 32.9064 241.744 32.9064Z" fill="#DA7644"/>
<path d="M353.132 229.977H130.358V459.605H353.132V229.977Z" fill="#F5B804"/>
<path d="M353.132 459.256C353.132 459.559 353.121 459.856 353.098 460.158C352.521 465.031 344.49 472.771 323.292 479.46C301.608 486.303 272.648 490.073 241.745 490.073C210.843 490.073 181.882 486.303 160.199 479.46C139.001 472.771 130.97 465.031 130.393 460.164C130.37 459.856 130.358 459.559 130.358 459.256C130.358 439.84 180.225 424.098 241.745 424.098C303.265 424.098 353.132 439.84 353.132 459.256Z" fill="#EF9A00"/>
<path d="M241.745 257.964C303.262 257.964 353.132 245.561 353.132 230.261C353.132 214.96 303.262 202.557 241.745 202.557C180.228 202.557 130.358 214.96 130.358 230.261C130.358 245.561 180.228 257.964 241.745 257.964Z" fill="#FBC918"/>
<g opacity="0.7">
<path d="M366.843 459.601H353.134V227.077C353.134 211.243 346.994 196.329 335.843 185.087L302.719 151.694C296.555 145.479 293.157 137.231 293.157 128.48V84.342L292.917 84.3934C259.438 92.042 224.051 92.042 190.572 84.3934L190.332 84.342V128.48C190.332 137.236 186.939 145.479 180.77 151.694L147.645 185.087C136.495 196.329 130.355 211.243 130.355 227.077V459.601H116.651V227.077C116.651 207.599 124.203 189.257 137.923 175.434L171.048 142.04C174.647 138.407 176.635 133.592 176.635 128.48V67.1484L193.634 71.0327C225.114 78.2243 258.393 78.2243 289.866 71.0327L306.866 67.1484V128.48C306.866 133.592 308.848 138.407 312.452 142.04L345.577 175.434C359.292 189.263 366.849 207.604 366.849 227.077V459.601H366.843Z" fill="#E1E7EF"/>
<path d="M298.938 48.7324L297.619 62.9899C299.721 63.9667 301.034 64.8292 301.766 65.4633C300.977 66.143 299.526 67.0913 297.139 68.1537C294.328 69.4104 290.227 70.827 284.406 72.1522C272.639 74.8369 257.491 76.3164 241.748 76.3164C226.005 76.3164 210.857 74.8369 199.09 72.1522C193.269 70.827 189.168 69.4104 186.357 68.1537C183.97 67.0913 182.519 66.143 181.731 65.4633C182.462 64.8292 183.776 63.9667 185.878 62.9899L184.558 48.7324C173.225 52.9194 167.49 58.5287 167.49 65.4633C167.49 73.0205 174.305 79.0068 187.763 83.2909C189.214 83.7536 190.739 84.1934 192.344 84.6161C205.63 88.1062 223.172 90.0255 241.748 90.0255C260.324 90.0255 277.866 88.1062 291.152 84.6161C292.758 84.1934 294.283 83.7536 295.734 83.2909C309.191 79.0068 316.006 73.0205 316.006 65.4633C316.006 58.5287 310.271 52.9194 298.938 48.7324Z" fill="#E1E7EF"/>
<path d="M359.99 359.066V345.357C378.668 345.357 382.85 342.347 385.631 335.138C389.79 324.382 389.79 303.144 389.79 267.957C389.79 212.721 389.79 179.379 379.097 163.391C370.014 149.807 352.038 145.666 302.148 145.666V131.957C329.584 131.957 345.835 133.094 358.236 135.876C373.447 139.291 383.701 145.609 390.492 155.771C403.493 175.221 403.493 208.163 403.493 267.957C403.493 305.989 403.493 326.935 398.415 340.079C391.646 357.598 375.721 359.066 359.984 359.066H359.99Z" fill="#E1E7EF"/>
<path d="M241.747 503.779C209.485 503.779 179.057 499.787 156.077 492.532C130.286 484.387 116.651 473.002 116.651 459.602H130.361C130.361 464.417 138.175 472.505 160.201 479.457C181.884 486.3 210.845 490.07 241.747 490.07C272.65 490.07 301.611 486.3 323.294 479.457C345.32 472.505 353.134 464.417 353.134 459.602H366.843C366.843 473.002 353.208 484.387 327.418 492.532C304.438 499.787 274.01 503.779 241.747 503.779Z" fill="#E1E7EF"/>
</g>
<path opacity="0.4" d="M179.483 458.462C173.171 458.462 168.059 453.349 168.059 447.037V237.105C168.059 224.789 171.097 212.519 176.844 201.632L199.652 158.391C202.594 152.81 209.506 150.674 215.087 153.616C220.667 156.558 222.804 163.469 219.862 169.05L197.053 212.291C193.032 219.911 190.913 228.491 190.913 237.105V447.037C190.913 453.349 185.801 458.462 179.489 458.462H179.483Z" fill="white"/>
</g>
<defs>
<clipPath id="clip0_978_9991">
<rect width="286.847" height="499.436" fill="white" transform="translate(116.653 4.3457)"/>
</clipPath>
</defs>
</svg>
