<svg width="480" height="240" viewBox="0 0 480 240" fill="none" xmlns="http://www.w3.org/2000/svg">
<g clip-path="url(#clip0_516_5726)">
<path d="M206 162C246.317 162 279 129.317 279 89C279 48.6832 246.317 16 206 16C165.683 16 133 48.6832 133 89C133 129.317 165.683 162 206 162Z" fill="white"/>
<path d="M268.938 89.3919C268.938 52.1544 237.02 22.6545 198.816 27.007C169.799 30.3922 146.586 53.6052 143.685 82.6215C141.267 104.867 150.455 124.695 165.931 137.269C172.701 143.072 177.054 151.293 177.054 160.482V161.933H235.086V161.449C235.086 152.744 238.955 144.039 245.725 138.236C259.75 126.629 268.938 109.22 268.938 89.3919Z" fill="#FBD24D"/>
<path d="M237.981 80.6924L223.473 71.0203C222.022 70.0531 219.604 70.0531 218.153 71.0203L206.063 78.758L194.457 71.0203C193.006 70.0531 190.588 70.0531 189.137 71.0203L174.629 80.6924C173.662 81.6596 172.694 82.6268 172.694 84.0776C172.694 85.5284 172.694 86.9793 173.662 87.9465L192.039 110.676V161.938H201.711V108.741C201.711 107.774 201.227 106.807 200.743 105.84L184.784 86.012L192.039 81.176L203.645 88.9137C205.096 89.8809 207.514 89.8809 208.965 88.9137L220.571 81.176L227.825 86.012L211.866 105.84C211.383 106.807 210.899 107.774 210.899 108.741V161.938H220.571V110.676L238.948 87.9465C239.915 86.9793 240.399 85.5284 239.915 84.0776C239.432 82.6268 238.948 81.176 237.981 80.6924Z" fill="#F49D0B"/>
<path d="M206.065 210.294C214.077 210.294 220.573 203.798 220.573 195.785C220.573 187.773 214.077 181.277 206.065 181.277C198.052 181.277 191.557 187.773 191.557 195.785C191.557 203.798 198.052 210.294 206.065 210.294Z" fill="#6366F0"/>
<path d="M215.737 200.622H196.393C185.754 200.622 177.049 191.917 177.049 181.278V157.098H235.081V181.278C235.081 191.917 226.376 200.622 215.737 200.622Z" fill="#A4B3FB"/>
<path d="M235.081 181.278L178.983 189.015C180.434 192.401 183.336 195.786 186.721 197.72L232.18 191.433C234.114 188.532 235.081 185.147 235.081 181.278ZM177.049 170.155V179.827L235.081 171.606V161.934L177.049 170.155Z" fill="#6366F0"/>
<path d="M315.912 228.516C315.548 228.644 315.185 228.771 314.33 228.663C313.475 228.555 312.492 228.083 311.51 227.611L287.075 201.066L276.076 222.084C275.968 222.939 275.368 223.558 274.277 223.941C273.914 224.069 273.186 224.324 272.695 224.088C271.477 224.108 269.875 223.036 269.364 221.582L241.271 141.589C240.76 140.135 240.977 138.425 242.303 137.551C242.539 137.059 243.267 136.804 243.63 136.676C244.357 136.421 245.576 136.401 246.558 136.873L323.889 170.982C325.363 171.69 326.238 173.017 326.385 174.599C326.532 176.181 325.333 177.419 324.006 178.293L301.865 188.52L326.9 214.446C327.519 215.045 327.902 216.136 327.922 217.355C327.814 218.209 327.469 219.556 326.87 220.175L317.985 228.605C317.003 228.133 316.276 228.388 315.912 228.516Z" fill="#334155"/>
<path d="M242.187 132.57C244.112 131.894 246.354 131.97 248.236 133.496L325.506 167.578C328.512 168.714 330.499 171.909 330.305 175.032C330.466 177.976 328.536 180.754 325.777 182.239L325.506 182.378C325.499 182.382 325.493 182.384 325.486 182.387L308.832 189.808L329.518 211.248L329.767 211.508C330.976 212.858 331.673 215.036 331.585 217.083C331.491 219.287 330.49 221.373 328.833 222.829L328.835 222.829L319.95 231.259C319.938 231.27 319.926 231.281 319.913 231.291C319.005 231.995 318.31 232.698 317.119 233.117C316.758 233.243 316.281 233.411 315.783 233.532C315.302 233.649 314.763 233.73 314.258 233.674L314.258 233.675C312.052 233.581 309.961 232.578 308.506 230.918L288.396 208.863L280.45 224.203C280.442 224.219 280.432 224.236 280.421 224.251C279.303 225.924 277.659 227.369 275.719 228.05C274.995 228.305 273.792 228.733 272.307 228.367C269.21 228.139 266.342 226.118 265.257 223.026L237.163 143.033C236.072 139.925 237.061 136.535 239.362 134.422L239.394 134.396L240.045 133.872C240.68 133.358 241.294 132.884 242.187 132.57ZM273.097 219.073L286.41 194.374L286.478 194.277C286.557 194.189 286.667 194.131 286.787 194.115C286.947 194.095 287.107 194.154 287.216 194.272L315.149 224.406L323.3 216.672L294.775 187.148C294.662 187.031 294.613 186.867 294.643 186.708C294.673 186.548 294.779 186.413 294.927 186.345L321.017 174.43L245.761 141.237L273.097 219.073Z" fill="white" stroke="white" stroke-linejoin="round"/>
</g>
<defs>
<clipPath id="clip0_516_5726">
<rect width="480" height="240" fill="white"/>
</clipPath>
</defs>
</svg>
