<svg width="480" height="240" viewBox="0 0 480 240" fill="none" xmlns="http://www.w3.org/2000/svg">
<g clip-path="url(#clip0_516_5737)">
<g filter="url(#filter0_d_516_5737)">
<path d="M116.624 115.362C119.376 115.459 121.903 116.223 124.106 117.396L124.572 117.653L124.882 117.834C128.031 119.722 130.257 122.487 131.562 125.595L131.563 125.594L137.822 140.45L154.4 141.902L154.723 141.949C157.324 142.321 160.498 143.298 163.316 145.653L163.588 145.886L164.014 146.271C165.96 148.095 167.336 150.252 168.23 152.507L168.414 152.991L168.61 153.561C169.536 156.416 169.681 159.416 169.051 162.341C168.242 166.097 166.221 169.08 163.796 171.244L163.725 171.309L163.651 171.372L151.365 181.985L155.041 197.774L155.044 197.785L155.047 197.797C155.805 201.08 155.681 204.848 153.95 208.49C152.759 210.998 151.013 213.203 148.761 214.944C146.105 216.998 143.037 218.104 139.917 218.374C136.206 218.696 132.77 217.728 129.907 215.971V215.973L116.03 207.612L102.153 215.973L102.152 215.971C99.2972 217.721 95.8777 218.686 92.1847 218.378C89.0347 218.115 85.9428 216.999 83.2745 214.924C81.048 213.192 79.3107 211.003 78.1193 208.506C76.3754 204.851 76.2604 201.075 77.0128 197.805L77.0167 197.789L77.0206 197.774L80.6954 181.985L68.4103 171.372L68.3185 171.292L68.2277 171.211C65.8218 169.046 63.8192 166.072 63.0148 162.336C62.3471 159.234 62.5472 156.039 63.6398 153.015L63.8244 152.526C64.7845 150.091 66.3041 147.786 68.4708 145.889L68.7423 145.656C71.5608 143.299 74.7391 142.314 77.3673 141.945L77.6769 141.901L94.2384 140.45L100.499 125.594C101.846 122.386 104.175 119.543 107.488 117.653L107.956 117.396C110.316 116.139 113.048 115.352 116.03 115.352L116.624 115.362Z" fill="#FABE24"/>
</g>
<path d="M116.624 115.362C119.376 115.459 121.903 116.223 124.106 117.396L124.572 117.653L124.882 117.834C128.031 119.722 130.257 122.487 131.562 125.595L131.563 125.594L137.822 140.45L154.4 141.902L154.723 141.949C157.324 142.321 160.498 143.298 163.316 145.653L163.588 145.886L164.014 146.271C165.96 148.095 167.336 150.252 168.23 152.507L168.414 152.991L168.61 153.561C169.536 156.416 169.681 159.416 169.051 162.341C168.242 166.097 166.221 169.08 163.796 171.244L163.725 171.309L163.652 171.372L151.365 181.985L155.041 197.774L155.044 197.785L155.047 197.797C155.805 201.08 155.681 204.848 153.95 208.49C152.759 210.998 151.013 213.203 148.761 214.944C146.105 216.998 143.037 218.104 139.917 218.374C136.206 218.696 132.77 217.728 129.907 215.971V215.973L116.03 207.612L102.153 215.973L102.152 215.971C99.2972 217.721 95.8778 218.686 92.1847 218.378C89.0346 218.115 85.9429 216.999 83.2746 214.924C81.048 213.192 79.3107 211.003 78.1193 208.506C76.3754 204.851 76.2604 201.075 77.0128 197.805L77.0168 197.789L77.0207 197.774L80.6955 181.985L68.4103 171.372L68.3185 171.292L68.2277 171.211C65.8217 169.046 63.8192 166.073 63.0148 162.336C62.3471 159.234 62.5471 156.039 63.6398 153.015L63.8244 152.526C64.7845 150.09 66.304 147.786 68.4709 145.889L68.7423 145.656C71.5609 143.299 74.7391 142.314 77.3673 141.945L77.6769 141.901L94.2384 140.45L100.499 125.594C101.846 122.386 104.175 119.543 107.488 117.653L107.956 117.396C110.316 116.139 113.048 115.352 116.03 115.352L116.624 115.362ZM116.03 127.352C115.147 127.352 114.282 127.594 113.434 128.077C112.586 128.561 111.961 129.286 111.558 130.253L102.49 151.773L79.0363 153.828L78.6252 153.897C77.693 154.08 76.9431 154.42 76.3761 154.916C75.7281 155.483 75.2441 156.209 74.925 157.093C74.6059 157.976 74.5464 158.882 74.7462 159.811C74.9461 160.739 75.4492 161.566 76.255 162.291L94.0275 177.646L88.7082 200.495L88.632 200.885C88.491 201.782 88.5968 202.6 88.9494 203.339C89.3523 204.183 89.9165 204.888 90.6418 205.452C91.3671 206.016 92.2137 206.338 93.1808 206.419C94.148 206.5 95.0755 206.258 95.9621 205.693L116.03 193.604L136.1 205.693C136.931 206.225 137.798 206.471 138.699 206.431L138.881 206.419C139.727 206.346 140.481 206.09 141.142 205.651L141.419 205.452C142.054 204.961 142.565 204.36 142.953 203.649L143.112 203.339C143.465 202.597 143.571 201.779 143.43 200.884L143.354 200.495L138.034 177.646L155.807 162.291C156.565 161.614 157.056 160.847 157.279 159.988L157.32 159.815C157.52 158.887 157.458 157.979 157.136 157.093C156.813 156.206 156.33 155.48 155.686 154.916C155.122 154.422 154.372 154.084 153.438 153.898L153.026 153.828L129.571 151.773L120.504 130.253C120.101 129.286 119.476 128.561 118.628 128.077C117.78 127.594 116.914 127.352 116.03 127.352Z" fill="white"/>
<g filter="url(#filter1_d_516_5737)">
<path d="M240.885 16.5898C244.408 16.7131 247.692 17.6885 250.638 19.2578L251.264 19.6035L251.652 19.8301C255.61 22.2012 258.436 25.6767 260.131 29.7197L275.457 66.0957L315.163 69.5752L315.489 69.6045L315.812 69.6504C319.507 70.1782 323.547 71.501 327.005 74.3906L327.337 74.6748L327.882 75.168C330.552 77.6694 332.428 80.6963 333.614 83.957C335.036 87.8674 335.307 91.9807 334.435 96.0293C333.427 100.714 330.901 104.522 327.667 107.408L327.595 107.473L327.522 107.536L297.464 133.504L306.459 172.143L306.462 172.153L306.465 172.165C307.464 176.495 307.26 181.211 305.127 185.701C303.532 189.057 301.221 191.967 298.244 194.27C294.862 196.885 290.948 198.313 286.861 198.667C282.139 199.076 277.74 197.84 273.977 195.481L240.126 175.089L206.262 195.488C202.508 197.833 198.128 199.061 193.429 198.67C189.312 198.327 185.375 196.888 181.981 194.249C179.029 191.953 176.727 189.06 175.133 185.718C172.986 181.218 172.791 176.494 173.785 172.173L173.789 172.157L173.792 172.143L182.787 133.504L152.729 107.536L152.637 107.456L152.547 107.375C149.335 104.484 146.83 100.684 145.826 96.0195C144.958 91.9893 145.217 87.8879 146.629 83.9805L146.875 83.3281C148.153 80.0825 150.136 77.1071 152.911 74.6777L153.244 74.3926C156.705 71.4979 160.749 70.1685 164.468 69.6465L164.777 69.6025L204.794 66.0957L220.121 29.7197C221.87 25.5459 224.826 21.9769 228.987 19.6035C232.299 17.7147 236.061 16.5762 240.126 16.5762L240.885 16.5898Z" fill="#FABE24"/>
</g>
<path d="M240.885 16.5898C244.408 16.713 247.692 17.6884 250.638 19.2578L251.264 19.6035L251.652 19.8301C255.61 22.2012 258.436 25.6766 260.131 29.7197L275.457 66.0957L315.163 69.5752L315.489 69.6045L315.812 69.6504C319.507 70.1782 323.547 71.5009 327.005 74.3906L327.337 74.6748L327.882 75.168C330.553 77.6694 332.428 80.6963 333.614 83.957C335.036 87.8675 335.307 91.9806 334.435 96.0293C333.427 100.714 330.901 104.522 327.667 107.408L327.595 107.473L327.522 107.536L297.464 133.504L306.459 172.143L306.462 172.153L306.465 172.165C307.464 176.495 307.261 181.211 305.127 185.701C303.532 189.057 301.221 191.967 298.244 194.27C294.862 196.885 290.949 198.313 286.861 198.667C282.139 199.076 277.74 197.841 273.977 195.481L240.126 175.089L206.262 195.488C202.508 197.833 198.128 199.061 193.429 198.67C189.312 198.327 185.375 196.889 181.981 194.249C179.029 191.953 176.727 189.06 175.133 185.718C172.986 181.218 172.791 176.494 173.785 172.173L173.789 172.157L173.792 172.143L182.787 133.504L152.729 107.536L152.637 107.456L152.547 107.375C149.335 104.484 146.83 100.684 145.826 96.0195C144.958 91.9893 145.217 87.8879 146.629 83.9805L146.875 83.3281C148.153 80.0825 150.136 77.1072 152.911 74.6777L153.244 74.3926C156.705 71.4978 160.749 70.1685 164.468 69.6465L164.777 69.6025L204.794 66.0957L220.121 29.7197C221.87 25.5458 224.826 21.9769 228.987 19.6035C232.299 17.7145 236.061 16.5762 240.126 16.5762L240.885 16.5898ZM240.126 28.5762C238.359 28.5762 236.627 29.0602 234.931 30.0273L234.619 30.2139C233.081 31.1772 231.935 32.5657 231.179 34.3789L213.045 77.4189L166.136 81.5293L165.72 81.5938C163.666 81.9379 162.031 82.6421 160.816 83.7061C159.52 84.8409 158.553 86.2919 157.915 88.0586C157.277 89.8252 157.157 91.6372 157.556 93.4941C157.956 95.351 158.963 97.0044 160.575 98.4551L196.119 129.164L185.479 174.863L185.396 175.255C185.018 177.201 185.208 178.967 185.964 180.551C186.77 182.24 187.898 183.649 189.348 184.777C190.799 185.906 192.492 186.55 194.427 186.711C196.361 186.872 198.214 186.389 199.987 185.261L240.126 161.081L280.264 185.261C281.927 186.324 283.66 186.816 285.464 186.735L285.825 186.711C287.638 186.554 289.239 185.977 290.628 184.981L290.903 184.777C292.263 183.726 293.34 182.421 294.134 180.865L294.288 180.551C295.043 178.961 295.233 177.195 294.855 175.254L294.772 174.863L284.133 129.164L319.677 98.4551C321.194 97.1011 322.176 95.5662 322.622 93.8496L322.704 93.5039C323.079 91.7631 322.994 90.0588 322.451 88.3916L322.337 88.0586C321.692 86.2855 320.725 84.8344 319.435 83.7061C318.226 82.6482 316.592 81.9442 314.533 81.5947L314.116 81.5293L267.207 77.4189L249.072 34.3789C248.266 32.4447 247.015 30.9945 245.319 30.0273C243.623 29.0602 241.892 28.5762 240.126 28.5762Z" fill="white"/>
<g filter="url(#filter2_d_516_5737)">
<path d="M364.812 115.362C367.564 115.459 370.09 116.223 372.293 117.396L372.76 117.653L373.069 117.834C376.219 119.722 378.445 122.487 379.749 125.595L379.75 125.594L386.01 140.45L402.587 141.902L402.91 141.949C405.511 142.321 408.685 143.298 411.503 145.653L411.776 145.886L412.201 146.271C414.147 148.095 415.524 150.252 416.417 152.507L416.602 152.991L416.797 153.561C417.724 156.416 417.868 159.416 417.238 162.341C416.43 166.097 414.409 169.08 411.984 171.244L411.912 171.309L411.839 171.372L399.553 181.985L403.229 197.774L403.232 197.785L403.235 197.797C403.992 201.08 403.869 204.848 402.138 208.49C400.946 210.998 399.2 213.203 396.948 214.944C394.292 216.998 391.225 218.104 388.105 218.374C384.393 218.696 380.957 217.728 378.095 215.971V215.973L364.218 207.612L350.341 215.973L350.34 215.971C347.485 217.721 344.065 218.686 340.372 218.378C337.222 218.115 334.13 216.999 331.462 214.924C329.236 213.192 327.498 211.003 326.307 208.506C324.563 204.851 324.448 201.075 325.2 197.805L325.204 197.789L325.208 197.774L328.883 181.985L316.598 171.372L316.506 171.292L316.415 171.211C314.009 169.046 312.007 166.072 311.202 162.336C310.535 159.234 310.735 156.039 311.827 153.015L312.012 152.526C312.972 150.091 314.492 147.786 316.658 145.889L316.93 145.656C319.748 143.299 322.927 142.314 325.555 141.945L325.864 141.901L342.426 140.45L348.687 125.594C350.033 122.386 352.363 119.543 355.676 117.653L356.144 117.396C358.504 116.139 361.235 115.352 364.218 115.352L364.812 115.362Z" fill="#FABE24"/>
</g>
<path d="M364.812 115.362C367.564 115.459 370.09 116.223 372.293 117.396L372.76 117.653L373.069 117.834C376.219 119.722 378.445 122.487 379.749 125.595L379.75 125.594L386.01 140.45L402.587 141.902L402.91 141.949C405.512 142.321 408.685 143.298 411.503 145.653L411.776 145.886L412.201 146.271C414.147 148.095 415.524 150.252 416.417 152.507L416.602 152.991L416.797 153.561C417.724 156.416 417.868 159.416 417.238 162.341C416.43 166.097 414.409 169.08 411.984 171.244L411.912 171.309L411.839 171.372L399.553 181.985L403.229 197.774L403.232 197.785L403.235 197.797C403.992 201.08 403.869 204.848 402.138 208.49C400.946 210.998 399.2 213.203 396.948 214.944C394.292 216.998 391.225 218.104 388.105 218.374C384.393 218.696 380.957 217.728 378.095 215.971V215.973L364.218 207.612L350.341 215.973L350.34 215.971C347.485 217.721 344.065 218.686 340.372 218.378C337.222 218.115 334.13 216.999 331.462 214.924C329.235 213.192 327.498 211.003 326.307 208.506C324.563 204.851 324.448 201.075 325.2 197.805L325.204 197.789L325.208 197.774L328.883 181.985L316.598 171.372L316.506 171.292L316.415 171.211C314.009 169.046 312.007 166.073 311.202 162.336C310.535 159.234 310.735 156.039 311.827 153.015L312.012 152.526C312.972 150.09 314.492 147.786 316.658 145.889L316.93 145.656C319.748 143.299 322.927 142.314 325.555 141.945L325.864 141.901L342.426 140.45L348.687 125.594C350.034 122.386 352.363 119.543 355.676 117.653L356.144 117.396C358.504 116.139 361.235 115.352 364.218 115.352L364.812 115.362ZM364.218 127.352C363.335 127.352 362.469 127.594 361.621 128.077C360.774 128.561 360.148 129.286 359.745 130.253L350.678 151.773L327.224 153.828L326.813 153.897C325.88 154.08 325.131 154.42 324.564 154.916C323.916 155.483 323.432 156.209 323.112 157.093C322.793 157.976 322.734 158.882 322.934 159.811C323.134 160.739 323.637 161.566 324.443 162.291L342.215 177.646L336.896 200.495L336.819 200.885C336.679 201.782 336.784 202.6 337.137 203.339C337.54 204.183 338.104 204.888 338.829 205.452C339.555 206.016 340.401 206.338 341.368 206.419C342.336 206.5 343.263 206.258 344.15 205.693L364.218 193.604L384.287 205.693C385.118 206.225 385.985 206.471 386.887 206.431L387.069 206.419C387.915 206.346 388.668 206.09 389.329 205.651L389.607 205.452C390.241 204.961 390.753 204.36 391.141 203.649L391.3 203.339C391.653 202.597 391.758 201.779 391.617 200.884L391.541 200.495L386.222 177.646L403.994 162.291C404.753 161.614 405.244 160.847 405.467 159.988L405.508 159.815C405.708 158.887 405.646 157.979 405.323 157.093C405.001 156.206 404.518 155.48 403.873 154.916C403.309 154.422 402.559 154.084 401.625 153.898L401.213 153.828L377.759 151.773L368.692 130.253C368.289 129.286 367.663 128.561 366.816 128.077C365.968 127.594 365.101 127.352 364.218 127.352Z" fill="white"/>
</g>
<defs>
<filter id="filter0_d_516_5737" x="62.6309" y="115.352" width="106.804" height="111.084" filterUnits="userSpaceOnUse" color-interpolation-filters="sRGB">
<feFlood flood-opacity="0" result="BackgroundImageFix"/>
<feColorMatrix in="SourceAlpha" type="matrix" values="0 0 0 0 0 0 0 0 0 0 0 0 0 0 0 0 0 0 127 0" result="hardAlpha"/>
<feOffset dy="8"/>
<feComposite in2="hardAlpha" operator="out"/>
<feColorMatrix type="matrix" values="0 0 0 0 0.957031 0 0 0 0 0.617188 0 0 0 0 0.0429688 0 0 0 1 0"/>
<feBlend mode="normal" in2="BackgroundImageFix" result="effect1_dropShadow_516_5737"/>
<feBlend mode="normal" in="SourceGraphic" in2="effect1_dropShadow_516_5737" result="shape"/>
</filter>
<filter id="filter1_d_516_5737" x="145.326" y="16.5762" width="189.607" height="190.168" filterUnits="userSpaceOnUse" color-interpolation-filters="sRGB">
<feFlood flood-opacity="0" result="BackgroundImageFix"/>
<feColorMatrix in="SourceAlpha" type="matrix" values="0 0 0 0 0 0 0 0 0 0 0 0 0 0 0 0 0 0 127 0" result="hardAlpha"/>
<feOffset dy="8"/>
<feComposite in2="hardAlpha" operator="out"/>
<feColorMatrix type="matrix" values="0 0 0 0 0.957031 0 0 0 0 0.617188 0 0 0 0 0.0429688 0 0 0 1 0"/>
<feBlend mode="normal" in2="BackgroundImageFix" result="effect1_dropShadow_516_5737"/>
<feBlend mode="normal" in="SourceGraphic" in2="effect1_dropShadow_516_5737" result="shape"/>
</filter>
<filter id="filter2_d_516_5737" x="310.818" y="115.352" width="106.804" height="111.084" filterUnits="userSpaceOnUse" color-interpolation-filters="sRGB">
<feFlood flood-opacity="0" result="BackgroundImageFix"/>
<feColorMatrix in="SourceAlpha" type="matrix" values="0 0 0 0 0 0 0 0 0 0 0 0 0 0 0 0 0 0 127 0" result="hardAlpha"/>
<feOffset dy="8"/>
<feComposite in2="hardAlpha" operator="out"/>
<feColorMatrix type="matrix" values="0 0 0 0 0.957031 0 0 0 0 0.617188 0 0 0 0 0.0429688 0 0 0 1 0"/>
<feBlend mode="normal" in2="BackgroundImageFix" result="effect1_dropShadow_516_5737"/>
<feBlend mode="normal" in="SourceGraphic" in2="effect1_dropShadow_516_5737" result="shape"/>
</filter>
<clipPath id="clip0_516_5737">
<rect width="480" height="240" fill="white"/>
</clipPath>
</defs>
</svg>
