<svg width="480" height="240" viewBox="0 0 480 240" fill="none" xmlns="http://www.w3.org/2000/svg">
<g clip-path="url(#clip0_516_5737)">
<g filter="url(#filter0_d_516_5737)">
<path d="M116.031 193.604L95.9616 205.694C95.075 206.258 94.1481 206.5 93.1809 206.419C92.2137 206.339 91.3674 206.016 90.642 205.452C89.9167 204.888 89.3525 204.183 88.9495 203.339C88.5465 202.494 88.4659 201.546 88.7077 200.495L94.0272 177.645L76.2551 162.291C75.4491 161.566 74.9462 160.739 74.7463 159.81C74.5464 158.882 74.6061 157.976 74.9253 157.093C75.2444 156.209 75.728 155.484 76.376 154.916C77.024 154.349 77.9106 153.986 79.0358 153.828L102.49 151.773L111.557 130.253C111.96 129.286 112.586 128.561 113.434 128.077C114.282 127.593 115.147 127.352 116.031 127.352C116.914 127.352 117.78 127.593 118.628 128.077C119.476 128.561 120.101 129.286 120.504 130.253L129.571 151.773L153.026 153.828C154.154 153.99 155.041 154.352 155.685 154.916C156.33 155.481 156.814 156.206 157.136 157.093C157.459 157.979 157.52 158.887 157.32 159.815C157.12 160.744 156.616 161.569 155.806 162.291L138.034 177.645L143.354 200.495C143.596 201.543 143.515 202.491 143.112 203.339C142.709 204.187 142.145 204.891 141.419 205.452C140.694 206.013 139.848 206.335 138.881 206.419C137.913 206.503 136.986 206.261 136.1 205.694L116.031 193.604Z" fill="#FABE24"/>
<path d="M116.41 121.358C118.172 121.42 119.814 121.908 121.287 122.692L121.601 122.865L121.984 123.096C123.864 124.277 125.212 125.968 126.032 127.924H126.033L133.696 146.111L153.55 147.852L153.712 147.865L153.874 147.889C155.662 148.144 157.611 148.772 159.302 150.121L159.637 150.401L159.909 150.647C161.155 151.815 162.055 153.211 162.651 154.718L162.775 155.042L162.901 155.41C163.5 157.254 163.594 159.18 163.186 161.078C162.681 163.42 161.419 165.324 159.802 166.768L159.766 166.8L159.729 166.831L144.699 179.815L149.197 199.135L149.2 199.146L149.287 199.554C149.684 201.605 149.532 203.809 148.531 205.914C147.734 207.592 146.579 209.047 145.09 210.198C143.399 211.506 141.442 212.219 139.398 212.396C137.057 212.599 134.875 211.993 133.004 210.832V210.833L116.03 200.607L99.0576 210.833L99.0566 210.832C97.1887 211.987 95.0148 212.593 92.6826 212.398C90.624 212.227 88.6549 211.508 86.958 210.188C85.4819 209.04 84.3314 207.593 83.5342 205.922C82.4609 203.672 82.3633 201.31 82.8604 199.149L82.8623 199.143L82.8643 199.135L87.3613 179.815L72.333 166.831L72.2861 166.792L72.2412 166.751C70.6353 165.306 69.383 163.406 68.8809 161.073C68.4471 159.058 68.5763 157.007 69.2822 155.054L69.4053 154.728C70.0446 153.105 71.0366 151.617 72.4238 150.402L72.7578 150.122C74.4501 148.77 76.4021 148.139 78.2012 147.887L78.3564 147.865L78.5117 147.852L98.3643 146.111L106.019 127.945L106.189 127.556C107.079 125.627 108.504 123.982 110.461 122.865C112.117 121.921 113.998 121.352 116.03 121.352L116.41 121.358Z" stroke="white" stroke-width="12"/>
</g>
<g filter="url(#filter1_d_516_5737)">
<path d="M240.126 161.081L199.988 185.261C198.214 186.389 196.361 186.873 194.426 186.711C192.492 186.55 190.799 185.905 189.349 184.777C187.898 183.649 186.769 182.24 185.963 180.55C185.157 178.861 184.996 176.965 185.48 174.863L196.119 129.164L160.575 98.4555C158.963 97.0047 157.957 95.3508 157.557 93.4938C157.157 91.6368 157.277 89.8249 157.915 88.0582C158.553 86.2915 159.52 84.8407 160.817 83.7059C162.113 82.571 163.886 81.8456 166.136 81.5297L213.045 77.4191L231.179 34.3793C231.985 32.4449 233.236 30.9941 234.932 30.027C236.628 29.0598 238.359 28.5762 240.126 28.5762C241.893 28.5762 243.624 29.0598 245.32 30.027C247.015 30.9941 248.266 32.4449 249.072 34.3793L267.207 77.4191L314.116 81.5297C316.372 81.8521 318.146 82.5775 319.435 83.7059C320.725 84.8342 321.692 86.285 322.337 88.0582C322.982 89.8314 323.104 91.6465 322.704 93.5035C322.305 95.3605 321.295 97.0111 319.677 98.4555L284.133 129.164L294.772 174.863C295.256 176.959 295.094 178.855 294.288 180.55C293.482 182.246 292.354 183.655 290.903 184.777C289.452 185.899 287.76 186.544 285.826 186.711C283.891 186.879 282.037 186.395 280.264 185.261L240.126 161.081Z" fill="#FABE24"/>
<path d="M240.126 22.5762C243.042 22.5762 245.788 23.3874 248.292 24.8154C251.228 26.4899 253.335 29.0077 254.611 32.0713H254.61L271.332 71.7578L314.64 75.5527L314.803 75.5664L314.964 75.5898C317.999 76.0234 320.977 77.0823 323.387 79.1904C325.513 81.0507 327.021 83.3822 327.976 86.0078C329.009 88.8496 329.206 91.8138 328.57 94.7666C327.866 98.0375 326.098 100.766 323.672 102.932L323.6 102.996L290.798 131.334L300.615 173.503L300.618 173.514L300.746 174.117C301.332 177.139 301.085 180.226 299.707 183.126C298.507 185.652 296.787 187.811 294.573 189.523C292.157 191.392 289.354 192.428 286.344 192.688C283.032 192.975 279.922 192.125 277.168 190.398V190.4L240.126 168.085L203.084 190.4L203.083 190.398C200.331 192.116 197.229 192.966 193.928 192.69C190.902 192.438 188.087 191.397 185.665 189.513C183.464 187.8 181.748 185.649 180.548 183.134C179.071 180.039 178.894 176.729 179.633 173.518L179.635 173.511L179.636 173.503L189.453 131.334L156.652 102.996L156.606 102.956L156.561 102.915C154.149 100.744 152.393 98.0176 151.691 94.7568C151.058 91.8132 151.247 88.8566 152.272 86.0195C153.224 83.3867 154.737 81.0545 156.864 79.1914C159.278 77.0776 162.258 76.0153 165.302 75.5879L165.457 75.5664L165.612 75.5527L208.919 71.7578L225.641 32.0713L225.89 31.5039C227.184 28.6965 229.207 26.3853 231.96 24.8154C234.464 23.3874 237.21 22.5762 240.126 22.5762Z" stroke="white" stroke-width="12"/>
</g>
<g filter="url(#filter2_d_516_5737)">
<path d="M364.218 193.604L344.149 205.694C343.262 206.258 342.336 206.5 341.368 206.419C340.401 206.339 339.555 206.016 338.83 205.452C338.104 204.888 337.54 204.183 337.137 203.339C336.734 202.494 336.653 201.546 336.895 200.495L342.215 177.645L324.443 162.291C323.637 161.566 323.134 160.739 322.934 159.81C322.734 158.882 322.794 157.976 323.113 157.093C323.432 156.209 323.916 155.484 324.564 154.916C325.212 154.349 326.098 153.986 327.223 153.828L350.678 151.773L359.745 130.253C360.148 129.286 360.773 128.561 361.621 128.077C362.469 127.593 363.335 127.352 364.218 127.352C365.102 127.352 365.967 127.593 366.815 128.077C367.663 128.561 368.288 129.286 368.691 130.253L377.759 151.773L401.213 153.828C402.342 153.99 403.228 154.352 403.873 154.916C404.518 155.481 405.001 156.206 405.324 157.093C405.646 157.979 405.707 158.887 405.507 159.815C405.308 160.744 404.803 161.569 403.994 162.291L386.222 177.645L391.541 200.495C391.783 201.543 391.702 202.491 391.299 203.339C390.896 204.187 390.332 204.891 389.607 205.452C388.882 206.013 388.035 206.335 387.068 206.419C386.101 206.503 385.174 206.261 384.287 205.694L364.218 193.604Z" fill="#FABE24"/>
<path d="M364.598 121.358C366.359 121.42 368.001 121.908 369.475 122.692L369.788 122.865L370.172 123.096C372.051 124.277 373.4 125.968 374.22 127.924H374.221L381.884 146.111L401.737 147.852L401.899 147.865L402.062 147.889C403.849 148.144 405.799 148.772 407.489 150.121L407.824 150.401L408.097 150.647C409.343 151.815 410.242 153.211 410.839 154.718L410.963 155.042L411.089 155.41C411.688 157.254 411.782 159.18 411.373 161.078C410.869 163.42 409.606 165.324 407.989 166.768L407.953 166.8L407.916 166.831L392.887 179.815L397.385 199.135L397.388 199.146L397.475 199.554C397.871 201.605 397.719 203.809 396.719 205.914C395.921 207.592 394.766 209.047 393.277 210.198C391.587 211.506 389.63 212.219 387.586 212.396C385.244 212.599 383.063 211.993 381.191 210.832V210.833L364.218 200.607L347.245 210.833L347.244 210.832C345.376 211.987 343.202 212.593 340.87 212.398C338.811 212.227 336.842 211.508 335.146 210.188C333.669 209.04 332.519 207.593 331.722 205.922C330.648 203.672 330.551 201.31 331.048 199.149L331.05 199.143L331.052 199.135L335.549 179.815L320.521 166.831L320.474 166.792L320.429 166.751C318.823 165.306 317.571 163.406 317.068 161.073C316.635 159.058 316.764 157.007 317.47 155.054L317.593 154.728C318.232 153.105 319.224 151.617 320.611 150.402L320.945 150.122C322.638 148.77 324.59 148.139 326.389 147.887L326.544 147.865L326.699 147.852L346.552 146.111L354.206 127.945L354.377 127.556C355.267 125.627 356.691 123.982 358.648 122.865C360.304 121.921 362.185 121.352 364.218 121.352L364.598 121.358Z" stroke="white" stroke-width="12"/>
</g>
</g>
<defs>
<filter id="filter0_d_516_5737" x="62.6309" y="115.352" width="106.804" height="111.084" filterUnits="userSpaceOnUse" color-interpolation-filters="sRGB">
<feFlood flood-opacity="0" result="BackgroundImageFix"/>
<feColorMatrix in="SourceAlpha" type="matrix" values="0 0 0 0 0 0 0 0 0 0 0 0 0 0 0 0 0 0 127 0" result="hardAlpha"/>
<feOffset dy="8"/>
<feComposite in2="hardAlpha" operator="out"/>
<feColorMatrix type="matrix" values="0 0 0 0 0.957031 0 0 0 0 0.617188 0 0 0 0 0.0429688 0 0 0 1 0"/>
<feBlend mode="normal" in2="BackgroundImageFix" result="effect1_dropShadow_516_5737"/>
<feBlend mode="normal" in="SourceGraphic" in2="effect1_dropShadow_516_5737" result="shape"/>
</filter>
<filter id="filter1_d_516_5737" x="145.326" y="16.5762" width="189.607" height="190.168" filterUnits="userSpaceOnUse" color-interpolation-filters="sRGB">
<feFlood flood-opacity="0" result="BackgroundImageFix"/>
<feColorMatrix in="SourceAlpha" type="matrix" values="0 0 0 0 0 0 0 0 0 0 0 0 0 0 0 0 0 0 127 0" result="hardAlpha"/>
<feOffset dy="8"/>
<feComposite in2="hardAlpha" operator="out"/>
<feColorMatrix type="matrix" values="0 0 0 0 0.957031 0 0 0 0 0.617188 0 0 0 0 0.0429688 0 0 0 1 0"/>
<feBlend mode="normal" in2="BackgroundImageFix" result="effect1_dropShadow_516_5737"/>
<feBlend mode="normal" in="SourceGraphic" in2="effect1_dropShadow_516_5737" result="shape"/>
</filter>
<filter id="filter2_d_516_5737" x="310.818" y="115.352" width="106.804" height="111.084" filterUnits="userSpaceOnUse" color-interpolation-filters="sRGB">
<feFlood flood-opacity="0" result="BackgroundImageFix"/>
<feColorMatrix in="SourceAlpha" type="matrix" values="0 0 0 0 0 0 0 0 0 0 0 0 0 0 0 0 0 0 127 0" result="hardAlpha"/>
<feOffset dy="8"/>
<feComposite in2="hardAlpha" operator="out"/>
<feColorMatrix type="matrix" values="0 0 0 0 0.957031 0 0 0 0 0.617188 0 0 0 0 0.0429688 0 0 0 1 0"/>
<feBlend mode="normal" in2="BackgroundImageFix" result="effect1_dropShadow_516_5737"/>
<feBlend mode="normal" in="SourceGraphic" in2="effect1_dropShadow_516_5737" result="shape"/>
</filter>
<clipPath id="clip0_516_5737">
<rect width="480" height="240" fill="white"/>
</clipPath>
</defs>
</svg>
