<svg width="480" height="240" viewBox="0 0 480 240" fill="none" xmlns="http://www.w3.org/2000/svg">
<path d="M131 179.925C131 174.794 133.038 169.874 136.666 166.246C140.294 162.619 145.214 160.581 150.344 160.581H256.737C265.751 160.581 270.259 160.581 273.808 159.111C276.157 158.138 278.291 156.713 280.088 154.916C281.886 153.118 283.311 150.984 284.283 148.636C285.753 145.086 285.753 140.579 285.753 131.564V160.581C285.753 178.822 285.753 187.933 280.085 193.601C274.418 199.269 265.307 199.269 247.065 199.269H150.344C145.214 199.269 140.294 197.231 136.666 193.603C133.038 189.976 131 185.055 131 179.925Z" fill="#F49D0B"/>
<mask id="path-2-inside-1_516_5712" fill="white">
<path d="M285.751 179.751C285.751 190.434 277.091 199.096 266.407 199.096H250.378C266.43 199.075 274.77 198.743 280.084 193.43C285.752 187.762 285.751 178.65 285.751 160.409V179.751ZM147.03 198.812C147.48 198.89 147.934 198.952 148.391 198.998C147.932 198.952 147.479 198.889 147.03 198.812ZM139.308 195.64C141.615 197.242 144.244 198.325 147.012 198.809C144.186 198.318 141.571 197.214 139.308 195.64ZM131.037 180.962C131.251 184.384 132.369 187.673 134.257 190.499C132.409 187.739 131.254 184.478 131.037 180.962ZM266.407 24.998C277.091 24.9981 285.751 33.6585 285.751 44.3418V131.393C285.751 140.407 285.751 144.914 284.281 148.464C283.309 150.812 281.883 152.947 280.086 154.744C278.289 156.541 276.155 157.966 273.807 158.938C270.257 160.409 265.75 160.409 256.735 160.409H150.342C145.212 160.409 140.292 162.447 136.664 166.074C133.036 169.702 130.998 174.623 130.998 179.753C130.998 180.001 131.003 180.248 131.013 180.495C131.003 180.248 130.998 180 130.998 179.751V44.3418C130.998 33.6586 139.659 24.9983 150.342 24.998H266.407ZM134.442 190.77C134.38 190.68 134.318 190.59 134.257 190.499C134.318 190.59 134.38 190.68 134.442 190.77Z"/>
</mask>
<path d="M285.751 179.751C285.751 190.434 277.091 199.096 266.407 199.096H250.378C266.43 199.075 274.77 198.743 280.084 193.43C285.752 187.762 285.751 178.65 285.751 160.409V179.751ZM147.03 198.812C147.48 198.89 147.934 198.952 148.391 198.998C147.932 198.952 147.479 198.889 147.03 198.812ZM139.308 195.64C141.615 197.242 144.244 198.325 147.012 198.809C144.186 198.318 141.571 197.214 139.308 195.64ZM131.037 180.962C131.251 184.384 132.369 187.673 134.257 190.499C132.409 187.739 131.254 184.478 131.037 180.962ZM266.407 24.998C277.091 24.9981 285.751 33.6585 285.751 44.3418V131.393C285.751 140.407 285.751 144.914 284.281 148.464C283.309 150.812 281.883 152.947 280.086 154.744C278.289 156.541 276.155 157.966 273.807 158.938C270.257 160.409 265.75 160.409 256.735 160.409H150.342C145.212 160.409 140.292 162.447 136.664 166.074C133.036 169.702 130.998 174.623 130.998 179.753C130.998 180.001 131.003 180.248 131.013 180.495C131.003 180.248 130.998 180 130.998 179.751V44.3418C130.998 33.6586 139.659 24.9983 150.342 24.998H266.407ZM134.442 190.77C134.38 190.68 134.318 190.59 134.257 190.499C134.318 190.59 134.38 190.68 134.442 190.77Z" fill="#FBD24D"/>
<path d="M266.407 199.096L266.407 207.655L266.407 207.655L266.407 199.096ZM250.378 199.096L250.367 190.537L250.378 207.655V199.096ZM280.084 193.43L286.136 199.482L286.136 199.482L280.084 193.43ZM147.03 198.812L148.486 190.377L145.565 207.244L147.03 198.812ZM148.391 198.998L147.537 207.514L149.254 190.483L148.391 198.998ZM139.308 195.64L144.19 188.61L134.419 202.665L139.308 195.64ZM147.012 198.809L145.548 207.241L148.485 190.378L147.012 198.809ZM131.037 180.962L139.579 180.427L122.495 181.489L131.037 180.962ZM266.407 24.998L266.407 16.4392H266.407V24.998ZM285.751 44.3418L294.31 44.3418L294.31 44.3416L285.751 44.3418ZM284.281 148.464L276.374 145.189L276.373 145.19L284.281 148.464ZM280.086 154.744L286.138 160.796L286.138 160.796L280.086 154.744ZM273.807 158.938L270.533 151.03L270.532 151.031L273.807 158.938ZM256.735 160.409L256.735 168.968L256.735 160.409ZM150.342 160.409L150.342 151.85L150.342 151.85L150.342 160.409ZM136.664 166.074L130.612 160.022L130.612 160.022L136.664 166.074ZM130.998 179.753L122.439 179.753V179.753L130.998 179.753ZM131.013 180.495L122.46 180.823L139.565 180.172L131.013 180.495ZM130.998 44.3418L122.439 44.3416V44.3418H130.998ZM150.342 24.998L150.342 16.4392L150.342 16.4392L150.342 24.998ZM134.442 190.77L127.412 195.651L141.478 185.895L134.442 190.77ZM285.751 179.751H277.192C277.192 185.708 272.363 190.537 266.407 190.537L266.407 199.096L266.407 207.655C281.818 207.655 294.31 195.161 294.31 179.751H285.751ZM266.407 199.096V190.537H250.378V199.096V207.655H266.407V199.096ZM250.378 199.096L250.389 207.655C258.258 207.644 265.055 207.575 270.591 206.702C276.379 205.79 281.748 203.87 286.136 199.482L280.084 193.43L274.032 187.378C273.106 188.303 271.649 189.206 267.925 189.793C263.95 190.42 258.55 190.526 250.367 190.537L250.378 199.096ZM280.084 193.43L286.136 199.482C290.824 194.794 292.689 188.993 293.525 182.775C294.328 176.806 294.31 169.287 294.31 160.409L285.751 160.409L277.192 160.409C277.192 169.772 277.174 175.93 276.56 180.494C275.98 184.809 275.012 186.398 274.032 187.378L280.084 193.43ZM285.751 160.409H277.192V179.751H285.751H294.31V160.409H285.751ZM147.03 198.812L145.565 207.244C146.219 207.358 146.874 207.447 147.527 207.513L148.391 198.998L149.254 190.483C148.995 190.457 148.742 190.422 148.496 190.379L147.03 198.812ZM148.391 198.998L149.244 190.482C149.003 190.458 148.751 190.423 148.486 190.377L147.03 198.812L145.575 207.246C146.206 207.355 146.861 207.447 147.537 207.514L148.391 198.998ZM139.308 195.64L134.425 202.669C137.75 204.979 141.542 206.541 145.538 207.24L147.012 198.809L148.485 190.378C146.945 190.108 145.479 189.505 144.19 188.61L139.308 195.64ZM147.012 198.809L148.475 190.376C146.911 190.104 145.46 189.494 144.196 188.614L139.308 195.64L134.419 202.665C137.682 204.935 141.461 206.532 145.548 207.241L147.012 198.809ZM131.037 180.962L122.495 181.496C122.804 186.431 124.415 191.175 127.14 195.253L134.257 190.499L141.374 185.745C140.322 184.171 139.699 182.337 139.579 180.427L131.037 180.962ZM134.257 190.499L141.369 185.738C140.341 184.202 139.701 182.396 139.58 180.434L131.037 180.962L122.495 181.489C122.808 186.56 124.477 191.276 127.145 195.261L134.257 190.499ZM266.407 24.998L266.407 33.5569C272.363 33.5569 277.192 38.3853 277.192 44.342L285.751 44.3418L294.31 44.3416C294.31 28.9317 281.818 16.4392 266.407 16.4392L266.407 24.998ZM285.751 44.3418H277.192V131.393H285.751H294.31V44.3418H285.751ZM285.751 131.393H277.192C277.192 136.017 277.188 139.057 277.028 141.396C276.874 143.659 276.604 144.632 276.374 145.189L284.281 148.464L292.189 151.739C293.428 148.746 293.893 145.69 294.107 142.559C294.315 139.503 294.31 135.783 294.31 131.393H285.751ZM284.281 148.464L276.373 145.19C275.831 146.5 275.036 147.69 274.034 148.692L280.086 154.744L286.138 160.796C288.731 158.204 290.787 155.125 292.189 151.737L284.281 148.464ZM280.086 154.744L274.034 148.692C273.032 149.694 271.843 150.488 270.533 151.03L273.807 158.938L277.08 166.847C280.467 165.445 283.545 163.389 286.138 160.796L280.086 154.744ZM273.807 158.938L270.532 151.031C269.974 151.262 269.001 151.532 266.738 151.686C264.399 151.846 261.359 151.85 256.735 151.85L256.735 160.409L256.735 168.968C261.126 168.968 264.847 168.973 267.902 168.764C271.034 168.551 274.089 168.085 277.082 166.846L273.807 158.938ZM256.735 160.409V151.85H150.342V160.409V168.968H256.735V160.409ZM150.342 160.409L150.342 151.85C142.942 151.85 135.845 154.789 130.612 160.022L136.664 166.074L142.716 172.126C144.738 170.104 147.481 168.968 150.342 168.968L150.342 160.409ZM136.664 166.074L130.612 160.022C125.379 165.255 122.439 172.352 122.439 179.753L130.998 179.753L139.557 179.753C139.557 176.893 140.693 174.149 142.716 172.126L136.664 166.074ZM130.998 179.753L122.439 179.753C122.439 180.12 122.447 180.477 122.46 180.823L131.013 180.495L139.565 180.167C139.56 180.019 139.557 179.882 139.557 179.753L130.998 179.753ZM131.013 180.495L139.565 180.172C139.56 180.018 139.557 179.879 139.557 179.751H130.998H122.439C122.439 180.121 122.447 180.478 122.46 180.818L131.013 180.495ZM130.998 179.751H139.557V44.3418H130.998H122.439V179.751H130.998ZM130.998 44.3418L139.557 44.342C139.557 38.3856 144.386 33.557 150.342 33.5569L150.342 24.998L150.342 16.4392C134.932 16.4395 122.44 28.9317 122.439 44.3416L130.998 44.3418ZM150.342 24.998V33.5569H266.407V24.998V16.4392H150.342V24.998ZM134.442 190.77L141.473 185.888C141.404 185.789 141.383 185.758 141.369 185.738L134.257 190.499L127.145 195.261C127.252 195.421 127.356 195.57 127.412 195.651L134.442 190.77ZM134.257 190.499L127.14 195.253C127.251 195.42 127.366 195.585 127.407 195.644L134.442 190.77L141.478 185.895C141.469 185.882 141.46 185.87 141.452 185.859C141.445 185.847 141.438 185.837 141.431 185.828C141.417 185.808 141.407 185.793 141.398 185.78C141.38 185.754 141.374 185.744 141.374 185.745L134.257 190.499Z" fill="white" mask="url(#path-2-inside-1_516_5712)"/>
<path d="M232.555 112.047L232.804 112.053C235.359 112.183 237.392 114.296 237.392 116.883C237.392 119.471 235.359 121.584 232.804 121.713L232.555 121.72H174.523C171.852 121.72 169.687 119.554 169.687 116.883C169.687 114.213 171.852 112.047 174.523 112.047H232.555ZM213.211 83.0314L213.46 83.0377C216.015 83.1671 218.047 85.2803 218.047 87.8677C218.047 90.455 216.015 92.5673 213.46 92.6967L213.211 92.703H174.523C171.852 92.703 169.687 90.5384 169.687 87.8677C169.687 85.1969 171.852 83.0314 174.523 83.0314H213.211ZM230.44 54.0137L230.689 54.0199C233.244 54.1496 235.276 56.2627 235.276 58.85C235.276 61.4373 233.244 63.5503 230.689 63.68L230.44 63.6863L174.523 63.6873C171.852 63.6873 169.687 61.5218 169.687 58.851C169.687 56.1801 171.852 54.0147 174.523 54.0147L230.44 54.0137Z" fill="white"/>
<g style="mix-blend-mode:overlay">
<path d="M285.752 179.753C285.752 190.436 277.092 199.098 266.408 199.098H237.491C231.335 188.677 227.802 176.523 227.802 163.543C227.802 128.992 252.834 100.29 285.752 94.5781V179.753Z" fill="black" fill-opacity="0.3"/>
</g>
<rect x="242.169" y="107.908" width="111.265" height="111.265" rx="55.6326" fill="#808BF7"/>
<rect x="242.169" y="107.908" width="111.265" height="111.265" rx="55.6326" stroke="white" stroke-width="8.55887"/>
<path d="M308.072 155.838C309.739 158.06 310.64 160.763 310.64 163.541C310.64 166.318 309.739 169.021 308.072 171.243M316.71 179.881C318.856 177.735 320.558 175.188 321.719 172.384C322.881 169.58 323.478 166.575 323.478 163.541C323.478 160.506 322.881 157.501 321.719 154.697C320.558 151.893 318.856 149.346 316.71 147.2M295.234 144.802C295.233 144.444 295.127 144.095 294.928 143.797C294.729 143.5 294.447 143.269 294.116 143.132C293.786 142.995 293.422 142.959 293.071 143.029C292.721 143.098 292.398 143.27 292.145 143.523L283.456 152.209C283.121 152.547 282.722 152.814 282.282 152.996C281.843 153.178 281.372 153.271 280.896 153.27H274.693C274.012 153.27 273.359 153.54 272.877 154.022C272.396 154.503 272.125 155.157 272.125 155.838V171.243C272.125 171.924 272.396 172.578 272.877 173.059C273.359 173.541 274.012 173.811 274.693 173.811H280.896C281.372 173.81 281.843 173.903 282.282 174.085C282.722 174.267 283.121 174.534 283.456 174.872L292.142 183.561C292.396 183.814 292.718 183.987 293.07 184.057C293.421 184.127 293.786 184.091 294.117 183.954C294.448 183.817 294.731 183.584 294.93 183.286C295.129 182.988 295.234 182.638 295.234 182.279V144.802Z" stroke="#F6FDE6" stroke-width="7" stroke-linecap="round" stroke-linejoin="round"/>
</svg>
