<svg width="64" height="64" viewBox="0 0 64 64" fill="none" xmlns="http://www.w3.org/2000/svg">
<g clip-path="url(#clip0_578_7001)">
<path d="M29.996 -5.43359L29.9964 2.08595C29.9964 3.67522 29.3634 5.19942 28.2366 6.3232L10.3354 24.1764C8.77118 25.7364 8.77118 28.2656 10.3354 29.8256L28.2366 47.6788C29.3634 48.8026 29.9964 50.3268 29.9964 51.9161L29.996 59.4323" stroke="#CAD4E0" stroke-width="4" stroke-linejoin="round"/>
<path d="M29.996 -4.43359L29.9964 3.08595C29.9964 4.67522 29.3634 6.19942 28.2366 7.3232L10.3354 25.1764C8.77118 26.7364 8.77118 29.2656 10.3354 30.8256L28.2366 48.6788C29.3634 49.8026 29.9964 51.3268 29.9964 52.9161L29.996 60.4323" stroke="#CAD4E0" stroke-width="4" stroke-linejoin="round"/>
<path d="M29.996 -3.43359L29.9964 4.08595C29.9964 5.67522 29.3634 7.19942 28.2366 8.3232L10.3354 26.1764C8.77118 27.7364 8.77118 30.2656 10.3354 31.8256L28.2366 49.6788C29.3634 50.8026 29.9964 52.3268 29.9964 53.9161L29.996 61.4323" stroke="#CAD4E0" stroke-width="4" stroke-linejoin="round"/>
<path d="M29.996 -2.43359L29.9964 5.08595C29.9964 6.67522 29.3634 8.19942 28.2366 9.3232L10.3354 27.1764C8.77118 28.7364 8.77118 31.2656 10.3354 32.8256L28.2366 50.6788C29.3634 51.8026 29.9964 53.3268 29.9964 54.9161L29.996 62.4323" stroke="#CAD4E0" stroke-width="4" stroke-linejoin="round"/>
<path d="M29.996 -1.43359L29.9964 6.08595C29.9964 7.67522 29.3634 9.19942 28.2366 10.3232L10.3354 28.1764C8.77118 29.7364 8.77118 32.2656 10.3354 33.8256L28.2366 51.6788C29.3634 52.8026 29.9964 54.3268 29.9964 55.9161L29.996 63.4323" stroke="#CAD4E0" stroke-width="4" stroke-linejoin="round"/>
<path d="M29.996 -0.433594L29.9964 7.08595C29.9964 8.67522 29.3634 10.1994 28.2366 11.3232L10.3354 29.1764C8.77118 30.7364 8.77118 33.2656 10.3354 34.8256L28.2366 52.6788C29.3634 53.8026 29.9964 55.3268 29.9964 56.9161L29.996 64.4323" stroke="#CAD4E0" stroke-width="4" stroke-linejoin="round"/>
<path d="M29.996 0.566406L29.9964 8.08595C29.9964 9.67522 29.3634 11.1994 28.2366 12.3232L10.3354 30.1764C8.77118 31.7364 8.77118 34.2656 10.3354 35.8256L28.2366 53.6788C29.3634 54.8026 29.9964 56.3268 29.9964 57.9161L29.996 65.4323" stroke="#CAD4E0" stroke-width="4" stroke-linejoin="round"/>
<path d="M29.996 1.56641L29.9964 9.08595C29.9964 10.6752 29.3634 12.1994 28.2366 13.3232L10.3354 31.1764C8.77118 32.7364 8.77118 35.2656 10.3354 36.8256L28.2366 54.6788C29.3634 55.8026 29.9964 57.3268 29.9964 58.9161L29.996 66.4323" stroke="#CAD4E0" stroke-width="4" stroke-linejoin="round"/>
<path d="M29.996 2.56641L29.9964 10.086C29.9964 11.6752 29.3634 13.1994 28.2366 14.3232L10.3354 32.1764C8.77118 33.7364 8.77118 36.2656 10.3354 37.8256L28.2366 55.6788C29.3634 56.8026 29.9964 58.3268 29.9964 59.9161L29.996 67.4323" stroke="#CAD4E0" stroke-width="4" stroke-linejoin="round"/>
<path d="M29.996 3.56641L29.9964 11.086C29.9964 12.6752 29.3634 14.1994 28.2366 15.3232L10.3354 33.1764C8.77118 34.7364 8.77118 37.2656 10.3354 38.8256L28.2366 56.6788C29.3634 57.8026 29.9964 59.3268 29.9964 60.9161L29.996 68.4323" stroke="#CAD4E0" stroke-width="4" stroke-linejoin="round"/>
<path d="M29.996 4.56641L29.9964 12.086C29.9964 13.6752 29.3634 15.1994 28.2366 16.3232L10.3354 34.1764C8.77118 35.7364 8.77118 38.2656 10.3354 39.8256L28.2366 57.6788C29.3634 58.8026 29.9964 60.3268 29.9964 61.9161L29.996 69.4323" stroke="#CAD4E0" stroke-width="4" stroke-linejoin="round"/>
<path d="M32.7998 0.769531L32.7998 25.9998L32.7998 51.2301L7.50158 25.9998L32.7998 0.769531Z" fill="#F7F9FB"/>
<path d="M29.996 -6.43359L29.9964 1.08595C29.9964 2.67522 29.3634 4.19942 28.2366 5.3232L10.3354 23.1764C8.77118 24.7364 8.77118 27.2656 10.3354 28.8256L28.2366 46.6788C29.3634 47.8026 29.9964 49.3268 29.9964 50.9161L29.996 58.4323" stroke="#CAD4E0" stroke-width="4" stroke-linejoin="round"/>
</g>
<defs>
<clipPath id="clip0_578_7001">
<rect width="64" height="64" fill="white"/>
</clipPath>
</defs>
</svg>
