<svg width="80" height="81" viewBox="0 0 80 81" fill="none" xmlns="http://www.w3.org/2000/svg">
<g clip-path="url(#clip0_982_11222)">
<path d="M40.0003 6.66602C21.667 6.66602 6.66699 21.666 6.66699 39.9993C6.66699 58.3327 21.667 73.3327 40.0003 73.3327C58.3337 73.3327 73.3337 58.3327 73.3337 39.9993C73.3337 21.666 58.3337 6.66602 40.0003 6.66602ZM59.0003 32.3327L35.667 55.666C35.0003 56.3327 34.3337 56.666 33.3337 56.666C32.3337 56.666 31.667 56.3327 31.0003 55.666L21.0003 45.666C19.667 44.3327 19.667 42.3327 21.0003 40.9993C22.3337 39.666 24.3337 39.666 25.667 40.9993L33.3337 48.666L54.3337 27.666C55.667 26.3327 57.667 26.3327 59.0003 27.666C60.3337 28.9993 60.3337 30.9993 59.0003 32.3327Z" fill="#65A20D"/>
</g>
<defs>
<clipPath id="clip0_982_11222">
<rect width="80" height="80" fill="white" transform="translate(0 0.419922)"/>
</clipPath>
</defs>
</svg>
