<svg width="64" height="93" viewBox="0 0 64 93" fill="none" xmlns="http://www.w3.org/2000/svg">
<g clip-path="url(#clip0_970_9759)">
<g clip-path="url(#clip1_970_9759)">
<path d="M44.7796 41.3759V73.1663H14.3223V41.3759C14.3223 39.2111 15.1618 37.172 16.6862 35.6351L21.215 31.0696C22.0584 30.2199 22.5223 29.093 22.5223 27.8958V21.8613L22.5551 21.8691C27.1315 22.9148 31.9703 22.9148 36.5467 21.8691L36.5795 21.8613V27.8958C36.5795 29.093 37.0434 30.2199 37.8869 31.0696L42.4156 35.6351C43.9401 37.172 44.7796 39.2111 44.7796 41.3759Z" fill="#FCD997"/>
<path d="M29.5516 12.877H21.3516L22.4379 24.6054C22.5339 25.644 23.3157 26.4883 24.3434 26.6647H24.3458C27.7913 27.2567 31.3127 27.2567 34.7575 26.6647H34.7598C35.7876 26.4883 36.5685 25.6433 36.6654 24.6054L37.7517 12.877H29.5516Z" fill="#AB4F33"/>
<path d="M37.1244 19.6484L36.9323 21.718L36.6652 24.6052C36.5691 25.6438 35.7874 26.4881 34.7597 26.6646H34.7573C31.3117 27.2565 27.7912 27.2565 24.3456 26.6646H24.3433C23.3155 26.4881 22.5338 25.6438 22.4377 24.6052L22.1706 21.718L21.9785 19.6484C22.3627 19.8202 22.9235 20.0139 23.7193 20.1951C25.328 20.5622 27.3991 20.7644 29.5515 20.7644C31.7038 20.7644 33.7749 20.5622 35.3836 20.1951C36.1794 20.0139 36.7402 19.8202 37.1244 19.6484Z" fill="#EF9D78"/>
<path d="M29.5516 14.8286C34.0804 14.8286 37.7517 13.9545 37.7517 12.8762C37.7517 11.7979 34.0804 10.9238 29.5516 10.9238C25.0229 10.9238 21.3516 11.7979 21.3516 12.8762C21.3516 13.9545 25.0229 14.8286 29.5516 14.8286Z" fill="#DA7644"/>
<path d="M44.7796 41.7715H14.3223V73.166H44.7796V41.7715Z" fill="#F5B804"/>
<path d="M44.7796 73.1193C44.7796 73.1607 44.778 73.2013 44.7749 73.2427C44.696 73.9088 43.598 74.967 40.6999 75.8815C37.7354 76.8171 33.7759 77.3326 29.5509 77.3326C25.326 77.3326 21.3665 76.8171 18.402 75.8815C15.5039 74.967 14.4058 73.9088 14.327 73.2435C14.3238 73.2013 14.3223 73.1607 14.3223 73.1193C14.3223 70.4648 21.14 68.3125 29.5509 68.3125C37.9618 68.3125 44.7796 70.4648 44.7796 73.1193Z" fill="#EF9A00"/>
<path d="M29.5509 45.5987C37.9615 45.5987 44.7796 43.9029 44.7796 41.8111C44.7796 39.7192 37.9615 38.0234 29.5509 38.0234C21.1404 38.0234 14.3223 39.7192 14.3223 41.8111C14.3223 43.9029 21.1404 45.5987 29.5509 45.5987Z" fill="#FBC918"/>
<g opacity="0.7">
<path d="M46.6551 73.1654H44.7808V41.375C44.7808 39.2102 43.9413 37.1711 42.4169 35.6342L37.8881 31.0687C37.0455 30.219 36.5808 29.0913 36.5808 27.8949V21.8604L36.548 21.8675C31.9708 22.9132 27.1328 22.9132 22.5556 21.8675L22.5228 21.8604V27.8949C22.5228 29.0921 22.0589 30.219 21.2155 31.0687L16.6867 35.6342C15.1623 37.1711 14.3227 39.2102 14.3227 41.375V73.1654H12.4492V41.375C12.4492 38.7119 13.4816 36.2043 15.3575 34.3144L19.8863 29.7489C20.3783 29.2522 20.6501 28.5939 20.6501 27.8949V19.5098L22.9742 20.0408C27.278 21.024 31.8279 21.024 36.131 20.0408L38.4551 19.5098V27.8949C38.4551 28.5939 38.7261 29.2522 39.2189 29.7489L43.7476 34.3144C45.6227 36.2051 46.6559 38.7127 46.6559 41.375V73.1654H46.6551Z" fill="#E1E7EF"/>
<path d="M37.3718 16.9922L37.1914 18.9415C37.4788 19.075 37.6584 19.1929 37.7584 19.2796C37.6506 19.3725 37.4522 19.5022 37.1258 19.6474C36.7415 19.8193 36.1808 20.0129 35.385 20.1941C33.7762 20.5612 31.7052 20.7634 29.5528 20.7634C27.4005 20.7634 25.3294 20.5612 23.7206 20.1941C22.9249 20.0129 22.3641 19.8193 21.9799 19.6474C21.6535 19.5022 21.4551 19.3725 21.3473 19.2796C21.4473 19.1929 21.6269 19.075 21.9143 18.9415L21.7339 16.9922C20.1845 17.5646 19.4004 18.3315 19.4004 19.2796C19.4004 20.3128 20.3321 21.1313 22.172 21.717C22.3704 21.7802 22.5789 21.8404 22.7983 21.8982C24.6148 22.3753 27.0132 22.6377 29.5528 22.6377C32.0925 22.6377 34.4908 22.3753 36.3073 21.8982C36.5268 21.8404 36.7353 21.7802 36.9337 21.717C38.7736 21.1313 39.7053 20.3128 39.7053 19.2796C39.7053 18.3315 38.9212 17.5646 37.3718 16.9922Z" fill="#E1E7EF"/>
<path d="M45.7185 59.4212V57.5469C48.2723 57.5469 48.8439 57.1353 49.2242 56.1497C49.7928 54.6792 49.7928 51.7756 49.7928 46.9649C49.7928 39.413 49.7928 34.8546 48.3308 32.6687C47.0891 30.8116 44.6314 30.2454 37.8105 30.2454V28.3711C41.5615 28.3711 43.7833 28.5265 45.4788 28.9068C47.5585 29.3738 48.9603 30.2376 49.8888 31.6269C51.6663 34.2861 51.6663 38.7898 51.6663 46.9649C51.6663 52.1645 51.6663 55.0283 50.972 56.8253C50.0466 59.2205 47.8693 59.4212 45.7177 59.4212H45.7185Z" fill="#E1E7EF"/>
<path d="M29.5522 79.2059C25.1413 79.2059 20.9812 78.6601 17.8394 77.6682C14.3134 76.5546 12.4492 74.9981 12.4492 73.166H14.3235C14.3235 73.8244 15.3919 74.9302 18.4032 75.8806C21.3677 76.8162 25.3272 77.3316 29.5522 77.3316C33.7772 77.3316 37.7366 76.8162 40.7011 75.8806C43.7125 74.9302 44.7808 73.8244 44.7808 73.166H46.6551C46.6551 74.9981 44.791 76.5546 41.265 77.6682C38.1232 78.6601 33.963 79.2059 29.5522 79.2059Z" fill="#E1E7EF"/>
</g>
<path opacity="0.4" d="M21.0385 73.0091C20.1755 73.0091 19.4766 72.3101 19.4766 71.4472V42.7455C19.4766 41.0617 19.892 39.3842 20.6777 37.8957L23.796 31.9839C24.1982 31.2209 25.1432 30.9288 25.9062 31.331C26.6692 31.7332 26.9613 32.6781 26.5591 33.4411L23.4407 39.353C22.8909 40.3948 22.6012 41.5678 22.6012 42.7455V71.4472C22.6012 72.3101 21.9022 73.0091 21.0393 73.0091H21.0385Z" fill="white"/>
</g>
</g>
<path d="M58.6739 18.7368C58.9154 18.7855 58.9206 19.1048 58.6739 19.1536L52.1967 20.4906C49.8662 20.9723 48.0553 23.4731 47.7509 26.6289L47.0843 33.6008C47.058 33.8606 46.6486 33.8606 46.6223 33.6008L45.9557 26.6289C45.6565 23.4731 43.8404 20.9723 41.5099 20.4906L35.0327 19.1536C34.7912 19.1048 34.7912 18.7801 35.0327 18.7368L41.4364 17.5297C43.7984 17.0858 45.646 14.5579 45.9505 11.3643L46.6118 4.30034C46.6381 4.04051 47.0475 4.04051 47.0738 4.30034L47.7351 11.3643C48.0343 14.5579 49.8819 17.0804 52.2492 17.5297L58.6529 18.7368H58.6739Z" fill="#FFCF33"/>
<path d="M61.6131 29.9331C61.7066 29.9524 61.7087 30.0793 61.6131 30.0986L59.1034 30.6297C58.2004 30.8211 57.4988 31.8145 57.3808 33.0681L57.1225 35.8375C57.1123 35.9407 56.9537 35.9407 56.9435 35.8375L56.6853 33.0681C56.5693 31.8145 55.8656 30.8211 54.9627 30.6297L52.453 30.0986C52.3594 30.0793 52.3594 29.9503 52.453 29.9331L54.9342 29.4536C55.8494 29.2773 56.5653 28.2731 56.6832 27.0045L56.9395 24.1985C56.9496 24.0953 57.1083 24.0953 57.1184 24.1985L57.3747 27.0045C57.4906 28.2731 58.2065 29.2751 59.1237 29.4536L61.6049 29.9331H61.6131Z" fill="#FFCF33"/>
<path d="M17.4568 67.0132C17.5504 67.0325 17.5524 67.1594 17.4568 67.1787L14.9472 67.7098C14.0442 67.9012 13.3425 68.8946 13.2246 70.1482L12.9663 72.9176C12.9561 73.0208 12.7975 73.0208 12.7873 72.9176L12.529 70.1482C12.4131 68.8946 11.7094 67.9012 10.8064 67.7098L8.29673 67.1787C8.20317 67.1594 8.20317 67.0304 8.29673 67.0132L10.7779 66.5337C11.6931 66.3574 12.409 65.3532 12.527 64.0846L12.7832 61.2786C12.7934 61.1754 12.952 61.1754 12.9622 61.2786L13.2185 64.0846C13.3344 65.3532 14.0503 66.3552 14.9675 66.5337L17.4487 67.0132H17.4568Z" fill="#FFCF33"/>
<path d="M16.3297 54.6206C16.4981 54.6543 16.4981 54.8761 16.3297 54.9099L11.8867 55.8261C10.2873 56.154 9.04322 57.8755 8.83744 60.0358L8.38379 64.8194C8.36508 64.9978 8.08447 64.9978 8.07044 64.8194L7.61679 60.0358C7.41101 57.8707 6.16697 56.154 4.5675 55.8261L0.124526 54.9099C-0.043839 54.8761 -0.0391622 54.6543 0.124526 54.6206L4.52074 53.7911C6.14359 53.4825 7.41101 51.7514 7.61679 49.5621L8.07044 44.7158C8.08915 44.5374 8.36976 44.5374 8.38379 44.7158L8.83744 49.5621C9.04322 51.7514 10.3106 53.4825 11.9335 53.7911L16.3297 54.6206Z" fill="#FFCF33"/>
<defs>
<clipPath id="clip0_970_9759">
<rect width="51.9457" height="70" fill="white" transform="translate(5.52734 12)"/>
</clipPath>
<clipPath id="clip1_970_9759">
<rect width="39.2173" height="68.2822" fill="white" transform="translate(12.4492 10.9238)"/>
</clipPath>
</defs>
</svg>
