<svg width="300" height="300" viewBox="0 0 300 300" fill="none" xmlns="http://www.w3.org/2000/svg">
<ellipse opacity="0.1" cx="150" cy="254.861" rx="107.962" ry="23.5018" fill="black"/>
<path d="M58.2139 97.3631C57.1127 105.718 61.5819 108.868 64.2897 109.662C61.7904 121.008 60.3643 136.304 58.2139 153.396C55.7424 173.041 55.1321 210.864 59.4282 225.882C54.3849 230.196 47.3303 246.541 49.1531 249.882C50.9759 253.224 59.2392 254.72 63.6747 255.047C67.2231 255.309 77.7454 254.938 82.563 254.72C95.707 257.989 127.645 264.646 150.245 265.117C172.844 265.588 204.39 258.382 217.338 254.72C221.065 255.243 230.107 255.975 236.455 254.72C244.391 253.15 249.511 253.739 247.941 245.499C246.686 238.908 240.4 229.674 237.413 225.882C238.569 223.331 240.761 211.6 240.29 185.076C239.82 158.553 234.93 124.351 232.544 110.565C233.395 110.033 235.37 108.617 236.455 107.212C237.813 105.456 238.691 101.145 237.413 93.8801C236.136 86.6154 237.972 77.9136 237.413 70.4094C236.966 64.406 229.11 59.3755 225.237 57.6106C165.002 32.8365 102.743 46.1955 82.5834 52.7534C62.424 59.3112 58.2139 65.3023 59.4284 77.1227C60.6429 88.9431 59.5905 86.919 58.2139 97.3631Z" fill="#E9A123"/>
<path d="M214.337 247.755C219.287 247.627 235.642 256.161 247.393 251.246C245.734 253.586 241.713 253.679 236.455 254.719C230.107 255.975 221.066 255.242 217.338 254.719C204.39 258.381 172.844 265.588 150.244 265.117C127.644 264.646 95.7064 257.989 82.5625 254.719C77.7448 254.937 67.2233 255.308 63.6748 255.046C61.0685 254.854 57.1409 254.257 53.9746 253.121C56.9126 253.127 60.0079 252.995 62.7314 252.596C70.8887 251.403 75.7301 250.408 78.4492 250.143C81.1683 249.878 92.774 251.668 97.748 252.132C102.722 252.596 125.801 256.973 160.088 254.984C194.375 252.994 209.23 247.888 214.337 247.755Z" fill="#E48C17"/>
<path d="M93.3089 235.685C92.19 234.286 88.4835 234.776 84.2175 233.657C81.1271 232.846 77.9184 231.21 76.3359 230.285C68.4542 224.535 65.8705 223.64 65.3356 224.706C65.1735 225.029 65.1959 226.104 67.2939 228.482C69.3919 230.86 78.2034 236.664 84.7072 237.783C91.2109 238.902 94.4278 237.084 93.3089 235.685Z" fill="#E48C17"/>
<ellipse cx="148.123" cy="71.9207" rx="77.8526" ry="19.6414" fill="#DB8113"/>
<path d="M148.807 22.3674C161.919 22.1268 174.551 32.4725 182.13 39.2092C189.709 45.9459 208.115 63.7508 216.295 73.7356C218.021 75.8421 219.455 77.6105 220.639 79.0822C209.291 86.3869 181.104 91.5608 148.128 91.5608C116.307 91.5608 88.9454 86.7438 76.8711 79.843C76.8641 79.839 76.8566 79.8359 76.8496 79.8322C83.4772 71.5094 99.0328 52.9555 110.071 43.0588C124.025 30.548 135.694 22.6082 148.807 22.3674Z" fill="white"/>
<path d="M110.167 67.9976C108.755 66.3503 107.421 66.7233 106.931 67.1156C105.578 68.7039 109.578 74.4687 116.637 78.7629C123.696 83.0571 137.285 83.4101 137.52 80.5277C137.756 77.6453 132.403 78.9394 124.167 76.8805C115.552 74.7268 111.931 70.0567 110.167 67.9976Z" fill="#F0F4F8"/>
<path d="M141.05 52.5286C139.378 51.1463 138.305 51.2542 137.815 51.6466C136.462 53.2349 140.333 57.3807 147.579 61.3509C156.168 66.0569 169.874 65.2967 170.109 62.4142C170.344 59.5318 164.403 61.4686 156.168 59.4097C147.553 57.2559 144.109 55.0567 141.05 52.5286Z" fill="#F0F4F8"/>
<path d="M187.169 75.0055C192.063 72.7464 192.934 69.7503 192.757 68.5347C192.456 67.9569 192.189 67.7085 191.346 67.9207C190.861 68.0428 188.475 69.4286 185.235 71.4831C181.996 73.5377 177.702 74.7229 172.963 74.7229C170.099 74.7229 170.175 77.2234 172.345 77.7116C174.515 78.1998 181.051 77.8292 187.169 75.0055Z" fill="#F0F4F8"/>
<path d="M234.148 109.42C233.51 109.921 232.919 110.33 232.544 110.564C232.994 113.166 233.533 116.494 234.115 120.36C218.444 128.249 186.102 133.667 148.745 133.667C110.627 133.667 77.7305 128.026 62.4375 119.875C62.9876 116.282 63.5762 112.931 64.2451 109.866C80.2234 117.522 112.068 122.743 148.745 122.743C186.128 122.743 218.489 117.318 234.148 109.42Z" fill="#DB8113"/>
<path d="M260.592 62.8339C261.267 62.9703 261.281 63.8638 260.592 64.0002L242.486 67.7412C235.971 69.0892 230.909 76.0866 230.058 84.9166L228.194 104.425C228.121 105.152 226.977 105.152 226.903 104.425L225.04 84.9166C224.204 76.0866 219.127 69.0892 212.612 67.7412L194.506 64.0002C193.831 63.8638 193.831 62.9551 194.506 62.8339L212.407 59.4564C219.009 58.2144 224.174 51.1413 225.025 42.2052L226.874 22.4398C226.947 21.7128 228.092 21.7128 228.165 22.4398L230.014 42.2052C230.85 51.1413 236.015 58.1993 242.632 59.4564L260.533 62.8339H260.592Z" fill="#FFCF33"/>
<path d="M268.802 94.1569C269.063 94.211 269.069 94.566 268.802 94.6201L261.786 96.1062C259.262 96.6417 257.301 99.4212 256.971 102.929L256.249 110.678C256.221 110.967 255.777 110.967 255.749 110.678L255.027 102.929C254.703 99.4212 252.736 96.6417 250.212 96.1062L243.196 94.6201C242.935 94.566 242.935 94.205 243.196 94.1569L250.132 92.8152C252.69 92.3219 254.691 89.5122 255.021 85.9625L255.737 78.1111C255.766 77.8223 256.209 77.8223 256.238 78.1111L256.954 85.9625C257.278 89.5122 259.279 92.3159 261.843 92.8152L268.779 94.1569H268.802Z" fill="#FFCF33"/>
<path d="M54.2312 227.425C54.7594 227.531 54.7594 228.227 54.2312 228.333L40.2923 231.211C35.2742 232.241 31.3713 237.648 30.7257 244.433L29.3025 259.458C29.2438 260.019 28.3634 260.019 28.3194 259.458L26.8962 244.433C26.2506 237.633 22.3477 232.241 17.3296 231.211L3.39068 228.333C2.86246 228.227 2.87714 227.531 3.39068 227.425L17.1829 224.819C22.2743 223.85 26.2506 218.413 26.8962 211.536L28.3194 196.315C28.3781 195.754 29.2585 195.754 29.3025 196.315L30.7257 211.536C31.3713 218.413 35.3476 223.85 40.439 224.819L54.2312 227.425Z" fill="#FFCF33"/>
<path d="M198.647 106.983C199.118 107.077 199.118 107.698 198.647 107.793L186.227 110.356C181.756 111.274 178.279 116.091 177.704 122.135L176.436 135.52C176.383 136.019 175.599 136.019 175.56 135.52L174.291 122.135C173.716 116.077 170.239 111.274 165.768 110.356L153.348 107.793C152.877 107.698 152.891 107.077 153.348 106.983L165.637 104.662C170.173 103.799 173.716 98.9549 174.291 92.8292L175.56 79.269C175.612 78.7697 176.396 78.7697 176.436 79.269L177.704 92.8292C178.279 98.9549 181.822 103.799 186.358 104.662L198.647 106.983Z" fill="#FFCF33"/>
<path d="M273.402 236.982C275.833 236.982 277.804 234.948 277.804 232.438C277.804 229.929 275.833 227.895 273.402 227.895C270.971 227.895 269 229.929 269 232.438C269 234.948 270.971 236.982 273.402 236.982Z" fill="#FFCF33"/>
<path d="M63.728 43.8747C66.159 43.8747 68.1297 41.8403 68.1297 39.3309C68.1297 36.8214 66.159 34.7871 63.728 34.7871C61.2969 34.7871 59.3262 36.8214 59.3262 39.3309C59.3262 41.8403 61.2969 43.8747 63.728 43.8747Z" fill="#FFCF33"/>
<path d="M285.9 241.948C287.229 241.948 288.307 240.836 288.307 239.464C288.307 238.093 287.229 236.98 285.9 236.98C284.571 236.98 283.494 238.093 283.494 239.464C283.494 240.836 284.571 241.948 285.9 241.948Z" fill="#FFCF33"/>
<path d="M56.7481 32.8624C58.0771 32.8624 59.1544 31.7503 59.1544 30.3784C59.1544 29.0066 58.0771 27.8945 56.7481 27.8945C55.4191 27.8945 54.3418 29.0066 54.3418 30.3784C54.3418 31.7503 55.4191 32.8624 56.7481 32.8624Z" fill="#FFCF33"/>
<path d="M277.805 248.173C277.805 247.143 278.626 246.295 279.624 246.295C280.622 246.295 281.443 247.143 281.443 248.173C281.443 249.203 280.622 250.051 279.624 250.051C278.626 250.051 277.805 249.203 277.805 248.173Z" fill="#FFCF33"/>
<path d="M46.6221 44.9495C47.627 44.9495 48.4415 44.1087 48.4415 43.0714C48.4415 42.0342 47.627 41.1934 46.6221 41.1934C45.6173 41.1934 44.8027 42.0342 44.8027 43.0714C44.8027 44.1087 45.6173 44.9495 46.6221 44.9495Z" fill="#FFCF33"/>
</svg>
