<svg width="300" height="300" viewBox="0 0 300 300" fill="none" xmlns="http://www.w3.org/2000/svg">
<ellipse opacity="0.1" cx="150.009" cy="251.346" rx="89.0467" ry="26.4889" fill="black"/>
<path d="M239.055 154.263C239.055 218.105 198.66 257.858 149.915 257.858C101.17 257.858 60.8818 218.105 60.8818 154.263C60.8818 90.4203 105.319 22.3633 149.915 22.3633C194.511 22.3633 239.055 90.4203 239.055 154.263Z" fill="#F19435"/>
<path d="M128.852 46.6361L128.862 46.6434C130.838 48.0417 133.505 54.836 127.497 61.5268C121.489 68.2176 113.159 81.5992 106.741 91.4306C100.323 101.262 85.3034 95.1174 91.7212 80.0972C98.1389 65.077 112.203 50.74 118.894 46.6434C124.238 43.3718 126.876 45.2387 128.852 46.6361Z" fill="#F4A958"/>
<path d="M227.681 96.1953C234.829 114.544 239.056 134.602 239.056 154.262C239.056 218.104 198.66 257.857 149.915 257.857C117.523 257.857 88.8655 240.302 73.2832 209.788C90.2045 226.758 115.302 233.479 142.437 233.479C191.181 233.478 231.575 193.725 231.575 129.883C231.575 118.653 230.195 107.293 227.681 96.1953Z" fill="#E9802A"/>
<path d="M260.592 62.8339C261.267 62.9703 261.281 63.8638 260.592 64.0002L242.486 67.7412C235.971 69.0892 230.909 76.0866 230.058 84.9166L228.194 104.425C228.121 105.152 226.977 105.152 226.903 104.425L225.04 84.9166C224.204 76.0866 219.127 69.0892 212.612 67.7412L194.506 64.0002C193.831 63.8638 193.831 62.9551 194.506 62.8339L212.407 59.4564C219.009 58.2144 224.174 51.1413 225.025 42.2052L226.874 22.4398C226.947 21.7128 228.092 21.7128 228.165 22.4398L230.014 42.2052C230.85 51.1413 236.015 58.1993 242.632 59.4564L260.533 62.8339H260.592Z" fill="#FFCF33"/>
<path d="M268.802 94.1569C269.063 94.211 269.069 94.566 268.802 94.6201L261.786 96.1062C259.262 96.6417 257.301 99.4212 256.971 102.929L256.249 110.678C256.221 110.967 255.777 110.967 255.749 110.678L255.027 102.929C254.703 99.4212 252.736 96.6417 250.212 96.1062L243.196 94.6201C242.935 94.566 242.935 94.205 243.196 94.1569L250.132 92.8152C252.69 92.3219 254.691 89.5122 255.021 85.9625L255.737 78.1111C255.766 77.8223 256.209 77.8223 256.238 78.1111L256.954 85.9625C257.278 89.5122 259.279 92.3159 261.843 92.8152L268.779 94.1569H268.802Z" fill="#FFCF33"/>
<path d="M54.2312 227.425C54.7594 227.531 54.7594 228.227 54.2312 228.333L40.2923 231.211C35.2742 232.241 31.3713 237.648 30.7257 244.433L29.3025 259.458C29.2438 260.019 28.3634 260.019 28.3194 259.458L26.8962 244.433C26.2506 237.633 22.3477 232.241 17.3296 231.211L3.39068 228.333C2.86246 228.227 2.87714 227.531 3.39068 227.425L17.1829 224.819C22.2743 223.85 26.2506 218.413 26.8962 211.536L28.3194 196.315C28.3781 195.754 29.2585 195.754 29.3025 196.315L30.7257 211.536C31.3713 218.413 35.3476 223.85 40.439 224.819L54.2312 227.425Z" fill="#FFCF33"/>
<path d="M198.647 106.983C199.118 107.077 199.118 107.698 198.647 107.793L186.227 110.356C181.756 111.274 178.279 116.091 177.704 122.135L176.436 135.52C176.383 136.019 175.599 136.019 175.56 135.52L174.291 122.135C173.716 116.077 170.239 111.274 165.768 110.356L153.348 107.793C152.877 107.698 152.891 107.077 153.348 106.983L165.637 104.662C170.173 103.799 173.716 98.9549 174.291 92.8292L175.56 79.269C175.612 78.7697 176.396 78.7697 176.436 79.269L177.704 92.8292C178.279 98.9549 181.822 103.799 186.358 104.662L198.647 106.983Z" fill="#FFCF33"/>
<path d="M273.402 236.982C275.833 236.982 277.804 234.948 277.804 232.438C277.804 229.929 275.833 227.895 273.402 227.895C270.971 227.895 269 229.929 269 232.438C269 234.948 270.971 236.982 273.402 236.982Z" fill="#FFCF33"/>
<path d="M63.728 43.8747C66.159 43.8747 68.1297 41.8403 68.1297 39.3309C68.1297 36.8214 66.159 34.7871 63.728 34.7871C61.2969 34.7871 59.3262 36.8214 59.3262 39.3309C59.3262 41.8403 61.2969 43.8747 63.728 43.8747Z" fill="#FFCF33"/>
<path d="M285.9 241.948C287.229 241.948 288.307 240.836 288.307 239.464C288.307 238.093 287.229 236.98 285.9 236.98C284.571 236.98 283.494 238.093 283.494 239.464C283.494 240.836 284.571 241.948 285.9 241.948Z" fill="#FFCF33"/>
<path d="M56.7481 32.8624C58.0771 32.8624 59.1544 31.7503 59.1544 30.3784C59.1544 29.0066 58.0771 27.8945 56.7481 27.8945C55.4191 27.8945 54.3418 29.0066 54.3418 30.3784C54.3418 31.7503 55.4191 32.8624 56.7481 32.8624Z" fill="#FFCF33"/>
<path d="M277.805 248.173C277.805 247.143 278.626 246.295 279.624 246.295C280.622 246.295 281.443 247.143 281.443 248.173C281.443 249.203 280.622 250.051 279.624 250.051C278.626 250.051 277.805 249.203 277.805 248.173Z" fill="#FFCF33"/>
<path d="M46.6221 44.9495C47.627 44.9495 48.4415 44.1087 48.4415 43.0714C48.4415 42.0342 47.627 41.1934 46.6221 41.1934C45.6173 41.1934 44.8027 42.0342 44.8027 43.0714C44.8027 44.1087 45.6173 44.9495 46.6221 44.9495Z" fill="#FFCF33"/>
</svg>
