<svg width="64" height="93" viewBox="0 0 64 93" fill="none" xmlns="http://www.w3.org/2000/svg">
<path d="M8.81419 29.8946C8.53529 32.4198 8.53377 34.9623 9.07941 37.4507C11.0492 46.4323 18.3142 53.5819 26.536 57.2956C36.7124 61.8929 48.835 62.6132 59.3397 58.6308C59.3527 59.3835 59.5449 60.1444 59.9804 60.7744C57.275 63.4953 54.0414 65.7977 50.3914 67.1051C33.4242 73.1837 9.4495 62.4311 3.44595 45.4169C2.28932 42.1398 1.82044 37.6893 2.40787 34.2608C2.64649 32.8669 4.15802 30.5404 4.9704 29.3391C5.9948 29.2736 7.05264 29.1299 8.03677 29.5145C8.30655 29.6199 8.50641 29.8562 8.81419 29.8946Z" fill="#FAAE0E"/>
<path d="M60.1401 56.3297C59.9888 56.776 59.615 57.0507 59.4614 57.5227C59.3307 57.9238 59.3315 58.2166 59.3391 58.6321C48.8344 62.6145 36.7118 61.8934 26.5354 57.2969C18.3144 53.5832 11.0493 46.4328 9.07877 37.4519C8.53313 34.9636 8.53465 32.4211 8.81355 29.8959C8.83863 29.8989 8.86826 29.8974 8.89334 29.8959C9.22924 29.8748 10.126 29.2185 10.5751 29.0627C11.2803 28.8173 11.8913 28.9588 12.5221 28.7661C12.6072 28.7398 12.6482 28.6291 12.6573 28.6261C12.8017 28.5787 13.2554 29.0928 13.3762 29.2237C15.0132 31 15.6698 33.8075 16.647 35.9835C20.9635 45.5913 29.3198 51.1347 39.4803 53.4349C43.6691 54.3833 47.8427 54.6226 52.0824 55.1502C54.7749 55.4852 57.4522 55.9774 60.1393 56.3312L60.1401 56.3297Z" fill="#FDC827"/>
<path d="M59.98 60.7761C60.4519 61.458 61.3928 62.0488 62.2219 61.6491C61.1975 63.2237 59.7384 64.4634 58.3363 65.6955L55.7357 67.6818C55.6423 67.6788 55.5883 67.6833 55.5017 67.724C54.8876 68.0122 54.1193 68.6166 53.4673 68.9659C49.8173 70.9213 45.9272 71.8892 41.7665 72.0511C29.0078 72.5493 15.4778 67.6698 7.40719 57.6803C7.35856 57.605 7.28788 57.6118 7.21189 57.5998C7.0637 57.1489 6.66853 56.7771 6.39343 56.3872C2.0116 50.1717 -0.303186 42.8813 1.96904 35.3742C2.07543 35.0227 2.21374 34.5703 2.40829 34.2617C1.82009 37.6909 2.28974 42.1407 3.44637 45.4178C9.44916 62.4319 33.4246 73.1853 50.3918 67.106C54.0418 65.7986 57.2746 63.4954 59.9808 60.7753L59.98 60.7761Z" fill="#F3930A"/>
<path d="M14.0995 21.481C13.1891 22.2675 11.7688 22.2208 10.6562 21.9574C9.68501 21.7278 9.10289 21.195 8.41438 20.5288C8.34523 19.6919 8.12029 19.4179 8.47974 18.4899C9.38559 16.1506 14.535 17.0771 15.0776 18.8835C15.2987 19.6189 14.6657 20.9917 14.0995 21.481Z" fill="#54290D"/>
<path d="M12.6566 28.6256C12.6475 28.6286 12.6072 28.74 12.5213 28.7656C11.8913 28.9583 11.2796 28.8168 10.5743 29.0621C10.1252 29.2179 9.22923 29.875 8.89258 29.8953C9.20035 27.1978 9.99601 24.583 10.6541 21.9569C11.7667 22.2203 13.187 22.267 14.0974 21.4805C12.8291 23.6662 12.1064 26.0958 12.6558 28.6248L12.6566 28.6256Z" fill="#FAAE0E"/>
<path d="M10.6558 21.9579C9.99772 24.5839 9.20206 27.198 8.89429 29.8963C8.86921 29.8978 8.83881 29.8993 8.81449 29.8963C8.50672 29.8579 8.30685 29.6216 8.03707 29.5162C7.05371 29.1316 5.99511 29.2753 4.9707 29.3408C5.59158 28.4226 6.22309 27.5766 6.93136 26.72C7.23229 26.3557 7.50815 26.2451 7.73157 25.7671C8.46188 24.2046 8.55231 22.2168 8.41324 20.5293C9.10175 21.1962 9.68387 21.7283 10.6551 21.9579H10.6558Z" fill="#F3930A"/>
<path d="M62.2231 61.6492C61.394 62.0489 60.4532 61.458 59.9813 60.7761C59.5458 60.1461 59.3543 59.3859 59.3406 58.6325C59.333 58.2178 59.3323 57.9242 59.463 57.5231C59.6165 57.0511 59.9896 56.7764 60.1416 56.3301C60.5132 56.379 60.8012 56.2985 61.2177 56.4144C62.7672 56.8457 63.3265 58.9975 62.9868 60.381C62.8903 60.7754 62.6061 61.464 62.2239 61.6485L62.2231 61.6492Z" fill="#54290D"/>
<path d="M58.6739 18.7368C58.9154 18.7855 58.9206 19.1048 58.6739 19.1536L52.1967 20.4906C49.8662 20.9723 48.0553 23.4731 47.7509 26.6289L47.0843 33.6008C47.058 33.8606 46.6486 33.8606 46.6223 33.6008L45.9557 26.6289C45.6565 23.4731 43.8404 20.9723 41.5099 20.4906L35.0327 19.1536C34.7912 19.1048 34.7912 18.7801 35.0327 18.7368L41.4364 17.5297C43.7984 17.0858 45.646 14.5579 45.9505 11.3643L46.6118 4.30034C46.6381 4.04051 47.0475 4.04051 47.0738 4.30034L47.7351 11.3643C48.0343 14.5579 49.8819 17.0804 52.2492 17.5297L58.6529 18.7368H58.6739Z" fill="#FFCF33"/>
<path d="M61.6131 29.9331C61.7066 29.9524 61.7087 30.0793 61.6131 30.0986L59.1034 30.6297C58.2004 30.8211 57.4988 31.8145 57.3808 33.0681L57.1225 35.8375C57.1123 35.9407 56.9537 35.9407 56.9435 35.8375L56.6853 33.0681C56.5693 31.8145 55.8656 30.8211 54.9627 30.6297L52.453 30.0986C52.3594 30.0793 52.3594 29.9503 52.453 29.9331L54.9342 29.4536C55.8494 29.2773 56.5653 28.2731 56.6832 27.0045L56.9395 24.1985C56.9496 24.0953 57.1083 24.0953 57.1184 24.1985L57.3747 27.0045C57.4906 28.2731 58.2065 29.2751 59.1237 29.4536L61.6049 29.9331H61.6131Z" fill="#FFCF33"/>
<path d="M10.8924 67.0132C10.9859 67.0325 10.988 67.1594 10.8924 67.1787L8.38271 67.7098C7.47971 67.9012 6.77806 68.8946 6.6601 70.1482L6.40181 72.9176C6.39165 73.0208 6.23301 73.0208 6.22284 72.9176L5.96455 70.1482C5.84863 68.8946 5.14495 67.9012 4.24195 67.7098L1.73227 67.1787C1.63872 67.1594 1.63872 67.0304 1.73227 67.0132L4.21347 66.5337C5.12867 66.3574 5.84456 65.3532 5.96252 64.0846L6.21877 61.2786C6.22894 61.1754 6.38758 61.1754 6.39775 61.2786L6.654 64.0846C6.76993 65.3532 7.48581 66.3552 8.40305 66.5337L10.8842 67.0132H10.8924Z" fill="#FFCF33"/>
<path d="M36.5152 34.5151C36.6836 34.5488 36.6836 34.7707 36.5152 34.8044L32.0723 35.7206C30.4728 36.0485 29.2288 37.77 29.023 39.9304L28.5693 44.7139C28.5506 44.8924 28.27 44.8924 28.256 44.7139L27.8023 39.9304C27.5966 37.7652 26.3525 36.0485 24.753 35.7206L20.3101 34.8044C20.1417 34.7707 20.1464 34.5488 20.3101 34.5151L24.7063 33.6857C26.3291 33.3771 27.5966 31.6459 27.8023 29.4566L28.256 24.6104C28.2747 24.432 28.5553 24.432 28.5693 24.6104L29.023 29.4566C29.2288 31.6459 30.4962 33.3771 32.119 33.6857L36.5152 34.5151Z" fill="#FFCF33"/>
</svg>
