<svg width="300" height="300" viewBox="0 0 300 300" fill="none" xmlns="http://www.w3.org/2000/svg">
<path d="M52.0245 77.0177C50.8459 87.792 50.8395 98.64 53.1453 109.257C61.4692 147.579 92.1701 178.084 126.914 193.929C169.918 213.544 221.146 216.617 265.537 199.626C265.592 202.837 266.404 206.084 268.245 208.772C256.812 220.381 243.147 230.204 227.723 235.783C156.022 261.718 54.7092 215.84 29.3392 143.246C24.4514 129.264 22.47 110.275 24.9524 95.647C25.9608 89.6995 32.3483 79.7731 35.7813 74.6477C40.1102 74.3683 44.5805 73.7549 48.7392 75.396C49.8793 75.8456 50.7239 76.8539 52.0245 77.0177Z" fill="#FAAE0E"/>
<path d="M268.918 189.809C268.279 191.713 266.699 192.885 266.05 194.899C265.498 196.61 265.501 197.86 265.533 199.632C221.142 216.624 169.914 213.547 126.91 193.935C92.1694 178.09 61.4684 147.582 53.1413 109.264C50.8355 98.6468 50.8419 87.7987 52.0205 77.0245C52.1265 77.0374 52.2517 77.0309 52.3577 77.0245C53.7771 76.9346 57.5666 74.1342 59.4645 73.4695C62.4447 72.4226 65.0266 73.0263 67.6921 72.2042C68.0518 72.0918 68.2252 71.6197 68.2637 71.6069C68.8739 71.4046 70.7911 73.5979 71.3017 74.1567C78.2191 81.7356 80.9937 93.7141 85.1236 102.998C103.364 143.992 138.677 167.644 181.613 177.458C199.314 181.504 216.951 182.525 234.868 184.776C246.246 186.206 257.559 188.306 268.915 189.815L268.918 189.809Z" fill="#FDC827"/>
<path opacity="0.1" d="M45.2557 195.223C45.5768 195.275 45.8755 195.246 46.081 195.567C80.1828 238.189 137.358 259.008 191.278 256.882C208.86 256.188 225.299 252.059 240.724 243.719C243.479 242.228 246.726 239.65 249.321 238.42C249.687 238.246 249.911 238.227 250.31 238.24C251.739 238.288 256.601 240.629 258.165 241.384C265.593 244.968 276.255 251.249 274.257 261.025C272.497 269.631 254.661 274.05 247.39 275.454C215.402 281.619 172.366 277.104 140.258 271.006C106.654 264.621 59.4404 251.818 32.2431 230.773C16.2953 218.432 13.8707 204.446 35.5155 197.16C37.4616 196.505 43.4669 194.941 45.2557 195.223Z" fill="black"/>
<path d="M268.241 208.774C270.235 211.684 274.211 214.205 277.715 212.5C273.386 219.218 267.22 224.507 261.295 229.764L250.305 238.239C249.91 238.226 249.682 238.245 249.316 238.419C246.722 239.649 243.475 242.227 240.719 243.718C225.295 252.061 208.856 256.191 191.274 256.881C137.357 259.007 80.1818 238.187 46.0768 195.566C45.8712 195.245 45.5726 195.274 45.2514 195.222C44.6252 193.299 42.9553 191.712 41.7928 190.049C23.2759 163.529 13.4939 132.423 23.096 100.393C23.5456 98.8932 24.1301 96.9632 24.9522 95.6465C22.4666 110.278 24.4512 129.263 29.339 143.246C54.7058 215.839 156.022 261.721 227.723 235.782C243.147 230.204 256.809 220.377 268.244 208.771L268.241 208.774Z" fill="#F3930A"/>
<path d="M74.3576 41.1172C70.5103 44.4731 64.5082 44.274 59.8067 43.15C55.7026 42.1706 53.2426 39.8969 50.3331 37.0548C50.0409 33.4837 49.0903 32.3148 50.6093 28.3551C54.4373 18.3741 76.1977 22.3274 78.4906 30.0347C79.4251 33.1722 76.7501 39.0298 74.3576 41.1172Z" fill="#54290D"/>
<path d="M68.2635 71.5991C68.2249 71.6119 68.0547 72.0872 67.6918 72.1964C65.0296 73.0185 62.4444 72.4148 59.4642 73.4617C57.5663 74.1264 53.7801 76.93 52.3574 77.0167C53.658 65.507 57.0204 54.3507 59.8014 43.1461C64.5029 44.2701 70.505 44.4692 74.3523 41.1133C68.9924 50.4392 65.9384 60.8056 68.2603 71.5958L68.2635 71.5991Z" fill="#FAAE0E"/>
<path d="M59.8047 43.1519C57.0237 54.3564 53.6613 65.5096 52.3607 77.0225C52.2547 77.0289 52.1263 77.0353 52.0235 77.0225C50.7229 76.8587 49.8783 75.8503 48.7383 75.4007C44.5827 73.7597 40.1092 74.373 35.7803 74.6524C38.404 70.7345 41.0727 67.1249 44.0657 63.4704C45.3374 61.916 46.5031 61.444 47.4473 59.4047C50.5334 52.7379 50.9156 44.2566 50.3279 37.0566C53.2374 39.9019 55.6974 42.1724 59.8015 43.1519H59.8047Z" fill="#F3930A"/>
<path d="M277.718 212.5C274.214 214.205 270.238 211.684 268.244 208.774C266.404 206.086 265.595 202.843 265.537 199.628C265.505 197.859 265.502 196.606 266.054 194.895C266.703 192.881 268.28 191.709 268.922 189.805C270.492 190.013 271.709 189.67 273.469 190.164C280.017 192.004 282.381 201.186 280.945 207.088C280.537 208.771 279.336 211.71 277.721 212.496L277.718 212.5Z" fill="#54290D"/>
<path d="M260.051 62.0742C260.726 62.2105 260.74 63.1041 260.051 63.2404L241.945 66.9814C235.43 68.3294 230.368 75.3268 229.517 84.1569L227.653 103.665C227.58 104.392 226.436 104.392 226.362 103.665L224.499 84.1569C223.663 75.3268 218.586 68.3294 212.071 66.9814L193.965 63.2404C193.29 63.1041 193.29 62.1953 193.965 62.0742L211.866 58.6966C218.468 57.4547 223.633 50.3815 224.484 41.4455L226.333 21.68C226.406 20.953 227.551 20.953 227.624 21.68L229.473 41.4455C230.309 50.3815 235.474 57.4395 242.091 58.6966L259.992 62.0742H260.051Z" fill="#FFCF33"/>
<path d="M268.261 93.3971C268.522 93.4513 268.528 93.8062 268.261 93.8604L261.245 95.3464C258.721 95.8819 256.76 98.6615 256.43 102.169L255.708 109.918C255.68 110.207 255.236 110.207 255.208 109.918L254.486 102.169C254.162 98.6615 252.195 95.8819 249.671 95.3464L242.655 93.8604C242.394 93.8062 242.394 93.4453 242.655 93.3971L249.591 92.0555C252.149 91.5621 254.15 88.7525 254.48 85.2028L255.196 77.3514C255.225 77.0626 255.668 77.0626 255.697 77.3514L256.413 85.2028C256.737 88.7525 258.738 91.5561 261.302 92.0555L268.238 93.3971H268.261Z" fill="#FFCF33"/>
<path d="M53.6902 226.665C54.2184 226.771 54.2184 227.468 53.6902 227.574L39.7513 230.451C34.7332 231.481 30.8303 236.888 30.1847 243.674L28.7615 258.698C28.7028 259.259 27.8224 259.259 27.7784 258.698L26.3552 243.674C25.7096 236.873 21.8067 231.481 16.7886 230.451L2.84966 227.574C2.32145 227.468 2.33612 226.771 2.84966 226.665L16.6419 224.06C21.7333 223.09 25.7096 217.653 26.3552 210.777L27.7784 195.555C27.8371 194.995 28.7175 194.995 28.7615 195.555L30.1847 210.777C30.8303 217.653 34.8066 223.09 39.898 224.06L53.6902 226.665Z" fill="#FFCF33"/>
<path d="M198.106 106.223C198.577 106.318 198.577 106.938 198.106 107.033L185.686 109.596C181.215 110.514 177.738 115.331 177.163 121.376L175.894 134.76C175.842 135.26 175.058 135.26 175.019 134.76L173.75 121.376C173.175 115.317 169.698 110.514 165.227 109.596L152.807 107.033C152.336 106.938 152.35 106.318 152.807 106.223L165.096 103.902C169.632 103.039 173.175 98.1951 173.75 92.0694L175.019 78.5092C175.071 78.01 175.855 78.01 175.894 78.5092L177.163 92.0694C177.738 98.1951 181.281 103.039 185.817 103.902L198.106 106.223Z" fill="#FFCF33"/>
<path d="M272.861 236.222C275.292 236.222 277.263 234.188 277.263 231.679C277.263 229.169 275.292 227.135 272.861 227.135C270.43 227.135 268.459 229.169 268.459 231.679C268.459 234.188 270.43 236.222 272.861 236.222Z" fill="#FFCF33"/>
<path d="M28.3842 43.1149C30.8152 43.1149 32.786 41.0806 32.786 38.5711C32.786 36.0617 30.8152 34.0273 28.3842 34.0273C25.9532 34.0273 23.9824 36.0617 23.9824 38.5711C23.9824 41.0806 25.9532 43.1149 28.3842 43.1149Z" fill="#FFCF33"/>
<path d="M285.359 241.189C286.688 241.189 287.766 240.076 287.766 238.705C287.766 237.333 286.688 236.221 285.359 236.221C284.03 236.221 282.953 237.333 282.953 238.705C282.953 240.076 284.03 241.189 285.359 241.189Z" fill="#FFCF33"/>
<path d="M21.4044 32.1026C22.7333 32.1026 23.8107 30.9905 23.8107 29.6187C23.8107 28.2468 22.7333 27.1348 21.4044 27.1348C20.0754 27.1348 18.998 28.2468 18.998 29.6187C18.998 30.9905 20.0754 32.1026 21.4044 32.1026Z" fill="#FFCF33"/>
<path d="M277.264 247.413C277.264 246.383 278.085 245.535 279.083 245.535C280.081 245.535 280.902 246.383 280.902 247.413C280.902 248.443 280.081 249.291 279.083 249.291C278.085 249.291 277.264 248.443 277.264 247.413Z" fill="#FFCF33"/>
<path d="M11.2784 44.1897C12.2832 44.1897 13.0978 43.3489 13.0978 42.3117C13.0978 41.2744 12.2832 40.4336 11.2784 40.4336C10.2736 40.4336 9.45898 41.2744 9.45898 42.3117C9.45898 43.3489 10.2736 44.1897 11.2784 44.1897Z" fill="#FFCF33"/>
</svg>
