<svg width="64" height="93" viewBox="0 0 64 93" fill="none" xmlns="http://www.w3.org/2000/svg">
<path d="M54.3623 47.9901C54.3623 64.2 44.1057 74.2936 31.7291 74.2936C19.3526 74.2936 9.12305 64.2 9.12305 47.9901C9.12305 31.7801 20.406 14.5 31.7291 14.5C43.0523 14.5 54.3623 31.7801 54.3623 47.9901Z" fill="#F19435"/>
<path d="M26.3809 20.6632L26.3835 20.665C26.8853 21.0201 27.5624 22.7452 26.0369 24.444C24.5114 26.1429 22.3964 29.5405 20.7669 32.0368C19.1374 34.533 15.3237 32.9729 16.9532 29.1592C18.5827 25.3454 22.1538 21.7052 23.8526 20.665C25.2094 19.8344 25.8794 20.3084 26.3809 20.6632Z" fill="#F4A958"/>
<path d="M51.4736 33.25C53.2883 37.9083 54.3623 43.0002 54.3623 47.9912C54.3622 64.201 44.1059 74.2948 31.7295 74.2949C23.5049 74.2949 16.2299 69.8364 12.2734 62.0889C16.5698 66.3973 22.9408 68.1045 29.8301 68.1045C42.2066 68.1045 52.4629 58.0107 52.4629 41.8008C52.4629 38.9502 52.1117 36.067 51.4736 33.25Z" fill="#E9802A"/>
<path d="M58.6739 18.7368C58.9154 18.7855 58.9206 19.1048 58.6739 19.1536L52.1967 20.4906C49.8662 20.9723 48.0553 23.4731 47.7509 26.6289L47.0843 33.6008C47.058 33.8606 46.6486 33.8606 46.6223 33.6008L45.9557 26.6289C45.6565 23.4731 43.8404 20.9723 41.5099 20.4906L35.0327 19.1536C34.7912 19.1048 34.7912 18.7801 35.0327 18.7368L41.4364 17.5297C43.7984 17.0858 45.646 14.5579 45.9505 11.3643L46.6118 4.30034C46.6381 4.04051 47.0475 4.04051 47.0738 4.30034L47.7351 11.3643C48.0343 14.5579 49.8819 17.0804 52.2492 17.5297L58.6529 18.7368H58.6739Z" fill="#FFCF33"/>
<path d="M61.6131 29.9331C61.7066 29.9524 61.7087 30.0793 61.6131 30.0986L59.1034 30.6297C58.2004 30.8211 57.4988 31.8145 57.3808 33.0681L57.1225 35.8375C57.1123 35.9407 56.9537 35.9407 56.9435 35.8375L56.6853 33.0681C56.5693 31.8145 55.8656 30.8211 54.9627 30.6297L52.453 30.0986C52.3594 30.0793 52.3594 29.9503 52.453 29.9331L54.9342 29.4536C55.8494 29.2773 56.5653 28.2731 56.6832 27.0045L56.9395 24.1985C56.9496 24.0953 57.1083 24.0953 57.1184 24.1985L57.3747 27.0045C57.4906 28.2731 58.2065 29.2751 59.1237 29.4536L61.6049 29.9331H61.6131Z" fill="#FFCF33"/>
<path d="M10.8924 67.0132C10.9859 67.0325 10.988 67.1594 10.8924 67.1787L8.38271 67.7098C7.47971 67.9012 6.77806 68.8946 6.6601 70.1482L6.40181 72.9176C6.39165 73.0208 6.23301 73.0208 6.22284 72.9176L5.96455 70.1482C5.84863 68.8946 5.14495 67.9012 4.24195 67.7098L1.73227 67.1787C1.63872 67.1594 1.63872 67.0304 1.73227 67.0132L4.21347 66.5337C5.12867 66.3574 5.84456 65.3532 5.96252 64.0846L6.21877 61.2786C6.22894 61.1754 6.38758 61.1754 6.39775 61.2786L6.654 64.0846C6.76993 65.3532 7.48581 66.3552 8.40305 66.5337L10.8842 67.0132H10.8924Z" fill="#FFCF33"/>
<path d="M36.5152 34.5151C36.6836 34.5488 36.6836 34.7707 36.5152 34.8044L32.0723 35.7206C30.4728 36.0485 29.2288 37.77 29.023 39.9304L28.5693 44.7139C28.5506 44.8924 28.27 44.8924 28.256 44.7139L27.8023 39.9304C27.5966 37.7652 26.3525 36.0485 24.753 35.7206L20.3101 34.8044C20.1417 34.7707 20.1464 34.5488 20.3101 34.5151L24.7063 33.6857C26.3291 33.3771 27.5966 31.6459 27.8023 29.4566L28.256 24.6104C28.2747 24.432 28.5553 24.432 28.5693 24.6104L29.023 29.4566C29.2288 31.6459 30.4962 33.3771 32.119 33.6857L36.5152 34.5151Z" fill="#FFCF33"/>
</svg>
