<svg width="64" height="93" viewBox="0 0 64 93" fill="none" xmlns="http://www.w3.org/2000/svg">
<path d="M8.44549 33.042C8.16588 35.1634 9.30065 35.9631 9.98816 36.1647C9.35358 39.0456 8.99148 42.9293 8.44549 47.2691C7.81796 52.257 7.663 61.8605 8.75379 65.6736C7.47328 66.769 5.68208 70.9191 6.1449 71.7676C6.60772 72.6161 8.70582 72.9958 9.83201 73.0789C10.733 73.1453 13.4047 73.0512 14.6279 72.9958C17.9652 73.826 26.0744 75.5163 31.8126 75.6358C37.5509 75.7554 45.5605 73.9256 48.848 72.9958C49.7944 73.1287 52.0902 73.3146 53.7021 72.9958C55.7171 72.5974 57.017 72.7468 56.6185 70.6547C56.2997 68.9811 54.7036 66.6366 53.9454 65.6736C54.2387 65.0261 54.7954 62.0474 54.6759 55.313C54.5563 48.5785 53.3147 39.8943 52.7089 36.3941C52.9251 36.2589 53.4265 35.8995 53.7021 35.5427C54.0467 35.0968 54.2697 34.0022 53.9454 32.1576C53.6211 30.3131 54.0873 28.1036 53.9454 26.1983C53.8319 24.674 51.837 23.3967 50.8538 22.9486C35.5597 16.6583 19.7516 20.0502 14.633 21.7153C9.51445 23.3804 8.44549 24.9016 8.75385 27.9028C9.06221 30.9041 8.795 30.3902 8.44549 33.042Z" fill="#E9A123"/>
<path d="M48.0869 71.2289C49.3441 71.1966 53.4953 73.3618 56.4785 72.1146C56.0573 72.7088 55.0371 72.7334 53.7021 72.9974C52.0903 73.3161 49.7951 73.1302 48.8486 72.9974C45.5612 73.9272 37.5517 75.7565 31.8135 75.6371C26.0753 75.5175 17.9653 73.8276 14.6279 72.9974C13.4045 73.0528 10.7329 73.1469 9.83203 73.0804C9.16998 73.0316 8.17309 72.878 7.36914 72.5892C8.11516 72.5909 8.90117 72.5595 9.59277 72.4584C11.664 72.1553 12.8936 71.9027 13.584 71.8353C14.2745 71.768 17.2215 72.2224 18.4844 72.3402C19.748 72.4582 25.6076 73.5699 34.3125 73.0648C43.0182 72.5596 46.7903 71.2626 48.0869 71.2289Z" fill="#E48C17"/>
<path d="M17.3562 68.1639C17.0721 67.8088 16.131 67.9331 15.0478 67.649C14.2631 67.4431 13.4484 67.0276 13.0466 66.7927C11.0454 65.3327 10.3894 65.1055 10.2536 65.3761C10.2124 65.4582 10.2181 65.7313 10.7508 66.335C11.2835 66.9387 13.5208 68.4125 15.1721 68.6966C16.8235 68.9807 17.6403 68.519 17.3562 68.1639Z" fill="#E48C17"/>
<ellipse cx="31.2731" cy="26.5828" rx="19.7673" ry="4.98708" fill="#DB8113"/>
<path d="M31.4463 14.001C34.7756 13.94 37.9829 16.5669 39.9072 18.2774C41.8316 19.988 46.505 24.5088 48.582 27.044C49.0199 27.5785 49.3842 28.0269 49.6846 28.4005C46.8036 30.2553 39.6466 31.5694 31.2734 31.5694C23.1945 31.5694 16.2476 30.3468 13.1816 28.5948C13.1799 28.5938 13.1775 28.5928 13.1758 28.5919C14.8585 26.4787 18.8086 21.7678 21.6113 19.255C25.1544 16.0784 28.117 14.0621 31.4463 14.001Z" fill="#FEFCF7"/>
<path d="M21.6359 25.5867C21.2774 25.1684 20.9389 25.2631 20.8144 25.3627C20.4708 25.766 21.4865 27.2297 23.2789 28.3201C25.0712 29.4104 28.5214 29.5 28.5811 28.7681C28.6409 28.0363 27.2818 28.3649 25.1907 27.8421C23.0033 27.2953 22.084 26.1095 21.6359 25.5867Z" fill="#F9E6CA"/>
<path d="M29.4772 21.6586C29.0526 21.3076 28.7801 21.335 28.6557 21.4346C28.3121 21.8379 29.2951 22.8906 31.1349 23.8986C33.3157 25.0935 36.7956 24.9005 36.8553 24.1686C36.9151 23.4367 35.4067 23.9285 33.3156 23.4057C31.1282 22.8589 30.2538 22.3005 29.4772 21.6586Z" fill="#F9E6CA"/>
<path d="M41.1876 27.3667C42.4302 26.7932 42.6513 26.0324 42.6066 25.7238C42.5301 25.5771 42.4623 25.514 42.2483 25.5679C42.1251 25.5989 41.5193 25.9507 40.6967 26.4724C39.8741 26.9941 38.784 27.295 37.5806 27.295C36.8534 27.295 36.8728 27.9299 37.4238 28.0538C37.9748 28.1778 39.6343 28.0837 41.1876 27.3667Z" fill="#F9E6CA"/>
<path d="M53.1191 36.0996C52.9557 36.228 52.805 36.3335 52.709 36.3936C52.8232 37.0536 52.9559 37.899 53.1035 38.8799C49.1235 40.882 40.9146 42.2597 31.4316 42.2598C21.7533 42.2597 13.4006 40.8273 9.51758 38.7578C9.65725 37.8456 9.80674 36.995 9.97656 36.2168C14.0339 38.1604 22.1194 39.4863 31.4316 39.4863C40.9265 39.4863 49.1448 38.1059 53.1191 36.0996Z" fill="#DB8113"/>
<path d="M58.6739 18.7368C58.9154 18.7855 58.9206 19.1048 58.6739 19.1536L52.1967 20.4906C49.8662 20.9723 48.0553 23.4731 47.7509 26.6289L47.0843 33.6008C47.058 33.8606 46.6486 33.8606 46.6223 33.6008L45.9557 26.6289C45.6565 23.4731 43.8404 20.9723 41.5099 20.4906L35.0327 19.1536C34.7912 19.1048 34.7912 18.7801 35.0327 18.7368L41.4364 17.5297C43.7984 17.0858 45.646 14.5579 45.9505 11.3643L46.6118 4.30034C46.6381 4.04051 47.0475 4.04051 47.0738 4.30034L47.7351 11.3643C48.0343 14.5579 49.8819 17.0804 52.2492 17.5297L58.6529 18.7368H58.6739Z" fill="#FFCF33"/>
<path d="M61.6131 29.9331C61.7066 29.9524 61.7087 30.0793 61.6131 30.0986L59.1034 30.6297C58.2004 30.8211 57.4988 31.8145 57.3808 33.0681L57.1225 35.8375C57.1123 35.9407 56.9537 35.9407 56.9435 35.8375L56.6853 33.0681C56.5693 31.8145 55.8656 30.8211 54.9627 30.6297L52.453 30.0986C52.3594 30.0793 52.3594 29.9503 52.453 29.9331L54.9342 29.4536C55.8494 29.2773 56.5653 28.2731 56.6832 27.0045L56.9395 24.1985C56.9496 24.0953 57.1083 24.0953 57.1184 24.1985L57.3747 27.0045C57.4906 28.2731 58.2065 29.2751 59.1237 29.4536L61.6049 29.9331H61.6131Z" fill="#FFCF33"/>
<path d="M17.2205 73.4155C17.3141 73.4349 17.3161 73.5617 17.2205 73.5811L14.7108 74.1122C13.8078 74.3035 13.1062 75.2969 12.9882 76.5505L12.7299 79.32C12.7198 79.4232 12.5611 79.4232 12.551 79.32L12.2927 76.5505C12.1768 75.2969 11.4731 74.3035 10.5701 74.1122L8.0604 73.5811C7.96685 73.5617 7.96685 73.4327 8.0604 73.4155L10.5416 72.936C11.4568 72.7597 12.1727 71.7556 12.2906 70.4869L12.5469 67.6809C12.5571 67.5777 12.7157 67.5777 12.7259 67.6809L12.9821 70.4869C13.0981 71.7556 13.8139 72.7575 14.7312 72.936L17.2124 73.4155H17.2205Z" fill="#FFCF33"/>
<path d="M16.3297 59.4448C16.4981 59.4785 16.4981 59.7003 16.3297 59.7341L11.8867 60.6503C10.2873 60.9782 9.04322 62.6997 8.83744 64.8601L8.38379 69.6436C8.36508 69.822 8.08447 69.822 8.07044 69.6436L7.61679 64.8601C7.41101 62.6949 6.16697 60.9782 4.5675 60.6503L0.124526 59.7341C-0.043839 59.7003 -0.0391622 59.4785 0.124526 59.4448L4.52074 58.6154C6.14359 58.3067 7.41101 56.5756 7.61679 54.3863L8.07044 49.5401C8.08915 49.3616 8.36976 49.3616 8.38379 49.5401L8.83744 54.3863C9.04322 56.5756 10.3106 58.3067 11.9335 58.6154L16.3297 59.4448Z" fill="#FFCF33"/>
</svg>
