<svg width="300" height="300" viewBox="0 0 300 300" fill="none" xmlns="http://www.w3.org/2000/svg">
<path opacity="0.1" d="M150.136 277.999C190.036 277.999 222.381 268.155 222.381 256.011C222.381 243.868 190.036 234.023 150.136 234.023C110.236 234.023 77.8906 243.868 77.8906 256.011C77.8906 268.155 110.236 277.999 150.136 277.999Z" fill="black"/>
<g clip-path="url(#clip0_999_6229)">
<path d="M205.589 134.936V251.198H94.2021V134.936C94.2021 127.019 97.2724 119.562 102.847 113.941L119.41 97.2443C122.494 94.1369 124.191 90.0156 124.191 85.6372V63.5684L124.311 63.5969C141.047 67.4212 158.744 67.4212 175.48 63.5969L175.6 63.5684V85.6372C175.6 90.0156 177.297 94.1369 180.381 97.2443L196.944 113.941C202.519 119.562 205.589 127.019 205.589 134.936Z" fill="#FCD997"/>
<path d="M149.895 30.709H119.906L123.879 73.6015C124.23 77.4 127.089 80.4875 130.848 81.1329H130.856C143.457 83.2978 156.335 83.2978 168.934 81.1329H168.942C172.701 80.4875 175.557 77.3972 175.911 73.6015L179.884 30.709H149.895Z" fill="#AB4F33"/>
<path d="M177.59 55.4746L176.887 63.0432L175.911 73.6021C175.559 77.4007 172.7 80.4881 168.942 81.1336H168.933C156.332 83.2985 143.457 83.2985 130.856 81.1336H130.847C127.089 80.4881 124.23 77.4007 123.879 73.6021L122.902 63.0432L122.199 55.4746C123.604 56.1029 125.655 56.8113 128.565 57.4739C134.449 58.8162 142.023 59.5559 149.895 59.5559C157.766 59.5559 165.34 58.8162 171.224 57.4739C174.134 56.8113 176.185 56.1029 177.59 55.4746Z" fill="#EF9D78"/>
<path d="M149.895 37.8487C166.457 37.8487 179.884 34.6519 179.884 30.7085C179.884 26.7651 166.457 23.5684 149.895 23.5684C133.333 23.5684 119.906 26.7651 119.906 30.7085C119.906 34.6519 133.333 37.8487 149.895 37.8487Z" fill="#DA7644"/>
<path d="M205.589 136.383H94.2021V251.197H205.589V136.383Z" fill="#F5B804"/>
<path d="M205.589 251.022C205.589 251.174 205.583 251.322 205.572 251.474C205.283 253.91 201.268 257.78 190.669 261.124C179.827 264.546 165.347 266.431 149.896 266.431C134.444 266.431 119.964 264.546 109.122 261.124C98.5234 257.78 94.5077 253.91 94.2193 251.477C94.2079 251.322 94.2021 251.174 94.2021 251.022C94.2021 241.315 119.136 233.443 149.896 233.443C180.655 233.443 205.589 241.315 205.589 251.022Z" fill="#EF9A00"/>
<path d="M149.896 150.378C180.654 150.378 205.589 144.176 205.589 136.526C205.589 128.876 180.654 122.674 149.896 122.674C119.137 122.674 94.2021 128.876 94.2021 136.526C94.2021 144.176 119.137 150.378 149.896 150.378Z" fill="#FBC918"/>
<g opacity="0.7">
<path d="M212.445 251.197H205.59V134.935C205.59 127.018 202.52 119.561 196.945 113.94L180.382 97.2434C177.301 94.136 175.601 90.0119 175.601 85.6363V63.5675L175.481 63.5932C158.742 67.4175 141.049 67.4175 124.309 63.5932L124.189 63.5675V85.6363C124.189 90.0147 122.493 94.136 119.408 97.2434L102.846 113.94C97.2706 119.561 94.2003 127.018 94.2003 134.935V251.197H87.3486V134.935C87.3486 125.196 91.1244 116.025 97.9846 109.113L114.547 92.4167C116.346 90.6002 117.34 88.1925 117.34 85.6363V54.9707L125.84 56.9128C141.58 60.5086 158.219 60.5086 173.956 56.9128L182.456 54.9707V85.6363C182.456 88.1925 183.447 90.6002 185.249 92.4167L201.811 109.113C208.669 116.028 212.447 125.199 212.447 134.935V251.197H212.445Z" fill="white"/>
<path d="M178.492 45.7617L177.832 52.8905C178.883 53.3789 179.54 53.8101 179.905 54.1272C179.511 54.467 178.786 54.9411 177.592 55.4724C176.187 56.1007 174.136 56.809 171.226 57.4716C165.342 58.814 157.768 59.5537 149.897 59.5537C142.025 59.5537 134.451 58.814 128.567 57.4716C125.657 56.809 123.606 56.1007 122.201 55.4724C121.007 54.9411 120.282 54.467 119.888 54.1272C120.253 53.8101 120.91 53.3789 121.961 52.8905L121.302 45.7617C115.635 47.8552 112.768 50.6599 112.768 54.1272C112.768 57.9057 116.175 60.8989 122.904 63.041C123.629 63.2723 124.392 63.4922 125.194 63.7036C131.838 65.4486 140.609 66.4083 149.897 66.4083C159.184 66.4083 167.955 65.4486 174.599 63.7036C175.401 63.4922 176.164 63.2723 176.889 63.041C183.618 60.8989 187.025 57.9057 187.025 54.1272C187.025 50.6599 184.158 47.8552 178.492 45.7617Z" fill="white"/>
<path d="M209.017 200.93V194.075C218.357 194.075 220.447 192.57 221.838 188.965C223.917 183.587 223.917 172.969 223.917 155.375C223.917 127.757 223.917 111.086 218.571 103.092C214.03 96.3002 205.042 94.2296 180.097 94.2296V87.375C193.814 87.375 201.94 87.9434 208.14 89.3343C215.746 91.0422 220.873 94.201 224.269 99.282C230.769 109.007 230.769 125.478 230.769 155.375C230.769 174.391 230.769 184.864 228.23 191.436C224.846 200.196 216.883 200.93 209.014 200.93H209.017Z" fill="white"/>
<path d="M149.897 273.284C133.766 273.284 118.551 271.288 107.061 267.661C94.1661 263.588 87.3486 257.896 87.3486 251.195H94.2032C94.2032 253.603 98.1103 257.647 109.123 261.123C119.965 264.545 134.445 266.43 149.897 266.43C165.348 266.43 179.828 264.545 190.67 261.123C201.683 257.647 205.59 253.603 205.59 251.195H212.445C212.445 257.896 205.627 263.588 192.732 267.661C181.242 271.288 166.028 273.284 149.897 273.284Z" fill="white"/>
</g>
<path opacity="0.4" d="M118.765 250.626C115.609 250.626 113.053 248.07 113.053 244.914V139.948C113.053 133.79 114.572 127.655 117.445 122.212L128.85 100.591C130.321 97.8007 133.776 96.7325 136.567 98.2034C139.357 99.6743 140.425 103.13 138.954 105.921L127.55 127.541C125.539 131.351 124.48 135.641 124.48 139.948V244.914C124.48 248.07 121.924 250.626 118.768 250.626H118.765Z" fill="white"/>
</g>
<path d="M280.592 42.8339C281.267 42.9703 281.281 43.8638 280.592 44.0002L262.486 47.7412C255.971 49.0892 250.909 56.0866 250.058 64.9166L248.194 84.4246C248.121 85.1516 246.977 85.1516 246.903 84.4246L245.04 64.9166C244.204 56.0866 239.127 49.0892 232.612 47.7412L214.506 44.0002C213.831 43.8638 213.831 42.9551 214.506 42.8339L232.407 39.4564C239.009 38.2144 244.174 31.1413 245.025 22.2052L246.874 2.43978C246.947 1.71278 248.092 1.71278 248.165 2.43978L250.014 22.2052C250.85 31.1413 256.015 38.1993 262.632 39.4564L280.533 42.8339H280.592Z" fill="#FFCF33"/>
<path d="M288.802 74.1569C289.063 74.211 289.069 74.566 288.802 74.6201L281.786 76.1062C279.262 76.6417 277.301 79.4212 276.971 82.9288L276.249 90.6779C276.221 90.9667 275.777 90.9667 275.749 90.6779L275.027 82.9288C274.703 79.4212 272.736 76.6417 270.212 76.1062L263.196 74.6201C262.935 74.566 262.935 74.205 263.196 74.1569L270.132 72.8152C272.69 72.3219 274.691 69.5122 275.021 65.9625L275.737 58.1111C275.766 57.8223 276.209 57.8223 276.238 58.1111L276.954 65.9625C277.278 69.5122 279.279 72.3159 281.843 72.8152L288.779 74.1569H288.802Z" fill="#FFCF33"/>
<path d="M54.2312 227.425C54.7594 227.531 54.7594 228.227 54.2312 228.333L40.2923 231.211C35.2742 232.241 31.3713 237.648 30.7257 244.433L29.3025 259.458C29.2438 260.019 28.3634 260.019 28.3194 259.458L26.8962 244.433C26.2506 237.633 22.3477 232.241 17.3296 231.211L3.39068 228.333C2.86246 228.227 2.87714 227.531 3.39068 227.425L17.1829 224.819C22.2743 223.85 26.2506 218.413 26.8962 211.536L28.3194 196.315C28.3781 195.754 29.2585 195.754 29.3025 196.315L30.7257 211.536C31.3713 218.413 35.3476 223.85 40.439 224.819L54.2312 227.425Z" fill="#FFCF33"/>
<path d="M218.647 86.983C219.118 87.0775 219.118 87.6981 218.647 87.7926L206.227 90.3562C201.756 91.2737 198.279 96.0906 197.704 102.135L196.436 115.52C196.383 116.019 195.599 116.019 195.56 115.52L194.291 102.135C193.716 96.0771 190.239 91.2737 185.768 90.3562L173.348 87.7926C172.877 87.6981 172.891 87.0775 173.348 86.983L185.637 84.6623C190.173 83.7987 193.716 78.9549 194.291 72.8292L195.56 59.269C195.612 58.7697 196.396 58.7697 196.436 59.269L197.704 72.8292C198.279 78.9549 201.822 83.7987 206.358 84.6623L218.647 86.983Z" fill="#FFCF33"/>
<path d="M273.402 236.982C275.833 236.982 277.804 234.948 277.804 232.438C277.804 229.929 275.833 227.895 273.402 227.895C270.971 227.895 269 229.929 269 232.438C269 234.948 270.971 236.982 273.402 236.982Z" fill="#FFCF33"/>
<path d="M63.728 43.8747C66.159 43.8747 68.1297 41.8403 68.1297 39.3309C68.1297 36.8214 66.159 34.7871 63.728 34.7871C61.2969 34.7871 59.3262 36.8214 59.3262 39.3309C59.3262 41.8403 61.2969 43.8747 63.728 43.8747Z" fill="#FFCF33"/>
<path d="M285.9 241.948C287.229 241.948 288.307 240.836 288.307 239.464C288.307 238.093 287.229 236.98 285.9 236.98C284.571 236.98 283.494 238.093 283.494 239.464C283.494 240.836 284.571 241.948 285.9 241.948Z" fill="#FFCF33"/>
<path d="M56.7481 32.8624C58.0771 32.8624 59.1544 31.7503 59.1544 30.3784C59.1544 29.0066 58.0771 27.8945 56.7481 27.8945C55.4191 27.8945 54.3418 29.0066 54.3418 30.3784C54.3418 31.7503 55.4191 32.8624 56.7481 32.8624Z" fill="#FFCF33"/>
<path d="M277.805 248.173C277.805 247.143 278.626 246.295 279.624 246.295C280.622 246.295 281.443 247.143 281.443 248.173C281.443 249.203 280.622 250.051 279.624 250.051C278.626 250.051 277.805 249.203 277.805 248.173Z" fill="#FFCF33"/>
<path d="M46.6221 44.9495C47.627 44.9495 48.4415 44.1087 48.4415 43.0714C48.4415 42.0342 47.627 41.1934 46.6221 41.1934C45.6173 41.1934 44.8027 42.0342 44.8027 43.0714C44.8027 44.1087 45.6173 44.9495 46.6221 44.9495Z" fill="#FFCF33"/>
<defs>
<clipPath id="clip0_999_6229">
<rect width="143.423" height="249.718" fill="white" transform="translate(87.3496 23.5684)"/>
</clipPath>
</defs>
</svg>
