<svg width="78" height="78" viewBox="0 0 78 78" fill="none" xmlns="http://www.w3.org/2000/svg">
<path d="M13.1494 63.3379V15.3379C13.1494 13.2162 13.9923 11.1813 15.4926 9.68104C16.9929 8.18075 19.0277 7.33789 21.1494 7.33789H61.1494C61.9981 7.33789 62.812 7.67503 63.4122 8.27515C64.0123 8.87527 64.3494 9.6892 64.3494 10.5379V68.1379C64.3494 68.9866 64.0123 69.8005 63.4122 70.4006C62.812 71.0007 61.9981 71.3379 61.1494 71.3379H21.1494C19.0277 71.3379 16.9929 70.495 15.4926 68.9947C13.9923 67.4945 13.1494 65.4596 13.1494 63.3379ZM13.1494 63.3379C13.1494 61.2162 13.9923 59.1813 15.4926 57.681C16.9929 56.1807 19.0277 55.3379 21.1494 55.3379H64.3494M25.9494 39.3379V32.9379C25.9494 29.5431 27.298 26.2874 29.6984 23.8869C32.0989 21.4865 35.3546 20.1379 38.7494 20.1379C42.1442 20.1379 45.3999 21.4865 47.8004 23.8869C50.2008 26.2874 51.5494 29.5431 51.5494 32.9379V39.3379M25.9494 39.3379C25.9494 41.1052 27.3821 42.5379 29.1494 42.5379C30.9167 42.5379 32.3494 41.1052 32.3494 39.3379C32.3494 37.5706 30.9167 36.1379 29.1494 36.1379C27.3821 36.1379 25.9494 37.5706 25.9494 39.3379ZM51.5494 39.3379C51.5494 41.1052 50.1167 42.5379 48.3494 42.5379C46.5821 42.5379 45.1494 41.1052 45.1494 39.3379C45.1494 37.5706 46.5821 36.1379 48.3494 36.1379C50.1167 36.1379 51.5494 37.5706 51.5494 39.3379Z" stroke="white" stroke-width="6.66667" stroke-linecap="round" stroke-linejoin="round"/>
</svg>
