<svg width="78" height="78" viewBox="0 0 78 78" fill="none" xmlns="http://www.w3.org/2000/svg">
<path d="M29.438 29.7369C30.1903 27.5982 31.6753 25.7948 33.6299 24.6461C35.5844 23.4974 37.8825 23.0775 40.117 23.4607C42.3515 23.844 44.3782 25.0057 45.8382 26.7402C47.2983 28.4746 48.0974 30.6697 48.094 32.9369C48.094 39.3369 38.494 42.5369 38.494 42.5369M38.75 55.3369H38.782M25.63 64.9369C31.7374 68.0698 38.7631 68.9185 45.4408 67.3298C52.1186 65.7411 58.0094 61.8195 62.0516 56.2718C66.0938 50.7242 68.0217 43.9151 67.4879 37.0718C66.954 30.2284 63.9935 23.8008 59.1398 18.9471C54.2861 14.0934 47.8584 11.1329 41.0151 10.599C34.1717 10.0651 27.3627 11.993 21.815 16.0353C16.2673 20.0775 12.3458 25.9683 10.7571 32.646C9.16841 39.3238 10.017 46.3494 13.15 52.4569L6.75 71.3369L25.63 64.9369Z" stroke="white" stroke-width="6.66667" stroke-linecap="round" stroke-linejoin="round"/>
</svg>
