<svg width="78" height="78" viewBox="0 0 78 78" fill="none" xmlns="http://www.w3.org/2000/svg">
<path d="M19.55 36.1375H32.35M25.95 29.7375V42.5375M48.35 39.3375H48.382M57.95 32.9375H57.982M55.774 16.9375H21.726C18.5589 16.9382 15.5045 18.1131 13.1533 20.235C10.8021 22.3569 9.32103 25.2751 8.9964 28.4255C8.9772 28.5919 8.9644 28.7487 8.942 28.9119C8.6828 31.0687 6.75 47.1967 6.75 52.1375C6.75 54.6836 7.76143 57.1254 9.56178 58.9257C11.3621 60.7261 13.8039 61.7375 16.35 61.7375C19.55 61.7375 21.15 60.1375 22.75 58.5375L27.2748 54.0127C28.4748 52.8124 30.1024 52.1379 31.7996 52.1375H45.7004C47.3976 52.1379 49.0252 52.8124 50.2252 54.0127L54.75 58.5375C56.35 60.1375 57.95 61.7375 61.15 61.7375C63.6961 61.7375 66.1379 60.7261 67.9382 58.9257C69.7386 57.1254 70.75 54.6836 70.75 52.1375C70.75 47.1935 68.8172 31.0687 68.558 28.9119C68.5356 28.7519 68.5228 28.5919 68.5036 28.4287C68.1797 25.2777 66.699 22.3587 64.3477 20.2362C61.9964 18.1136 58.9416 16.9383 55.774 16.9375Z" stroke="white" stroke-width="6.66667" stroke-linecap="round" stroke-linejoin="round"/>
</svg>
