<svg width="129" height="129" viewBox="0 0 129 129" fill="none" xmlns="http://www.w3.org/2000/svg">
<path d="M96.3659 43.1107H91.0326V32.444C91.0326 17.724 79.0859 5.77734 64.3659 5.77734C49.6459 5.77734 37.6992 17.724 37.6992 32.444V43.1107H32.3659C26.4992 43.1107 21.6992 47.9107 21.6992 53.7773V107.111C21.6992 112.977 26.4992 117.777 32.3659 117.777H96.3659C102.233 117.777 107.033 112.977 107.033 107.111V53.7773C107.033 47.9107 102.233 43.1107 96.3659 43.1107ZM64.3659 91.1107C58.4992 91.1107 53.6992 86.3107 53.6992 80.444C53.6992 74.5773 58.4992 69.7773 64.3659 69.7773C70.2326 69.7773 75.0326 74.5773 75.0326 80.444C75.0326 86.3107 70.2326 91.1107 64.3659 91.1107ZM80.8992 43.1107H47.8326V32.444C47.8326 23.324 55.2459 15.9107 64.3659 15.9107C73.4859 15.9107 80.8992 23.324 80.8992 32.444V43.1107Z" fill="#94A3B8"/>
</svg>
