<svg width="70" height="70" viewBox="0 0 70 70" fill="none" xmlns="http://www.w3.org/2000/svg">
<path d="M34.9991 51.2384L21.2955 59.4936C20.6901 59.8789 20.0572 60.044 19.3968 59.9889C18.7364 59.9339 18.1585 59.7138 17.6632 59.3285C17.1679 58.9433 16.7827 58.4623 16.5075 57.8855C16.2323 57.3088 16.1773 56.6616 16.3424 55.9439L19.9747 40.3416L7.83956 29.8575C7.28921 29.3622 6.94579 28.7975 6.80931 28.1635C6.67282 27.5295 6.71355 26.911 6.93149 26.3078C7.14942 25.7046 7.47963 25.2093 7.92211 24.8218C8.36459 24.4344 8.96997 24.1867 9.73825 24.0789L25.7533 22.6755L31.9447 7.98125C32.2199 7.32083 32.647 6.82552 33.2259 6.49531C33.8049 6.1651 34.396 6 34.9991 6C35.6023 6 36.1934 6.1651 36.7724 6.49531C37.3513 6.82552 37.7784 7.32083 38.0536 7.98125L44.245 22.6755L60.26 24.0789C61.0305 24.1889 61.6359 24.4366 62.0762 24.8218C62.5164 25.2071 62.8467 25.7024 63.0668 26.3078C63.2869 26.9132 63.3288 27.5328 63.1923 28.1668C63.0558 28.8008 62.7113 29.3644 62.1587 29.8575L50.0236 40.3416L53.6559 55.9439C53.821 56.6594 53.7659 57.3066 53.4908 57.8855C53.2156 58.4645 52.8304 58.9455 52.335 59.3285C51.8397 59.7116 51.2619 59.9317 50.6015 59.9889C49.941 60.0462 49.3081 59.8811 48.7028 59.4936L34.9991 51.2384Z" fill="white"/>
</svg>
