<svg width="81" height="81" viewBox="0 0 81 81" fill="none" xmlns="http://www.w3.org/2000/svg">
<path d="M40.2706 58.1921L26.4373 66.5254C25.8262 66.9143 25.1873 67.0809 24.5206 67.0254C23.854 66.9698 23.2706 66.7476 22.7706 66.3587C22.2706 65.9698 21.8817 65.4843 21.604 64.9021C21.3262 64.3198 21.2706 63.6665 21.4373 62.9421L25.104 47.1921L12.854 36.6087C12.2984 36.1087 11.9517 35.5387 11.814 34.8987C11.6762 34.2587 11.7173 33.6343 11.9373 33.0254C12.1573 32.4165 12.4906 31.9165 12.9373 31.5254C13.384 31.1343 13.9951 30.8843 14.7706 30.7754L30.9373 29.3587L37.1873 14.5254C37.4651 13.8587 37.8962 13.3587 38.4806 13.0254C39.0651 12.6921 39.6617 12.5254 40.2706 12.5254C40.8795 12.5254 41.4762 12.6921 42.0606 13.0254C42.6451 13.3587 43.0762 13.8587 43.354 14.5254L49.604 29.3587L65.7706 30.7754C66.5484 30.8865 67.1595 31.1365 67.604 31.5254C68.0484 31.9143 68.3817 32.4143 68.604 33.0254C68.8262 33.6365 68.8684 34.2621 68.7306 34.9021C68.5928 35.5421 68.2451 36.1109 67.6873 36.6087L55.4373 47.1921L59.104 62.9421C59.2706 63.6643 59.2151 64.3176 58.9373 64.9021C58.6595 65.4865 58.2706 65.9721 57.7706 66.3587C57.2706 66.7454 56.6873 66.9676 56.0206 67.0254C55.354 67.0832 54.7151 66.9165 54.104 66.5254L40.2706 58.1921Z" fill="#FABE24"/>
</svg>
