<svg width="70" height="70" viewBox="0 0 70 70" fill="none" xmlns="http://www.w3.org/2000/svg">
<g filter="url(#filter0_d_972_9811)">
<path d="M34.9991 51.2385L21.2955 59.4936C20.6901 59.8789 20.0572 60.044 19.3968 59.989C18.7364 59.9339 18.1585 59.7138 17.6632 59.3285C17.1679 58.9433 16.7827 58.4623 16.5075 57.8855C16.2323 57.3088 16.1773 56.6616 16.3424 55.9439L19.9747 40.3416L7.83956 29.8575C7.28921 29.3622 6.94579 28.7975 6.80931 28.1635C6.67282 27.5295 6.71355 26.911 6.93149 26.3078C7.14942 25.7046 7.47963 25.2093 7.92211 24.8218C8.36459 24.4344 8.96997 24.1867 9.73825 24.0789L25.7533 22.6755L31.9447 7.98125C32.2199 7.32083 32.647 6.82552 33.2259 6.49531C33.8049 6.1651 34.396 6 34.9991 6C35.6023 6 36.1934 6.1651 36.7724 6.49531C37.3513 6.82552 37.7784 7.32083 38.0536 7.98125L44.245 22.6755L60.26 24.0789C61.0305 24.1889 61.6359 24.4366 62.0762 24.8218C62.5164 25.2071 62.8467 25.7024 63.0668 26.3078C63.2869 26.9132 63.3288 27.5328 63.1923 28.1668C63.0558 28.8008 62.7113 29.3644 62.1587 29.8575L50.0236 40.3416L53.6559 55.9439C53.821 56.6594 53.7659 57.3066 53.4908 57.8855C53.2156 58.4645 52.8304 58.9455 52.335 59.3285C51.8397 59.7116 51.2619 59.9317 50.6015 59.989C49.941 60.0462 49.3081 59.8811 48.7028 59.4936L34.9991 51.2385Z" fill="#FABE24"/>
<path d="M34.999 3.95117C35.9945 3.95117 36.9323 4.2283 37.7871 4.71582C38.787 5.2861 39.5053 6.14308 39.9414 7.18555L45.6533 20.7422L60.4385 22.0381L60.4941 22.043L60.5498 22.0508C61.586 22.1988 62.6023 22.5606 63.4248 23.2803C64.1506 23.9153 64.6662 24.7111 64.9922 25.6074C65.345 26.5775 65.4122 27.5897 65.1953 28.5977C64.9549 29.7144 64.3509 30.6464 63.5225 31.3857L63.5107 31.3965L63.498 31.4072L52.2988 41.082L55.6514 55.4795L55.6523 55.4834L55.6953 55.6895C55.8952 56.7211 55.8113 57.7748 55.3408 58.7646C54.931 59.6269 54.3438 60.3646 53.5879 60.9492C52.7631 61.587 51.8061 61.9402 50.7783 62.0293C49.6478 62.1273 48.5859 61.8374 47.6455 61.248L34.999 53.6299L22.3525 61.248C21.4131 61.8346 20.3538 62.1242 19.2266 62.0303C18.1936 61.9442 17.2322 61.5885 16.4053 60.9453C15.6538 60.3608 15.0679 59.6263 14.6582 58.7676C14.1542 57.7111 14.0934 56.5808 14.3457 55.4844L14.3477 55.4795L17.6982 41.082L6.5 31.4072L6.46875 31.3799C5.64548 30.6388 5.04629 29.7079 4.80664 28.5947C4.59029 27.5897 4.65491 26.5799 5.00488 25.6113C5.32967 24.7126 5.84593 23.9163 6.57227 23.2803C7.39643 22.5586 8.41392 22.1967 9.45312 22.0508L9.50586 22.043L9.55957 22.0381L24.3438 20.7422L30.0566 7.18555C30.4928 6.14307 31.2111 5.28611 32.2109 4.71582C33.0658 4.22827 34.0035 3.95119 34.999 3.95117Z" stroke="white" stroke-width="4.09692"/>
</g>
<defs>
<filter id="filter0_d_972_9811" x="2.63281" y="1.90234" width="64.7344" height="65.1953" filterUnits="userSpaceOnUse" color-interpolation-filters="sRGB">
<feFlood flood-opacity="0" result="BackgroundImageFix"/>
<feColorMatrix in="SourceAlpha" type="matrix" values="0 0 0 0 0 0 0 0 0 0 0 0 0 0 0 0 0 0 127 0" result="hardAlpha"/>
<feOffset dy="3"/>
<feComposite in2="hardAlpha" operator="out"/>
<feColorMatrix type="matrix" values="0 0 0 0 0.957031 0 0 0 0 0.617188 0 0 0 0 0.0429688 0 0 0 1 0"/>
<feBlend mode="normal" in2="BackgroundImageFix" result="effect1_dropShadow_972_9811"/>
<feBlend mode="normal" in="SourceGraphic" in2="effect1_dropShadow_972_9811" result="shape"/>
</filter>
</defs>
</svg>
