<svg width="127" height="96" viewBox="0 0 127 96" fill="none" xmlns="http://www.w3.org/2000/svg">
<g filter="url(#filter0_d_692_17524)">
<path d="M0.273438 21.9428C0.273438 9.82414 10.0976 0 22.2163 0H104.502C116.621 0 126.445 9.82415 126.445 21.9429V65.8286C126.445 77.9473 116.621 87.7714 104.502 87.7714H22.2163C10.0976 87.7714 0.273438 77.9473 0.273438 65.8286V21.9428Z" fill="#EB4898" shape-rendering="crispEdges"/>
<path d="M51.0137 41.8292H59.2423M55.128 37.7149V45.9435M69.528 43.8863H69.5486M75.6994 39.772H75.72M74.3006 29.4863H52.4126C50.3766 29.4868 48.4131 30.2421 46.9016 31.6061C45.3901 32.9702 44.438 34.8462 44.2293 36.8715C44.2169 36.9784 44.2087 37.0792 44.1943 37.1842C44.0277 38.5707 42.7852 48.9387 42.7852 52.1149C42.7852 53.7517 43.4354 55.3214 44.5927 56.4788C45.7501 57.6361 47.3198 58.2863 48.9566 58.2863C51.0137 58.2863 52.0423 57.2578 53.0709 56.2292L55.9797 53.3204C56.7511 52.5488 57.7974 52.1151 58.8885 52.1149H67.8247C68.9158 52.1151 69.9621 52.5488 70.7335 53.3204L73.6423 56.2292C74.6709 57.2578 75.6994 58.2863 77.7566 58.2863C79.3933 58.2863 80.9631 57.6361 82.1204 56.4788C83.2778 55.3214 83.928 53.7517 83.928 52.1149C83.928 48.9366 82.6855 38.5707 82.5189 37.1842C82.5045 37.0813 82.4962 36.9784 82.4839 36.8735C82.2757 34.8479 81.3238 32.9714 79.8122 31.6069C78.3007 30.2424 76.3369 29.4869 74.3006 29.4863Z" stroke="#FCF1F7" stroke-width="4.57143" stroke-linecap="round" stroke-linejoin="round"/>
</g>
<defs>
<filter id="filter0_d_692_17524" x="0.273438" y="0" width="126.172" height="96.0001" filterUnits="userSpaceOnUse" color-interpolation-filters="sRGB">
<feFlood flood-opacity="0" result="BackgroundImageFix"/>
<feColorMatrix in="SourceAlpha" type="matrix" values="0 0 0 0 0 0 0 0 0 0 0 0 0 0 0 0 0 0 127 0" result="hardAlpha"/>
<feOffset dy="8.22857"/>
<feComposite in2="hardAlpha" operator="out"/>
<feColorMatrix type="matrix" values="0 0 0 0 0.742188 0 0 0 0 0.09375 0 0 0 0 0.363281 0 0 0 1 0"/>
<feBlend mode="normal" in2="BackgroundImageFix" result="effect1_dropShadow_692_17524"/>
<feBlend mode="normal" in="SourceGraphic" in2="effect1_dropShadow_692_17524" result="shape"/>
</filter>
</defs>
</svg>
