<svg width="127" height="96" viewBox="0 0 127 96" fill="none" xmlns="http://www.w3.org/2000/svg">
<g filter="url(#filter0_d_658_17280)">
<path d="M0.271484 21.9428C0.271484 9.82414 10.0956 0 22.2143 0H104.5C116.619 0 126.443 9.82415 126.443 21.9429V65.8286C126.443 77.9473 116.619 87.7714 104.5 87.7714H22.2143C10.0956 87.7714 0.271484 77.9473 0.271484 65.8286V21.9428Z" fill="#83CB16" shape-rendering="crispEdges"/>
<path d="M46.9004 59.3145V28.4573C46.9004 27.0933 47.4422 25.7852 48.4067 24.8208C49.3712 23.8563 50.6793 23.3145 52.0432 23.3145H77.7575C78.3031 23.3145 78.8264 23.5312 79.2122 23.917C79.5979 24.3028 79.8147 24.826 79.8147 25.3716V62.4002C79.8147 62.9458 79.5979 63.469 79.2122 63.8548C78.8264 64.2406 78.3031 64.4573 77.7575 64.4573H52.0432C50.6793 64.4573 49.3712 63.9155 48.4067 62.951C47.4422 61.9865 46.9004 60.6784 46.9004 59.3145ZM46.9004 59.3145C46.9004 57.9505 47.4422 56.6424 48.4067 55.6779C49.3712 54.7134 50.6793 54.1716 52.0432 54.1716H79.8147M55.129 43.8859V39.7716C55.129 37.5892 55.9959 35.4963 57.5391 33.9531C59.0822 32.41 61.1752 31.543 63.3575 31.543C65.5399 31.543 67.6329 32.41 69.176 33.9531C70.7192 35.4963 71.5861 37.5892 71.5861 39.7716V43.8859M55.129 43.8859C55.129 45.022 56.05 45.943 57.1861 45.943C58.3222 45.943 59.2432 45.022 59.2432 43.8859C59.2432 42.7498 58.3222 41.8287 57.1861 41.8287C56.05 41.8287 55.129 42.7498 55.129 43.8859ZM71.5861 43.8859C71.5861 45.022 70.6651 45.943 69.529 45.943C68.3928 45.943 67.4718 45.022 67.4718 43.8859C67.4718 42.7498 68.3928 41.8287 69.529 41.8287C70.6651 41.8287 71.5861 42.7498 71.5861 43.8859Z" stroke="#F6FDE6" stroke-width="4.57143" stroke-linecap="round" stroke-linejoin="round"/>
</g>
<defs>
<filter id="filter0_d_658_17280" x="0.271484" y="0" width="126.172" height="96.0001" filterUnits="userSpaceOnUse" color-interpolation-filters="sRGB">
<feFlood flood-opacity="0" result="BackgroundImageFix"/>
<feColorMatrix in="SourceAlpha" type="matrix" values="0 0 0 0 0 0 0 0 0 0 0 0 0 0 0 0 0 0 127 0" result="hardAlpha"/>
<feOffset dy="8.22857"/>
<feComposite in2="hardAlpha" operator="out"/>
<feColorMatrix type="matrix" values="0 0 0 0 0.300781 0 0 0 0 0.484375 0 0 0 0 0.0585938 0 0 0 1 0"/>
<feBlend mode="normal" in2="BackgroundImageFix" result="effect1_dropShadow_658_17280"/>
<feBlend mode="normal" in="SourceGraphic" in2="effect1_dropShadow_658_17280" result="shape"/>
</filter>
</defs>
</svg>
