<svg width="45" height="45" viewBox="0 0 45 45" fill="none" xmlns="http://www.w3.org/2000/svg">
<g clip-path="url(#clip0_1729_232)">
<path d="M22.5001 45C17.7651 45 13.1511 44.0778 8.7853 42.2593L8.67739 42.2141L8.60067 42.1262C5.50864 38.5684 3.19882 34.4988 1.73546 30.0305C0.272715 25.5617 -0.269341 20.922 0.124881 16.2402L0.134862 16.1244L0.195367 16.0248C2.6499 12.0071 5.83674 8.57007 9.66731 5.80829C13.4973 3.0465 17.7769 1.10174 22.386 0.0266151L22.5001 0L22.6143 0.0266151C27.2233 1.10174 31.503 3.0465 35.3336 5.80829C39.1641 8.57007 42.351 12.0071 44.8055 16.0248L44.866 16.1244L44.876 16.2402C45.2702 20.922 44.7282 25.5617 43.2648 30.0299C41.8014 34.4982 39.4916 38.5678 36.3996 42.1256L36.3229 42.2135L36.215 42.2586C31.8492 44.0771 27.2352 44.9994 22.5001 44.9994V45Z" fill="white"/>
<path d="M44.3781 16.2817C42.8567 13.7916 39.9581 9.75476 35.0396 6.20876C30.1212 2.66276 25.3569 1.17479 22.5 0.508789C19.6431 1.17479 14.8788 2.66338 9.96035 6.20876C5.04193 9.75476 2.14327 13.791 0.621898 16.2817C0.37738 19.1839 0.331845 24.1399 2.21002 29.877C4.08881 35.6142 7.0617 39.5971 8.97854 41.8025C11.6845 42.9296 16.4207 44.5048 22.5 44.5048C28.5793 44.5048 33.3155 42.9296 36.0215 41.8025C37.9383 39.5971 40.9112 35.6142 42.79 29.877C44.6688 24.1399 44.6226 19.1833 44.3781 16.2817Z" fill="#0192D5"/>
<path d="M12.2739 40.2823C12.4218 40.0038 12.5939 39.4752 12.6607 39.261L12.6626 39.2555L12.6688 39.2425V39.2394L12.6819 39.2159V39.1874C12.7998 38.7591 12.8628 38.0714 12.8684 37.143C13.9918 36.9758 14.9998 36.3631 15.7352 35.9156L15.7415 35.9119C16.0228 35.7404 16.2655 35.5931 16.4613 35.5033C17.1344 35.1939 17.8667 35.0373 18.6389 35.0373C19.1548 35.0373 19.6962 35.1072 20.2476 35.2452L20.4503 34.8015C19.9494 34.4586 19.5078 34.0438 19.1055 33.6465L18.9714 33.514L18.8067 33.6062C18.0476 34.0327 15.9517 34.9054 14.3168 35.0899C14.0099 35.1245 13.7117 35.1419 13.431 35.1419C11.5653 35.1419 10.2854 34.3645 9.62605 32.8307V32.822L9.56242 32.6958L9.48819 32.6586C8.51262 32.1734 8.05165 30.8995 8.02109 30.3252L8.01547 30.2218L7.9375 30.1531C7.23389 29.5317 7.05861 28.3179 7.16153 27.6927L7.16465 27.6729V27.5708L7.11537 27.5046C6.72302 26.9803 6.70867 26.219 6.73986 25.6143L6.7461 25.488L6.64692 25.4088C6.05122 24.931 5.77863 24.0025 5.93582 22.9856C6.17348 21.453 6.92512 20.3402 7.58819 19.3585L7.66429 19.2458C7.88261 18.9234 8.14771 18.5322 8.39971 18.0673C8.33422 18.5928 8.20822 19.1747 8.02109 19.6828C7.66928 20.6372 7.50648 21.3565 7.494 22.0144C7.47778 22.8599 8.03418 23.7772 9.31478 23.9208C9.45888 23.9369 9.60484 23.9456 9.74706 23.9456C10.7127 23.9456 11.5192 23.5686 12.3738 23.1694L12.38 23.1663C13.1753 22.7943 14.0773 22.3728 15.1988 22.249H15.2069L15.215 22.2465L15.2287 22.2453C15.3048 22.2373 15.3828 22.2335 15.4602 22.2335C16.0484 22.2335 16.6222 22.4613 17.0352 22.8587C17.4456 23.253 17.6483 23.7642 17.6078 24.299C17.5729 24.7434 17.4737 25.1222 17.3939 25.4274L17.3845 25.4639C17.3677 25.5295 17.3508 25.592 17.3371 25.652C17.173 26.3279 17.1044 26.9277 17.9272 27.4093L18.2185 27.5795L18.2964 27.2533C18.4081 26.786 18.6651 25.8482 19.1311 24.8171L19.1635 24.7459L19.1485 24.6691C19.005 23.9344 17.7344 17.4348 17.3053 15.3792C16.8337 13.1175 15.8743 11.8016 15.3441 11.5893C15.3304 11.5838 15.3167 11.5788 15.3036 11.5732C15.3111 11.5683 15.3179 11.5633 15.3248 11.5584C15.4839 11.4451 15.6067 11.3659 15.749 11.2743L15.8637 11.2C16.3035 10.9134 16.7589 10.617 17.2629 10.617C17.3034 10.617 17.3452 10.6188 17.3857 10.6225C17.7064 10.6522 17.9827 10.7661 18.206 10.9605L18.5503 11.2607L18.6171 10.8107C18.6582 10.5334 18.758 10.3211 18.914 10.18C19.1529 9.96334 19.539 9.86555 19.8802 9.77951C20.1877 9.70091 20.3917 9.64272 20.6281 9.4886C20.6449 9.47746 20.6618 9.46632 20.6774 9.45456L20.8314 10.162L21.1527 9.57402C21.197 9.49294 21.2425 9.42547 21.3342 9.33882C21.4671 9.21317 21.6473 9.11166 21.8688 9.03677C22.0278 8.98292 22.1844 8.89007 22.3322 8.76071C22.3902 8.70996 22.4464 8.65487 22.4982 8.59607C22.5499 8.65425 22.6054 8.70934 22.6635 8.76009C22.8119 8.89007 22.9679 8.98292 23.1275 9.03677C23.349 9.11166 23.5293 9.21317 23.6627 9.33944C23.7526 9.42423 23.7987 9.49232 23.8443 9.57526L24.1661 10.1577L24.3189 9.45518C24.3345 9.46694 24.3514 9.47808 24.3682 9.48922C24.6059 9.64396 24.8092 9.70214 25.1161 9.78013C25.4573 9.86617 25.8441 9.96396 26.0823 10.1806C26.2383 10.3217 26.3381 10.534 26.3793 10.8113L26.446 11.2613L26.7909 10.9611C27.0143 10.7667 27.2906 10.6529 27.6112 10.6232C27.6517 10.6194 27.6929 10.6176 27.7341 10.6176C28.2375 10.6176 28.6722 10.9011 29.132 11.2006L29.2517 11.278C29.3927 11.369 29.5143 11.4476 29.6709 11.559C29.6777 11.564 29.6852 11.5689 29.6921 11.5739C29.679 11.5788 29.6653 11.5844 29.6516 11.5893C29.1207 11.8016 28.162 13.1175 27.6904 15.3792C27.3112 17.1977 26.2745 22.4811 25.8466 24.6685L25.8316 24.7453L25.864 24.8171C26.33 25.847 26.587 26.786 26.6992 27.2539L26.7772 27.5801L27.0685 27.4099C27.8913 26.9289 27.8227 26.3286 27.6586 25.6514C27.6443 25.592 27.6274 25.5276 27.61 25.4602L27.6018 25.4286C27.522 25.1234 27.4222 24.7446 27.3879 24.2996C27.3467 23.7655 27.5501 23.2542 27.9599 22.8599C28.3728 22.4626 28.9467 22.2348 29.5349 22.2348C29.6123 22.2348 29.6902 22.2385 29.7663 22.2465H29.7782L29.7863 22.249L29.7969 22.2503C30.9184 22.374 31.8198 22.7956 32.6151 23.1675L32.6219 23.1706C33.4759 23.5699 34.2824 23.9468 35.248 23.9468C35.3909 23.9468 35.5362 23.9388 35.6803 23.9221C36.9603 23.7785 37.5173 22.8612 37.5011 22.0157C37.4886 21.3602 37.3258 20.641 36.974 19.6841C36.7862 19.1753 36.6609 18.5935 36.5947 18.0686C36.8461 18.5322 37.1106 18.9227 37.3289 19.2452L37.4063 19.3597C38.0693 20.342 38.821 21.4549 39.0586 22.9868C39.2152 23.9994 38.9457 24.9241 38.3556 25.4032L38.345 25.4106L38.249 25.506L38.2546 25.6161C38.2858 26.2209 38.2714 26.9822 37.8791 27.5064L37.8298 27.572V27.6742L37.8329 27.6946C37.9358 28.3197 37.7599 29.5335 37.0569 30.1549L36.979 30.2236L36.9734 30.327C36.9434 30.9014 36.4818 32.1752 35.5069 32.6605L35.369 32.7292V32.8319C34.7097 34.3657 33.4297 35.1431 31.564 35.1431C31.2833 35.1431 30.9852 35.1258 30.6783 35.0911C29.0434 34.9067 26.9469 34.0339 26.1884 33.6075L26.0237 33.5153L25.8896 33.6477C25.486 34.0457 25.0438 34.461 24.5447 34.8033L24.7475 35.2471C25.2989 35.1091 25.8403 35.0391 26.3562 35.0391C27.1284 35.0391 27.8607 35.1957 28.5325 35.5052C28.7315 35.5962 28.976 35.7454 29.2598 35.918C29.9965 36.3662 31.0039 36.9789 32.1267 37.1461C32.1317 38.0578 32.1959 38.7628 32.3126 39.1886V39.2152L32.33 39.248C32.3668 39.3663 32.5589 39.9778 32.7211 40.2848C30.9546 40.2415 30.2104 39.807 29.3496 39.3037C29.3496 39.3037 29.1519 39.1886 29.1064 39.1626C28.9448 39.0698 28.7957 38.9788 28.6448 38.8859C27.8744 38.4149 27.2107 38.0089 25.8678 38.0089C24.9864 38.0089 24.332 38.3184 23.8611 38.5888C23.795 38.6266 23.7282 38.6662 23.6621 38.7052L23.6097 38.7362C23.2136 38.972 22.8425 39.193 22.4944 39.193C22.1464 39.193 21.7746 38.9714 21.381 38.7374L21.3149 38.6984C21.2531 38.6619 21.1914 38.6247 21.1284 38.5895C20.658 38.3196 20.0037 38.0101 19.1223 38.0101C17.7787 38.0101 17.115 38.4162 16.3459 38.8866C16.1943 38.9794 16.0453 39.0704 15.8837 39.1639C15.8226 39.1985 15.7621 39.2338 15.7028 39.2685L15.6417 39.3044C14.779 39.8082 14.0355 40.2427 12.269 40.286L12.2739 40.2823Z" fill="white"/>
<path d="M39.3087 23.0295C39.063 21.4444 38.2951 20.3061 37.6171 19.3022C37.2472 18.7538 36.6808 17.9553 36.3203 16.9124C36.2348 17.5233 36.3627 18.8188 36.7425 19.8493C37.0295 20.6292 37.2409 21.3868 37.2547 22.1005C37.2678 22.7801 36.8567 23.6212 35.6553 23.7562C34.5562 23.88 33.7098 23.4838 32.7286 23.0252C31.9146 22.6445 30.992 22.2125 29.8274 22.0837C29.8168 22.0819 29.8062 22.0807 29.7956 22.08C29.0621 22.0039 28.3123 22.2583 27.7896 22.7615C27.3249 23.2078 27.0953 23.789 27.1421 24.398C27.1783 24.8604 27.2806 25.2534 27.3635 25.5697C27.3835 25.6465 27.4028 25.7195 27.4191 25.7882C27.5756 26.4344 27.6224 26.8794 26.945 27.2756C26.8309 26.7983 26.5707 25.847 26.0948 24.7948C26.4479 22.9905 27.5463 17.3859 27.938 15.5086C28.4021 13.2816 29.3372 12.0622 29.7476 11.8982C30.1144 11.7521 30.3414 11.7639 30.3414 11.7639C30.3414 11.7639 30.0258 11.5832 29.8193 11.4365C29.6135 11.2898 29.4638 11.1969 29.2717 11.0719C28.7608 10.7389 28.2331 10.3954 27.5906 10.4548C27.1639 10.4944 26.8527 10.6584 26.6287 10.8534C26.587 10.5718 26.4822 10.2833 26.2532 10.076C25.9694 9.81851 25.5503 9.71205 25.1804 9.61858C24.9003 9.5474 24.7169 9.49665 24.5073 9.36048C24.2971 9.22369 24.1811 9.00396 24.1811 9.00396L24.0657 9.53502C24.0127 9.43909 23.9528 9.3481 23.8368 9.23854C23.6596 9.07204 23.4407 8.95939 23.2099 8.88141C23.0758 8.83622 22.946 8.75452 22.8306 8.65363C22.6978 8.53727 22.583 8.39553 22.5 8.25378C22.4177 8.39553 22.3029 8.53788 22.1694 8.65363C22.054 8.75452 21.9243 8.83622 21.7902 8.88141C21.5594 8.95939 21.3404 9.07204 21.1639 9.23854C21.0479 9.3481 20.9874 9.43909 20.935 9.53502L20.8196 9.00396C20.8196 9.00396 20.7029 9.22369 20.4934 9.36048C20.2838 9.49665 20.0998 9.5474 19.8203 9.61858C19.4504 9.71205 19.0312 9.81851 18.7474 10.076C18.5185 10.2833 18.4137 10.5718 18.3719 10.8534C18.148 10.6584 17.8367 10.4944 17.4101 10.4548C16.7676 10.3954 16.2392 10.7389 15.7284 11.0719C15.5363 11.1969 15.3872 11.2898 15.1807 11.4365C14.9749 11.5832 14.6592 11.7639 14.6592 11.7639C14.6592 11.7639 14.8863 11.7521 15.2524 11.8982C15.6629 12.0622 16.5985 13.2816 17.0626 15.5086C17.4543 17.3859 18.5528 22.9918 18.9052 24.7954C18.4299 25.8476 18.1698 26.7983 18.0557 27.2756C17.3782 26.8794 17.425 26.4344 17.5816 25.7882C17.5978 25.7195 17.6171 25.6465 17.6371 25.5697C17.7201 25.2534 17.8224 24.8604 17.8585 24.398C17.9053 23.789 17.6758 23.2078 17.2111 22.7615C16.6884 22.2583 15.9386 22.0039 15.205 22.08C15.1944 22.0807 15.1838 22.0819 15.1732 22.0837C14.0086 22.2125 13.0861 22.6445 12.2721 23.0252C11.2909 23.4838 10.4444 23.88 9.34534 23.7562C8.14396 23.6212 7.73289 22.7801 7.74599 22.1005C7.75971 21.3868 7.97055 20.6292 8.25811 19.8493C8.63798 18.8188 8.76523 17.5233 8.6804 16.9124C8.31923 17.9553 7.75348 18.7538 7.38358 19.3022C6.70554 20.3061 5.93768 21.4444 5.69192 23.0295C5.51913 24.1474 5.82478 25.1476 6.49284 25.683C6.45603 26.3948 6.49408 27.1685 6.917 27.7336C6.79412 28.4807 7.01805 29.752 7.77344 30.4192C7.80961 31.1094 8.34606 32.4482 9.37777 32.9613C10.1768 34.872 11.8479 35.6977 14.3461 35.4161C16.0197 35.2273 18.1517 34.3397 18.9308 33.9021C19.3132 34.2797 19.7754 34.7197 20.31 35.0855C19.1716 34.8008 17.76 34.7142 16.3578 35.3591C16.1469 35.4557 15.8962 35.6086 15.6055 35.7856C14.8882 36.222 13.9051 36.8199 12.8316 36.9796L12.6208 37.0111L12.6195 37.2228C12.6139 38.1376 12.5503 38.8327 12.4336 39.2332C12.4336 39.2332 12.4336 39.235 12.433 39.2363C12.4324 39.2381 12.4317 39.24 12.4311 39.2431C12.4299 39.2456 12.4293 39.2493 12.428 39.253C12.4261 39.2573 12.4249 39.2629 12.423 39.2691C12.3781 39.4121 12.1997 39.9728 12.0531 40.2489L11.8566 40.6221L12.2808 40.6116C14.1128 40.5664 14.8825 40.1164 15.7739 39.5959C15.8525 39.5501 15.9323 39.503 16.0147 39.456C16.1794 39.3613 16.3334 39.2672 16.4825 39.1756C17.2491 38.7064 17.8548 38.3357 19.1279 38.3357C19.95 38.3357 20.5657 38.6278 21.0098 38.8822C21.0934 38.9299 21.1758 38.9794 21.2575 39.0277C21.6816 39.2802 22.0827 39.5191 22.5 39.5191C22.9173 39.5191 23.3184 39.2802 23.7426 39.0277C23.8243 38.9794 23.9072 38.9299 23.9908 38.8822C24.4349 38.6278 25.05 38.3357 25.8727 38.3357C27.1452 38.3357 27.7509 38.7064 28.5181 39.1756C28.6672 39.2672 28.8213 39.3613 28.986 39.456C29.0677 39.503 29.1475 39.5501 29.2267 39.5959C30.1181 40.1164 30.8878 40.5664 32.7199 40.6116L33.1434 40.6221L32.9469 40.2489C32.7847 39.9419 32.582 39.2833 32.5677 39.2363C32.5677 39.235 32.567 39.2338 32.567 39.2338C32.4504 38.8327 32.3861 38.1376 32.3812 37.2228L32.3799 37.0111L32.1684 36.9796C31.0949 36.8199 30.1125 36.222 29.3952 35.7856C29.1045 35.6086 28.8531 35.4557 28.6423 35.3591C27.2413 34.7142 25.8297 34.8008 24.6913 35.0855C25.2253 34.7191 25.6869 34.2797 26.0699 33.9021C26.8489 34.3397 28.981 35.2273 30.6546 35.4161C33.1528 35.6977 34.8238 34.872 35.6229 32.9613C36.6546 32.4482 37.1904 31.11 37.2266 30.4199C37.982 29.7526 38.2059 28.4813 38.083 27.7348C38.506 27.1691 38.544 26.3954 38.5072 25.6836C39.1753 25.1482 39.4809 24.148 39.3081 23.0301L39.3087 23.0295ZM26.2221 26.5402C25.9994 26.3323 25.7642 26.1509 25.5328 25.9727C25.2758 25.7752 25.0338 25.5883 24.8217 25.3747C24.3451 24.8957 23.8586 24.2309 23.8586 22.9391V22.335C24.3021 22.8339 24.9951 23.6838 25.4448 24.5868C25.7973 25.2955 26.0505 25.9894 26.2221 26.5402ZM21.6111 19.7701C21.6111 19.7701 21.6087 19.767 21.608 19.7651C21.6012 19.7552 21.5949 19.7459 21.5887 19.736C21.5868 19.7342 21.5856 19.7323 21.5843 19.7305C21.4377 19.5033 21.3411 19.2731 21.3411 19.028C21.3411 18.3378 21.764 17.9076 22.2125 17.4521C22.3091 17.3537 22.4065 17.2546 22.5 17.1525C22.5936 17.2546 22.6915 17.3537 22.7882 17.4521C23.2361 17.9076 23.6596 18.3378 23.6596 19.028C23.6596 19.2731 23.5629 19.5033 23.4163 19.7305C23.4151 19.7323 23.4138 19.7342 23.412 19.736C23.4057 19.7459 23.3995 19.7552 23.3926 19.7651C23.392 19.767 23.3908 19.7689 23.3895 19.7701C23.2473 19.9805 23.0633 20.1885 22.8743 20.4014C22.747 20.5456 22.6179 20.6911 22.5 20.8415C22.3821 20.6911 22.253 20.5456 22.1258 20.4014C21.9374 20.1885 21.7534 19.9805 21.6111 19.7701ZM17.551 15.4083C17.2373 13.9005 16.7002 12.1544 15.8419 11.59C15.8962 11.5553 15.9498 11.52 16.0022 11.486C16.4813 11.174 16.8954 10.9042 17.3633 10.9481C18.1904 11.0249 18.4068 11.7633 18.4149 11.7936H18.4162C18.4617 11.8115 18.9071 14.4322 19.1317 16.2129C19.1816 16.6128 19.2708 17.3716 19.3344 17.8817C19.4691 17.7684 19.6226 17.6489 19.7935 17.5288C19.7355 17.0529 19.6681 16.4803 19.6269 16.1517C19.4036 14.3808 19.1922 12.7028 18.9433 11.8184C18.8884 11.6252 18.8535 11.4272 18.851 11.2266C18.8466 10.9425 18.894 10.6139 19.0836 10.4418C19.2758 10.2679 19.6151 10.1812 19.9438 10.0983C20.1453 10.0469 20.3405 9.99738 20.5096 9.9262L20.6343 10.4994C20.6543 10.5928 20.6686 10.6875 20.6761 10.7828C20.7404 11.5615 20.973 14.5808 21.0591 16.8548C21.2175 16.796 21.3822 16.744 21.5525 16.7025C21.4552 14.2447 21.1982 11.0119 21.1614 10.5947C21.1645 10.5216 21.192 10.0853 21.3853 9.7498C21.4552 9.62911 21.7085 9.43413 21.9598 9.34686C22.1513 9.28063 22.336 9.16551 22.5 9.02129C22.6647 9.16551 22.8493 9.28063 23.0408 9.34686C23.2922 9.43413 23.5455 9.62911 23.6147 9.7498C23.8081 10.0853 23.8355 10.5216 23.8386 10.5947C23.8024 11.0119 23.5455 14.2447 23.4481 16.7025C23.6184 16.744 23.7831 16.796 23.9415 16.8548C24.027 14.5808 24.2603 11.5615 24.3239 10.7828C24.332 10.6875 24.3458 10.5928 24.3663 10.4994L24.4911 9.9262C24.6601 9.99738 24.8554 10.0469 25.0568 10.0983C25.385 10.1812 25.7249 10.2679 25.9164 10.4418C26.1067 10.6139 26.1534 10.9425 26.1497 11.2266C26.1466 11.4272 26.1116 11.6252 26.0574 11.8184C25.8079 12.7028 25.5964 14.3808 25.3737 16.1517C25.3326 16.4803 25.2652 17.0529 25.2072 17.5288C25.3781 17.6489 25.5315 17.7684 25.6663 17.8817C25.7299 17.3716 25.8191 16.6128 25.869 16.2129C26.0936 14.4322 26.5389 11.8115 26.5845 11.7936H26.5851C26.5938 11.7633 26.8103 11.0249 27.6374 10.9481C28.1052 10.9042 28.5188 11.174 28.9978 11.486C29.0508 11.52 29.1045 11.5553 29.1581 11.59C28.3005 12.1544 27.7634 13.9005 27.449 15.4083C27.0953 17.103 26.1684 21.8244 25.7305 24.0619C25.0756 22.8865 24.1312 21.8826 23.8586 21.6047V19.9613C24.0376 19.6779 24.1586 19.3727 24.1586 19.028C24.1586 18.136 23.6203 17.5889 23.145 17.1061C23.029 16.9885 22.9179 16.8752 22.8169 16.7613C22.6921 16.6221 22.5836 16.4816 22.5006 16.3305C22.4171 16.4816 22.3079 16.6221 22.1831 16.762C22.0821 16.8758 21.9704 16.9885 21.855 17.1061C21.3803 17.5889 20.842 18.136 20.842 19.028C20.842 19.3727 20.963 19.6779 21.1421 19.9613V21.6041C20.8707 21.8807 19.9251 22.8847 19.2701 24.0607C18.8316 21.8225 17.9047 17.1024 17.551 15.4083ZM19.5552 24.5868C20.0056 23.6838 20.6986 22.8333 21.1421 22.3344V22.9391C21.1421 24.2309 20.6555 24.8957 20.179 25.3747C19.9669 25.5883 19.7249 25.7752 19.4679 25.9727C19.2358 26.1515 19.0007 26.3329 18.7774 26.5409C18.9495 25.99 19.2021 25.2955 19.5552 24.5868ZM14.29 34.924C12.1997 35.1604 10.8006 34.5879 10.0327 33.1773C10.8374 33.3543 11.8479 33.363 12.0313 33.363H12.0581L12.2353 33.3618C12.2234 33.3475 12.2122 33.3327 12.2016 33.3178C12.0974 33.1754 11.9951 33.0238 11.8947 32.8666C11.4643 32.8592 10.276 32.814 9.67219 32.5515C8.95985 32.2414 8.48391 31.3737 8.32672 30.7522C9.08522 31.066 10.2155 31.1793 10.78 31.1793C10.8299 31.1793 10.8748 31.1787 10.9154 31.1768L10.9784 31.1744C10.901 31.0066 10.828 30.8426 10.76 30.6841C10.1512 30.6804 8.86316 30.5282 8.27869 30.1778C8.24126 30.1556 8.20633 30.132 8.17514 30.1079C8.15581 30.093 8.13647 30.077 8.11776 30.0602C7.5994 29.6146 7.39855 28.7895 7.3867 28.1935C8.01982 28.6682 8.95423 28.9449 10.1282 29.0006L10.2124 29.0043C10.1793 28.8502 10.145 28.6818 10.1119 28.5042C9.24366 28.4584 8.1109 28.2609 7.45656 27.5974C7.42724 27.5689 7.39917 27.5386 7.37235 27.507C7.35551 27.4879 7.33929 27.4674 7.32432 27.447C7.03926 27.0719 6.97501 26.5359 6.98125 26.0011C7.83519 26.4851 8.68663 26.6368 9.86119 26.7228C9.84622 26.5514 9.835 26.3843 9.82876 26.2246C8.66293 26.1348 7.84267 25.972 7.00745 25.4373C6.96815 25.4125 6.92948 25.3865 6.89018 25.3599C6.87209 25.3475 6.85462 25.3351 6.83716 25.3215C6.29385 24.9105 6.03873 24.0502 6.18532 23.105C6.41362 21.6282 7.14904 20.5388 7.79776 19.5776C7.81336 19.5547 7.82833 19.5324 7.84392 19.5095C7.82334 19.572 7.80338 19.6352 7.78279 19.6977C7.52705 20.4875 7.26257 21.3045 7.24697 22.0906C7.22826 23.0481 7.85265 24.0867 9.2892 24.2482C10.5286 24.3875 11.4786 23.9437 12.4848 23.4733C13.277 23.1026 14.0947 22.72 15.1289 22.5876C15.5731 23.04 15.8675 23.4752 15.7714 24.4717C15.7128 25.0795 15.4202 25.769 15.137 26.4363C14.9162 26.9549 14.6879 27.4922 14.5638 28.0034C14.2949 29.1114 14.3399 30.8426 15.3541 32.0737C16.3103 33.2349 17.3421 33.6316 18.0881 33.7672C17.1474 34.1955 15.5762 34.7785 14.29 34.924ZM22.4595 32.2842H22.5031C22.5156 32.2835 22.5287 32.2835 22.5412 32.2842C22.6585 32.2885 22.7707 32.3231 22.8306 32.3529C22.8612 32.7193 23.019 33.592 23.4176 34.1095C23.3621 34.5712 22.8468 34.872 22.5 34.872C22.1532 34.872 21.6386 34.5712 21.5825 34.1095C21.9817 33.592 22.1395 32.7193 22.1694 32.3529C22.2293 32.3231 22.3416 32.2885 22.4595 32.2842ZM22.4476 35.9106C22.4065 35.8902 22.3628 35.8673 22.3135 35.8438C22.3753 35.8475 22.4376 35.8493 22.5 35.8493C22.563 35.8493 22.6248 35.8475 22.6865 35.8438C22.6372 35.8673 22.5936 35.8902 22.5524 35.9106C22.5337 35.9199 22.5162 35.9286 22.4994 35.9366C22.4826 35.9286 22.4651 35.9199 22.447 35.9106H22.4476ZM13.116 37.4326C14.2026 37.2197 15.1576 36.6385 15.8662 36.2077C16.1438 36.0387 16.3833 35.8933 16.568 35.8079C18.9439 34.7154 21.4122 35.9478 22.2231 36.3532C22.2324 36.3575 22.2418 36.3625 22.2505 36.3668V37.8312C21.4802 37.4172 20.6431 37.0068 19.8683 36.9307C18.405 36.7871 17.5261 36.9585 16.2511 37.6357C16.0141 37.7613 15.7845 37.8956 15.5631 38.0256C14.7958 38.475 14.0673 38.9014 12.9906 39.0289C13.0767 38.5486 13.1079 37.9433 13.116 37.4326ZM29.48 39.1694C29.4002 39.123 29.3191 39.0753 29.2361 39.0277C29.077 38.9367 28.9261 38.8439 28.7795 38.7541C28.0123 38.2843 27.2868 37.8405 25.8727 37.8405C24.9321 37.8405 24.2391 38.168 23.7413 38.4533C23.6552 38.5022 23.5704 38.5529 23.4862 38.6031C23.1225 38.8197 22.7795 39.024 22.5 39.024C22.2206 39.024 21.8775 38.8197 21.5145 38.6031C21.4303 38.5529 21.3454 38.5022 21.2593 38.4533C20.7609 38.168 20.0686 37.8405 19.1279 37.8405C17.7132 37.8405 16.9884 38.2843 16.2205 38.7541C16.0746 38.8439 15.923 38.9367 15.7646 39.0277C15.6816 39.0753 15.6005 39.123 15.5207 39.1694C14.7247 39.6343 14.0829 40.0093 12.6625 40.0991C12.7418 39.8948 12.8141 39.6819 12.8597 39.5402H12.8603C14.1471 39.43 14.9948 38.933 15.8169 38.4521C16.034 38.3245 16.2586 38.1933 16.4863 38.072C17.6752 37.4407 18.4536 37.2897 19.8191 37.4233C20.5757 37.4976 21.4583 37.9643 22.2505 38.3957C22.2867 38.4149 22.3229 38.4347 22.359 38.4545L22.5 38.5313L22.6416 38.4545C22.6772 38.4353 22.7133 38.4155 22.7495 38.3957C23.5417 37.9643 24.4237 37.4982 25.1816 37.4233C26.547 37.2897 27.3255 37.4407 28.5138 38.072C28.7421 38.1933 28.9666 38.3245 29.1837 38.4521C30.0052 38.933 30.8529 39.43 32.1404 39.5402H32.141C32.1865 39.6819 32.2583 39.8948 32.3375 40.0991C30.9172 40.0093 30.2753 39.6343 29.48 39.1694ZM28.4327 35.8079C28.6173 35.8933 28.8569 36.0387 29.1338 36.2077C29.843 36.6385 30.7974 37.2197 31.884 37.4326C31.8927 37.9433 31.9239 38.5486 32.0094 39.0289C30.9334 38.9014 30.2048 38.475 29.437 38.0256C29.2155 37.8956 28.9866 37.7613 28.7496 37.6357C27.474 36.9585 26.5951 36.7871 25.1323 36.9307C24.3576 37.0068 23.5199 37.4172 22.7495 37.8312V36.3668C22.7589 36.3625 22.7676 36.3575 22.777 36.3532C23.5879 35.9478 26.0561 34.7154 28.4327 35.8079ZM25.8559 33.4144C24.8922 34.3707 23.9278 35.2347 22.7495 35.343V35.3399C23.3016 35.2242 23.9216 34.7457 23.9216 34.0271V33.9331L23.8586 33.8625C23.4849 33.4447 23.3246 32.4878 23.3246 32.2414V32.1796L23.2953 32.1245C23.2485 32.0378 23.1662 31.9703 23.0689 31.919C22.956 31.8595 22.8587 31.8342 22.7526 31.8131C22.626 31.7877 22.5287 31.7865 22.5 31.7865C22.4713 31.7865 22.3746 31.7877 22.248 31.8131C22.1413 31.8342 22.0447 31.8602 21.9318 31.919C21.8345 31.9697 21.7521 32.0372 21.7053 32.1245L21.676 32.1796V32.2414C21.676 32.4878 21.5151 33.4447 21.1414 33.8625L21.0791 33.9331V34.0271C21.0791 34.7457 21.6991 35.2242 22.2505 35.3399V35.3424C21.0728 35.2341 20.1079 34.37 19.1448 33.4144L19.1061 33.376L19.0718 33.3426C19.0537 33.3419 19.0231 33.3419 18.9682 33.3419C18.9452 33.3419 18.9202 33.3419 18.8934 33.3413C18.3551 33.337 16.9809 33.2664 15.7402 31.7605C14.842 30.6699 14.8064 29.117 15.0491 28.1192C15.1639 27.6475 15.3841 27.1295 15.5968 26.6281C15.8943 25.9275 16.2024 25.2021 16.2686 24.5193C16.3584 23.5853 16.1301 23.027 15.7926 22.5888C16.1943 22.6538 16.5736 22.837 16.8643 23.1168C17.2198 23.4591 17.3963 23.9004 17.3608 24.3603C17.3283 24.7787 17.2317 25.1482 17.1543 25.4453C17.1331 25.5258 17.1131 25.6013 17.0963 25.6725C16.9054 26.4616 16.8268 27.2811 18.1218 27.8648C18.1236 27.866 18.1255 27.8673 18.128 27.8679L18.3432 27.9645L18.4524 27.7565C18.4524 27.7565 18.4549 27.7515 18.4561 27.7497C18.7842 27.1258 19.2876 26.7389 19.7741 26.3638C20.0324 26.1651 20.2994 25.959 20.5345 25.722C21.0498 25.2039 21.6411 24.4185 21.6411 22.9391V20.6038C21.6773 20.6453 21.7141 20.6868 21.7509 20.7282C21.9162 20.9152 22.0777 21.0971 22.2068 21.2785C22.374 21.5131 22.4882 21.7458 22.4882 21.9847C22.4882 22.0107 22.4925 22.0361 22.5 22.0602C22.5075 22.0361 22.5119 22.0107 22.5119 21.9847C22.5119 21.7464 22.626 21.5137 22.7938 21.2791C22.9223 21.0978 23.0845 20.9152 23.2498 20.7282C23.2866 20.6868 23.3234 20.6453 23.3596 20.6038V22.9391C23.3596 24.4185 23.9509 25.2039 24.4661 25.722C24.7013 25.959 24.9683 26.1651 25.2265 26.3638C25.7131 26.7389 26.2164 27.1258 26.5445 27.7497C26.5458 27.7515 26.547 27.754 26.5483 27.7565L26.6574 27.9645L26.8583 27.8741C26.8677 27.8704 26.8764 27.8667 26.8845 27.8623C28.1732 27.2787 28.0952 26.4604 27.9044 25.6725C27.8875 25.6013 27.8676 25.5258 27.8463 25.4453C27.769 25.1482 27.6723 24.7787 27.6399 24.3603C27.6043 23.9004 27.7809 23.4591 28.1364 23.1168C28.4271 22.837 28.8063 22.6538 29.208 22.5888C28.8706 23.027 28.6423 23.5853 28.7321 24.5193C28.7982 25.2021 29.1064 25.9275 29.4039 26.6281C29.6166 27.1295 29.8368 27.6475 29.9516 28.1192C30.1942 29.117 30.1587 30.6699 29.2604 31.7605C28.0198 33.2664 26.6456 33.337 26.1073 33.3413C26.0805 33.3419 26.0555 33.3419 26.0324 33.3419C25.9775 33.3419 25.947 33.3419 25.9289 33.3426L25.8946 33.376L25.8559 33.4144ZM36.8829 30.0602C36.8642 30.077 36.8449 30.093 36.8255 30.1079C36.7943 30.132 36.7594 30.1556 36.722 30.1778C36.1375 30.5282 34.8494 30.6804 34.2406 30.6841C34.1726 30.8426 34.0996 31.0066 34.0223 31.1744L34.0853 31.1768C34.1258 31.1787 34.1707 31.1793 34.2206 31.1793C34.7852 31.1793 35.9154 31.066 36.6739 30.7522C36.5167 31.3737 36.0408 32.2414 35.3285 32.5515C34.7247 32.814 33.5364 32.8592 33.106 32.8666C33.0055 33.0238 32.9032 33.1754 32.7991 33.3178C32.7885 33.3327 32.7772 33.3475 32.7654 33.3618L32.9425 33.363H32.9694C33.1528 33.363 34.1633 33.3543 34.9673 33.1773C34.2001 34.5879 32.801 35.1604 30.7107 34.924C29.4245 34.7785 27.8532 34.1955 26.9126 33.7672C27.6586 33.6316 28.6903 33.2349 29.6465 32.0737C30.6608 30.8426 30.7057 29.1114 30.4369 28.0034C30.3127 27.4922 30.0844 26.9549 29.8636 26.4363C29.5804 25.769 29.2879 25.0795 29.2292 24.4717C29.1332 23.4752 29.4276 23.04 29.8717 22.5876C30.9059 22.72 31.7237 23.1026 32.5159 23.4733C33.522 23.9437 34.472 24.3875 35.7115 24.2482C37.148 24.0867 37.7724 23.0481 37.7537 22.0906C37.7381 21.3045 37.4736 20.4875 37.2179 19.6977C37.1973 19.6352 37.1773 19.572 37.1567 19.5095C37.1723 19.5324 37.1873 19.5547 37.2029 19.5776C37.8516 20.5388 38.587 21.6282 38.8153 23.105C38.9619 24.0502 38.7068 24.9105 38.1635 25.3215C38.146 25.3351 38.1286 25.3475 38.1105 25.3599C38.0712 25.3865 38.0325 25.4125 37.9932 25.4373C37.158 25.972 36.3377 26.1348 35.1719 26.2246C35.1657 26.3843 35.1544 26.5514 35.1395 26.7228C36.314 26.6368 37.1655 26.4851 38.0194 26.0011C38.0256 26.5359 37.9614 27.0719 37.6763 27.447C37.6614 27.4674 37.6451 27.4879 37.6283 27.507C37.6015 27.5386 37.5734 27.5689 37.5441 27.5974C36.8898 28.2609 35.757 28.4584 34.8887 28.5042C34.8556 28.6818 34.8213 28.8502 34.7883 29.0043L34.8725 29.0006C36.0464 28.9449 36.9808 28.6682 37.614 28.1935C37.6021 28.7895 37.4013 29.6146 36.8829 30.0602Z" fill="black"/>
<path d="M24.3208 27.2477C24.2235 27.1047 24.1162 26.9531 24.0027 26.7921L23.9041 26.6523C23.3315 25.8377 23.1724 25.5066 22.9716 24.7682C22.9635 24.7391 22.956 24.71 22.9479 24.6809L22.8581 24.2526C22.825 24.057 22.8082 24.0186 22.7308 23.8181C22.6597 23.6336 22.5412 23.4702 22.4994 23.0982C22.4576 23.4702 22.3391 23.6336 22.268 23.8181C22.1906 24.0186 22.1738 24.057 22.1407 24.2526L22.0509 24.6809C22.0428 24.71 22.0347 24.7397 22.0272 24.7682C21.8264 25.5066 21.6679 25.8377 21.0947 26.6523L20.9961 26.7921C20.8826 26.9531 20.7753 27.1047 20.678 27.2477C20.1559 28.0146 19.9239 28.7759 20.0155 29.5923C20.1453 30.7547 21.3423 31.3941 21.3903 31.4195H21.3916L21.3947 31.4157C21.3978 31.4114 21.4028 31.4052 21.4097 31.3966C21.9655 30.7021 23.0346 30.7021 23.5897 31.3966C23.5966 31.4052 23.6016 31.4114 23.6047 31.4157L23.6078 31.4201H23.6091C23.6571 31.3941 24.8541 30.7547 24.9839 29.5923C25.0756 28.7759 24.8435 28.0152 24.3214 27.2477H24.3208Z" fill="#FAD407"/>
<path d="M24.2072 26.4994C23.9047 26.0408 23.697 25.8507 23.3832 25.2466C22.979 24.4668 22.8337 23.8348 22.7825 23.5847C22.6977 23.1676 22.6709 22.8067 22.6647 22.5381C22.4601 22.7789 22.1426 23.2196 21.9785 23.8497C21.8787 24.2328 21.8656 24.5714 21.8768 24.8214C21.8531 24.8004 21.8219 24.7769 21.7808 24.7558C21.7034 24.7162 21.6304 24.7081 21.5868 24.7063C21.6049 25.2417 21.4845 25.631 21.3897 25.8613C21.293 26.0971 21.182 26.2753 21.036 26.4963C20.89 26.7167 20.5719 27.0979 20.4453 27.2836C19.9232 28.0511 19.6624 28.701 19.7654 29.6183C19.9107 30.92 21.2188 31.6095 21.2743 31.6386L21.4651 31.7358C22.0072 30.8872 22.9915 30.8897 23.5311 31.7358L23.7219 31.6386C23.7781 31.6095 25.0855 30.92 25.2315 29.6183C25.3706 28.3755 24.6351 27.1499 24.2066 26.4988L24.2072 26.4994ZM24.7362 29.5639C24.647 30.3617 23.9727 30.8928 23.6558 31.1007C23.0445 30.4768 22.0365 30.405 21.3416 31.1007C21.0248 30.8928 20.3511 30.3617 20.2619 29.5639C20.1758 28.7957 20.3461 28.329 20.7696 27.629C20.8907 27.4285 21.1801 27.0577 21.399 26.6938C21.6679 26.2463 21.7477 26.0253 21.9286 25.6756C22.0428 26.2679 22.3821 26.9228 22.5642 27.8141C22.79 28.922 21.9835 29.5434 22.2274 29.8913C22.3758 29.4277 23.0913 28.6744 22.9921 27.668C22.9285 27.0175 22.4451 26.2234 22.3097 25.4948C22.1582 24.6809 22.3116 24.1201 22.4482 23.8911C22.5767 24.7236 23.2485 25.9064 23.8286 26.7303C24.5522 27.759 24.8478 28.5748 24.7374 29.5632L24.7362 29.5639Z" fill="black"/>
<path d="M7.48585 14.0435L9.83746 15.0524L9.63411 15.5191L7.2825 14.5102L7.03549 15.0778L6.6001 14.8909L7.29685 13.2927L7.73224 13.4796L7.48647 14.0435H7.48585Z" fill="black"/>
<path d="M10.7345 13.5057C10.6153 13.6963 10.4862 13.8263 10.3477 13.8962C10.2092 13.9662 10.0508 13.9798 9.87303 13.939C9.69526 13.8975 9.48255 13.8009 9.23617 13.6493L7.62933 12.6602L7.89943 12.2282L9.5468 13.242C9.65347 13.3076 9.7514 13.3571 9.8406 13.3906C9.9298 13.424 10.014 13.4327 10.0932 13.4172C10.1731 13.4017 10.2398 13.3503 10.2941 13.2631C10.3402 13.1894 10.3627 13.1207 10.3621 13.0569C10.3614 12.9932 10.3303 12.9263 10.2685 12.8552C10.2074 12.7846 10.1069 12.7066 9.96847 12.6212L8.29614 11.5925L8.56624 11.1605L10.2648 12.2059C10.5816 12.4009 10.7775 12.6045 10.8524 12.8174C10.9272 13.0303 10.8879 13.26 10.7338 13.5063L10.7345 13.5057Z" fill="black"/>
<path d="M10.0826 10.029L12.04 11.6692L11.7094 12.0579L9.75203 10.4177L9.35033 10.89L8.98792 10.5861L10.1201 9.25531L10.4825 9.5586L10.0826 10.0284V10.029Z" fill="black"/>
<path d="M14.7702 9.28255L13.0892 7.7661L13.9968 9.83466L13.5551 10.1497L11.3551 8.00874L11.7743 7.70978L13.2539 9.19528L12.3787 7.27775L12.8559 6.9367L14.3954 8.36711L13.4653 6.5022L13.877 6.20819L15.2119 8.96688L14.7702 9.28193V9.28255Z" fill="black"/>
<path d="M16.7164 8.26743C16.5112 8.36152 16.3315 8.39989 16.1768 8.38256C16.0221 8.36523 15.8824 8.29034 15.757 8.1585C15.631 8.02666 15.5075 7.83045 15.3859 7.56925L14.5925 5.86588L15.0578 5.65234L15.8712 7.39842C15.9242 7.51169 15.9785 7.60639 16.034 7.68252C16.0901 7.75865 16.155 7.81188 16.2305 7.84283C16.3053 7.87316 16.3902 7.86697 16.4837 7.82426C16.563 7.78774 16.6197 7.74318 16.6547 7.68933C16.689 7.63548 16.7008 7.56244 16.6883 7.47022C16.6765 7.37737 16.6359 7.25792 16.5679 7.11122L15.7421 5.33915L16.2074 5.12561L17.0458 6.92554C17.2023 7.26101 17.2528 7.5383 17.1973 7.75679C17.1418 7.97529 16.9815 8.1455 16.7164 8.26743Z" fill="black"/>
<path d="M18.9819 5.16648C19.0368 5.35897 19.0412 5.53352 18.995 5.6895C18.9488 5.84547 18.849 5.97917 18.6956 6.09058C18.7411 6.09367 18.786 6.1042 18.8303 6.12215C18.8746 6.1401 18.9295 6.17909 18.9956 6.23789C19.0618 6.29731 19.1385 6.38458 19.2264 6.50095L19.7753 7.18428L19.2183 7.34025L18.7206 6.72996C18.602 6.58822 18.5122 6.48733 18.4511 6.42853C18.3893 6.36973 18.3401 6.33507 18.3014 6.32393C18.2633 6.3134 18.2172 6.31588 18.1623 6.33073L18.0506 6.3623L18.3949 7.5705L17.9022 7.70915L17.0763 4.80996L17.9153 4.57475C18.2028 4.49429 18.433 4.50543 18.607 4.60942C18.7811 4.71278 18.9058 4.89847 18.9819 5.16648ZM18.4873 5.33298C18.4492 5.19866 18.3862 5.11201 18.2983 5.07301C18.2103 5.03402 18.0962 5.03464 17.9558 5.07425L17.7038 5.14481L17.9259 5.92408L18.1367 5.86466C18.2976 5.81948 18.4055 5.75263 18.4611 5.66474C18.5166 5.57684 18.5253 5.46605 18.4873 5.33298Z" fill="black"/>
<path d="M20.0467 7.1762L19.5695 4.20088L20.0754 4.12103L20.5526 7.09636L20.0467 7.1762Z" fill="black"/>
<path d="M23.3389 6.98372L23.3832 5.65048L22.6353 5.62634L22.591 6.95958L22.0789 6.94286L22.1787 3.93164L22.6908 3.94835L22.6515 5.13984L23.3994 5.16398L23.4387 3.97249L23.9509 3.9892L23.851 7.00043L23.3389 6.98372Z" fill="black"/>
<path d="M24.8441 6.5498L24.6071 7.11181L24.0856 7.0134L25.4143 4.19714L25.9613 4.30051L26.1466 7.40272L25.6232 7.30369L25.6126 6.69525L24.8448 6.55042L24.8441 6.5498ZM25.5821 4.79815L25.0406 6.08496L25.6058 6.19142L25.5821 4.79815Z" fill="black"/>
<path d="M27.5737 7.90599L27.4614 5.76935L27.4577 5.76811L26.809 7.63303L26.3686 7.47581L27.3966 4.64099L27.8893 4.81677L27.9742 6.86304L27.9773 6.86428L28.6248 5.07921L29.0739 5.23952L28.0459 8.07434L27.5743 7.90599H27.5737Z" fill="black"/>
<path d="M30.8691 7.76362C30.6807 8.10033 30.5048 8.35472 30.3401 8.52741C30.1755 8.7001 30.0058 8.80037 29.8305 8.82884C29.6552 8.85731 29.4606 8.81213 29.2467 8.69453L28.457 8.26002L29.9291 5.62512L30.6851 6.04106C30.9034 6.16114 31.05 6.30412 31.1248 6.47062C31.1997 6.63712 31.214 6.8259 31.1679 7.03696C31.1217 7.24803 31.0219 7.49004 30.8697 7.76362H30.8691ZM29.1369 8.09166L29.382 8.2266C29.528 8.30706 29.6565 8.32811 29.7669 8.29035C29.8773 8.25259 29.9746 8.1777 30.0582 8.06629C30.1424 7.95487 30.2428 7.79395 30.3607 7.58288C30.5042 7.32663 30.5953 7.12609 30.6352 6.98188C30.6751 6.83766 30.672 6.72377 30.6271 6.64021C30.5815 6.55665 30.4917 6.47804 30.3576 6.40377L30.1449 6.28679L29.1369 8.09166Z" fill="black"/>
<path d="M31.0344 9.11664L30.5672 9.51153L30.1468 9.19029L32.6132 7.27277L33.0542 7.6101L31.8085 10.461L31.3868 10.1385L31.6544 9.59076L31.035 9.11726L31.0344 9.11664ZM32.4897 7.88368L31.4212 8.78921L31.8765 9.13768L32.4897 7.88368Z" fill="black"/>
<path d="M33.6299 9.7486L33.8402 9.64895L34.8114 9.20639L35.2268 9.61924L33.421 10.2995L32.5196 11.1926L32.1603 10.8355L33.0617 9.94233L33.7491 8.15045L34.1707 8.57011L33.7291 9.54249L33.6299 9.74922V9.7486Z" fill="black"/>
<path d="M33.774 11.6983L33.2201 11.9608L32.897 11.543L35.7769 10.3187L36.1156 10.7569L34.1738 13.1943L33.8495 12.7747L34.2499 12.3129L33.774 11.6977V11.6983ZM35.4993 10.8782L34.2318 11.4811L34.5818 11.9335L35.4987 10.8782H35.4993Z" fill="black"/>
<path d="M34.9037 14.5127L36.251 12.8415L36.2492 12.8384L34.5151 13.804L34.2911 13.3961L36.9578 11.9558L37.2079 12.412L35.9005 13.9965L35.9023 13.9996L37.5815 13.0928L37.8098 13.5088L35.1432 14.9491L34.9037 14.5121V14.5127Z" fill="black"/>
<path d="M35.3141 15.3959L38.1329 14.2756L38.3232 14.7479L35.5043 15.8682L35.3141 15.3959Z" fill="black"/>
</g>
<defs>
<clipPath id="clip0_1729_232">
<rect width="45" height="45" fill="white"/>
</clipPath>
</defs>
</svg>
