<svg width="215" height="180" viewBox="0 0 215 180" fill="none" xmlns="http://www.w3.org/2000/svg">
<g clip-path="url(#clip0_690_6316)">
<path d="M105.592 63.0771C152.313 63.0771 143.241 81.9407 137.432 89.8018C136.826 90.6209 138.059 91.7328 139.123 91.3279C151.503 86.6171 183.178 73.6586 201.292 96.1095C216.648 115.142 181.332 118.123 164.873 118.254C163.537 118.265 163.407 119.894 164.802 120.201C190.671 125.891 199.846 146.386 178.026 159.168C142.845 179.78 114.972 149.593 109.738 144.002C108.463 142.64 107.596 143.281 107.708 143.997C110.669 162.918 85.8521 173.259 51.161 158.729C25.3744 147.93 16.2755 124.163 62.7835 117.737C63.8954 117.584 63.1816 115.886 61.8935 115.833C22.7296 114.209 -2.42792 99.8983 19.2017 90.6278C33.0868 84.677 66.1466 86.5897 79.7389 91.2913C80.9309 91.7031 81.8026 90.6072 80.9378 89.7813C72.6923 81.9087 57.9492 63.0771 105.592 63.0771Z" fill="#D8DFE8"/>
<path d="M10.4023 64.5488C10.4023 64.5488 12.498 90.9921 13.0105 94.8083L103.681 94.6207V70.3463L10.4023 64.5488Z" fill="#803213"/>
<path d="M197.015 62.6387C197.015 62.6387 194.805 89.3199 194.292 93.1338L103.679 94.6186V70.3442L197.013 62.6387H197.015Z" fill="#803213"/>
<path d="M68.1504 31.6172C68.1504 31.6172 70.2301 56.4407 70.7403 60.2568H104.395V35.9825L68.1504 31.6195V31.6172Z" fill="#803213"/>
<path d="M138.311 31.8555C138.311 31.8555 136.128 56.441 135.616 60.2549H101.961V35.9805L138.311 31.8555Z" fill="#803213"/>
<path d="M29.2539 104.401C29.2539 104.401 31.5349 130.881 32.0451 134.697L92.969 134.235L103.681 109.961L29.2539 104.404V104.401Z" fill="#803213"/>
<path d="M178.639 102.491C178.639 102.491 176.349 129.882 175.836 133.696L115.057 134.233L104.345 109.959L178.639 102.493V102.491Z" fill="#803213"/>
<path d="M103.921 45.2188C161.777 45.2188 127.4 80.5253 127.4 80.5253C127.4 80.5253 178.001 54.8118 192.295 83.964C193.988 87.4187 194.508 90.5828 194.293 93.1338C194.235 93.8133 194.258 94.1793 194.082 94.8177C189.211 112.329 142.266 109.792 142.266 109.792C142.266 109.792 177.449 119.332 175.838 133.696C175.315 138.358 171.064 143.046 160.283 148.713C121.048 169.332 103.924 132.556 103.924 132.556C103.924 132.556 87.7346 166.913 49.3051 150.454C37.3533 145.336 32.6265 139.635 32.0477 134.695C30.4256 120.845 61.8976 109.792 61.8976 109.792C61.8976 109.792 15.3141 114.283 13.0102 94.8062C12.6488 91.7588 13.3923 88.3064 15.5475 83.964C29.936 54.9903 78.6197 80.5253 78.6197 80.5253C78.6197 80.5253 44.8712 45.2188 103.921 45.2188Z" fill="#803213"/>
<path d="M136.883 65.044C137.78 61.8295 137.879 58.5189 136.401 55.5447C136.247 55.2358 136.188 54.8881 136.22 54.5449C136.844 48.1503 137.714 38.516 138.105 34.1507C138.21 32.9633 137.201 31.9795 136.019 32.1145L103.435 35.8117C103.288 35.8278 103.142 35.8278 102.998 35.8117L70.4479 31.8926C69.2628 31.7508 68.247 32.73 68.3477 33.9197C68.7343 38.4886 69.6152 48.8092 70.2237 55.2335C70.2535 55.5561 70.2031 55.8833 70.0682 56.1784C68.6703 59.1916 68.8075 62.5113 69.7067 65.7029C70.0613 66.9589 69.0889 68.1944 67.7849 68.1143L12.5692 64.6848C11.4253 64.6138 10.485 65.5702 10.5765 66.7118C11.089 73.1042 12.5898 91.6611 13.0131 94.8092C13.8367 101.769 20.3137 105.668 28.2984 107.804C29.0671 108.01 29.6253 108.667 29.6963 109.459C30.3849 117.34 31.6799 131.939 32.0482 134.696C32.627 139.636 37.3538 145.337 49.3057 150.455C80.8235 163.953 97.3831 143.269 102.318 135.394C103.059 134.213 104.782 134.225 105.512 135.412C110.568 143.637 127.89 165.738 160.284 148.714C171.067 143.047 175.317 138.359 175.839 133.696C176.207 130.949 177.498 115.979 178.193 107.814C178.257 107.049 178.784 106.404 179.516 106.175C186.72 103.936 192.534 100.394 194.085 94.8184C194.261 94.1801 194.238 93.814 194.295 93.1345C194.716 89.991 196.29 71.3333 196.833 64.8541C196.929 63.6941 195.961 62.7263 194.801 62.8224L138.837 67.4417C137.526 67.5492 136.529 66.3137 136.883 65.0462V65.044Z" fill="#803213"/>
<path d="M75.4241 145.086C76.2455 147.535 74.9276 150.184 72.4796 151.005C70.0316 151.827 67.3822 150.509 66.5609 148.061C65.7395 145.613 67.7185 144.933 70.1666 144.112C72.6146 143.29 74.6028 142.638 75.4241 145.086Z" fill="#8B3916"/>
<path d="M81.0242 139.611C81.0242 141.002 79.8963 142.13 78.5053 142.13C77.1142 142.13 75.9863 141.002 75.9863 139.611C75.9863 138.22 77.1142 138.211 78.5053 138.211C79.8963 138.211 81.0242 138.22 81.0242 139.611Z" fill="#8B3916"/>
<path d="M20.3906 96.0131C20.3906 97.1502 19.4686 98.0722 18.3316 98.0722C17.1945 98.0722 16.2725 97.1502 16.2725 96.0131C16.2725 94.876 17.1945 94.8691 18.3316 94.8691C19.4686 94.8691 20.3906 94.876 20.3906 96.0131Z" fill="#8B3916"/>
<path d="M22.5692 93.0935C22.5692 93.821 21.979 94.4113 21.2514 94.4113C20.5239 94.4113 19.9336 93.821 19.9336 93.0935C19.9336 92.3659 20.5239 92.3613 21.2514 92.3613C21.979 92.3613 22.5692 92.3659 22.5692 93.0935Z" fill="#8B3916"/>
<path d="M82.5197 141.999C83.0276 142.561 82.9841 143.429 82.4213 143.936C81.8585 144.444 80.9914 144.401 80.4835 143.838C79.9756 143.275 80.4286 142.861 80.9891 142.351C81.5496 141.841 82.0095 141.434 82.5197 141.996V141.999Z" fill="#8B3916"/>
<path d="M96.1016 124.576C96.4859 125.23 95.9689 126.246 94.9462 126.845C93.9235 127.445 92.7842 127.401 92.3998 126.749C92.0154 126.097 92.8413 125.605 93.864 125.006C94.8867 124.406 95.7172 123.924 96.1016 124.578V124.576Z" fill="#8B3916"/>
<path d="M98.9513 125.356C99.4592 125.919 99.3746 126.825 98.7591 127.381C98.1437 127.937 97.2354 127.93 96.7252 127.37C96.215 126.809 96.7115 126.354 97.3269 125.798C97.9424 125.242 98.4411 124.796 98.9513 125.359V125.356Z" fill="#8B3916"/>
<path d="M151.287 136.688C151.287 138.15 150.102 139.335 148.64 139.335C147.178 139.335 145.993 138.15 145.993 136.688C145.993 135.226 147.178 135.217 148.64 135.217C150.102 135.217 151.287 135.226 151.287 136.688Z" fill="#8B3916"/>
<path d="M155.163 134.075C155.397 134.844 154.962 135.656 154.193 135.889C153.424 136.123 152.612 135.688 152.379 134.919C152.145 134.151 152.768 133.956 153.536 133.725C154.305 133.494 154.93 133.309 155.163 134.075Z" fill="#8B3916"/>
<path d="M188.859 84.5745C188.859 85.9243 187.765 87.0179 186.415 87.0179C185.065 87.0179 183.972 85.9243 183.972 84.5745C183.972 83.2246 185.065 83.2178 186.415 83.2178C187.765 83.2178 188.859 83.2246 188.859 84.5745Z" fill="#8B3916"/>
<path d="M193.35 79.8755C193.565 80.5847 193.165 81.3352 192.456 81.5502C191.747 81.7653 190.996 81.3649 190.781 80.6557C190.566 79.9464 191.14 79.768 191.85 79.5529C192.559 79.3378 193.135 79.1685 193.35 79.8778V79.8755Z" fill="#8B3916"/>
<path d="M132.741 144.795C132.741 146.509 131.352 148.63 129.641 148.63C127.93 148.63 126.541 147.241 126.541 145.53C126.541 143.818 128.003 144.303 129.641 143.807C131.458 143.258 132.741 143.084 132.741 144.795Z" fill="#8B3916"/>
<path d="M173.918 133.21C174.895 134.272 172.747 138.033 170.546 139.907C168.08 142.007 164.922 142.309 164.57 140.412C164.275 138.82 166.428 138.346 169.153 136.578C171.878 134.809 173.12 132.343 173.918 133.208V133.21Z" fill="#8B3916"/>
<path d="M39.4524 126.614C38.5578 128.064 41.8981 131.953 44.8746 133.637C48.2104 135.523 51.9487 135.163 51.9304 132.882C51.9167 130.967 49.3085 130.899 45.744 129.457C42.1818 128.016 40.1845 125.428 39.4524 126.614Z" fill="#8B3916"/>
<path d="M25.8633 87.441C25.3851 89.0975 31.2832 91.7994 35.7492 92.5064C40.7551 93.298 45.269 91.8269 44.2372 89.6557C43.3724 87.8323 40.0801 88.5552 34.9873 88.2555C29.8945 87.9558 26.2522 86.0889 25.861 87.441H25.8633Z" fill="#8B3916"/>
<path d="M168.744 101.096C168.79 102.818 175.228 103.61 179.699 102.933C184.709 102.173 188.567 99.4049 186.926 97.6456C185.549 96.1699 182.632 97.8538 177.688 99.1098C172.744 100.366 168.706 99.6886 168.744 101.096Z" fill="#8B3916"/>
<mask id="mask0_690_6316" style="mask-type:luminance" maskUnits="userSpaceOnUse" x="10" y="31" width="187" height="124">
<path d="M136.864 65.1096C137.777 61.8722 137.887 58.5319 136.393 55.5348C136.244 55.2351 136.184 54.8965 136.219 54.5624C136.848 48.1358 137.722 38.4306 138.111 34.0905C138.214 32.9374 137.232 31.9788 136.081 32.1092L103.427 35.8156C103.285 35.8316 103.143 35.8316 103.001 35.8156L70.3805 31.8896C69.2297 31.75 68.2391 32.7041 68.3374 33.8594C68.7218 38.3986 69.6095 48.797 70.2204 55.2511C70.2501 55.5645 70.2021 55.8826 70.0694 56.1685C68.6554 59.2091 68.8042 62.5586 69.7239 65.7776C70.0716 66.9994 69.1222 68.2005 67.8547 68.1204L12.5064 64.6817C11.3944 64.6131 10.4793 65.542 10.5685 66.6539C11.0764 72.989 12.5864 91.6535 13.0097 94.8108C13.8333 101.78 20.3286 105.681 28.3316 107.815C29.0774 108.014 29.6243 108.655 29.6906 109.426C30.3792 117.298 31.6765 131.938 32.0471 134.7C32.6259 139.639 37.3527 145.341 49.3046 150.459C80.9025 163.992 97.4644 143.167 102.354 135.338C103.074 134.183 104.756 134.183 105.467 135.345C110.466 143.513 127.797 165.79 160.283 148.718C171.065 143.051 175.316 138.363 175.838 133.7C176.206 130.948 177.501 115.939 178.194 107.781C178.259 107.037 178.766 106.41 179.48 106.188C186.701 103.949 192.53 100.405 194.084 94.8222C194.26 94.1839 194.237 93.8179 194.294 93.1384C194.715 89.9857 196.298 71.2159 196.836 64.7961C196.93 63.6682 195.99 62.7279 194.862 62.8217L138.772 67.4524C137.491 67.5576 136.516 66.3496 136.866 65.1141L136.864 65.1096Z" fill="white"/>
</mask>
<g mask="url(#mask0_690_6316)">
<path d="M103.928 17.8369C163.367 17.8369 128.049 54.1089 128.049 54.1089C128.049 54.1089 180.035 27.6931 194.72 57.6414C209.628 88.045 146.185 84.1762 146.185 84.1762C146.185 84.1762 207.267 102.921 162.059 126.678C121.751 147.862 103.928 110.425 103.928 110.425C103.928 110.425 87.2977 142.858 47.8158 125.951C1.10645 105.948 57.1732 84.1762 57.1732 84.1762C57.1732 84.1762 -3.23137 90.6052 13.1361 57.6414C27.9181 27.8738 77.9334 54.1089 77.9334 54.1089C77.9334 54.1089 43.2606 17.8369 103.926 17.8369H103.928Z" fill="#8B3916"/>
<path opacity="0.6" d="M104.347 94.04C105.028 100.08 105.131 106.2 105.227 112.27C105.287 122.401 105.15 132.456 104.347 142.582C102.445 134.645 102.059 126.432 102.038 118.305C102.123 110.186 102.672 101.997 104.347 94.04Z" fill="#68230C"/>
</g>
<path d="M103.927 13.7188C150.982 13.7188 138.653 36.4511 131.471 45.9229C130.723 46.9113 131.775 48.2497 132.915 47.7624C146.182 42.0839 182.777 29.1734 194.717 53.5255C206.25 77.0472 170.889 80.0558 154.29 80.2136C152.943 80.2274 152.625 82.0966 153.89 82.5587C168.665 87.9718 196.575 101.784 161.829 120.046C127.067 138.314 109.199 114.857 104.941 108.057C104.47 107.304 103.376 107.302 102.898 108.05C98.7248 114.552 81.6709 136.333 47.8172 121.835C11.0236 106.078 38.0022 89.2233 51.114 82.7783C52.2854 82.2018 51.8439 80.4378 50.5398 80.4836C35.3231 81.0281 0.181305 79.6165 13.1376 53.5255C25.1146 29.4067 60.2244 42.0518 73.1166 47.7212C74.2468 48.2177 75.3106 46.8953 74.5785 45.9C67.6051 36.4122 55.9438 13.7188 103.927 13.7188Z" fill="#FFDC65"/>
<path d="M96.4674 59.4341C96.2294 60.4407 94.8636 60.9807 93.4153 60.6375C91.9671 60.2943 90.8598 58.9422 91.0977 57.9355C91.3357 56.9288 92.8319 57.2949 94.2779 57.6381C95.7238 57.9813 96.7053 58.4274 96.4674 59.4341Z" fill="#FFC052"/>
<path d="M115.112 63.0093C115.35 64.0159 116.716 64.5559 118.164 64.2127C119.612 63.8695 120.719 62.5174 120.481 61.5107C120.243 60.504 118.747 60.8701 117.301 61.2133C115.855 61.5565 114.874 62.0026 115.112 63.0093Z" fill="#FFC052"/>
<path d="M100.561 66.3029C100.337 67.2478 99.2047 67.79 98.031 67.5132C96.8573 67.2363 95.9879 66.0055 96.2121 65.0606C96.4363 64.1157 97.6489 64.4131 98.8226 64.6922C99.9963 64.969 100.786 65.358 100.561 66.3052V66.3029Z" fill="#FFC052"/>
<path d="M109.515 56.6321C109.48 57.3437 108.478 57.8745 107.273 57.8173C106.067 57.7601 104.975 56.9799 105.008 56.2684C105.04 55.5568 106.289 55.6232 107.492 55.6804C108.696 55.7376 109.547 55.9206 109.512 56.6321H109.515Z" fill="#FFC052"/>
<path d="M120.191 67.9967C120.523 69.3946 122.419 70.145 124.428 69.6691C126.437 69.1932 127.979 67.3149 127.647 65.917C127.316 64.5191 125.238 65.027 123.229 65.5029C121.221 65.9788 119.859 66.5988 120.189 67.999L120.191 67.9967Z" fill="#FFC052"/>
<path d="M106.679 72.4308C106.903 73.3757 108.035 73.9179 109.209 73.6411C110.383 73.3643 111.252 72.1334 111.028 71.1885C110.804 70.2436 109.591 70.541 108.418 70.8201C107.244 71.0993 106.455 71.4859 106.679 72.4331V72.4308Z" fill="#FFC052"/>
<path d="M88.3893 64.9727C87.8334 66.0984 86.0717 66.3592 84.4542 65.5607C82.839 64.7599 81.8986 62.8587 82.4546 61.7354C83.0105 60.612 84.6784 61.4517 86.2936 62.2524C87.9089 63.0532 88.9453 63.8494 88.3871 64.9727H88.3893Z" fill="#FFC052"/>
<path d="M111.721 75.6249C112.044 76.9862 113.607 77.7847 115.21 77.4049C116.814 77.0251 117.986 75.2749 117.663 73.9113C117.34 72.55 115.684 72.9572 114.078 73.337C112.474 73.7168 111.399 74.2613 111.721 75.6249Z" fill="#FFC052"/>
<path d="M98.018 72.5545C97.5467 74.5449 95.2657 75.7072 92.9229 75.1535C90.5802 74.5998 88.8688 72.042 89.3401 70.0515C89.8114 68.0611 92.232 68.6582 94.5748 69.2142C96.9176 69.7678 98.4893 70.5663 98.018 72.5545Z" fill="#FFC052"/>
<path d="M174.137 99.4555C175.281 101.057 174.137 104.26 170.458 107.614C167.244 110.543 161.419 112.281 160.867 109.751C160.231 106.827 164.356 107.333 167.829 104.695C173.222 100.599 173.217 98.1697 174.137 99.4555Z" fill="#FFC052"/>
<path d="M28.9885 70.4376C27.9361 72.062 23.342 70.5772 20.1687 68.3442C16.6111 65.8436 14.3278 60.7576 16.6751 59.6663C18.645 58.7488 19.5785 62.4689 22.7906 65.418C26.0028 68.3671 29.8487 69.1106 28.9908 70.4376H28.9885Z" fill="#FFC052"/>
<path d="M51.0233 82.5936C51.8149 82.2298 51.7073 80.9715 50.8631 80.7656C50.6458 80.6992 50.2088 80.7564 49.9708 80.7587C43.4962 81.0401 36.9849 80.8205 30.5742 79.8161C18.0069 77.892 5.84683 71.7147 11.3675 57.0014C11.8296 55.7819 12.3696 54.5968 12.953 53.4346L13.3213 53.6176C12.5457 57.9737 11.6649 63.5035 13.9505 67.3311C17.03 72.6688 25.502 74.6752 31.2102 75.9656C37.4012 77.304 43.6655 78.162 49.9251 79.3219L50.4078 79.4111L50.4673 79.4226L50.4971 79.4272C51.8629 79.5095 52.8536 80.9738 52.1878 82.2138C51.9888 82.6096 51.6181 82.8704 51.2017 82.9619L51.021 82.5913L51.0233 82.5936Z" fill="#FFC052"/>
<path d="M194.924 53.4259C200.31 61.8338 198.704 69.9764 190.106 75.2065C179.522 81.338 166.71 82.0312 154.793 81.4684C154.699 81.4569 154.383 81.4524 154.296 81.4455C154.292 81.4455 154.282 81.4386 154.278 81.4318C154.271 81.4226 154.292 81.3952 154.28 81.3814C154.253 81.3448 154.189 81.4615 154.191 81.489C154.157 81.5759 154.367 81.6331 154.424 81.6629C154.616 81.7429 155.907 82.3057 156.131 82.4041C163.429 85.7444 174.043 90.4094 178.303 97.4469C181.652 103.089 179.294 108.79 175.127 113.153C172.121 116.313 168.431 118.786 164.701 120.982C162.988 121.991 161.132 122.954 159.352 123.847C158.664 124.162 157.268 124.805 156.579 125.119C151.052 127.478 145.06 129.04 138.988 129.228C138.27 129.214 136.968 129.226 136.252 129.194C135.682 129.157 134.474 129.061 133.909 129.022C133.149 128.942 132.342 128.789 131.582 128.692C130.96 128.583 129.889 128.338 129.28 128.219C121.751 126.414 114.908 122.026 109.914 116.194C107.777 113.743 105.974 111.048 104.478 108.179C104.178 107.717 103.462 107.722 103.091 108.172C103.011 108.275 102.86 108.291 102.762 108.209C102.677 108.138 102.656 108.019 102.707 107.925C102.993 107.376 103.631 107.056 104.258 107.152C104.736 107.202 105.155 107.53 105.427 107.923L105.649 108.211C112.163 116.58 121.589 123.03 132.239 124.252C132.641 124.277 133.877 124.405 134.305 124.437C134.799 124.46 135.908 124.483 136.377 124.503C137.007 124.494 138.162 124.455 138.8 124.437C139.397 124.391 140.605 124.281 141.221 124.231C151.651 122.845 162.398 118.257 170.927 111.829C172.329 110.703 173.732 109.454 174.825 108.038C179.749 102.064 176.244 96.2915 170.947 92.0887C166.358 88.4807 160.968 86.0121 155.461 84.1475L154.07 83.6945L153.722 83.5847C153.116 83.4177 152.564 83.0424 152.251 82.4522C151.416 80.8575 152.599 78.9609 154.401 78.9677C162.233 78.3431 170.083 77.3456 177.729 75.7395C180.502 75.1081 183.217 74.3485 185.83 73.2755C194.885 69.5691 197.992 63.7808 194.748 54.3227L194.517 53.6249V53.6158C194.474 53.4945 194.54 53.3664 194.659 53.3252C194.762 53.2909 194.874 53.3344 194.927 53.4236L194.924 53.4259Z" fill="#FFC052"/>
</g>
<defs>
<clipPath id="clip0_690_6316">
<rect width="195.071" height="152.563" fill="white" transform="translate(10 13.7188)"/>
</clipPath>
</defs>
</svg>
