<svg width="215" height="180" viewBox="0 0 215 180" fill="none" xmlns="http://www.w3.org/2000/svg">
<path d="M144.874 76.9733C141.333 78.4835 136.548 81.018 133.29 83.076C130.347 84.9354 127.041 87.4139 124.348 89.5857C123.949 89.9078 123.528 90.2705 123.129 90.6022C119.97 93.2273 116.862 96.2151 113.985 99.1468C111.903 101.267 110.046 103.612 107.888 105.657C107.87 106.064 104.78 109.454 104.229 110.131C103.723 110.752 103.056 111.395 102.603 111.962C100.022 115.196 97.3274 118.753 94.8798 122.132C94.5422 122.597 94.1989 123.087 93.8633 123.556C91.4677 126.908 88.993 130.525 86.7499 133.931C84.9541 136.658 83.0543 139.717 81.4264 142.547C81.2701 142.819 81.2103 142.819 80.8554 143.085C80.7841 143.494 80.8651 143.953 80.5989 144.354L75.7692 153.568C75.7364 153.803 75.9023 153.975 76.1125 154.041C76.3825 154.126 78.2419 154.259 78.7145 154.284C93.5123 155.08 107.739 149.836 119.16 140.639C133.44 129.14 139.983 113.81 148.776 98.2712C149.424 97.1274 153.295 90.3592 154.138 88.9917C156.079 85.8458 158.509 82.3103 161.028 79.6138C162.702 77.8219 169.48 73.4204 163.038 72.9285C157.836 72.5312 149.698 74.9152 144.874 76.9713V76.9733Z" fill="#5D911A"/>
<path d="M66.4285 150.82L66.7294 150.222C61.7299 140.067 60.9044 127.501 62.162 116.34C62.5767 112.655 64.5749 102.864 66.4594 99.8916C66.8625 99.257 67.7748 98.337 67.8519 99.6409C67.2154 101.842 66.361 104.23 65.9116 106.463C63.2479 119.668 63.3945 138.898 69.5937 151.011C69.8618 151.534 70.5793 152.812 71.0557 153.005C71.3662 153.133 73.7984 153.675 73.9508 153.582C74.4041 153.304 74.4735 151.946 74.678 151.449C76.4641 147.097 80.4914 142.784 80.6553 137.893C80.6688 137.501 80.4509 137.077 81.0623 137.191C81.6236 124.225 83.0818 111.194 83.3074 98.2425C83.5119 86.4767 83.3634 72.2402 81.2668 60.7021C79.9455 53.4382 77.5654 45.8734 74.2787 39.3193C74.055 38.8737 73.6017 37.3095 73.4493 37.0992C73.1311 36.6652 72.7299 36.5476 71.9198 36.698C70.3594 37.4503 71.0287 40.7852 70.9014 42.2897C68.502 70.8765 44.0949 95.3608 50.4773 125.801C52.8517 137.127 57.8723 143.612 66.4323 150.822L66.4285 150.82Z" fill="#5D911A"/>
<path d="M136.136 6.18066C135.831 7.52504 133.91 10.8387 132.568 11.0528C131.667 11.1956 128.87 9.99585 128.399 9.35163C127.676 8.36022 128.951 7.91852 129.024 6.99655C127.049 7.61377 126.141 8.09597 124.351 9.03144C124.195 11.4251 121.894 13.1938 120.358 14.7986C120.063 15.1053 119.861 15.626 119.554 15.9269C117.671 17.7709 116.37 16.8624 114.19 16.1507C113.775 16.5037 113.494 16.8875 113.173 17.1672C113.864 18.12 116.042 18.5212 116.005 19.8887C115.972 21.1367 112.223 26.3174 111.088 26.7784C109.3 27.5036 106.714 25.9105 105.044 25.3048C104.681 25.7041 104.239 26.0532 103.825 26.5257C104.856 27.2105 108.976 28.3485 109.111 29.6851C109.241 30.9504 105.331 36.9008 104.228 37.4042C103.124 37.9076 100.06 36.7041 98.8965 36.2392C98.1983 35.9615 97.2782 35.7647 96.9156 35.0684C96.4469 35.6857 95.9609 36.2604 95.4922 36.8989C97.0352 37.3271 102.046 38.8354 102.519 40.3495C102.93 41.6688 100.486 45.6518 99.6044 46.813C97.7643 49.2355 96.6899 49.0407 93.9125 48.1438C92.8266 47.7928 91.0945 47.1582 90.0626 46.7088C89.7617 46.5776 89.5341 46.35 89.3952 46.0549C88.9805 46.7223 88.5755 47.4263 88.1762 48.0898C89.8022 48.491 91.6288 49.0234 93.1641 49.7081C93.4785 49.8489 93.6559 50.0919 93.8874 50.2057C95.2472 50.875 96.6533 50.929 96.2598 53.0257C96.0534 54.1251 93.0831 59.8343 92.2306 60.386C91.2816 61.0032 89.4955 60.6657 88.4733 60.303C87.8194 60.0716 83.9849 58.3492 83.6242 58.0386C83.3831 57.8303 83.1941 57.3443 83.0977 57.0395C82.9414 57.2922 82.8257 57.5178 82.4882 57.4465C82.6791 58.0116 81.5566 60.0542 81.2692 60.7023C83.3677 72.2404 83.5162 86.477 83.3098 98.2427C83.0842 111.195 81.626 124.226 81.0647 137.191C81.0358 137.845 81.084 141.816 80.8622 143.091C81.0242 143.018 81.275 142.825 81.4331 142.553C83.061 139.722 84.9609 136.663 86.7566 133.937C86.5811 132.593 85.6148 133.104 85.1229 132.622C84.5269 132.035 85.393 127.736 85.5338 126.712C85.7324 125.246 86.3034 125.713 87.3893 124.309C89.3123 121.824 91.5381 122.955 93.87 123.562C94.2057 123.094 94.549 122.604 94.8865 122.139C93.4746 120.773 89.0461 120.191 88.4636 118.075C88.1608 116.971 90.1879 111.407 90.9402 110.358C91.7889 109.177 92.8439 108.527 94.3638 108.724L102.608 111.968C103.061 111.401 103.728 110.759 104.233 110.138C103.811 110.176 103.425 110.149 103.013 110.039C101.859 109.733 95.0485 107.1 94.5837 106.473C94.5239 106.392 93.8122 105.131 93.7775 105.044C93.0908 103.362 95.444 97.9534 96.7208 96.6167C97.7566 95.5327 98.4702 95.8008 99.8513 96.1133C101.537 96.4952 106.637 98.7326 107.991 99.7645C109.277 100.744 109.077 102.187 108.6 103.626C108.261 104.652 107.943 104.475 107.89 105.663C110.049 103.618 111.906 101.273 113.987 99.1531C113.538 97.9765 113.49 97.4153 113.754 96.1731C113.968 95.1682 115.88 90.0472 116.52 89.5843C118.223 88.3499 121.496 89.7251 123.134 90.6104C123.533 90.2787 123.954 89.9161 124.353 89.5939C124.343 89.1503 124.137 89.0288 123.795 88.8282C121.724 87.6111 117.822 87.3855 118.304 84.2511C118.522 82.8257 120.084 78.8987 120.891 77.6874C121.666 76.5224 122.902 76.397 124.202 76.6227C125.502 76.8484 131.792 79.4928 132.595 80.4282C132.689 80.5382 133.447 81.7302 133.47 81.8073C133.657 82.4265 132.926 82.6348 133.295 83.0842C136.553 81.0262 141.338 78.4917 144.879 76.9815C145.367 74.692 146.289 72.4719 146.964 70.221C151.237 55.9941 153.63 39.3716 150.712 24.6587C150.05 21.3257 148.922 16.9704 146.987 14.1775C146.989 14.4495 146.706 16.9608 146.592 16.982C145.244 17.252 143.224 15.572 143.242 14.2373C143.253 13.2903 143.868 11.4714 144.065 10.4607C143.394 9.77596 143.186 9.60816 142.439 9.03723C141.891 10.0074 141.654 13.7185 140.815 14.2257C139.965 14.7426 135.985 13.0569 135.631 12.2892C135.083 11.0972 137.49 7.92238 137.764 6.59729C137.114 6.40441 136.871 6.29639 136.138 6.19031L136.136 6.18066Z" fill="#F49D0B"/>
<path d="M77.6059 168.923C74.0048 168.592 69.1847 166.497 66.4265 164.146C64.1312 162.192 64.0927 160.739 65.0069 157.939C61.9401 158.469 52.8304 161.561 52.0376 164.807C51.7638 165.932 52.9249 167.261 53.7331 167.903C62.2468 174.671 89.2404 174.203 100.057 173.799C111.418 173.375 124.399 172.281 135.277 168.979C139.059 167.832 150.482 163.627 142.578 159.123C137.138 156.024 124.086 154.754 117.744 154.689C117.401 154.685 116.84 154.818 116.629 154.482C108.669 159.272 100.123 160.55 90.9127 160.186C89.8711 160.145 87.5489 159.559 86.6944 159.814C85.8862 160.055 84.8331 162.933 84.3509 163.773C83.0933 165.965 81.3998 169.045 78.5085 169.136C78.0707 169.149 77.8296 168.945 77.6097 168.925L77.6059 168.923Z" fill="#D8DFE8"/>
<path d="M150.564 95.0791C149.683 96.5296 149.423 97.1275 148.776 98.2732C139.983 113.812 133.441 129.142 119.16 140.641C107.739 149.838 93.5124 155.082 78.7146 154.286C78.2421 154.261 76.3827 154.126 76.1127 154.043C75.9024 153.977 75.7366 153.806 75.7693 153.57L80.599 144.356C80.8672 143.957 80.7842 143.498 80.8556 143.087C81.0793 141.814 81.0311 140.898 81.0581 139.629C81.062 139.488 81.0504 139.268 81.0581 139.019C81.0774 138.408 81.0292 137.843 81.0581 137.189C80.4447 137.075 80.6646 137.499 80.6511 137.891C80.4872 142.782 76.4598 147.095 74.6738 151.447C74.4693 151.942 74.3999 153.302 73.9466 153.58C73.7942 153.672 71.362 153.13 71.0515 153.003C70.5751 152.808 69.8576 151.53 69.5894 151.009C63.3903 138.896 63.2418 119.668 65.9074 106.461C66.3587 104.227 67.2112 101.842 67.8477 99.6388C67.7706 98.3349 66.8583 99.255 66.4551 99.8896C64.5707 102.862 62.5744 112.652 62.1578 116.338C60.9002 127.499 61.7257 140.067 66.7252 150.22L66.4243 150.818C66.5998 150.964 67.3077 151.562 67.3405 151.63C67.9403 152.808 66.1176 154.648 66.2198 155.904L67.7417 153.464C68.436 154.047 69.4294 154.647 70.2414 155.03C71.5395 155.642 73.4991 156.444 74.8512 156.926C77.3259 157.808 80.1014 158.574 82.6822 158.955L77.5998 168.922C77.8216 168.943 78.0627 169.145 78.4986 169.132C81.3899 169.039 83.0834 165.961 84.3409 163.77C84.8231 162.929 85.8763 160.053 86.6844 159.81C87.537 159.555 89.8592 160.142 90.9027 160.182C100.113 160.545 108.659 159.268 116.619 154.479C134.974 143.432 140.099 121.272 147.359 102.758C148.371 100.173 149.679 97.1082 150.559 95.0791H150.564Z" fill="#4A7F13"/>
<path d="M77.6061 168.923L82.6885 158.957C80.1058 158.575 77.3322 157.809 74.8575 156.928C73.5055 156.446 71.5477 155.643 70.2477 155.032C69.4337 154.648 68.4423 154.046 67.748 153.466L66.2261 155.906C65.8442 155.861 65.1576 157.48 65.0071 157.941C64.0929 160.741 64.1334 162.194 66.4267 164.148C69.1868 166.499 74.005 168.593 77.6061 168.925V168.923Z" fill="#5D911A"/>
<path d="M83.0928 56.4281C83.141 56.5882 83.0426 56.8813 83.0928 57.0376C83.1892 57.3423 83.3782 57.8284 83.6193 58.0367C83.98 58.3472 87.8145 60.0697 88.4683 60.3011C89.4925 60.6637 91.2767 61.0013 92.2257 60.384C93.0763 59.8305 95.9965 54.1116 96.2549 53.0237C96.6407 51.3958 96.2549 50.8172 93.354 49.7062C91.7839 49.1044 89.7992 48.4891 88.1732 48.0879C88.1154 48.1824 83.0928 56.4281 83.0928 56.4281Z" fill="#FABE24"/>
<path d="M95.4893 36.8984C93.2519 39.9517 91.3791 42.8604 89.3924 46.0525C89.5313 46.3496 89.7569 46.5752 90.0597 46.7064C91.0936 47.1558 92.8237 47.7904 93.9096 48.1414C96.6871 49.0383 97.7614 49.2331 99.6015 46.8106C100.485 45.6494 102.929 41.6664 102.516 40.3471C102.043 38.833 97.0324 37.3247 95.4893 36.8965V36.8984Z" fill="#FABE24"/>
<path d="M96.9124 35.0671C97.275 35.7634 98.1951 35.9582 98.8933 36.2379C100.058 36.7027 103.139 37.9005 104.224 37.4029C105.31 36.9053 109.237 30.9491 109.108 29.6838C108.973 28.3471 104.853 27.2091 103.821 26.5244C101.264 29.4234 99.2192 32.0273 96.9124 35.069V35.0671Z" fill="#FABE24"/>
<path d="M105.041 25.3027C106.711 25.9083 109.298 27.5015 111.086 26.7763C112.22 26.3172 115.968 21.1345 116.002 19.8866C116.039 18.5191 113.861 18.1179 113.171 17.165C109.963 19.9792 107.876 22.1799 105.041 25.3027Z" fill="#FABE24"/>
<path d="M137.761 6.58689C137.487 7.91198 135.08 11.0887 135.628 12.2788C135.981 13.0465 139.96 14.7323 140.812 14.2153C141.65 13.7081 141.887 9.99702 142.437 9.02683C140.701 7.69788 139.916 7.2234 137.763 6.58496L137.761 6.58689Z" fill="#FABE24"/>
<path d="M114.188 16.1485C116.367 16.8583 117.669 17.7687 119.552 15.9248C119.858 15.6239 120.447 15.105 120.742 14.7964C122.279 13.1917 124.194 11.4229 124.349 9.0293C120.516 11.0314 117.503 13.3325 114.188 16.1485Z" fill="#FABE24"/>
<path d="M129.022 6.99414C128.951 7.91612 127.674 8.35781 128.397 9.34922C128.868 9.99537 131.665 11.1932 132.566 11.0504C133.908 10.8383 135.831 7.52457 136.134 6.17826C133.169 5.74813 131.786 6.12618 129.02 6.99222L129.022 6.99414Z" fill="#FABE24"/>
<path d="M144.061 10.4521C143.862 11.4628 143.249 13.2817 143.237 14.2288C143.22 15.5616 145.239 17.2435 146.588 16.9735C146.983 16.8693 147.112 14.9964 147.11 14.7245C147.099 13.492 144.935 11.3433 144.063 10.4521H144.061Z" fill="#FABE24"/>
<path d="M74.7555 37.8183C75.6562 38.8715 78.642 44.4747 78.7944 44.7601C80.7676 48.4403 81.8901 52.4541 83.0918 56.4275C83.14 56.5876 83.14 56.7959 83.0918 57.037C82.9471 57.5674 81.5507 60.0517 81.2633 60.6979C79.942 53.434 74.2675 39.2437 73.6889 38.2793C72.9733 37.0873 72.5316 36.9292 71.9144 36.6938C73.1912 36.0786 73.9589 36.8848 74.7555 37.8164V37.8183Z" fill="#4A7F13"/>
<path d="M104.23 110.133C104.781 109.456 107.869 106.065 107.889 105.658C107.941 104.472 108.259 104.65 108.598 103.622C109.075 102.183 109.275 100.74 107.989 99.76C106.635 98.7281 101.535 96.4907 99.8493 96.1088C98.4683 95.7963 97.7547 95.5282 96.7189 96.6122C95.442 97.9489 93.0889 103.357 93.7755 105.039C93.8103 105.126 94.522 106.387 94.5818 106.468C95.0485 107.095 101.859 109.728 103.011 110.035C103.423 110.145 103.809 110.172 104.232 110.133H104.23Z" fill="#FABE24"/>
<path d="M124.348 89.5861C127.041 87.4143 130.347 84.9358 133.29 83.0764C132.922 82.627 133.653 82.4187 133.466 81.7995C133.443 81.7204 132.685 80.5304 132.59 80.4204C131.788 79.4849 125.54 76.8483 124.198 76.6149C122.856 76.3815 121.662 76.5126 120.886 77.6796C120.08 78.8928 118.52 82.8199 118.3 84.2433C117.817 87.3796 121.719 87.6052 123.791 88.8204C124.132 89.021 124.339 89.1425 124.348 89.5861Z" fill="#FABE24"/>
<path d="M94.8806 122.134C97.3282 118.753 100.023 115.198 102.604 111.964L94.3598 108.719C92.8399 108.523 91.7849 109.174 90.9362 110.353C90.182 111.402 88.1548 116.967 88.4596 118.07C89.0421 120.188 93.5594 121.797 94.8825 122.134H94.8806Z" fill="#FABE24"/>
<path d="M86.7499 133.935C88.9931 130.529 91.4677 126.912 93.8633 123.56C91.6259 122.571 88.2042 120.733 86.3757 123.288C85.6466 124.307 85.446 125.263 85.1412 126.71C84.8751 127.971 83.8933 132.012 84.4893 132.6C84.9792 133.083 85.8395 133.372 86.7499 133.935Z" fill="#FABE24"/>
<path d="M113.983 99.147C116.862 96.2152 119.97 93.2275 123.127 90.6024C121.489 89.717 118.216 88.3418 116.513 89.5762C115.873 90.0392 113.961 95.1621 113.747 96.1651C113.483 97.4091 113.531 97.9704 113.981 99.1451L113.983 99.147Z" fill="#FABE24"/>
<path d="M113.306 87.2132C112.28 86.16 105.826 83.4597 104.31 83.3016C102.589 83.1222 102.254 83.3806 101.295 84.7173C100.448 85.8997 98.6662 90.143 98.5427 91.5414C98.4714 92.3631 99.5091 93.5512 100.178 93.9447C101.517 94.7317 106.796 96.8649 108.243 97.0597C108.839 97.1408 109.554 97.2005 110.133 97.0212C111.732 96.5274 114.141 90.0659 113.983 88.4843C113.952 88.1756 113.526 87.4388 113.304 87.2132H113.306Z" fill="#FABE24"/>
<path d="M94.9245 65.0186C92.6388 64.7698 91.4623 67.366 90.6367 69.1655C90.008 70.5369 88.9683 72.7512 89.6415 74.1804C90.2799 75.5306 94.5754 77.2299 96.0451 77.7391C97.5727 78.2657 100.138 79.2956 101.469 77.9744C102.638 76.8152 104.686 71.6441 104.64 70.5755C104.586 69.3391 104.065 68.8704 103.074 68.2629C101.594 67.3544 96.5447 65.196 94.9245 65.0186Z" fill="#FABE24"/>
<path d="M109.764 70.7219C108.574 70.5638 107.55 70.6718 106.79 71.7075C106.148 72.5813 103.882 77.7486 103.835 78.7188C103.787 79.7121 104.304 80.5415 105.104 81.0835C106.248 81.8589 112.199 84.3374 113.495 84.4859C114.293 84.5785 114.808 84.5418 115.418 84.0018C116.484 83.0586 118.483 78.306 118.807 76.817C119.092 75.5092 118.554 74.6779 117.541 73.9238C116.517 73.1619 111.032 70.8897 109.768 70.7219H109.764Z" fill="#FABE24"/>
<path d="M90.0557 77.4296C89.2707 77.3042 88.0652 77.2849 87.3766 77.6996C86.688 78.1143 85.3495 80.4887 85.3514 81.3258C85.3552 82.89 85.3958 85.2933 85.5366 86.8364C85.5867 87.388 85.6619 88.4007 86.1981 88.6167C88.2253 89.1934 90.4029 90.4259 92.3973 90.9544C96.037 91.9188 96.7197 89.9495 98.0757 86.9849C98.3515 86.3812 99.1906 84.4717 99.3121 83.9509C99.5705 82.8302 99.2947 81.7964 98.4441 81.0384C97.5935 80.2804 91.2767 77.6244 90.0596 77.4296H90.0557Z" fill="#FABE24"/>
<path d="M101.432 53.0237C100.321 52.8733 98.9767 53.043 98.2457 53.9997C97.4935 54.9853 95.2194 59.4929 95.0979 60.6194C95.0092 61.441 95.2889 62.2608 95.9119 62.8221C96.8724 63.6862 102.817 66.1724 104.144 66.3904C106.686 66.8089 107.913 63.8386 108.812 61.931C109.792 59.8556 111.149 57.5236 108.682 55.9382C107.791 55.3653 102.422 53.1568 101.432 53.0237Z" fill="#FABE24"/>
<path d="M120.627 71.4176C120.974 71.1013 121.703 69.5062 121.946 68.9757C122.4 67.9843 123.74 64.7536 123.75 63.8393C123.758 63.1797 123.376 62.6685 122.934 62.2172C121.981 61.247 115.888 58.7048 114.495 58.6528C113.282 58.6065 112.565 58.9266 111.874 59.9084C111.247 60.8014 109.604 64.4681 109.367 65.5367C108.983 67.2591 109.203 67.9226 110.792 68.8793C111.732 69.4444 117.404 71.786 118.349 71.8921C119.024 71.9692 120.114 71.8882 120.629 71.4176H120.627Z" fill="#FABE24"/>
<path d="M128.672 64.2081C127.055 63.9593 126.203 64.2968 125.36 65.6779C124.725 66.7175 123.13 70.8606 123.115 71.9908C123.082 74.3749 125.036 74.7722 126.855 75.5861C128.299 76.2323 132.383 78.0319 133.767 77.5516C133.864 77.5188 134.797 76.4001 134.888 76.2342C135.555 75.0229 136.853 70.2433 136.902 68.8758C136.963 67.1264 135.233 66.7869 133.835 66.1581C132.626 65.6161 129.86 64.3933 128.67 64.21L128.672 64.2081Z" fill="#FABE24"/>
<path d="M101.902 50.6163C102.844 51.6039 108.244 53.9686 109.625 54.1769C110.796 54.3544 111.469 54.2406 112.241 53.361C113.122 52.3523 115.738 46.1897 114.66 44.8685C113.664 43.6476 109.303 41.9734 107.772 41.5914C105.955 41.1382 104.977 41.6358 103.824 43.1056C103.11 44.014 100.926 48.132 101.019 49.1582C101.087 49.9085 101.476 50.1689 101.904 50.6183L101.902 50.6163Z" fill="#FABE24"/>
<path d="M125.421 59.3234C126.733 57.3753 127.066 56.4629 127.757 54.6518C128.544 52.5918 129.454 51.1221 127.136 49.6716C126.21 49.093 120.89 46.8903 119.974 46.8594C117.559 46.7765 116.539 49.3128 115.708 51.1356C114.977 52.7403 113.734 54.7 115.117 56.2122C115.949 57.1207 122.788 59.8615 124.046 59.8557C125.176 59.8499 125.192 59.6686 125.421 59.3272V59.3234Z" fill="#FABE24"/>
<path d="M133.543 52.0052C131.693 51.7564 131.113 52.0611 130.156 53.5964C129.514 54.6264 127.868 58.7213 127.88 59.8207C127.888 60.5884 128.47 61.52 129.037 62.008C129.882 62.739 136.205 65.2465 137.161 65.0922C138.554 64.8684 139.732 60.3492 140.105 59.0781C140.28 58.4783 140.878 55.9882 140.778 55.5523C140.502 54.3468 134.795 52.173 133.543 52.0052Z" fill="#FABE24"/>
<path d="M125.824 35.5236C124.995 35.1937 124.416 35.1937 123.727 35.566C122.389 36.2854 119.662 42.1664 119.955 43.6207C120.182 44.7452 121.965 45.4974 122.929 45.9488C124.873 46.8592 129.624 49.0831 130.731 46.647C131.194 45.6286 132.509 42.338 132.783 41.175C133.057 40.0061 133.096 39.0552 132.382 38.5209C131.682 37.9982 126.694 35.8707 125.824 35.5255V35.5236Z" fill="#FABE24"/>
<path d="M113.629 30.641C111.265 30.2321 110.512 31.6054 109.347 33.3779C108.298 34.9711 106.456 37.7506 107.883 39.4441C108.46 40.1288 112.96 41.9419 114.027 42.2447C115.531 42.6709 116.729 43.0046 117.844 41.6795C118.534 40.8579 120.498 37.0832 120.752 36.0493C121.042 34.8728 120.949 34.215 119.977 33.4416C119.238 32.8552 114.547 30.8011 113.629 30.6429V30.641Z" fill="#FABE24"/>
<path d="M144.22 43.451C144.091 43.1038 143.898 42.718 143.038 42.3284C141.695 41.7208 137.257 39.7785 135.992 40.3012C134.89 40.7564 133.758 43.8927 133.399 45.0442C132.283 48.626 131.876 49.357 135.477 50.8846C136.395 51.2742 140.193 52.7362 140.937 52.7555C142.28 52.7903 142.87 50.6994 143.236 49.6019C143.589 48.5449 144.544 44.3209 144.22 43.4529V43.451Z" fill="#FABE24"/>
<path d="M120.54 20.4689C118.835 20.1718 118.425 20.5151 117.333 21.6377C116.123 22.8837 113.016 27.0519 114.386 28.6624C114.914 29.2854 119.345 31.195 120.228 31.3589C123.09 31.8874 123.619 30.4254 124.788 28.2882C125.712 26.6005 127.424 23.9407 125.434 22.4864C125.019 22.1836 121.075 20.5634 120.539 20.4708L120.54 20.4689Z" fill="#FABE24"/>
<path d="M130.494 24.94C129.451 24.7877 128.476 25.2274 127.832 26.0433C127.337 26.6702 125.483 30.7728 125.377 31.5211C125.273 32.2579 125.331 32.9022 125.873 33.4403C126.611 34.1713 132.189 36.374 133.144 36.2467C133.453 36.2062 134.068 35.8089 134.317 35.5871C135.017 34.9602 136.549 31.1566 136.901 30.2404C137.146 29.602 137.146 28.8304 136.907 28.2942C136.354 27.0637 131.794 25.1291 130.494 24.94Z" fill="#FABE24"/>
<path d="M85.7352 90.6045C85.768 92.597 85.6947 102.471 85.9705 103.284C86.1113 103.703 88.7268 104.457 89.236 104.399C90.5745 104.249 91.3615 103.059 91.9131 101.977C92.4204 100.983 93.7802 97.5366 93.9731 96.5144C94.0715 95.9974 94.1718 95.3185 94.0233 94.8151C93.5256 93.1486 87.4325 91.0963 85.7352 90.6045Z" fill="#FABE24"/>
<path d="M141.676 29.016C140.313 28.8038 139.458 29.0199 138.735 30.2466C138.334 30.9275 137.14 34.2431 136.995 35.0146C136.511 37.5896 137.442 38.2569 139.593 39.2348C140.569 39.6785 144.336 41.2466 144.965 40.1452C145.246 39.6322 146.404 31.7241 145.846 31.1435C145.632 30.426 142.434 29.1337 141.674 29.016H141.676Z" fill="#FABE24"/>
<path d="M135.578 14.5684C132.841 14.1286 132.459 16.6361 131.51 18.5359C130.86 19.836 129.715 21.6645 131.044 22.9761C131.904 23.8247 136.078 25.5298 137.25 25.2983C138.747 25.0032 139.854 20.6036 140.142 19.2419C140.313 18.4299 140.684 17.4558 140.117 16.7441C139.69 16.2079 136.302 14.686 135.58 14.5703L135.578 14.5684Z" fill="#FABE24"/>
<path d="M127.244 11.1059C125.786 10.886 124.983 12.1166 124.04 13.0925C123.049 14.1187 120.626 16.7149 120.709 18.0959C120.765 19.0584 125.523 20.9621 126.486 21.0354C128.524 21.1916 129.661 18.4681 130.42 16.8344C130.65 16.3387 131.447 14.6144 131.474 14.2113C131.497 13.8795 131.487 13.6153 131.354 13.3028C131.094 12.6933 127.959 11.2139 127.244 11.1059Z" fill="#FABE24"/>
<path d="M83.5007 60.293L84.7178 73.108C86.7643 73.5207 87.7711 71.0461 88.5504 69.5185C88.9631 68.7084 90.0066 66.6156 90.157 65.8383C90.8437 62.2777 86.1316 61.0375 83.5007 60.293Z" fill="#FABE24"/>
<path d="M144.514 18.241C143.366 18.241 142.705 18.0577 142.153 19.2227C141.65 20.2855 140.452 24.9436 140.62 26.0044C140.79 27.0807 142.836 27.9641 143.818 28.2958C144.04 28.3711 145.056 28.6372 145.783 28.5832C146.393 28.5369 146.456 27.2003 146.501 26.6255C146.615 25.1094 146.815 23.3909 146.879 21.9578C146.979 19.7126 147.371 18.2429 144.516 18.2429L144.514 18.241Z" fill="#FABE24"/>
<path d="M85.9461 105.869C85.7108 106.094 85.0936 116.643 85.8381 116.847C86.2586 116.963 86.7755 115.115 87.0532 114.809C87.6145 112.633 89.4199 110.095 88.982 107.797C88.8432 107.072 86.4283 105.404 85.9461 105.869Z" fill="#FABE24"/>
</svg>
