<svg width="200" height="180" viewBox="0 0 200 180" fill="none" xmlns="http://www.w3.org/2000/svg">
<path opacity="0.1" d="M25.5591 97.8522C9.63022 115.302 16.7113 125.947 24.5311 132.404C24.5311 132.404 32.2872 155.301 62.7599 155.283C62.7599 155.283 80.3733 173.309 110.834 164.192C110.834 164.192 140.982 173.895 150.386 157.234C150.386 157.234 163.173 156.339 170.308 150.409C179.964 142.384 177.03 132.431 177.059 132.404C184.135 126.025 189.684 108.335 173.256 93.3237C145.137 67.6258 52.5517 68.2783 25.555 97.8522H25.5591Z" fill="black"/>
<path d="M18.7878 83.9004C17.5567 107.497 18.7878 110.37 24.7383 117.141C24.7383 117.141 26.7902 141.148 55.8532 141.128C55.8532 141.128 68.4436 160.026 99.616 150.47C99.616 150.47 126.1 160.643 138.957 143.175C138.957 143.175 151.359 142.238 159.546 136.021C170.626 127.608 170.152 117.172 170.187 117.143C178.423 110.456 179.449 106.063 178.218 84.518L18.7858 83.9024L18.7878 83.9004Z" fill="#3E9219"/>
<path d="M55.7116 141.147C51.8376 137.177 51.9279 129.417 55.7116 125.344L55.9968 125.372C55.927 126.686 55.849 127.997 55.806 129.31C55.6787 132.587 55.6767 135.87 55.8593 139.145C55.8901 139.799 55.9311 140.456 55.9968 141.104L55.7136 141.147H55.7116Z" fill="#25730F"/>
<path d="M24.5942 117.142C21.9883 113.484 21.697 108.282 23.2051 104.119C23.7181 102.804 24.7892 100.629 26.285 100.206L26.4758 100.422C26.0511 100.91 25.9321 101.675 25.7966 102.311C25.6633 102.999 25.573 103.698 25.4991 104.4C25.2078 107.215 25.1093 110.053 25.0128 112.883L24.8836 117.138L24.5963 117.142H24.5942Z" fill="#25730F"/>
<path d="M99.7597 134.678C103.742 138.607 103.864 146.608 99.7597 150.492L99.4766 150.44C99.5484 149.786 99.6489 149.14 99.6879 148.483C99.7474 147.923 99.8049 147.094 99.8336 146.521C100.006 143.244 99.9075 139.955 99.6489 136.685C99.6038 136.03 99.5484 135.371 99.4766 134.721L99.7597 134.676V134.678Z" fill="#25730F"/>
<path d="M139.17 127.377C143.149 131.304 143.274 139.344 139.17 143.224L138.887 143.173C138.959 142.518 139.059 141.868 139.098 141.211C139.158 140.651 139.215 139.818 139.244 139.245C139.414 135.962 139.318 132.667 139.059 129.388C139.014 128.731 138.959 128.073 138.887 127.42L139.17 127.375V127.377Z" fill="#25730F"/>
<path d="M170.359 100.698C173.968 104.886 173.732 112.874 170.361 117.144L170.073 117.136C170.061 116.11 170.057 114.056 170.067 113.03C170.084 109.802 170.156 105.98 170.135 102.779C170.133 102.102 170.135 101.404 170.078 100.75L170.361 100.698H170.359Z" fill="#25730F"/>
<path d="M28.6291 69.8008C28.6291 69.8008 7.80649 81.08 26.4377 100.239C26.4377 100.239 28.2269 121.037 55.8536 125.358C55.8536 125.358 72.3426 142.173 99.6164 134.7C99.6164 134.7 123.022 142.789 138.957 127.406C138.957 127.406 166.728 125.142 170.187 100.881C170.187 100.881 189.828 84.8781 168.137 70.3917L28.627 69.8049L28.6291 69.8008Z" fill="#76BA2C"/>
<path d="M43.0002 111.19C44.9454 112.407 47.5143 128.221 70.0852 124.732C72.5187 124.357 74.8045 123.091 76.2408 125.348C79.056 129.772 83.3199 131.555 91.63 132.324C102.71 133.35 109.272 129.222 110.713 129.041C112.354 128.836 124.148 133.125 135.335 126.989C141.696 123.501 142.066 119.315 143.543 119.397C150.93 119.808 160.471 116.272 163.446 108.933C166.524 101.341 165.045 100.662 166.67 99.1822C170.833 95.3903 173.911 90.0553 171.33 74.6025L26.3778 72.6143C26.3778 72.6143 23.9935 75.8604 24.5311 81.2322C25.1467 87.3879 27.4119 87.9378 27.1985 89.645C26.9852 91.3521 26.3922 97.1405 30.0712 103.393C34.175 110.369 39.7151 109.138 42.9981 111.19H43.0002Z" fill="#3E9219"/>
<path d="M26.7324 84.7146C26.7324 84.7146 28.9136 83.8754 29.3917 93.8291L38.896 57.5024L34.5871 56.6406L26.7324 79.667V84.7146Z" fill="#3E9219"/>
<path d="M40.8741 107.547V100.202L46.2809 78.3818L50.3846 78.8127L45.4724 110.01C45.4724 110.01 44.6989 106.361 40.8721 107.547H40.8741Z" fill="#3E9219"/>
<path d="M108.41 124.696C108.931 116.094 107.71 106.631 108.408 98.1319C108.439 97.7502 108.894 94.42 110.037 95.5691C110.743 96.279 112.021 105.016 112.218 106.709L113.312 125.266C112.116 124.866 109.762 124.821 108.412 124.696H108.41Z" fill="#3E9219"/>
<path d="M72.4756 121.842C73.0686 114.765 73.7088 101.06 77.1457 95.0438C78.2599 93.0945 79.8378 92.0419 79.5423 95.2695C78.8221 103.163 76.1957 114.079 77.3755 121.842C75.8161 121.148 74.0986 121.55 72.4756 121.842Z" fill="#3E9219"/>
<path d="M145.435 116.128C143.805 116.159 142.164 116.106 140.535 116.128C141.275 107.876 137.658 98.8638 136.297 91.1549C135.627 87.3486 139.242 91.8833 139.894 93.1C143.184 99.2352 144.858 109.14 145.437 116.128H145.435Z" fill="#3E9219"/>
<path d="M166.67 96.1394C165.39 97.0443 164.474 97.6783 162.86 97.8527C162.683 91.2559 160.41 83.114 157.892 77.0773C157.12 75.2245 155.348 73.9318 155.783 71.5844C156.776 70.3676 160.781 76.8906 161.156 77.6498C163.914 83.2084 165.102 90.1233 166.668 96.1415L166.67 96.1394Z" fill="#3E9219"/>
<path d="M45.4624 34.0384C44.933 35.3536 156.966 43.0606 156.728 40.2372C157.945 40.1941 159.416 42.088 160.04 42.8431C166.237 50.3673 168.888 59.4223 171.572 68.7277C171.758 69.3781 174.387 90.6891 166.672 96.141C165.104 90.1228 163.916 83.2079 161.16 77.6493C160.785 76.8901 156.78 70.3671 155.786 71.5839C155.352 73.9292 157.122 75.224 157.896 77.0768C160.411 83.1156 162.685 91.2575 162.863 97.8523C163.173 109.404 156.123 115.921 145.441 116.128C144.864 109.138 143.188 99.2352 139.899 93.1001C139.246 91.8812 135.631 87.3486 136.302 91.1549C137.662 98.8659 141.28 107.878 140.539 116.128C140.009 122.032 131.275 126.989 126.104 127.543C122.234 127.958 118.321 127.551 114.615 126.445C113.76 126.191 113.396 125.292 113.314 125.266L112.221 106.708C112.024 105.015 110.745 96.2764 110.04 95.5685C108.897 94.4194 108.443 97.7497 108.41 98.1313C107.713 106.63 108.934 116.094 108.412 124.695C104.009 133.204 78.6866 130.463 77.3775 121.839C76.1997 114.077 78.8261 103.16 79.5443 95.2669C79.8377 92.0372 78.2619 93.0898 77.1477 95.0412C73.7108 101.057 73.0706 114.762 72.4776 121.839C69.0284 122.459 67.6331 122.99 63.7652 122.982C57.2669 122.965 51.0784 119.13 46.9007 113.469C45.606 111.715 45.1977 109.099 45.2531 107.56C45.4808 101.219 47.9923 90.1864 48.8254 82.4569C49.1558 79.3893 47.9493 79.851 46.7776 82.0322C42.9262 89.2076 42.1711 99.5553 40.8764 107.545C25.44 103.419 28.4337 85.2885 32.1661 72.9874C32.7591 71.034 38.1966 59.0099 37.6262 58.4477C37.5031 58.3246 36.3663 58.2589 35.958 58.8027C34.852 60.278 32.3856 65.2908 31.5464 67.199C29.1683 72.6099 27.6088 78.8517 26.7327 84.7119C26.7327 84.7119 25.6554 83.3023 25.1486 80.3845C24.1227 74.4566 24.7813 72.733 25.1486 70.3528C25.6062 67.3857 29.671 57.1406 30.6887 55.1442C34.9998 46.6945 36.4997 44.029 39.6001 39.9499C41.1534 37.9083 45.4624 34.0322 45.4624 34.0322V34.0384Z" fill="#76BA2C"/>
<path d="M99.6328 68.5109C118.558 68.5109 133.899 60.7941 133.899 51.275C133.899 41.7558 118.558 34.0391 99.6328 34.0391C80.7079 34.0391 65.3662 41.7558 65.3662 51.275C65.3662 60.7941 80.7079 68.5109 99.6328 68.5109Z" fill="#398916"/>
<path d="M156.447 47.142C156.447 47.142 163.036 37.73 149.904 31.5743C149.904 31.5743 150.52 22.3408 138.003 21.1097C138.003 21.1097 133.489 13.7229 124.461 17.6214C124.461 17.6214 119.536 9.82425 111.534 15.3644C111.534 15.3644 107.149 10.1567 101.648 13.3761C101.648 13.3761 96.7599 9.82425 91.425 14.1332C91.425 14.1332 85.0642 11.0554 79.7292 15.1592C79.7292 15.1592 73.9839 11.671 69.2646 17.2111C69.2646 17.2111 60.0311 13.3125 57.3636 23.7771C57.3636 23.7771 45.6678 23.3667 45.4626 34.0366C45.4626 34.0366 34.7928 39.1663 42.2576 51.0591C42.2576 51.0591 37.9486 61.5915 47.2457 64.5359C47.2457 64.5359 48.2327 78.4826 59.672 74.7256C59.672 74.7256 64.7299 88.0363 76.0256 80.8362C76.0256 80.8362 86.2337 93.7015 97.7551 82.8491C97.7551 82.8491 110.508 96.0038 119.946 81.2301C119.946 81.2301 132.149 90.8617 139.179 75.5813C139.179 75.5813 153.39 78.4272 152.775 63.8239C152.775 63.8239 164.63 59.8371 156.445 47.142H156.447ZM133.899 45.9396C127.333 47.1708 127.744 54.3524 127.744 54.3524C120.357 52.9161 116.458 59.0717 116.458 59.0717C106.199 53.942 101.069 60.9184 101.069 60.9184C93.8873 54.1472 86.0901 59.6873 86.0901 59.6873C80.1396 52.0953 75.2151 56.4043 75.2151 56.4043C74.3943 49.0175 68.2386 48.8123 68.2386 48.8123C69.675 44.2981 65.366 42.6566 65.366 42.6566C64.7504 33.4231 72.958 35.6802 72.958 35.6802C74.1891 28.7037 81.3707 31.3712 81.3707 31.3712C85.8849 24.5999 89.5783 34.8594 89.5783 34.8594C105.173 24.3947 115.022 34.0386 115.022 34.0386C121.177 30.7556 127.128 36.0905 127.128 36.0905C135.336 37.1165 133.899 45.9396 133.899 45.9396Z" fill="#FCF5D6"/>
<path d="M133.899 45.94C129.824 46.7033 128.437 49.7606 127.971 51.9685C126.393 50.0561 125.486 47.7867 125.486 47.7867C121.383 48.8127 118.51 44.0933 118.51 44.0933C112.97 46.5556 108.187 41.4259 108.187 41.4259C102.994 46.7608 97.7859 41.4259 97.7859 41.4259C94.708 46.1452 88.3472 42.0414 88.3472 42.0414C85.2693 49.0179 78.7033 46.1452 78.7033 46.1452C77.4783 49.5144 75.2376 50.9015 73.2945 51.4452C71.2077 48.9112 68.2386 48.8127 68.2386 48.8127C69.675 44.2985 65.366 42.657 65.366 42.657C64.7504 33.4235 72.958 35.6806 72.958 35.6806C74.1891 28.7041 81.3707 31.3716 81.3707 31.3716C84.6538 23.5744 92.2458 28.4989 92.2458 28.4989C95.3236 24.19 99.4274 27.473 99.4274 27.473C103.942 22.3433 108.045 27.2678 108.045 27.2678C117.074 24.19 118.51 31.3716 118.51 31.3716C126.102 28.7041 127.128 36.0909 127.128 36.0909C135.336 37.1169 133.899 45.94 133.899 45.94Z" fill="#F3E1B5"/>
</svg>
