<svg width="256" height="227" viewBox="0 0 256 227" fill="none" xmlns="http://www.w3.org/2000/svg">
<g clip-path="url(#clip0_751_7190)">
<path d="M126.205 85.0605C176.122 85.0605 166.43 105.215 160.224 113.614C159.576 114.489 160.894 115.677 162.03 115.244C175.257 110.211 209.1 96.3659 228.452 120.353C244.859 140.688 207.127 143.873 189.542 144.012C188.115 144.024 187.975 145.765 189.466 146.092C217.105 152.172 226.907 174.069 203.595 187.725C166.007 209.747 136.227 177.496 130.635 171.521C129.273 170.067 128.347 170.751 128.466 171.517C131.629 191.732 105.115 202.78 68.0505 187.256C40.4997 175.718 30.7783 150.326 80.4681 143.46C81.6561 143.296 80.8934 141.482 79.5172 141.426C37.674 139.69 10.7953 124.401 33.9047 114.496C48.7398 108.138 84.0614 110.182 98.5835 115.205C99.8571 115.645 100.788 114.474 99.8644 113.592C91.0548 105.18 75.3031 85.0605 126.205 85.0605Z" fill="#D8DFE8"/>
<path d="M24.5039 86.6328C24.5039 86.6328 26.743 114.885 27.2905 118.962L124.165 118.762V92.8269L24.5039 86.6328Z" fill="#803213"/>
<path d="M223.884 84.5918C223.884 84.5918 221.523 113.098 220.975 117.173L124.162 118.76V92.8245L223.881 84.5918H223.884Z" fill="#803213"/>
<path d="M86.2031 51.4473C86.2031 51.4473 88.4251 77.969 88.9702 82.0463H124.927V56.1112L86.2031 51.4497V51.4473Z" fill="#803213"/>
<path d="M161.165 51.7012C161.165 51.7012 158.833 77.9687 158.285 82.0435H122.328V56.1084L161.165 51.7012Z" fill="#803213"/>
<path d="M44.6445 129.211C44.6445 129.211 47.0816 157.502 47.6267 161.58L112.719 161.086L124.163 135.151L44.6445 129.213V129.211Z" fill="#803213"/>
<path d="M204.252 127.17C204.252 127.17 201.805 156.434 201.258 160.509L136.32 161.084L124.875 135.148L204.252 127.172V127.17Z" fill="#803213"/>
<path d="M124.421 65.9805C186.235 65.9805 149.506 103.702 149.506 103.702C149.506 103.702 203.569 76.2298 218.841 107.376C220.65 111.067 221.205 114.448 220.975 117.174C220.914 117.9 220.938 118.291 220.75 118.973C215.546 137.682 165.389 134.971 165.389 134.971C165.389 134.971 202.979 145.164 201.259 160.51C200.699 165.492 196.157 170.501 184.639 176.555C142.72 198.584 124.424 159.293 124.424 159.293C124.424 159.293 107.127 196.001 66.0686 178.416C53.2991 172.947 48.2489 166.856 47.6305 161.579C45.8974 146.78 79.5226 134.971 79.5226 134.971C79.5226 134.971 29.7521 139.77 27.2906 118.96C26.9044 115.704 27.6988 112.016 30.0015 107.376C45.3743 76.4205 97.3887 103.702 97.3887 103.702C97.3887 103.702 61.3313 65.9805 124.421 65.9805Z" fill="#803213"/>
<path d="M159.638 87.1625C160.596 83.7281 160.702 80.1911 159.122 77.0134C158.959 76.6834 158.895 76.3118 158.929 75.9452C159.597 69.1131 160.526 58.8197 160.944 54.1558C161.056 52.8871 159.978 51.836 158.714 51.9803L123.901 55.9304C123.745 55.9475 123.588 55.9475 123.434 55.9304L88.6577 51.7432C87.3915 51.5916 86.3062 52.6378 86.4138 53.9089C86.8269 58.7904 87.768 69.8171 88.4182 76.6809C88.4499 77.0256 88.3962 77.3751 88.2519 77.6905C86.7584 80.9097 86.9051 84.4566 87.8657 87.8665C88.2446 89.2085 87.2057 90.5285 85.8124 90.4429L26.8193 86.7788C25.597 86.703 24.5924 87.7247 24.6902 88.9445C25.2377 95.7742 26.8413 115.601 27.2935 118.964C28.1734 126.4 35.0935 130.565 43.6245 132.848C44.4458 133.068 45.0423 133.77 45.118 134.616C45.8538 143.037 47.2373 158.634 47.6309 161.58C48.2493 166.857 53.2994 172.949 66.069 178.417C99.7431 192.839 117.436 170.739 122.708 162.325C123.5 161.064 125.341 161.076 126.121 162.345C131.523 171.133 150.029 194.745 184.64 176.557C196.16 170.502 200.702 165.493 201.259 160.512C201.653 157.576 203.031 141.582 203.774 132.858C203.843 132.042 204.405 131.352 205.187 131.108C212.885 128.715 219.096 124.931 220.753 118.974C220.941 118.292 220.917 117.901 220.978 117.175C221.428 113.816 223.11 93.8822 223.689 86.9596C223.792 85.7203 222.758 84.6863 221.518 84.789L161.726 89.7243C160.325 89.8391 159.259 88.5192 159.638 87.165V87.1625Z" fill="#803213"/>
<path d="M93.9721 172.678C94.8496 175.293 93.4417 178.124 90.8262 179.001C88.2107 179.879 85.38 178.471 84.5025 175.855C83.625 173.24 85.7394 172.514 88.3549 171.636C90.9704 170.759 93.0946 170.062 93.9721 172.678Z" fill="#8B3916"/>
<path d="M99.9568 166.828C99.9568 168.314 98.7517 169.519 97.2655 169.519C95.7793 169.519 94.5742 168.314 94.5742 166.828C94.5742 165.342 95.7793 165.332 97.2655 165.332C98.7517 165.332 99.9568 165.342 99.9568 166.828Z" fill="#8B3916"/>
<path d="M35.1753 120.25C35.1753 121.464 34.1902 122.45 32.9754 122.45C31.7605 122.45 30.7754 121.464 30.7754 120.25C30.7754 119.035 31.7605 119.027 32.9754 119.027C34.1902 119.027 35.1753 119.035 35.1753 120.25Z" fill="#8B3916"/>
<path d="M37.5015 117.128C37.5015 117.905 36.8708 118.536 36.0935 118.536C35.3162 118.536 34.6855 117.905 34.6855 117.128C34.6855 116.351 35.3162 116.346 36.0935 116.346C36.8708 116.346 37.5015 116.351 37.5015 117.128Z" fill="#8B3916"/>
<path d="M101.552 169.379C102.095 169.98 102.048 170.906 101.447 171.449C100.846 171.992 99.9192 171.945 99.3765 171.344C98.8339 170.743 99.3178 170.3 99.9167 169.755C100.516 169.21 101.007 168.775 101.552 169.376V169.379Z" fill="#8B3916"/>
<path d="M116.066 150.764C116.476 151.463 115.924 152.548 114.831 153.189C113.738 153.829 112.521 153.783 112.11 153.086C111.7 152.389 112.582 151.864 113.675 151.223C114.768 150.583 115.655 150.067 116.066 150.766V150.764Z" fill="#8B3916"/>
<path d="M119.11 151.598C119.653 152.199 119.562 153.167 118.905 153.761C118.247 154.355 117.277 154.347 116.732 153.749C116.187 153.15 116.717 152.663 117.375 152.069C118.032 151.475 118.565 150.999 119.11 151.6V151.598Z" fill="#8B3916"/>
<path d="M175.027 163.705C175.027 165.267 173.761 166.533 172.199 166.533C170.637 166.533 169.371 165.267 169.371 163.705C169.371 162.143 170.637 162.133 172.199 162.133C173.761 162.133 175.027 162.143 175.027 163.705Z" fill="#8B3916"/>
<path d="M179.169 160.914C179.418 161.735 178.953 162.603 178.132 162.852C177.311 163.101 176.443 162.637 176.194 161.816C175.944 160.994 176.609 160.787 177.431 160.54C178.252 160.293 178.919 160.095 179.169 160.914Z" fill="#8B3916"/>
<path d="M215.169 108.024C215.169 109.466 214 110.634 212.558 110.634C211.116 110.634 209.947 109.466 209.947 108.024C209.947 106.582 211.116 106.574 212.558 106.574C214 106.574 215.169 106.582 215.169 108.024Z" fill="#8B3916"/>
<path d="M219.968 103.005C220.198 103.763 219.77 104.565 219.012 104.794C218.254 105.024 217.452 104.596 217.223 103.839C216.993 103.081 217.606 102.89 218.364 102.66C219.122 102.431 219.738 102.25 219.968 103.008V103.005Z" fill="#8B3916"/>
<path d="M155.212 172.367C155.212 174.198 153.728 176.464 151.9 176.464C150.072 176.464 148.588 174.98 148.588 173.151C148.588 171.323 150.15 171.841 151.9 171.311C153.841 170.724 155.212 170.538 155.212 172.367Z" fill="#8B3916"/>
<path d="M199.208 159.988C200.252 161.122 197.957 165.141 195.605 167.143C192.97 169.387 189.597 169.709 189.22 167.683C188.905 165.982 191.205 165.476 194.117 163.586C197.028 161.697 198.355 159.062 199.208 159.986V159.988Z" fill="#8B3916"/>
<path d="M55.5386 152.944C54.5829 154.493 58.1517 158.649 61.3319 160.448C64.8958 162.462 68.89 162.078 68.8704 159.641C68.8557 157.595 66.0691 157.522 62.2607 155.982C58.4548 154.442 56.3208 151.678 55.5386 152.944Z" fill="#8B3916"/>
<path d="M41.0214 111.09C40.5105 112.859 46.8122 115.746 51.5836 116.501C56.932 117.347 61.7548 115.775 60.6524 113.456C59.7284 111.508 56.2109 112.28 50.7696 111.96C45.3284 111.64 41.4369 109.645 41.0189 111.09H41.0214Z" fill="#8B3916"/>
<path d="M193.678 125.678C193.727 127.518 200.605 128.364 205.382 127.641C210.735 126.829 214.856 123.871 213.104 121.992C211.632 120.415 208.516 122.214 203.233 123.556C197.951 124.898 193.636 124.174 193.678 125.678Z" fill="#8B3916"/>
<mask id="mask0_751_7190" style="mask-type:luminance" maskUnits="userSpaceOnUse" x="24" y="51" width="200" height="133">
<path d="M159.618 87.2299C160.593 83.7711 160.711 80.2022 159.114 77.0001C158.956 76.6799 158.892 76.3181 158.929 75.9612C159.601 69.0949 160.535 58.7257 160.95 54.0887C161.06 52.8567 160.012 51.8325 158.782 51.9718L123.893 55.9318C123.742 55.9489 123.59 55.9489 123.438 55.9318L88.5862 51.7372C87.3567 51.5881 86.2982 52.6074 86.4033 53.8418C86.814 58.6915 87.7624 69.8013 88.4151 76.697C88.4469 77.0318 88.3955 77.3716 88.2537 77.6772C86.7431 80.9258 86.902 84.5044 87.8846 87.9436C88.2562 89.249 87.2418 90.5323 85.8876 90.4467L26.7526 86.7728C25.5646 86.6995 24.5869 87.6919 24.6822 88.8799C25.2249 95.6484 26.8382 115.59 27.2904 118.963C28.1704 126.409 35.11 130.576 43.6605 132.857C44.4574 133.07 45.0416 133.754 45.1125 134.578C45.8483 142.989 47.2343 158.631 47.6302 161.581C48.2487 166.859 53.2988 172.95 66.0684 178.418C99.828 192.877 117.523 170.628 122.747 162.263C123.517 161.029 125.313 161.029 126.074 162.271C131.415 170.997 149.931 194.798 184.639 176.558C196.159 170.503 200.701 165.495 201.258 160.513C201.652 157.572 203.035 141.537 203.776 132.82C203.845 132.026 204.387 131.356 205.15 131.119C212.864 128.726 219.093 124.94 220.752 118.975C220.941 118.293 220.916 117.902 220.977 117.176C221.427 113.808 223.119 93.754 223.693 86.895C223.793 85.6899 222.789 84.6853 221.584 84.7855L161.657 89.733C160.288 89.8454 159.246 88.5548 159.62 87.2348L159.618 87.2299Z" fill="white"/>
</mask>
<g mask="url(#mask0_751_7190)">
<path d="M124.429 36.7246C187.934 36.7246 150.2 75.4781 150.2 75.4781C150.2 75.4781 205.742 47.2551 221.432 79.2523C237.36 111.736 169.577 107.602 169.577 107.602C169.577 107.602 234.838 127.629 186.536 153.012C143.471 175.645 124.429 135.647 124.429 135.647C124.429 135.647 106.661 170.299 64.4775 152.235C14.5726 130.863 74.4751 107.602 74.4751 107.602C74.4751 107.602 9.93798 114.471 27.4252 79.2523C43.2185 47.4482 96.6556 75.4781 96.6556 75.4781C96.6556 75.4781 59.6107 36.7246 124.426 36.7246H124.429Z" fill="#8B3916"/>
<path opacity="0.6" d="M124.877 118.141C125.605 124.594 125.715 131.133 125.818 137.618C125.881 148.441 125.735 159.185 124.877 170.003C122.845 161.524 122.432 152.748 122.41 144.066C122.501 135.391 123.087 126.642 124.877 118.141Z" fill="#68230C"/>
</g>
<path d="M124.427 32.3242C174.701 32.3242 161.528 56.6118 153.855 66.7316C153.056 67.7876 154.18 69.2176 155.397 68.6969C169.573 62.6299 208.671 48.8361 221.428 74.8544C233.75 99.9852 195.97 103.2 178.235 103.368C176.796 103.383 176.456 105.38 177.808 105.874C193.594 111.657 223.413 126.414 186.29 145.925C149.15 165.444 130.059 140.381 125.51 133.117C125.006 132.312 123.838 132.31 123.327 133.109C118.868 140.056 100.648 163.327 64.478 147.837C25.1671 131.002 53.9915 112.994 68.0003 106.108C69.2519 105.492 68.7801 103.608 67.3868 103.657C51.1291 104.238 13.5831 102.73 27.4257 74.8544C40.2222 49.0855 77.734 62.5957 91.5081 68.6529C92.7157 69.1833 93.8523 67.7705 93.0701 66.7072C85.6196 56.5702 73.1605 32.3242 124.427 32.3242Z" fill="#FFDC65"/>
<path d="M116.459 81.1683C116.205 82.2439 114.745 82.8207 113.198 82.4541C111.651 82.0874 110.468 80.6428 110.722 79.5672C110.976 78.4917 112.575 78.8828 114.12 79.2495C115.665 79.6161 116.713 80.0928 116.459 81.1683Z" fill="#FFC052"/>
<path d="M136.378 84.9886C136.632 86.0642 138.091 86.6411 139.639 86.2744C141.186 85.9077 142.369 84.4631 142.115 83.3876C141.861 82.312 140.262 82.7031 138.717 83.0698C137.172 83.4364 136.124 83.9131 136.378 84.9886Z" fill="#FFC052"/>
<path d="M120.833 88.5071C120.593 89.5166 119.384 90.096 118.13 89.8002C116.876 89.5044 115.947 88.1893 116.186 87.1798C116.426 86.1702 117.721 86.488 118.975 86.7862C120.229 87.082 121.073 87.4976 120.833 88.5095V88.5071Z" fill="#FFC052"/>
<path d="M130.398 78.1751C130.362 78.9353 129.291 79.5024 128.003 79.4413C126.715 79.3802 125.549 78.5466 125.583 77.7864C125.617 77.0262 126.952 77.0971 128.237 77.1582C129.523 77.2193 130.432 77.4149 130.396 78.1751H130.398Z" fill="#FFC052"/>
<path d="M141.805 90.3174C142.159 91.811 144.186 92.6127 146.332 92.1043C148.478 91.5959 150.126 89.589 149.771 88.0955C149.417 86.6019 147.197 87.1446 145.051 87.653C142.905 88.1615 141.451 88.8239 141.803 90.3199L141.805 90.3174Z" fill="#FFC052"/>
<path d="M127.367 95.054C127.606 96.0635 128.816 96.6428 130.07 96.3471C131.324 96.0513 132.253 94.7362 132.014 93.7267C131.774 92.7171 130.479 93.0349 129.225 93.3331C127.971 93.6313 127.127 94.0444 127.367 95.0564V95.054Z" fill="#FFC052"/>
<path d="M107.829 87.0849C107.235 88.2876 105.353 88.5662 103.624 87.7131C101.899 86.8576 100.894 84.8263 101.488 83.6261C102.082 82.4259 103.864 83.323 105.59 84.1785C107.315 85.0341 108.423 85.8847 107.826 87.0849H107.829Z" fill="#FFC052"/>
<path d="M132.756 98.4657C133.101 99.9202 134.771 100.773 136.484 100.367C138.198 99.9617 139.449 98.0917 139.105 96.6349C138.76 95.1805 136.99 95.6156 135.274 96.0213C133.561 96.4271 132.412 97.0089 132.756 98.4657Z" fill="#FFC052"/>
<path d="M118.115 95.1851C117.612 97.3117 115.175 98.5534 112.671 97.9619C110.168 97.3703 108.34 94.6375 108.844 92.5109C109.347 90.3843 111.933 91.0222 114.436 91.6162C116.939 92.2078 118.619 93.0609 118.115 95.1851Z" fill="#FFC052"/>
<path d="M199.441 123.925C200.663 125.637 199.441 129.059 195.51 132.642C192.076 135.771 185.852 137.629 185.263 134.925C184.584 131.801 188.991 132.342 192.702 129.523C198.463 125.148 198.458 122.552 199.441 123.925Z" fill="#FFC052"/>
<path d="M44.3631 92.9235C43.2387 94.659 38.3304 93.0726 34.94 90.6869C31.1389 88.0151 28.6994 82.5812 31.2074 81.4152C33.312 80.435 34.3093 84.4096 37.7413 87.5605C41.1732 90.7113 45.2822 91.5057 44.3656 92.9235H44.3631Z" fill="#FFC052"/>
<path d="M67.9041 105.912C68.7498 105.523 68.6349 104.179 67.7329 103.959C67.5007 103.888 67.0338 103.949 66.7796 103.951C59.862 104.252 52.9052 104.017 46.056 102.944C32.6289 100.888 19.6369 94.2886 25.5353 78.5686C26.029 77.2658 26.6059 75.9996 27.2292 74.7578L27.6228 74.9534C26.7941 79.6075 25.853 85.5156 28.295 89.6051C31.5851 95.3079 40.6368 97.4516 46.7355 98.8303C53.3501 100.26 60.0429 101.177 66.7307 102.416L67.2465 102.512L67.3101 102.524L67.3418 102.529C68.8011 102.617 69.8596 104.181 69.1483 105.506C68.9356 105.929 68.5396 106.207 68.0947 106.305L67.9016 105.909L67.9041 105.912Z" fill="#FFC052"/>
<path d="M221.651 74.747C227.405 83.7302 225.689 92.4298 216.503 98.0177C205.195 104.569 191.507 105.309 178.774 104.708C178.674 104.696 178.336 104.691 178.243 104.684C178.239 104.684 178.229 104.676 178.224 104.669C178.217 104.659 178.239 104.63 178.226 104.615C178.197 104.576 178.129 104.701 178.131 104.73C178.094 104.823 178.319 104.884 178.38 104.916C178.586 105.001 179.964 105.603 180.204 105.708C188.001 109.277 199.341 114.261 203.893 121.78C207.471 127.808 204.951 133.899 200.5 138.561C197.288 141.936 193.345 144.579 189.361 146.925C187.53 148.003 185.547 149.032 183.646 149.986C182.91 150.323 181.419 151.01 180.683 151.345C174.777 153.865 168.375 155.534 161.888 155.735C161.12 155.72 159.73 155.732 158.964 155.698C158.356 155.659 157.065 155.556 156.461 155.515C155.65 155.429 154.787 155.266 153.975 155.163C153.311 155.046 152.167 154.784 151.516 154.657C143.472 152.728 136.161 148.04 130.825 141.809C128.541 139.191 126.615 136.312 125.017 133.246C124.696 132.753 123.931 132.758 123.535 133.239C123.45 133.349 123.288 133.366 123.183 133.278C123.093 133.202 123.071 133.075 123.125 132.975C123.43 132.388 124.112 132.046 124.782 132.149C125.293 132.203 125.74 132.552 126.031 132.973L126.268 133.281C133.227 142.222 143.298 149.113 154.677 150.418C155.107 150.445 156.427 150.582 156.884 150.616C157.412 150.641 158.598 150.665 159.099 150.687C159.771 150.677 161.006 150.636 161.688 150.616C162.326 150.567 163.616 150.45 164.274 150.396C175.418 148.915 186.899 144.014 196.012 137.145C197.51 135.943 199.009 134.608 200.177 133.095C205.437 126.713 201.693 120.545 196.034 116.055C191.13 112.2 185.371 109.563 179.488 107.57L178.001 107.086L177.63 106.969C176.982 106.791 176.393 106.39 176.058 105.759C175.166 104.055 176.43 102.029 178.356 102.036C186.723 101.369 195.11 100.303 203.279 98.5873C206.242 97.9126 209.143 97.1011 211.935 95.9547C221.61 91.9947 224.929 85.8104 221.463 75.7052L221.216 74.9597V74.9499C221.17 74.8204 221.24 74.6835 221.368 74.6395C221.478 74.6028 221.597 74.6493 221.654 74.7446L221.651 74.747Z" fill="#FFC052"/>
</g>
<defs>
<clipPath id="clip0_751_7190">
<rect width="208.417" height="163" fill="white" transform="translate(23.791 32)"/>
</clipPath>
</defs>
</svg>
