<svg width="215" height="180" viewBox="0 0 215 180" fill="none" xmlns="http://www.w3.org/2000/svg">
<path opacity="0.1" d="M200.936 125.502C200.936 145.122 166.43 167 106.326 167C56.44 167 16 139.031 16 121.074C16 103.118 56.44 86.4854 106.326 86.4854C156.212 86.4854 200.936 102.724 200.936 125.502Z" fill="black"/>
<path d="M27.4209 68.1293V105.126C27.4209 109.325 28.8556 113.395 31.5 116.656C40.0324 127.175 62.6545 148.479 105.938 148.479C149.221 148.479 172.484 127.125 180.623 116.619C183.109 113.408 184.455 109.463 184.455 105.403V68.1315C184.455 58.0085 176.249 49.8027 166.126 49.8027H45.7496C35.6266 49.8027 27.4209 58.0085 27.4209 68.1315V68.1293Z" fill="#803213"/>
<path d="M105.938 154.59C86.0646 154.59 68.1709 150.312 52.7548 141.872C39.8706 134.82 31.5047 126.361 26.757 120.505C23.2471 116.177 21.3125 110.715 21.3125 105.128V68.1309C21.3125 54.656 32.2751 43.6934 45.7501 43.6934H166.129C179.604 43.6934 190.566 54.656 190.566 68.1309V105.403C190.566 110.793 188.751 116.104 185.455 120.36C180.894 126.248 172.755 134.755 159.875 141.842C144.504 150.301 126.358 154.59 105.941 154.59H105.938ZM45.7501 55.9111C39.0115 55.9111 33.5302 61.3924 33.5302 68.1309V105.128C33.5302 107.922 34.4953 110.651 36.246 112.808C40.3034 117.811 47.4791 125.056 58.6213 131.154C72.2196 138.596 88.1377 142.37 105.938 142.37C123.739 142.37 140.436 138.589 153.983 131.137C165.03 125.058 171.941 117.852 175.793 112.877C177.44 110.752 178.347 108.097 178.347 105.401V68.1288C178.347 61.3924 172.865 55.9089 166.129 55.9089H45.7501V55.9111Z" fill="#803213"/>
<path d="M105.939 117.196C150.021 117.196 185.756 94.1796 185.756 65.7871C185.756 37.3946 150.021 14.3779 105.939 14.3779C61.8566 14.3779 26.1211 37.3946 26.1211 65.7871C26.1211 94.1796 61.8566 117.196 105.939 117.196Z" fill="#FFDC65"/>
<path d="M190.411 65.7868C190.677 80.5666 181.667 93.9594 170.297 102.598C144.663 121.79 109.702 125.612 78.9975 119.276C61.1752 115.328 43.2121 107.287 31.3558 92.8255C23.5504 83.3949 19.4779 70.5908 22.1503 58.4099C25.643 41.8837 39.4295 29.8781 54.0211 22.9101C81.8193 9.89175 116.185 8.87253 145.306 17.9893C166.826 24.6824 190.045 41.0528 190.411 65.7846V65.7868ZM181.102 65.7868C181.145 44.9392 161.154 30.3065 143.38 23.4316C115.757 13.036 83.0744 14.4296 57.1545 28.887C45.2484 35.7186 33.9093 46.2571 31.3493 60.2081C29.603 69.6603 32.968 79.2206 39.1179 86.4959C49.6672 98.9819 65.3646 105.967 81.1312 109.592C109.081 115.549 140.874 112.061 164.247 94.7709C173.415 87.8116 180.987 77.6063 181.1 65.7868H181.102Z" fill="#FFC052"/>
<path d="M117.669 131.07C117.669 134.881 114.579 137.971 110.768 137.971C106.957 137.971 103.867 134.881 103.867 131.07C103.867 127.259 106.957 127.235 110.768 127.235C114.579 127.235 117.669 127.257 117.669 131.07Z" fill="#8B3916"/>
<path d="M73.2748 134.77C73.2748 136.919 71.5328 138.661 69.384 138.661C67.2351 138.661 65.4932 136.919 65.4932 134.77C65.4932 132.621 67.2351 132.608 69.384 132.608C71.5328 132.608 73.2748 132.621 73.2748 134.77Z" fill="#8B3916"/>
<path d="M47.0522 113.492C47.0522 115.323 45.5678 116.807 43.7371 116.807C41.9063 116.807 40.4219 115.323 40.4219 113.492C40.4219 111.661 41.9063 111.65 43.7371 111.65C45.5678 111.65 47.0522 111.661 47.0522 113.492Z" fill="#8B3916"/>
<path d="M157.233 124.649C157.233 126.798 155.491 128.54 153.342 128.54C151.193 128.54 149.451 126.798 149.451 124.649C149.451 122.5 151.193 122.487 153.342 122.487C155.491 122.487 157.233 122.5 157.233 124.649Z" fill="#8B3916"/>
<path d="M124.799 139.139C124.799 141.288 123.057 143.949 120.908 143.949C118.76 143.949 117.018 142.207 117.018 140.059C117.018 137.91 118.85 138.52 120.908 137.897C123.189 137.207 124.799 136.99 124.799 139.139Z" fill="#8B3916"/>
<path d="M182.149 102.677C183.928 104.611 180.011 111.473 175.999 114.888C171.502 118.718 165.742 119.268 165.101 115.812C164.562 112.91 168.49 112.045 173.458 108.82C178.427 105.598 180.693 101.097 182.147 102.677H182.149Z" fill="#8B3916"/>
<path d="M29.6284 111.33C28.1807 112.905 31.3682 118.49 34.6336 121.271C38.295 124.389 42.9822 124.837 43.5037 122.022C43.9408 119.659 40.7446 118.953 36.7002 116.331C32.6558 113.706 30.8099 110.042 29.6262 111.33H29.6284Z" fill="#8B3916"/>
<path d="M118.03 68.4947C118.532 63.8044 113.476 59.4173 106.737 58.6959C99.9981 57.9746 94.128 61.192 93.6259 65.8824C93.1238 70.5727 98.1799 74.9598 104.919 75.6812C111.658 76.4026 117.528 73.1851 118.03 68.4947Z" fill="#FFC052"/>
<path d="M118.032 65.733C118.534 61.0427 113.478 56.6556 106.739 55.9342C100 55.2128 94.1299 58.4303 93.6278 63.1207C93.1258 67.811 98.1818 72.1981 104.921 72.9195C111.66 73.6408 117.53 70.4234 118.032 65.733Z" fill="#732C11"/>
<path d="M115.728 63.5516C116.106 60.0211 111.828 56.6683 106.173 56.0629C100.518 55.4575 95.6267 57.8288 95.2488 61.3594C94.8708 64.8899 99.149 68.2427 104.804 68.8481C110.46 69.4535 115.35 67.0821 115.728 63.5516Z" fill="#7F3211"/>
<path d="M103.505 60.3414C105.288 60.0852 106.648 59.2829 106.542 58.5494C106.437 57.816 104.906 57.4292 103.123 57.6854C101.341 57.9417 99.981 58.744 100.086 59.4774C100.192 60.2109 101.722 60.5977 103.505 60.3414Z" fill="#FFE6A1"/>
</svg>
