<svg width="257" height="227" viewBox="0 0 257 227" fill="none" xmlns="http://www.w3.org/2000/svg">
<path d="M127.297 194.768C152.702 194.768 173.297 188.5 173.297 180.768C173.297 173.036 152.702 166.768 127.297 166.768C101.892 166.768 81.2969 173.036 81.2969 180.768C81.2969 188.5 101.892 194.768 127.297 194.768Z" fill="#D8DFE8"/>
<g clip-path="url(#clip0_751_7245)">
<path d="M159.318 103.94V177.706H88.6445V103.94C88.6445 98.9166 90.5926 94.1851 94.1299 90.6188L104.638 80.0251C106.596 78.0535 107.672 75.4386 107.672 72.6606V58.6582L107.748 58.6763C118.367 61.1028 129.595 61.1028 140.214 58.6763L140.29 58.6582V72.6606C140.29 75.4386 141.367 78.0535 143.324 80.0251L153.832 90.6188C157.37 94.1851 159.318 98.9166 159.318 103.94Z" fill="#FCD997"/>
<path d="M123.981 37.8105H104.953L107.474 65.0252C107.697 67.4353 109.511 69.3943 111.895 69.8038H111.901C119.896 71.1774 128.067 71.1774 136.06 69.8038H136.066C138.45 69.3943 140.263 67.4335 140.487 65.0252L143.008 37.8105H123.981Z" fill="#AB4F33"/>
<path d="M141.553 53.5234L141.107 58.3256L140.487 65.0251C140.264 67.4352 138.45 69.3941 136.066 69.8037H136.06C128.065 71.1773 119.896 71.1773 111.901 69.8037H111.895C109.511 69.3941 107.697 67.4352 107.474 65.0251L106.854 58.3256L106.408 53.5234C107.3 53.9221 108.601 54.3715 110.447 54.7919C114.18 55.6436 118.986 56.113 123.98 56.113C128.975 56.113 133.781 55.6436 137.514 54.7919C139.36 54.3715 140.661 53.9221 141.553 53.5234Z" fill="#EF9D78"/>
<path d="M123.981 42.34C134.489 42.34 143.008 40.3117 143.008 37.8096C143.008 35.3076 134.489 33.2793 123.981 33.2793C113.472 33.2793 104.953 35.3076 104.953 37.8096C104.953 40.3117 113.472 42.34 123.981 42.34Z" fill="#DA7644"/>
<path d="M159.318 104.859H88.6445V177.707H159.318V104.859Z" fill="#F5B804"/>
<path d="M159.318 177.595C159.318 177.691 159.314 177.785 159.307 177.881C159.124 179.427 156.576 181.883 149.851 184.005C142.972 186.176 133.785 187.372 123.981 187.372C114.178 187.372 104.99 186.176 98.1111 184.005C91.3863 181.883 88.8384 179.427 88.6554 177.883C88.6482 177.785 88.6445 177.691 88.6445 177.595C88.6445 171.436 104.464 166.441 123.981 166.441C143.498 166.441 159.318 171.436 159.318 177.595Z" fill="#EF9A00"/>
<path d="M123.981 113.738C143.497 113.738 159.318 109.803 159.318 104.949C159.318 100.095 143.497 96.1602 123.981 96.1602C104.465 96.1602 88.6445 100.095 88.6445 104.949C88.6445 109.803 104.465 113.738 123.981 113.738Z" fill="#FBC918"/>
<g opacity="0.7">
<path d="M163.666 177.706H159.317V103.939C159.317 98.9161 157.369 94.1846 153.832 90.6183L143.323 80.0245C141.368 78.0529 140.29 75.4362 140.29 72.66V58.6577L140.214 58.674C129.593 61.1004 118.367 61.1004 107.746 58.674L107.67 58.6577V72.66C107.67 75.438 106.593 78.0529 104.636 80.0245L94.1276 90.6183C90.5903 94.1846 88.6422 98.9161 88.6422 103.939V177.706H84.2949V103.939C84.2949 97.7599 86.6906 91.9411 91.0433 87.5558L101.552 76.962C102.694 75.8095 103.324 74.2819 103.324 72.66V53.2031L108.717 54.4354C118.704 56.7169 129.261 56.7169 139.246 54.4354L144.639 53.2031V72.66C144.639 74.2819 145.268 75.8095 146.411 76.962L156.92 87.5558C161.271 91.943 163.668 97.7617 163.668 103.939V177.706H163.666Z" fill="#E1E7EF"/>
<path d="M142.125 47.3613L141.706 51.8844C142.373 52.1943 142.79 52.4679 143.022 52.6691C142.772 52.8847 142.311 53.1855 141.554 53.5226C140.662 53.9213 139.361 54.3707 137.515 54.7911C133.782 55.6428 128.976 56.1121 123.982 56.1121C118.987 56.1121 114.182 55.6428 110.449 54.7911C108.602 54.3707 107.301 53.9213 106.409 53.5226C105.652 53.1855 105.192 52.8847 104.941 52.6691C105.173 52.4679 105.59 52.1943 106.257 51.8844L105.838 47.3613C102.243 48.6896 100.424 50.4691 100.424 52.6691C100.424 55.0665 102.586 56.9656 106.855 58.3247C107.315 58.4715 107.799 58.6111 108.308 58.7452C112.523 59.8524 118.089 60.4613 123.982 60.4613C129.875 60.4613 135.44 59.8524 139.655 58.7452C140.164 58.6111 140.648 58.4715 141.108 58.3247C145.377 56.9656 147.539 55.0665 147.539 52.6691C147.539 50.4691 145.72 48.6896 142.125 47.3613Z" fill="#E1E7EF"/>
<path d="M161.492 145.812V141.463C167.418 141.463 168.744 140.508 169.627 138.221C170.946 134.809 170.946 128.072 170.946 116.909C170.946 99.3855 170.946 88.808 167.554 83.7359C164.673 79.4266 158.97 78.1128 143.143 78.1128V73.7637C151.846 73.7637 157.002 74.1243 160.936 75.0068C165.762 76.0905 169.014 78.0947 171.169 81.3185C175.293 87.4888 175.293 97.9394 175.293 116.909C175.293 128.974 175.293 135.619 173.682 139.789C171.535 145.347 166.483 145.812 161.49 145.812H161.492Z" fill="#E1E7EF"/>
<path d="M123.981 191.72C113.746 191.72 104.092 190.453 96.8023 188.152C88.6205 185.568 84.2949 181.956 84.2949 177.705H88.644C88.644 179.233 91.123 181.799 98.1106 184.004C104.99 186.175 114.177 187.371 123.981 187.371C133.784 187.371 142.972 186.175 149.851 184.004C156.838 181.799 159.317 179.233 159.317 177.705H163.666C163.666 181.956 159.341 185.568 151.159 188.152C143.869 190.453 134.216 191.72 123.981 191.72Z" fill="#E1E7EF"/>
</g>
<path opacity="0.4" d="M104.23 177.344C102.227 177.344 100.605 175.722 100.605 173.72V107.12C100.605 103.213 101.57 99.3206 103.393 95.8667L110.628 82.1488C111.562 80.3784 113.754 79.7006 115.525 80.6339C117.295 81.5671 117.973 83.7598 117.04 85.5303L109.804 99.2481C108.528 101.666 107.856 104.387 107.856 107.12V173.72C107.856 175.722 106.234 177.344 104.232 177.344H104.23Z" fill="white"/>
</g>
<defs>
<clipPath id="clip0_751_7245">
<rect width="91" height="158.442" fill="white" transform="translate(84.2969 33.2793)"/>
</clipPath>
</defs>
</svg>
