<svg width="196" height="180" viewBox="0 0 196 180" fill="none" xmlns="http://www.w3.org/2000/svg">
<g clip-path="url(#clip0_690_6210)">
<path d="M98.1983 174.698C122.954 174.698 143.023 169.221 143.023 162.465C143.023 155.708 122.954 150.231 98.1983 150.231C73.4425 150.231 53.374 155.708 53.374 162.465C53.374 169.221 73.4425 174.698 98.1983 174.698Z" fill="#D8DFE8"/>
<path d="M114.423 61.8434C129.845 66.5322 137.043 80.3886 139.33 95.4994C141.656 110.88 141.562 136.842 134.005 150.713C125.432 166.448 102.419 168.601 86.579 165.742C62.6599 161.426 57.6473 142.418 56.6433 121.242C56.0274 108.251 56.8638 89.5106 63.13 78.0807C66.9237 71.1626 74.542 64.0892 82.1694 61.8416C92.2476 58.8728 104.33 58.7723 114.423 61.8416V61.8434Z" fill="#FEBE0E"/>
<mask id="mask0_690_6210" style="mask-type:luminance" maskUnits="userSpaceOnUse" x="56" y="59" width="85" height="108">
<path d="M114.423 61.8434C129.845 66.5322 137.043 80.3886 139.33 95.4994C141.656 110.88 141.562 136.842 134.005 150.713C125.432 166.448 102.419 168.601 86.579 165.742C62.6599 161.426 57.6473 142.418 56.6433 121.242C56.0274 108.251 56.8638 89.5106 63.13 78.0807C66.9237 71.1626 74.542 64.0892 82.1694 61.8416C92.2476 58.8728 104.33 58.7723 114.423 61.8416V61.8434Z" fill="white"/>
</mask>
<g mask="url(#mask0_690_6210)">
<path d="M43.2787 106.963L41.79 103.487C41.9012 103.439 53.1801 98.5478 70.4466 88.018C86.3756 78.3027 110.805 61.6637 136.732 37.5605L139.299 40.334C113.112 64.6818 88.4255 81.487 72.3289 91.2991C54.8547 101.949 43.7434 106.764 43.2805 106.963H43.2787Z" fill="#F39800"/>
<path d="M43.1923 128.176L41.8749 124.63C42.0115 124.579 53.2723 120.327 70.5023 110.441C86.4167 101.312 110.824 85.376 136.729 61.293L139.297 64.0664C113.093 88.4288 88.3901 104.547 72.2825 113.779C54.7883 123.805 43.6569 128.001 43.1923 128.174V128.176Z" fill="#F39800"/>
<path d="M51.8358 142.683L51.0887 138.975L51.4623 140.83L51.0869 138.976C54.7148 138.237 65.0991 135.007 78.4243 128.08C88.2073 122.993 98.1433 116.714 107.955 109.414C120.224 100.286 132.33 89.5286 143.941 77.4414L146.661 80.0652C134.868 92.344 122.562 103.27 110.086 112.542C100.089 119.969 89.9601 126.36 79.9804 131.534C62.9052 140.386 52.2786 142.597 51.8358 142.687V142.683Z" fill="#F39800"/>
<path d="M58.7587 159.297L58.0116 155.589L58.3851 157.444L58.0098 155.591C61.6376 154.851 72.0219 151.621 85.3471 144.694C95.1301 139.607 105.066 133.328 114.878 126.028C127.147 116.901 139.253 106.143 150.863 94.0557L153.584 96.6794C141.791 108.958 129.484 119.884 117.008 129.156C107.012 136.583 96.883 142.974 86.9032 148.148C69.8281 157 59.2014 159.211 58.7587 159.301V159.297Z" fill="#F39800"/>
<path d="M66.5936 174.999L65.8466 171.291L66.2201 173.146L65.8447 171.293C69.4726 170.553 79.8569 167.323 93.1821 160.396C102.965 155.309 112.901 149.03 122.713 141.73C134.982 132.603 147.088 121.845 158.698 109.758L161.419 112.382C149.626 124.66 137.319 135.586 124.843 144.858C114.847 152.286 104.718 158.676 94.7382 163.851C77.663 172.702 67.0364 174.913 66.5936 175.003V174.999Z" fill="#F39800"/>
<path d="M153.668 106.963C153.204 106.764 142.092 101.949 124.62 91.2991C108.523 81.487 83.8388 64.6818 57.6494 40.334L60.2168 37.5605C86.142 61.6637 110.573 78.3027 126.502 88.018C143.769 98.5478 155.046 103.439 155.159 103.487L153.67 106.963H153.668Z" fill="#F39800"/>
<path d="M153.754 128.175C153.289 128.002 142.156 123.806 124.664 113.78C108.556 104.548 83.8534 88.428 57.6494 64.0674L60.2168 61.2939C86.122 85.377 110.529 101.313 126.444 110.442C143.694 120.337 154.96 124.589 155.073 124.631L153.754 128.177V128.175Z" fill="#F39800"/>
<path d="M145.111 142.682C144.667 142.592 134.042 140.383 116.967 131.529C106.985 126.355 96.856 119.964 86.8617 112.537C74.3856 103.265 62.0789 92.3373 50.2861 80.0603L53.0066 77.4365C64.6172 89.5255 76.7252 100.282 88.9917 109.409C98.8021 116.709 108.738 122.99 118.523 128.075C131.85 135.002 142.232 138.232 145.86 138.971L145.111 142.68V142.682Z" fill="#F39800"/>
<path d="M138.187 159.298C137.742 159.208 127.117 156.999 110.042 148.146C100.06 142.971 89.9312 136.581 79.9369 129.153C67.4608 119.881 55.1541 108.954 43.3613 96.6765L46.0818 94.0527C57.6923 106.142 69.8004 116.898 82.0669 126.025C91.8772 133.325 101.813 139.606 111.598 144.691C124.925 151.618 135.308 154.848 138.935 155.588L138.187 159.296V159.298Z" fill="#F39800"/>
<path d="M130.352 175C129.907 174.911 119.282 172.701 102.207 163.848C92.2255 158.673 82.0963 152.283 72.1019 144.855C59.6258 135.583 47.3192 124.656 35.5264 112.379L38.2468 109.755C49.8574 121.844 61.9654 132.6 74.232 141.727C84.0423 149.027 93.9783 155.308 103.763 160.393C117.09 167.32 127.473 170.55 131.101 171.29L130.352 174.998V175Z" fill="#F39800"/>
</g>
<path d="M82.1664 61.8426C78.3454 55.631 72.7533 50.7432 66.6 46.9327C64.9692 45.923 57.6278 42.3406 57.0411 41.3054C56.7058 40.7156 56.653 39.9488 57.5859 39.2093C58.7411 38.2946 62.5166 37.4711 64.0144 37.3762C69.222 37.0475 74.6355 38.1448 79.2856 40.4673C78.1559 36.8448 77.2448 33.9235 72.0718 27.197C70.9057 25.6797 67.3562 22.5155 67.409 20.7225C67.4473 19.4663 69.0216 18.5808 70.1604 18.5078C75.9001 18.1353 85.6831 24.3834 88.8427 29.0484C89.4622 29.9614 89.2125 28.3363 89.2745 27.858C89.4749 26.306 89.5733 24.7485 89.7811 23.1929C90.324 19.1231 92.5726 12.1045 95.2165 8.01457C97.2008 4.94531 98.3505 3.55218 100.945 7.09252C102.722 9.51543 106.397 18.0403 107.494 27.1094C107.634 28.2706 107.434 29.1379 108.365 28.329C109.139 27.6571 110.479 26.2969 111.317 25.5373C114.854 22.3384 121.001 18.6429 125.834 18.5059C127.297 18.4639 129.387 19.0683 129.401 20.9179C129.416 22.5922 125.894 25.6925 124.791 27.0875C121.703 30.9948 119.263 35.5886 117.585 40.2701C119.664 39.0797 122.206 38.2927 124.555 37.8271C128.04 37.137 134.281 36.9708 137.59 38.311C139.017 38.888 140.946 40.3669 139.252 41.7838C137.032 43.6388 132.169 45.5925 129.41 47.3179C123.461 51.0409 118.106 55.8009 114.42 61.8408C104.325 58.7715 92.2427 58.8719 82.1664 61.8408V61.8426Z" fill="#5D911A"/>
<mask id="mask1_690_6210" style="mask-type:luminance" maskUnits="userSpaceOnUse" x="56" y="5" width="84" height="57">
<path d="M82.1664 61.8426C78.3454 55.631 72.7533 50.7432 66.6 46.9327C64.9692 45.923 57.6278 42.3406 57.0411 41.3054C56.7058 40.7156 56.653 39.9488 57.5859 39.2093C58.7411 38.2946 62.5166 37.4711 64.0144 37.3762C69.222 37.0475 74.6355 38.1448 79.2856 40.4673C78.1559 36.8448 77.2448 33.9235 72.0718 27.197C70.9057 25.6797 67.3562 22.5155 67.409 20.7225C67.4473 19.4663 69.0216 18.5808 70.1604 18.5078C75.9001 18.1353 85.6831 24.3834 88.8427 29.0484C89.4622 29.9614 89.2125 28.3363 89.2745 27.858C89.4749 26.306 89.5733 24.7485 89.7811 23.1929C90.324 19.1231 92.5726 12.1045 95.2165 8.01457C97.2008 4.94531 98.3505 3.55218 100.945 7.09252C102.722 9.51543 106.397 18.0403 107.494 27.1094C107.634 28.2706 107.434 29.1379 108.365 28.329C109.139 27.6571 110.479 26.2969 111.317 25.5373C114.854 22.3384 121.001 18.6429 125.834 18.5059C127.297 18.4639 129.387 19.0683 129.401 20.9179C129.416 22.5922 125.894 25.6925 124.791 27.0875C121.703 30.9948 119.263 35.5886 117.585 40.2701C119.664 39.0797 122.206 38.2927 124.555 37.8271C128.04 37.137 134.281 36.9708 137.59 38.311C139.017 38.888 140.946 40.3669 139.252 41.7838C137.032 43.6388 132.169 45.5925 129.41 47.3179C123.461 51.0409 118.106 55.8009 114.42 61.8408C104.325 58.7715 92.2427 58.8719 82.1664 61.8408V61.8426Z" fill="white"/>
</mask>
<g mask="url(#mask1_690_6210)">
<path d="M98.1634 80.6544C96.9827 75.7373 97.2251 70.6231 98.0559 65.6696C100.237 53.2519 107.852 40.7667 119.881 35.8424C121.647 35.1248 123.502 34.5862 125.384 34.2886C125.998 34.19 126.654 34.1225 127.274 34.0859L127.436 34.4931C125.246 35.4225 123.127 36.5216 121.15 37.8381C109.014 45.7367 102.54 59.7958 99.6922 73.6084C99.2112 75.9437 98.8121 78.3118 98.6008 80.6799L98.1634 80.6544Z" fill="#3A6A0A"/>
<path d="M98.1642 80.6781C96.1471 62.1932 87.4829 41.9901 69.3291 34.4931L69.4913 34.0859C70.1108 34.1206 70.7668 34.1864 71.3826 34.285C73.2667 34.5807 75.1216 35.1175 76.8891 35.8333C91.3149 41.8239 99.2448 58.1124 99.3924 73.1574C99.3814 75.6807 99.2302 78.1876 98.6016 80.6544L98.1642 80.6799V80.6781Z" fill="#3A6A0A"/>
<path d="M97.984 53.8631C94.5876 38.8966 86.8162 17.514 71.2261 11.8484C70.1474 11.4704 69.0396 11.171 67.9135 10.9519C67.7969 10.93 67.7222 10.8168 67.744 10.7017C67.7623 10.6104 67.8333 10.5447 67.919 10.5319L67.9864 10.521C70.4262 10.1302 72.9918 10.3986 75.4316 11.1308C90.5242 15.9072 98.7985 35.3234 98.6783 50.1329C98.6655 51.3672 98.6017 52.6069 98.3995 53.854C98.3813 53.9708 98.2719 54.0512 98.1553 54.0311C98.0642 54.0165 97.9968 53.9471 97.9786 53.8631H97.984Z" fill="#3A6A0A"/>
<path d="M97.9843 53.7873C96.6523 42.2972 101.131 28.4718 108.686 19.6967C112.793 14.9167 118.463 10.9856 124.864 10.405C126.142 10.2954 127.415 10.3191 128.66 10.5309C128.776 10.5492 128.855 10.6606 128.835 10.7774C128.82 10.8687 128.749 10.9363 128.665 10.9527C127.539 11.1718 126.429 11.4731 125.349 11.851C111.404 16.9926 104.205 33.8453 100.156 47.1466C99.4966 49.3632 98.8917 51.6072 98.4143 53.8658C98.3906 53.9808 98.2758 54.0557 98.161 54.0301C98.0717 54.0119 98.0079 53.9388 97.9934 53.853L97.9824 53.7855L97.9843 53.7873Z" fill="#3A6A0A"/>
</g>
</g>
<defs>
<clipPath id="clip0_690_6210">
<rect width="126.154" height="170" fill="white" transform="translate(35.5244 5)"/>
</clipPath>
</defs>
</svg>
