<svg width="200" height="180" viewBox="0 0 200 180" fill="none" xmlns="http://www.w3.org/2000/svg">
<path d="M36.7279 42.417C35.9637 49.4034 35.9595 56.4378 37.4547 63.3221C42.8522 88.1713 62.7599 107.952 85.2893 118.226C113.175 130.946 146.393 132.938 175.178 121.921C175.213 124.003 175.74 126.108 176.933 127.851C169.52 135.379 160.659 141.749 150.658 145.366C104.164 162.183 38.4688 132.435 22.0179 85.3621C18.8485 76.2954 17.5637 63.9822 19.1734 54.497C19.8272 50.6404 23.9691 44.2037 26.1952 40.8802C29.0022 40.6991 31.9009 40.3013 34.5976 41.3654C35.3369 41.657 35.8845 42.3108 36.7279 42.417Z" fill="#FAAE0E"/>
<path d="M177.37 115.554C176.956 116.789 175.931 117.549 175.511 118.855C175.153 119.965 175.155 120.775 175.176 121.924C146.391 132.942 113.172 130.947 85.287 118.23C62.7597 107.956 42.8521 88.1731 37.4524 63.326C35.9573 56.4416 35.9614 49.4073 36.7257 42.4209C36.7944 42.4292 36.8756 42.4251 36.9443 42.4209C37.8647 42.3626 40.322 40.5468 41.5527 40.1157C43.4851 39.4369 45.1594 39.8283 46.8877 39.2953C47.121 39.2224 47.2334 38.9163 47.2584 38.9079C47.6541 38.7767 48.8973 40.199 49.2284 40.5613C53.7138 45.4758 55.513 53.2431 58.191 59.2633C70.0189 85.8449 92.9169 101.182 120.758 107.546C132.237 110.169 143.673 110.832 155.291 112.291C162.669 113.218 170.005 114.58 177.368 115.559L177.37 115.554Z" fill="#FDC827"/>
<path d="M32.3385 119.068C32.5468 119.101 32.7404 119.082 32.8737 119.291C54.9866 146.928 92.0615 160.428 127.025 159.05C138.426 158.6 149.086 155.922 159.087 150.514C160.874 149.548 162.979 147.876 164.662 147.078C164.899 146.966 165.045 146.953 165.303 146.961C166.23 146.993 169.383 148.511 170.397 149C175.213 151.324 182.127 155.397 180.832 161.736C179.691 167.317 168.125 170.182 163.41 171.092C142.668 175.09 114.762 172.162 93.9419 168.208C72.1518 164.068 41.5365 155.766 23.9007 142.12C13.5595 134.117 11.9873 125.048 26.0227 120.323C27.2846 119.899 31.1787 118.885 32.3385 119.068Z" fill="#D8DFE8"/>
<path d="M176.931 127.852C178.224 129.739 180.802 131.374 183.074 130.268C180.267 134.624 176.269 138.054 172.427 141.463L165.301 146.958C165.045 146.95 164.897 146.962 164.659 147.075C162.977 147.872 160.872 149.545 159.085 150.511C149.083 155.921 138.423 158.599 127.022 159.047C92.0611 160.425 54.9862 146.925 32.8712 119.288C32.738 119.079 32.5443 119.098 32.3361 119.065C31.93 117.817 30.8471 116.789 30.0933 115.71C18.0863 98.5136 11.7433 78.3436 17.9696 57.5739C18.2612 56.6014 18.6402 55.3499 19.1733 54.4961C17.5615 63.9835 18.8484 76.2945 22.0178 85.3612C38.4666 132.434 104.164 162.185 150.657 145.365C160.659 141.748 169.518 135.376 176.933 127.85L176.931 127.852Z" fill="#F3930A"/>
<path d="M51.2098 19.138C48.7151 21.3141 44.8231 21.1849 41.7745 20.4561C39.1132 19.821 37.5181 18.3467 35.6314 16.5037C35.4419 14.1881 34.8255 13.4301 35.8105 10.8625C38.2927 4.39049 52.403 6.95391 53.8898 11.9516C54.4958 13.9861 52.7612 17.7844 51.2098 19.138Z" fill="#54290D"/>
<path d="M47.2584 38.9038C47.2334 38.9122 47.1231 39.2204 46.8877 39.2912C45.1614 39.8243 43.4851 39.4328 41.5527 40.1116C40.322 40.5427 37.8668 42.3606 36.9443 42.4168C37.7877 34.9536 39.968 27.7193 41.7713 20.4539C44.8199 21.1827 48.7119 21.3118 51.2066 19.1357C47.7311 25.183 45.7508 31.9049 47.2563 38.9018L47.2584 38.9038Z" fill="#FAAE0E"/>
<path d="M41.7737 20.4563C39.9703 27.7217 37.7901 34.9539 36.9467 42.4192C36.878 42.4234 36.7947 42.4276 36.728 42.4192C35.8847 42.313 35.337 41.6591 34.5978 41.3676C31.9031 40.3035 29.0024 40.7013 26.1953 40.8824C27.8966 38.3419 29.6271 36.0013 31.5679 33.6315C32.3925 32.6237 33.1484 32.3176 33.7606 30.9952C35.7618 26.6722 36.0096 21.1726 35.6285 16.5039C37.5152 18.3489 39.1103 19.8211 41.7716 20.4563H41.7737Z" fill="#F3930A"/>
<path d="M183.077 130.269C180.805 131.375 178.227 129.74 176.934 127.853C175.741 126.11 175.216 124.007 175.178 121.923C175.158 120.775 175.156 119.963 175.514 118.853C175.934 117.548 176.957 116.788 177.373 115.553C178.392 115.688 179.181 115.465 180.322 115.786C184.568 116.979 186.101 122.933 185.17 126.76C184.905 127.851 184.126 129.757 183.079 130.267L183.077 130.269Z" fill="#54290D"/>
</svg>
