<svg width="257" height="227" viewBox="0 0 257 227" fill="none" xmlns="http://www.w3.org/2000/svg">
<path d="M66.1188 67.0307C65.3684 73.8909 65.3643 80.7981 66.8324 87.558C72.1324 111.958 91.6803 131.381 113.802 141.47C141.184 153.959 173.802 155.916 202.066 145.097C202.101 147.142 202.619 149.209 203.79 150.921C196.511 158.313 187.81 164.568 177.989 168.119C132.336 184.633 67.8282 155.421 51.6746 109.2C48.5625 100.297 47.3009 88.2062 48.8815 78.8923C49.5236 75.1054 53.5906 68.7851 55.7764 65.5217C58.5328 65.3438 61.3791 64.9532 64.027 65.9981C64.7529 66.2844 65.2907 66.9264 66.1188 67.0307Z" fill="#FAAE0E"/>
<path d="M204.219 138.846C203.812 140.058 202.806 140.805 202.393 142.087C202.041 143.177 202.043 143.972 202.064 145.101C173.799 155.92 141.181 153.961 113.8 141.473C91.6795 131.385 72.1316 111.959 66.8296 87.5613C65.3614 80.8014 65.3655 73.8942 66.116 67.034C66.1834 67.0422 66.2632 67.0381 66.3307 67.034C67.2344 66.9768 69.6472 65.1938 70.8557 64.7705C72.7532 64.1039 74.3972 64.4883 76.0944 63.9649C76.3234 63.8933 76.4338 63.5927 76.4583 63.5845C76.8468 63.4557 78.0675 64.8523 78.3927 65.2081C82.7971 70.0337 84.5637 77.6606 87.1933 83.572C98.8075 109.673 121.292 124.733 148.63 130.982C159.901 133.558 171.131 134.208 182.538 135.642C189.783 136.552 196.986 137.889 204.217 138.85L204.219 138.846Z" fill="#FDC827"/>
<path d="M61.8085 142.295C62.013 142.328 62.2032 142.309 62.334 142.514C84.0473 169.652 120.452 182.908 154.784 181.554C165.979 181.113 176.446 178.483 186.267 173.173C188.021 172.224 190.088 170.582 191.74 169.799C191.974 169.689 192.117 169.676 192.37 169.684C193.28 169.715 196.376 171.206 197.372 171.686C202.101 173.968 208.89 177.968 207.618 184.192C206.497 189.672 195.141 192.486 190.512 193.379C170.144 197.305 142.742 194.43 122.299 190.547C100.902 186.482 70.8402 178.33 53.5232 164.93C43.3689 157.072 41.8251 148.167 55.6068 143.528C56.8459 143.111 60.6696 142.115 61.8085 142.295Z" fill="#D8DFE8"/>
<path d="M203.788 150.923C205.057 152.776 207.589 154.381 209.82 153.295C207.063 157.573 203.137 160.94 199.365 164.288L192.368 169.684C192.116 169.676 191.971 169.688 191.738 169.798C190.086 170.581 188.018 172.223 186.264 173.172C176.443 178.484 165.976 181.114 154.781 181.554C120.452 182.907 84.0467 169.651 62.3314 142.513C62.2006 142.309 62.0104 142.327 61.8059 142.294C61.4072 141.07 60.3439 140.059 59.6037 139C47.8137 122.115 41.5853 102.309 47.6992 81.9147C47.9854 80.9598 48.3576 79.7309 48.881 78.8926C47.2984 88.2085 48.562 100.297 51.6742 109.2C67.8257 155.422 132.336 184.635 177.989 168.12C187.81 164.568 196.508 158.311 203.79 150.921L203.788 150.923Z" fill="#F3930A"/>
<path d="M80.3386 44.1725C77.889 46.3093 74.0674 46.1825 71.0738 45.4668C68.4606 44.8432 66.8944 43.3955 65.0418 41.5859C64.8557 39.3121 64.2505 38.5678 65.2177 36.0467C67.655 29.6916 81.5103 32.2086 82.9702 37.1161C83.5653 39.1138 81.862 42.8434 80.3386 44.1725Z" fill="#54290D"/>
<path d="M76.4578 63.5808C76.4332 63.589 76.3248 63.8916 76.0938 63.9611C74.3987 64.4846 72.7527 64.1002 70.8551 64.7667C69.6467 65.19 67.2359 66.9751 66.3301 67.0303C67.1582 59.7019 69.2991 52.5984 71.0698 45.4643C74.0633 46.1799 77.885 46.3067 80.3346 44.1699C76.9219 50.1079 74.9773 56.7084 76.4557 63.5787L76.4578 63.5808Z" fill="#FAAE0E"/>
<path d="M71.0722 45.4669C69.3015 52.601 67.1606 59.7025 66.3325 67.0329C66.265 67.037 66.1832 67.0411 66.1178 67.0329C65.2896 66.9286 64.7519 66.2866 64.026 66.0003C61.3801 64.9554 58.5317 65.346 55.7754 65.5239C57.446 63.0293 59.1451 60.731 61.0509 58.404C61.8606 57.4144 62.6028 57.1138 63.204 55.8154C65.169 51.5705 65.4123 46.1703 65.0381 41.5859C66.8907 43.3976 68.457 44.8432 71.0702 45.4669H71.0722Z" fill="#F3930A"/>
<path d="M209.822 153.294C207.591 154.38 205.059 152.775 203.79 150.922C202.618 149.211 202.103 147.145 202.066 145.099C202.046 143.972 202.043 143.175 202.395 142.085C202.808 140.803 203.812 140.056 204.221 138.844C205.221 138.977 205.996 138.758 207.117 139.073C211.286 140.244 212.791 146.09 211.877 149.849C211.617 150.92 210.852 152.791 209.824 153.292L209.822 153.294Z" fill="#54290D"/>
</svg>
